<svg width="400" height="200" viewBox="0 0 400 200" fill="none" xmlns="http://www.w3.org/2000/svg">
<path d="M266.682 142.547L129.243 142.537L133.338 138.246L270.382 138.27C269.331 140.363 268.136 140.776 266.686 142.552L266.682 142.547Z" fill="#EB2B30"/>
<path d="M209.926 99.1833C208.27 100.292 206.537 100.518 204.478 100.513L159.56 100.441C158.566 100.441 157.827 99.2217 157.621 98.6265C157.376 97.9161 157.697 96.7449 158.427 96.0201L195.248 59.3049C196.549 58.3449 197.715 57.6873 199.261 57.4473L211.832 57.5577L177.987 91.3641L217.568 91.4361L209.931 99.1785L209.926 99.1833Z" fill="#EB2B30"/>
<path d="M188.686 87.0485L197.48 78.0437L216.781 77.9861L221.802 72.7301L236.739 57.4997L245.725 57.4805C246.656 57.4805 247.592 57.9701 247.899 58.4789C248.206 58.9877 248.514 60.6149 247.942 61.1861L222.037 87.0869L188.677 87.0485H188.686Z" fill="#EB2B30"/>
<path d="M215.389 73.6847L201.982 73.6607L218.091 57.5039L231.248 57.7199L215.389 73.6847Z" fill="#EB2B30"/>
<path d="M180.57 128.18L180.459 117.279C180.45 116.305 179.725 114.443 178.573 114.399C175.866 114.303 173.84 117.02 173.835 119.555L173.821 128.118C172.208 128.295 170.806 128.372 169.146 127.959L169.035 113.819C169.03 112.902 169.189 110.958 169.928 110.655C171.378 110.305 172.717 110.411 174.066 110.78C173.422 111.755 173.096 112.503 173.874 113.195C175.357 111.251 177.286 110.094 179.346 110.094C181.534 110.094 183.344 111.164 184.544 113.559C185.811 110.79 189.829 109.359 192.666 110.588C194.034 111.179 195.786 112.321 195.8 114.452L195.915 128.166L191.576 128.175L191.557 117.203C191.557 115.998 190.534 114.26 189.238 114.366C186.646 114.577 185.082 116.953 185.034 119.319L184.861 128.175L180.574 128.185L180.57 128.18Z" fill="#465660"/>
<path d="M204.454 134.616C202.789 135.077 201.33 134.986 199.712 134.813V110.573H204.07C203.965 111.254 203.605 111.869 204.056 112.603C206.71 109.613 211.126 109.186 214.266 112.022C218.394 115.747 218.288 123.413 214.035 126.907C210.982 129.418 207.205 129.144 204.603 126.72L204.454 134.621V134.616ZM212.12 122.189C213.176 119.357 212.83 116.352 210.325 114.73C208.789 113.736 206.158 114.336 205.189 115.92C204.152 117.61 204.171 119.549 204.589 121.435C204.982 123.206 206.514 124.627 208.174 124.67C209.73 124.714 211.462 123.946 212.115 122.194L212.12 122.189Z" fill="#465660"/>
<path d="M242.254 124.542C244.275 124.676 246.147 124.402 247.678 122.77C248.629 123.711 249.272 124.532 249.718 125.986C247.217 128.382 243.416 129.38 239.845 128.271C236.883 127.35 233.773 124.671 233.307 121.09C232.817 117.318 233.984 113.574 237.022 111.678C240.061 109.782 244.169 109.441 247.28 111.922C249.675 113.838 250.515 117.351 249.848 120.414L238.035 120.577C238.395 122.838 239.993 124.393 242.254 124.542ZM245.35 117.164C245.182 114.519 243.469 113.785 241.688 113.838C239.907 113.89 238.587 114.922 238.165 117.13L245.355 117.164H245.35Z" fill="#465660"/>
<path d="M150.622 126.213C149.269 124.456 149.513 121.206 150.91 119.761C153.31 117.28 156.646 117.121 160.078 117.208C160.621 117.222 160.568 115.725 160.208 115.326C158.297 113.238 155.225 114.016 152.441 115.787C151.923 114.515 151.395 113.646 150.833 112.465C153.19 110.699 156.32 109.773 159.123 110.267C162.737 110.905 165.161 113.123 165.152 116.819L165.113 127.945C163.601 128.377 162.353 128.315 161.024 128.161L160.707 126.27C158.177 129.256 153.344 129.745 150.627 126.217L150.622 126.213ZM155.312 124.672C156.661 125.248 158.297 124.845 159.147 123.889C160.045 122.881 160.75 121.734 160.328 120.006C157.654 121 155.283 119.997 154.376 122.464C154.145 123.088 154.443 124.302 155.312 124.672Z" fill="#465660"/>
<path d="M147.896 128.199L133.083 128.214L133.112 107.838L137.374 103.748L137.413 123.898L147.91 123.908L147.896 128.199Z" fill="#465660"/>
<path d="M231.339 114.875C227.955 114.428 225.32 116.468 225.224 119.732L224.979 127.96C223.381 128.363 221.95 128.286 220.309 128.128L220.405 110.771C222.123 110.358 223.457 110.464 225.128 110.574C225.157 111.592 224.936 112.35 225.358 113.512C226.51 111.217 228.733 110.132 231.329 110.579L231.339 114.875Z" fill="#465660"/>
<path d="M259.213 128.203C256.28 128.727 253.635 127.191 253.592 124.119L253.39 108.312L258.051 103.824L258.238 123.768C258.934 124.21 259.961 124.186 260.321 124.517C260.72 124.882 260.782 127.287 260.561 127.925C260.374 128.467 259.573 128.141 259.208 128.203H259.213Z" fill="#465660"/>
<path d="M269.283 128.203C266.35 128.727 263.705 127.191 263.662 124.119L263.46 108.312L268.121 103.824L268.308 123.778C269.024 124.224 270.022 124.167 270.377 124.507C270.804 124.92 270.852 127.291 270.636 127.925C270.449 128.467 269.643 128.141 269.283 128.203Z" fill="#465660"/>
</svg>
