<svg width="400" height="200" viewBox="0 0 400 200" fill="none" xmlns="http://www.w3.org/2000/svg">
<path d="M200 135.088C229.046 135.088 252.505 122.351 252.505 106.65C252.505 90.9494 229.046 78.2129 200 78.2129C170.954 78.2129 147.495 90.9529 147.495 106.65C147.495 122.348 170.954 135.088 200 135.088Z" fill="#ED1C24"/>
<path d="M167.21 81.4986C167.915 80.2316 168.758 79.4266 169.625 79.0486C170.468 78.6706 171.335 78.7511 172.093 79.2901C172.093 79.2901 181.423 85.9156 184.596 88.1486C185.001 88.4461 185.329 88.7961 185.463 89.2266C185.597 89.6571 185.597 90.0876 185.329 90.6266L184.948 91.2986L184.568 91.9706C184.268 92.4816 183.891 92.7511 183.457 92.8316C183.024 92.9121 182.534 92.8316 182.075 92.6426C178.469 91.1621 167.863 86.7976 167.863 86.7976C166.995 86.4476 166.481 85.7756 166.343 84.8586C166.209 83.9416 166.453 82.8111 167.158 81.5476L167.21 81.4951V81.4986ZM232.79 81.4986C232.085 80.2316 231.242 79.4266 230.375 79.0486C229.532 78.6706 228.665 78.7511 227.907 79.2901C227.907 79.2901 218.577 85.9156 215.404 88.1486C214.999 88.4461 214.671 88.7961 214.537 89.2266C214.375 89.6291 214.403 90.0876 214.671 90.6266L215.052 91.2986L215.432 91.9706C215.732 92.4816 216.109 92.7511 216.543 92.8316C216.976 92.9121 217.466 92.8316 217.925 92.6426C221.531 91.1621 232.137 86.7976 232.137 86.7976C233.005 86.4476 233.519 85.7756 233.657 84.8586C233.794 83.9416 233.547 82.8111 232.842 81.5476L232.79 81.4951V81.4986ZM200.814 85.6741C201.438 85.6741 201.9 85.4571 202.196 85.1071C202.496 84.7571 202.683 84.2986 202.739 83.7876L204.583 68.1706C204.692 67.2291 204.311 66.4206 203.525 65.8291C202.739 65.2621 201.519 64.9121 199.972 64.9121C198.424 64.9121 197.205 65.2621 196.419 65.8291C195.633 66.3961 195.252 67.2291 195.361 68.1706L197.205 83.7876C197.258 84.2986 197.448 84.7571 197.748 85.1071C198.047 85.4571 198.505 85.6741 199.129 85.6741H200.811H200.814ZM192.703 86.6961C193.137 86.4266 193.355 86.1046 193.408 85.7266C193.461 85.3766 193.408 84.9986 193.218 84.6486L188.364 74.6596C188.064 74.0401 187.522 73.6901 186.817 73.6621C186.112 73.6096 185.216 73.8791 184.212 74.4986C183.235 75.1181 182.611 75.7901 182.312 76.4376C182.04 77.0851 182.121 77.7291 182.53 78.2681L189.446 86.9936C189.689 87.2911 190.017 87.5326 190.342 87.6411C190.666 87.7496 191.099 87.6936 191.537 87.4241L192.108 87.0741L192.679 86.7241L192.707 86.6961H192.703ZM207.864 87.0461L208.435 87.3961C208.869 87.6656 209.278 87.7181 209.63 87.6131C209.983 87.5046 210.282 87.2911 210.526 86.9656L217.442 78.2401C217.875 77.7011 217.956 77.0816 217.66 76.4096C217.389 75.7621 216.765 75.0621 215.76 74.4706C214.784 73.8511 213.889 73.6096 213.155 73.6341C212.45 73.6866 211.907 74.0366 211.608 74.6316L206.754 84.6206C206.592 84.9706 206.511 85.3486 206.564 85.6986C206.616 86.0486 206.835 86.3986 207.269 86.6681L207.84 87.0181L207.868 87.0461H207.864Z" fill="#FFF200"/>
<path d="M234.119 113.328C231.433 113.328 229.374 111.361 229.374 108.481C229.374 105.6 231.408 103.553 234.119 103.553C236.829 103.553 238.92 105.439 238.92 108.481C238.92 111.522 236.805 113.328 234.119 113.328ZM233.086 117.745C235.5 117.745 237.749 116.884 238.916 114.917V116.587C238.916 117.017 239.216 117.315 239.649 117.315H242.931C243.365 117.315 243.664 117.017 243.664 116.587V100.27C243.664 99.8392 243.365 99.5417 242.931 99.5417H239.649C239.216 99.5417 238.916 99.8392 238.916 100.27V101.911C237.668 100.109 235.5 99.1637 233.086 99.1637C228.123 99.1637 224.407 102.933 224.407 108.509C224.407 114.084 228.123 117.773 233.086 117.773M223.759 103.42C224.164 102.503 224.735 101.642 225.359 100.914C225.659 100.564 225.659 100.025 225.169 99.7272C224.654 99.4297 223.649 99.3772 222.916 99.3772C221.101 99.3772 218.686 99.8882 217.22 102.044L216.786 102.692V100.27C216.786 99.8392 216.487 99.5417 216.053 99.5417H212.69C212.257 99.5417 211.957 99.8392 211.957 100.27V116.587C211.957 117.017 212.257 117.315 212.69 117.315H216.053C216.487 117.315 216.786 117.017 216.786 116.587V109.772C216.786 106.3 218.767 104.197 221.749 104.197C224.732 104.197 223.35 104.414 223.783 103.388L223.755 103.416L223.759 103.42ZM200 113.328C197.371 113.328 195.418 111.361 195.418 108.481C195.418 105.6 197.399 103.553 200 103.553C202.602 103.553 204.801 105.439 204.801 108.481C204.801 111.522 202.686 113.328 200 113.328ZM198.996 117.745C201.41 117.745 203.659 116.884 204.826 114.917V116.587C204.826 117.017 205.126 117.315 205.559 117.315H208.841C209.274 117.315 209.574 117.017 209.574 116.587V100.27C209.574 99.8392 209.274 99.5417 208.841 99.5417H205.559C205.126 99.5417 204.826 99.8392 204.826 100.27V101.911C203.578 100.109 201.41 99.1637 198.996 99.1637C194.251 99.1637 190.479 102.933 190.479 108.509C190.479 114.084 194.276 117.773 198.996 117.773M181.205 117.745C184.487 117.745 186.82 116.667 188.336 114.837C188.688 114.406 188.636 113.976 188.202 113.598L186.387 112.009C186.087 111.792 185.816 111.711 185.438 112.009C184.272 113.087 182.752 113.598 181.208 113.598C178.66 113.598 177.141 112.089 176.679 109.909H186.009C188.043 109.909 189.073 108.887 189.073 106.787C189.073 103.017 186.143 99.1112 180.694 99.1112C175.244 99.1112 171.962 103.098 171.962 108.295C171.962 113.493 175.977 117.693 181.212 117.693M162.547 117.745C167.211 117.745 170.63 114.837 170.63 110.798C170.63 106.759 168.296 104.792 163.633 103.633C160.703 102.905 159.403 102.394 159.403 100.886C159.403 99.3772 160.785 98.7857 162.766 98.7857C164.747 98.7857 166.047 99.3772 167.567 100.294C167.919 100.511 168.381 100.427 168.596 99.9967L169.897 97.6797C170.115 97.3297 170.115 96.8712 169.763 96.6017C168.162 95.3102 165.533 94.3652 162.766 94.3652C157.883 94.3652 154.521 97.0322 154.521 101.096C154.521 105.159 157.069 107.021 161.652 108.176C164.066 108.768 165.586 109.415 165.586 111.004C165.586 112.593 164.419 113.321 162.522 113.321C160.626 113.321 158.588 112.593 156.988 111.302C156.636 111.004 156.255 111.004 155.959 111.382L154.277 113.832C153.978 114.182 154.059 114.641 154.411 114.91C156.445 116.713 159.674 117.738 162.494 117.738M184.406 106.328H176.837C177.352 104.442 178.653 103.206 180.986 103.206C183.32 103.206 184.268 104.578 184.402 106.328" fill="white"/>
<path d="M216.271 128.948L216.081 128.84H215.947C214.918 129.029 213.86 129.19 212.827 129.351H212.774C212.45 129.568 212.232 129.729 212.069 129.918L211.907 130.107V130.187C211.907 130.187 211.935 130.215 211.96 130.215L215.542 129.648H215.594C215.919 129.459 216.109 129.298 216.218 129.109L216.271 129.029V128.92V128.948Z" fill="white"/>
<path d="M196.937 128.381C196.394 128.381 195.932 128.839 195.932 129.35C195.932 129.917 196.366 130.348 196.937 130.348C197.508 130.348 197.941 129.889 197.941 129.378C197.941 128.839 197.48 128.381 196.937 128.381Z" fill="white"/>
<path d="M199.267 128.381C198.724 128.381 198.291 128.811 198.291 129.35C198.291 129.917 198.724 130.348 199.267 130.348C199.81 130.348 200.272 129.917 200.272 129.378C200.272 128.839 199.838 128.381 199.267 128.381Z" fill="white"/>
<path d="M180.119 119.712V127.412C180.119 127.573 180.253 127.709 180.419 127.709H181.91C182.072 127.709 182.209 127.576 182.209 127.412V119.712C182.209 119.551 182.075 119.414 181.91 119.414H180.39C180.228 119.414 180.091 119.547 180.091 119.712H180.119Z" fill="white"/>
<path d="M188.826 119.441C188.664 119.441 188.526 119.574 188.526 119.739V125.178C188.526 126.739 189.531 127.708 191.103 127.708H197.748C198.319 127.708 198.805 127.575 199.211 127.306C199.616 127.575 200.134 127.708 200.702 127.708H208.756C209.514 127.708 210.113 127.491 210.6 127.036L210.709 126.928C211.305 127.439 211.985 127.708 212.771 127.708C213.557 127.708 214.181 127.467 214.643 126.98C215.214 127.463 216.272 127.708 217.058 127.708C218.549 127.708 219.934 126.711 219.934 125.23V121.919C219.934 121.758 219.8 121.622 219.634 121.622H218.143C217.981 121.622 217.844 121.755 217.844 121.919V125.258C217.844 125.906 217.41 126.175 216.839 126.175C216.458 126.175 215.916 126.042 215.62 125.773V121.923C215.62 121.762 215.51 121.625 215.32 121.625H213.829C213.667 121.625 213.529 121.758 213.529 121.923V125.262C213.529 125.909 213.096 126.179 212.525 126.179C212.119 126.179 211.576 126.046 211.249 125.801V121.923C211.249 121.762 211.115 121.625 210.949 121.625H209.486C209.324 121.625 209.186 121.758 209.186 121.923V125.073C209.186 125.72 208.943 125.99 208.372 125.99H201.051C200.536 125.99 200.293 125.773 200.236 125.318V123.081C200.236 122.92 200.102 122.784 199.937 122.784H198.474C198.312 122.784 198.174 122.917 198.174 123.081V125.101C198.174 125.748 197.931 126.018 197.332 126.018H191.445C190.874 126.018 190.631 125.748 190.631 125.048V119.77C190.631 119.609 190.497 119.473 190.331 119.473H188.812V119.445L188.826 119.441Z" fill="white"/>
<path d="M184.895 122.404C184.705 122.404 184.571 122.565 184.571 122.726V127.356C184.571 128.326 184.138 128.893 183.242 129.026H183.052C182.89 129.026 182.728 129.187 182.728 129.348V130.289C182.728 130.478 182.89 130.639 183.08 130.611C183.27 130.583 183.38 130.611 183.404 130.611C184.381 130.531 185.139 130.289 185.6 129.859C186.253 129.292 186.549 128.431 186.549 127.192V122.722C186.549 122.533 186.386 122.4 186.224 122.4H184.895V122.404Z" fill="white"/>
</svg>
