<svg width="190" height="73" viewBox="0 0 190 73" fill="none" xmlns="http://www.w3.org/2000/svg">
<path d="M77.8136 57.517C77.6744 57.7118 77.4796 57.851 77.2197 57.9253C76.9506 57.9995 76.598 57.9995 76.3474 57.8974C75.8742 57.7025 75.6143 57.2478 75.6422 56.589C75.67 55.9394 75.8092 55.4383 76.0969 55.0207C76.301 54.7238 76.5701 54.4639 76.932 54.334C77.0527 54.2876 77.2104 54.2598 77.3775 54.2598C77.5724 54.2598 77.7579 54.3062 77.9157 54.3711C78.0642 54.4361 78.2219 54.5289 78.3054 54.631C78.3426 54.6774 78.3704 54.733 78.4075 54.7794C78.4818 54.8815 78.5467 54.965 78.6117 55.0857C78.6395 55.1413 78.6859 55.2063 78.6859 55.2713C78.6766 55.3641 78.5746 55.4383 78.5003 55.494C78.4446 55.5404 78.2962 55.6332 78.2034 55.5775C78.157 55.5589 78.1384 55.4383 78.1199 55.3733C78.092 55.2898 78.0642 55.2156 78.0363 55.1692C77.9528 54.965 77.8507 54.7516 77.693 54.6402C77.4517 54.4825 77.1455 54.5474 76.9599 54.6774C76.765 54.8073 76.6258 55.0021 76.5145 55.1877C76.2917 55.5496 76.0969 56.1343 76.2082 56.7467C76.2546 57.0066 76.3381 57.2293 76.5145 57.3963C76.6722 57.5541 76.9042 57.684 77.2197 57.6376C77.461 57.6005 77.6651 57.4149 77.7951 57.2571C77.9435 57.0808 78.0456 56.8952 78.1848 56.6911C78.324 56.6818 78.5096 56.7003 78.5467 56.8024C78.5746 56.8859 78.5282 57.0344 78.5003 57.1179C78.4725 57.22 78.4446 57.3128 78.4168 57.4056C78.3054 57.916 78.2127 58.4171 78.157 58.9646C78.1477 59.0759 78.1384 59.2059 78.1106 59.2801C78.0827 59.3358 77.9992 59.3822 77.9157 59.41C77.8415 59.4379 77.7023 59.4657 77.6651 59.4007C77.6373 59.3543 77.6651 59.243 77.6744 59.178C77.7487 58.6491 77.8043 58.0923 77.8136 57.517ZM88.9122 55.596C88.7451 55.9116 88.5503 56.1992 88.3183 56.4034C88.3647 56.0415 88.4946 55.7445 88.6152 55.3919C88.6709 55.2434 88.7266 55.0857 88.8101 54.9372C88.8751 54.8073 88.9957 54.5753 89.1813 54.5753C89.3669 54.566 89.2927 54.7609 89.2463 54.8815C89.1535 55.1413 89.0328 55.3641 88.9122 55.596ZM88.1327 57.8974C88.1327 57.4706 88.2162 57.1365 88.2719 56.7653C88.541 56.4683 88.7915 56.1528 89.0235 55.7816C89.1906 55.5218 89.3205 55.2249 89.4226 54.8722C89.4504 54.7702 89.5061 54.6217 89.4875 54.501C89.469 54.3433 89.2463 54.2783 89.0421 54.2876C88.7637 54.3062 88.5967 54.4918 88.4668 54.7052C88.3368 54.9186 88.2255 55.1413 88.142 55.3641C87.9564 55.8744 87.8914 56.4312 87.8079 56.9787C87.6965 57.0808 87.6037 57.2107 87.4831 57.3035C87.446 57.3406 87.4089 57.3778 87.3717 57.4149C87.2418 57.5726 87.1026 57.7211 86.8799 57.7861C86.8242 57.4056 86.9263 57.0251 86.9542 56.6632C86.982 56.292 87.0655 55.9394 87.149 55.6239C87.279 55.6517 87.4645 55.6517 87.5109 55.5496C87.5388 55.4754 87.5017 55.3084 87.4553 55.2713C87.3903 55.2249 87.3068 55.2527 87.2233 55.2249C87.2418 55.1228 87.2511 55.03 87.2697 54.9186C87.279 54.8537 87.3439 54.6866 87.3161 54.6217C87.2975 54.5753 87.1676 54.566 87.1212 54.5846C87.047 54.6217 87.0284 54.798 87.0006 54.9093C86.9634 55.03 86.9263 55.1413 86.8799 55.2341H86.0819C85.9891 55.2341 85.887 55.2341 85.8406 55.262C85.7571 55.3084 85.7571 55.4847 85.8313 55.5496C85.9148 55.6146 86.1375 55.6053 86.286 55.6053C86.4623 55.6053 86.6386 55.596 86.7964 55.6146C86.7686 55.7074 86.7222 55.8002 86.6943 55.8837C86.6479 55.9951 86.6015 56.0972 86.5551 56.1992C86.4159 56.4683 86.2675 56.7467 86.1004 56.9787C86.0169 57.0994 85.887 57.1922 85.8128 57.3128C85.7664 57.387 85.7385 57.5262 85.8592 57.5262C85.9334 57.5262 85.9983 57.4242 86.0447 57.3685C86.2025 57.1829 86.3788 56.9694 86.4902 56.7839C86.4623 56.9509 86.3881 57.1365 86.3603 57.3499C86.3417 57.452 86.3417 57.5634 86.3324 57.6654C86.3139 57.8325 86.286 58.0088 86.351 58.1294C86.4252 58.2686 86.6665 58.2501 86.815 58.1851C86.9913 58.1016 87.149 57.9345 87.3161 57.7953C87.4553 57.6747 87.5759 57.5262 87.6965 57.4056C87.7151 57.387 87.7337 57.3592 87.7522 57.3685C87.7615 57.6283 87.678 57.9902 87.8172 58.148C87.8729 58.2129 87.9935 58.2686 88.1141 58.2408C88.2162 58.2129 88.2812 58.083 88.3276 57.9717C88.4668 57.619 88.6709 57.3035 88.8751 57.0715C88.9771 57.387 89.0514 57.7675 89.2741 57.9624C89.3298 58.0088 89.404 58.0552 89.4782 58.0645C89.6082 58.083 89.7381 58.0273 89.8309 57.9717C90.0443 57.8603 90.1928 57.7304 90.3505 57.5819C90.4248 57.5077 90.5269 57.4334 90.5269 57.3128C90.4341 57.285 90.3413 57.3314 90.2763 57.3685C90.1278 57.452 90.0443 57.5726 89.8958 57.6654C89.8216 57.7118 89.7195 57.7675 89.636 57.7397C89.5339 57.7118 89.5154 57.5819 89.5061 57.452C89.4968 57.3221 89.4875 57.1829 89.4782 57.0808C89.4597 56.8952 89.4318 56.5147 89.2648 56.4776C89.1906 56.4591 89.0792 56.5055 89.0143 56.5333C88.9122 56.589 88.8101 56.7282 88.7359 56.8303C88.5039 57.1365 88.2904 57.5355 88.1327 57.8974ZM101.106 56.3106H101.115C101.273 56.3013 101.431 56.3663 101.505 56.4776C101.616 56.6354 101.616 56.9602 101.551 57.1643C101.486 57.3685 101.328 57.5262 101.152 57.619C101.059 57.6747 100.948 57.7211 100.846 57.7397C100.447 57.8046 100.382 57.3128 100.465 56.9787C100.493 56.8767 100.512 56.7746 100.558 56.7096C100.586 56.6725 100.67 56.6261 100.725 56.589C100.855 56.4776 100.874 56.3013 101.106 56.3106ZM95.5101 56.3755C95.5008 56.3848 95.4915 56.4127 95.473 56.4034C95.5194 56.0786 95.64 55.7909 95.7513 55.4661C95.807 55.3177 95.8627 55.1599 95.9277 55.03C95.9926 54.8908 96.0669 54.7516 96.1689 54.6681C96.2153 54.631 96.3916 54.5289 96.4566 54.6217C96.503 54.6959 96.438 54.8351 96.4102 54.9001C96.3081 55.1599 96.1875 55.3826 96.0669 55.6146C95.8998 55.893 95.7328 56.1528 95.5101 56.3755ZM95.2874 57.8974C95.2874 57.5355 95.3523 57.22 95.408 56.9138C95.4173 56.8674 95.4173 56.8117 95.4266 56.7746C95.4358 56.7467 95.4915 56.7003 95.5286 56.6632C95.5658 56.6261 95.6029 56.5797 95.6307 56.5426C96.039 56.0693 96.3916 55.5775 96.5772 54.8908C96.6051 54.7794 96.6608 54.6495 96.6608 54.5382C96.6515 54.3433 96.4102 54.2783 96.2061 54.2876C95.8813 54.3154 95.7421 54.5382 95.6029 54.7702C95.473 54.9836 95.3802 55.1877 95.2966 55.4105C95.1389 55.8373 95.0739 56.292 94.9997 56.7653C94.9904 56.8303 94.9904 56.9138 94.9718 56.9694C94.9533 57.0158 94.8976 57.053 94.8512 57.0994C94.7677 57.1829 94.6656 57.2571 94.6285 57.3685C94.6099 57.4149 94.6192 57.517 94.7027 57.517C94.7584 57.517 94.8327 57.4149 94.8605 57.3778C94.8791 57.3592 94.8976 57.3406 94.9069 57.3406C94.9255 57.6005 94.8327 57.9902 94.9904 58.1387C95.0368 58.1851 95.1482 58.2408 95.2502 58.2222C95.3338 58.2037 95.408 58.1109 95.4451 58.0366C95.4915 57.9438 95.5194 57.851 95.5565 57.7582C95.6864 57.4984 95.8534 57.2386 96.0297 57.053C96.1504 57.3963 96.2339 57.8974 96.568 58.0181C96.8278 58.1109 97.0783 57.9067 97.2268 57.7953C97.6444 57.4891 97.9506 57.0344 98.3404 56.7282C98.4425 56.7746 98.4981 56.8303 98.5074 56.9416C98.5353 57.1458 98.461 57.3128 98.3868 57.4891C98.359 57.5726 98.3218 57.6561 98.294 57.7304C98.2569 57.8139 98.229 57.916 98.2198 57.9902C98.1919 58.2686 98.5445 58.1573 98.7116 58.1016C99.0271 57.9902 99.2869 57.8139 99.4911 57.6005C99.5375 57.5541 99.5653 57.5077 99.6024 57.452C99.6396 57.3963 99.7138 57.3406 99.7602 57.2942C99.7788 57.2757 99.788 57.2478 99.8066 57.2571C99.6952 57.7953 100.094 57.9902 100.503 58.0273C100.772 58.0459 100.994 57.9624 101.171 57.851C101.523 57.6376 101.774 57.3314 101.876 56.8488C101.941 56.5147 101.922 56.1436 101.709 55.9951C101.542 55.8744 101.217 55.9023 100.994 55.9765C101.069 55.828 100.929 55.6981 100.772 55.7352C100.66 55.7631 100.558 55.8466 100.475 55.9208C100.391 55.9951 100.289 56.0786 100.233 56.1714C100.169 56.2735 100.122 56.3848 100.076 56.5055C100.029 56.6168 99.9922 56.7467 99.9272 56.8488C99.8808 56.9045 99.8066 56.9602 99.7509 57.0158C99.621 57.1458 99.5282 57.2478 99.3983 57.3685C99.3333 57.4334 99.2869 57.4984 99.2312 57.5541C99.0828 57.6933 98.8972 57.7675 98.693 57.8232C98.7487 57.5262 98.8786 57.2664 98.9343 56.9138C98.9807 56.5519 98.8879 56.2085 98.6466 56.0879C98.4703 55.9951 98.3311 56.0972 98.2012 56.1807C98.1548 56.2085 98.0249 56.2735 98.0249 56.357C98.0249 56.4498 98.1084 56.4683 98.1455 56.5333C98.0342 56.6632 97.9414 56.8024 97.8393 56.9231C97.7372 57.053 97.598 57.155 97.4867 57.2757C97.4681 57.2942 97.4588 57.3128 97.4495 57.3314C97.3567 57.387 97.2732 57.4706 97.1711 57.5448C97.0969 57.6097 96.9484 57.7118 96.8278 57.7025C96.7164 57.6933 96.6793 57.5541 96.67 57.4149C96.6608 57.2757 96.6515 57.1365 96.6422 57.0344C96.6236 56.8395 96.5958 56.4591 96.4288 56.4312C96.3638 56.4127 96.2432 56.4591 96.1875 56.4869C96.0854 56.5426 95.9833 56.6725 95.9091 56.7746C95.6586 57.1365 95.4637 57.5262 95.2874 57.8974ZM105.031 58.5284C105.087 58.482 105.17 58.4078 105.226 58.3892C105.402 58.5284 105.755 58.9368 105.514 59.2151C105.402 59.3451 105.152 59.4379 104.92 59.4379C104.725 59.4379 104.558 59.3543 104.576 59.1131C104.586 59.0017 104.66 58.9089 104.725 58.8254C104.808 58.7326 104.92 58.6305 105.031 58.5284ZM107.527 55.6424C107.36 55.9394 107.175 56.2085 106.952 56.4034C106.998 56.0415 107.119 55.7538 107.249 55.4105C107.305 55.262 107.36 55.1042 107.444 54.9557C107.509 54.8258 107.592 54.6681 107.731 54.6031C107.834 54.5567 107.963 54.5753 107.945 54.7238C107.936 54.8073 107.899 54.9001 107.861 54.9836C107.759 55.2063 107.639 55.4383 107.527 55.6424ZM106.766 57.8974C106.757 57.5726 106.813 57.3221 106.859 57.0437C106.878 56.9509 106.868 56.8488 106.906 56.7653C106.924 56.7282 106.971 56.6911 107.008 56.6539C107.258 56.3848 107.453 56.1064 107.657 55.7909C107.824 55.5311 107.954 55.2249 108.047 54.8908C108.075 54.7887 108.131 54.6402 108.121 54.5289C108.112 54.3433 107.871 54.2783 107.667 54.2876C107.258 54.3154 107.1 54.6866 106.943 54.9836C106.85 55.1692 106.766 55.3641 106.701 55.5775C106.59 55.958 106.525 56.3755 106.46 56.7931C106.451 56.8581 106.451 56.9323 106.432 56.9787C106.414 57.0344 106.33 57.0901 106.284 57.1365C106.228 57.1829 106.172 57.2478 106.135 57.2942C106.108 57.3221 106.108 57.3685 106.08 57.3963C106.043 57.4613 105.968 57.5077 105.913 57.5726C105.848 57.6283 105.792 57.684 105.727 57.7304C105.588 57.8232 105.467 57.9345 105.328 58.0181C105.17 57.8789 105.022 57.7211 104.929 57.5262C104.873 57.4056 104.855 57.285 104.883 57.155C104.957 56.8117 105.272 56.6261 105.504 56.4405C105.588 56.3755 105.653 56.3106 105.746 56.2364C105.82 56.1714 105.922 56.0786 105.95 55.9951C105.968 55.958 105.968 55.8744 105.959 55.8373C105.885 55.6517 105.541 55.7631 105.412 55.828C105.263 55.9023 105.152 55.9858 105.059 56.0879C104.883 56.2827 104.743 56.5147 104.669 56.7746C104.66 56.8117 104.66 56.8674 104.641 56.9045C104.632 56.9323 104.586 56.9602 104.549 56.988C104.428 57.0994 104.289 57.2014 104.214 57.3314C104.159 57.3406 104.122 57.3963 104.075 57.4334C104.029 57.4706 103.982 57.4984 103.936 57.5355C103.908 57.5634 103.871 57.6283 103.815 57.6283C103.769 57.619 103.741 57.4984 103.723 57.4334C103.704 57.3499 103.686 57.2757 103.686 57.1829C103.686 57.0715 103.76 56.8117 103.676 56.7467C103.621 56.7003 103.491 56.7282 103.407 56.7282C103.333 56.9973 103.184 57.2293 102.999 57.4149C102.943 57.4706 102.869 57.5634 102.767 57.5541C102.655 57.5448 102.618 57.387 102.618 57.2571C102.618 56.8767 102.72 56.5147 102.841 56.2364C102.785 56.2271 102.711 56.1992 102.628 56.1807C102.553 56.1621 102.451 56.1343 102.396 56.1528C102.321 56.1807 102.312 56.3755 102.294 56.4776C102.256 56.7096 102.154 56.9045 102.052 57.0715C101.997 57.1643 101.913 57.22 101.857 57.2942C101.83 57.3314 101.783 57.4149 101.802 57.4706C101.839 57.6005 102.006 57.4613 102.052 57.4149C102.099 57.3592 102.145 57.2942 102.182 57.2664C102.201 57.5541 102.182 57.8974 102.386 57.9902C102.581 58.083 102.823 57.8974 102.943 57.8046C103.036 57.7304 103.129 57.6561 103.203 57.5726C103.231 57.5448 103.24 57.4984 103.277 57.4891C103.342 57.6283 103.407 57.8046 103.537 57.8789C103.723 57.9902 103.964 57.8325 104.085 57.7304C104.159 57.6654 104.214 57.5819 104.279 57.517C104.363 57.5077 104.4 57.4334 104.446 57.3963C104.372 57.8789 104.669 58.1201 105.003 58.2408C104.855 58.3707 104.725 58.4913 104.595 58.6398C104.474 58.7697 104.317 58.9368 104.298 59.1595C104.279 59.3915 104.419 59.5399 104.576 59.6235C104.743 59.707 104.994 59.7348 105.207 59.6884C105.588 59.6235 105.978 59.41 105.978 58.9646C105.978 58.7697 105.885 58.6212 105.801 58.4913C105.708 58.3614 105.606 58.2501 105.486 58.1573C105.606 58.0552 105.746 57.9624 105.876 57.851C106.005 57.7489 106.145 57.6469 106.228 57.517C106.247 57.4891 106.247 57.4613 106.265 57.4334C106.293 57.3963 106.33 57.3685 106.358 57.3406C106.377 57.6098 106.284 57.9531 106.423 58.1201C106.479 58.1851 106.627 58.2593 106.748 58.2037C106.841 58.1573 106.896 58.0366 106.943 57.9253C107.045 57.6376 107.212 57.387 107.379 57.1736C107.416 57.1272 107.444 57.0808 107.49 57.053C107.555 57.2664 107.611 57.4891 107.713 57.684C107.806 57.8603 107.945 58.0645 108.205 58.0366C108.427 58.0088 108.604 57.851 108.762 57.7397C108.845 57.6747 108.919 57.6097 108.984 57.5448C109.049 57.4706 109.142 57.3963 109.142 57.285C109.049 57.2571 108.956 57.3035 108.891 57.3406C108.826 57.3778 108.762 57.4334 108.697 57.4798C108.604 57.5634 108.427 57.7304 108.27 57.7211C108.103 57.7025 108.121 57.4706 108.103 57.2942C108.093 57.1829 108.084 57.0715 108.066 56.9694C108.038 56.7746 108.019 56.4776 107.861 56.4498C107.796 56.4405 107.694 56.4683 107.639 56.4962C107.527 56.5426 107.425 56.6911 107.342 56.8024C107.138 57.1272 106.933 57.5355 106.766 57.8974ZM112.743 54.3804C112.696 54.3062 112.576 54.3154 112.464 54.3154C112.381 54.3154 112.279 54.3247 112.223 54.3526C112.149 54.3897 112.093 54.5196 112.047 54.6124C111.917 54.863 111.833 55.1042 111.759 55.4012C111.74 55.4661 111.722 55.5404 111.731 55.5868C111.74 55.6332 111.805 55.6424 111.824 55.6703C111.759 56.0136 111.685 56.3941 111.666 56.821C111.657 57.0158 111.657 57.2386 111.657 57.4706C111.657 57.6561 111.638 57.9809 111.75 58.0366C111.815 58.0645 111.926 58.0366 111.991 58.0181C112.074 57.9995 112.149 57.9809 112.186 57.9345C112.176 57.5912 112.149 57.2664 112.195 56.9509C112.279 56.3384 112.39 55.7631 112.52 55.197C112.576 54.9186 112.696 54.6588 112.743 54.3804ZM94.1088 54.8165C94.3223 54.7702 94.5728 54.798 94.7863 54.798C94.8512 54.798 94.9347 54.7887 94.9811 54.7609C95.0832 54.6959 95.0646 54.4639 94.9718 54.4082C94.9255 54.3711 94.8234 54.3711 94.7491 54.3618C94.3408 54.3247 93.8954 54.3154 93.4778 54.3433C93.3665 54.3526 93.1437 54.3526 93.0695 54.4082C93.0324 54.4361 92.9953 54.5474 92.9767 54.5938C92.9303 54.7145 92.8839 54.8258 92.8932 54.9929C93.2273 54.965 93.5057 54.8815 93.8212 54.8351C93.7284 55.7724 93.5242 56.6075 93.4871 57.6098C93.4871 57.7025 93.4593 57.9717 93.5057 58.0273C93.5613 58.1016 93.6912 58.0366 93.7191 58.0088C93.784 57.9438 93.8026 57.7953 93.8212 57.6654C93.8397 57.5262 93.8583 57.387 93.8768 57.2757C93.9975 56.5519 94.1367 55.893 94.2759 55.2063C94.2852 55.1506 94.3223 55.0485 94.313 55.0207C94.3037 54.9836 94.2388 54.9465 94.2016 54.9186C94.1738 54.8815 94.1274 54.8537 94.1088 54.8165ZM132.063 56.5797C132.193 56.4683 132.221 56.3199 132.443 56.3106C132.796 56.3013 132.954 56.5519 132.926 56.9138C132.889 57.3221 132.694 57.5262 132.388 57.6747C132.258 57.7397 132.082 57.7861 131.952 57.7118C131.822 57.6283 131.747 57.4242 131.757 57.1829C131.766 57.053 131.822 56.8117 131.877 56.7282C131.924 56.6447 132.007 56.6261 132.063 56.5797ZM128.165 55.2249C128.184 55.0114 128.249 54.8165 128.258 54.6217C128.23 54.5753 128.138 54.566 128.082 54.5846C127.98 54.6124 127.971 54.8073 127.933 54.9186C127.896 55.0485 127.85 55.1506 127.813 55.2341H127.015C126.922 55.2341 126.82 55.2341 126.773 55.262C126.699 55.2991 126.681 55.4754 126.746 55.5404C126.82 55.6146 127.043 55.6053 127.2 55.6053H127.729C127.683 55.7352 127.627 55.8466 127.581 55.9672C127.442 56.3199 127.256 56.6447 127.052 56.9323C126.968 57.053 126.866 57.1458 126.783 57.2571C126.69 57.3221 126.606 57.4149 126.514 57.5077C126.467 57.5448 126.421 57.5819 126.365 57.6283C126.319 57.6654 126.272 57.7304 126.198 57.7118C126.068 57.684 126.124 57.3314 126.152 57.22C126.198 57.053 126.3 56.9138 126.3 56.7467C126.3 56.5797 126.133 56.4776 125.957 56.5611C125.901 56.589 125.855 56.6539 125.799 56.7096C125.651 56.8859 125.558 57.0344 125.4 57.2107C125.317 57.2942 125.205 57.4056 125.085 57.4984C124.983 57.5726 124.788 57.7118 124.658 57.6376C124.519 57.5541 124.639 57.3406 124.695 57.2571C124.825 57.0437 124.992 56.8859 125.177 56.7467C125.382 56.589 125.558 56.4683 125.79 56.3755C125.873 56.3384 125.948 56.3291 126.05 56.3013C126.105 56.2827 126.226 56.2364 126.226 56.19C126.235 56.0972 126.068 56.0415 125.975 56.0415C125.743 56.0415 125.53 56.1621 125.344 56.2456C125.159 56.3384 125.01 56.4405 124.834 56.5704C124.686 56.6818 124.537 56.8303 124.398 56.9694C124.333 57.0344 124.259 57.1086 124.184 57.1736C124.119 57.2386 124.008 57.3221 124.017 57.4334C124.017 57.4706 124.045 57.5077 124.082 57.517C124.175 57.5262 124.194 57.4334 124.259 57.4056C124.231 57.4706 124.212 57.5262 124.194 57.6005C124.175 57.6654 124.138 57.7397 124.147 57.8139C124.157 58.0366 124.389 58.1387 124.63 58.1109C124.751 58.1016 124.88 58.0552 124.983 57.9995C125.279 57.8603 125.511 57.5448 125.706 57.3406C125.678 57.6283 125.697 57.8881 125.883 57.9717C126.124 58.083 126.356 57.916 126.504 57.8046C126.634 57.7118 126.727 57.5912 126.811 57.4984C126.903 57.4613 126.959 57.3778 127.024 57.3035C127.173 57.1272 127.312 56.9416 127.432 56.7653C127.405 56.9416 127.33 57.1179 127.302 57.3221C127.284 57.4242 127.293 57.5262 127.275 57.6376C127.237 57.9253 127.21 58.2408 127.553 58.2129C127.748 58.1944 127.896 58.0737 128.026 57.9624C128.203 57.8232 128.342 57.684 128.49 57.5262C128.518 57.4984 128.555 57.4706 128.592 57.4427C128.769 57.2664 128.945 57.0437 129.14 56.9231C129.168 57.1179 129.233 57.3221 129.298 57.5077C129.381 57.7304 129.465 58.0088 129.641 58.1109C129.789 58.2037 129.956 58.148 130.123 58.0923C130.458 57.9809 130.727 57.7675 130.922 57.5355C130.959 57.4891 130.977 57.4427 131.014 57.4056C131.042 57.3685 131.098 57.3221 131.135 57.285C131.144 57.2757 131.154 57.2478 131.172 57.2571C131.07 57.7953 131.441 57.9902 131.877 58.0181C132.23 58.0459 132.499 57.9067 132.713 57.7304C132.926 57.5541 133.093 57.3406 133.186 57.0715C133.279 56.7931 133.344 56.3755 133.204 56.125C133.065 55.8744 132.694 55.8559 132.369 55.958C132.434 55.8466 132.341 55.726 132.239 55.7074C132.1 55.6888 131.952 55.8095 131.877 55.8744C131.785 55.9487 131.682 56.0415 131.618 56.1436C131.543 56.2456 131.488 56.3755 131.441 56.4962C131.386 56.6261 131.348 56.7653 131.265 56.8581C131.209 56.9323 131.126 56.988 131.061 57.053C130.996 57.1179 130.912 57.1829 130.857 57.2571C130.847 57.2757 130.838 57.3128 130.819 57.3314C130.782 57.387 130.708 57.4427 130.643 57.4984C130.513 57.6097 130.328 57.7861 130.133 57.6561C129.984 57.5541 129.938 57.3499 129.873 57.1365C129.854 57.053 129.827 56.9416 129.817 56.8117C129.817 56.756 129.808 56.7003 129.799 56.6354C129.789 56.5797 129.789 56.5055 129.771 56.4683C129.734 56.4034 129.539 56.3291 129.428 56.3477C129.325 56.3663 129.223 56.4962 129.149 56.5704C128.936 56.7931 128.741 57.0066 128.518 57.2107C128.472 57.2478 128.425 57.285 128.379 57.3314C128.295 57.4149 128.23 57.517 128.138 57.5912C128.045 57.6747 127.943 57.7304 127.822 57.7768C127.766 57.3963 127.878 57.0251 127.896 56.6539C127.915 56.2827 128.017 55.9301 128.091 55.6146C128.212 55.6332 128.36 55.661 128.435 55.5775C128.49 55.5125 128.453 55.3084 128.397 55.262C128.342 55.2341 128.24 55.2434 128.165 55.2249ZM129.771 54.6495C129.659 54.6681 129.557 54.7702 129.502 54.8351C129.455 54.8908 129.363 55.0393 129.353 55.1228C129.316 55.4569 129.715 55.5125 129.91 55.3641C130.012 55.2805 130.086 55.1228 130.086 54.9836C130.077 54.8073 129.956 54.6217 129.771 54.6495ZM82.3329 56.3106H82.3421C82.6205 56.3013 82.7968 56.4683 82.8247 56.756C82.8618 57.2571 82.6112 57.5077 82.2865 57.6654C82.1844 57.7211 82.0359 57.7861 81.8967 57.7397C81.6647 57.6561 81.6183 57.285 81.6926 56.988C81.7111 56.9045 81.7482 56.7746 81.7853 56.7189C81.8132 56.6818 81.906 56.6354 81.9617 56.5983C82.0916 56.4776 82.1009 56.3013 82.3329 56.3106ZM82.2308 55.9765C82.2957 55.8466 82.2029 55.7167 82.0452 55.726C81.8874 55.7445 81.7575 55.8744 81.6647 55.958C81.5812 56.0322 81.4977 56.1157 81.442 56.2178C81.3863 56.3199 81.3399 56.4312 81.2935 56.5519C81.2471 56.6539 81.21 56.7931 81.1265 56.8767C81.0986 56.9045 81.0708 56.923 81.0337 56.9602C80.8945 57.0994 80.7553 57.2386 80.6161 57.3778C80.5604 57.4334 80.514 57.5077 80.4583 57.5634C80.3192 57.7025 80.115 57.7861 79.9108 57.8417C79.948 57.6561 80.0129 57.4798 80.0686 57.2942C80.1243 57.1179 80.1707 56.9045 80.1614 56.6818C80.1428 56.3941 80.0036 56.1064 79.7438 56.0693C79.5861 56.0415 79.4933 56.1436 79.3819 56.2085C79.3355 56.2363 79.2241 56.292 79.2241 56.3663C79.2149 56.4591 79.3077 56.4776 79.3448 56.5426C79.1963 56.7375 79.0293 56.9602 78.853 57.1365C78.788 57.2014 78.7138 57.2478 78.6674 57.3221C78.6488 57.3592 78.6117 57.452 78.6302 57.4891C78.6581 57.5448 78.7416 57.517 78.7787 57.4984C78.8251 57.4706 78.8622 57.4242 78.8901 57.3963C79.1128 57.1736 79.3169 56.9416 79.5489 56.7467C79.6603 56.7931 79.7067 56.8581 79.7252 56.9602C79.7624 57.285 79.5768 57.5448 79.4933 57.7953C79.4654 57.8696 79.4283 57.9809 79.4283 58.0552C79.4376 58.2872 79.7809 58.1851 79.9294 58.1294C80.2542 58.0181 80.5047 57.8325 80.6996 57.619C80.746 57.5726 80.7739 57.5262 80.811 57.4798C80.8481 57.4242 80.9223 57.3685 80.9687 57.3221C80.9873 57.3035 80.9966 57.2757 81.0151 57.285C80.9038 57.8232 81.2842 58.0181 81.7204 58.0459C81.9895 58.0645 82.2122 57.9809 82.3885 57.8696C82.7319 57.6561 82.9917 57.3314 83.0845 56.8767C83.1309 56.6261 83.1495 56.3384 83.0381 56.1436C82.9175 55.893 82.5463 55.8744 82.2308 55.9765ZM120.955 56.5983C121.104 56.4869 121.113 56.3199 121.354 56.3106C121.568 56.3013 121.735 56.4127 121.8 56.5797C121.902 56.8674 121.8 57.22 121.66 57.3963C121.586 57.4891 121.475 57.5726 121.373 57.6283C121.243 57.7025 121.048 57.7861 120.89 57.7304C120.658 57.6376 120.621 57.2571 120.695 56.9694C120.714 56.8859 120.751 56.7653 120.788 56.7189C120.825 56.6632 120.909 56.6261 120.955 56.5983ZM121.243 55.9765C121.298 55.8373 121.206 55.7167 121.057 55.726C120.927 55.7352 120.807 55.8373 120.714 55.9116C120.621 55.9951 120.528 56.0786 120.463 56.1807C120.398 56.2827 120.343 56.3941 120.287 56.5147C120.241 56.6354 120.203 56.7653 120.12 56.8674C120.092 56.9045 120.036 56.9323 119.999 56.9694C119.906 57.0622 119.795 57.1643 119.721 57.2664C119.637 57.3778 119.554 57.4613 119.433 57.5634C119.378 57.6005 119.211 57.7489 119.127 57.7397C119.043 57.7304 119.034 57.517 119.016 57.4242C118.997 57.3035 118.969 57.1736 118.941 57.0808C118.876 56.8767 118.793 56.6354 118.617 56.5519C118.468 56.4776 118.301 56.5611 118.19 56.6354C118.106 56.6818 118.023 56.7467 117.948 56.8117C117.791 56.9416 117.679 57.1086 117.549 57.2386C117.642 56.9416 117.744 56.6447 117.8 56.292C117.819 56.1992 117.856 56.0044 117.809 55.9301C117.754 55.8466 117.605 55.893 117.531 55.9394C117.447 55.9858 117.373 56.0508 117.317 56.1064C116.9 56.4683 116.492 56.8488 116.148 57.2571C116.037 57.3314 115.953 57.4334 115.851 57.5262C115.805 57.5634 115.758 57.6097 115.693 57.6469C115.656 57.6747 115.554 57.7489 115.499 57.7304C115.424 57.7118 115.406 57.517 115.387 57.4056C115.359 57.2757 115.332 57.1643 115.304 57.0622C115.239 56.8674 115.146 56.6168 114.97 56.5426C114.821 56.4869 114.654 56.5704 114.552 56.6354C114.292 56.7931 114.107 57.0251 113.921 57.2386C114.023 56.9416 114.116 56.6354 114.172 56.2735C114.199 56.1064 114.255 55.8652 114.042 55.8837C113.958 55.893 113.856 55.958 113.791 56.0136C113.717 56.0693 113.652 56.1343 113.587 56.19C113.244 56.5055 112.928 56.7839 112.622 57.1272C112.52 57.2386 112.408 57.3221 112.399 57.4984C112.548 57.5541 112.631 57.4056 112.705 57.3314C112.956 57.0715 113.244 56.8488 113.541 56.6725C113.513 56.9323 113.503 57.1736 113.439 57.4149C113.411 57.5262 113.374 57.6283 113.346 57.7489C113.318 57.8603 113.262 57.9902 113.262 58.0923C113.262 58.2501 113.448 58.3243 113.606 58.2593C113.652 58.2408 113.68 58.2129 113.708 58.1851C113.773 58.1016 113.819 57.9809 113.875 57.8881C113.94 57.7953 113.995 57.7025 114.06 57.6098C114.172 57.452 114.339 57.2107 114.571 57.1922C115.044 57.1458 115.016 57.7582 115.248 57.9624C115.294 57.9995 115.35 58.0366 115.434 58.0273C115.601 58.0181 115.749 57.8881 115.851 57.8139C115.972 57.7211 116.093 57.6469 116.167 57.4984C116.334 57.3592 116.473 57.1922 116.64 57.0622C116.807 56.9231 116.983 56.8024 117.169 56.6911C117.141 56.9416 117.141 57.1829 117.067 57.4242C117.039 57.5262 117.002 57.6376 116.974 57.7489C116.946 57.8603 116.9 57.9809 116.891 58.0923C116.881 58.2872 117.132 58.3521 117.28 58.2501C117.382 58.1851 117.41 58.0459 117.475 57.9531C117.605 57.7582 117.726 57.5448 117.893 57.3778C117.967 57.3035 118.078 57.2107 118.208 57.2014C118.496 57.1736 118.598 57.4056 118.682 57.5819C118.774 57.7861 118.83 58.0645 119.09 58.0366C119.22 58.0273 119.359 57.9253 119.47 57.851C119.572 57.7768 119.702 57.6747 119.777 57.5819C119.804 57.5541 119.814 57.5077 119.832 57.4706C119.869 57.4149 119.944 57.3592 119.99 57.3128C120.009 57.2942 120.027 57.2664 120.036 57.2757C119.999 57.4706 120.036 57.6747 120.12 57.7861C120.259 57.9624 120.593 58.0552 120.909 58.0366C121.215 58.0181 121.447 57.8696 121.642 57.6933C121.846 57.5077 121.976 57.2942 122.059 57.0344C122.143 56.756 122.199 56.357 122.05 56.1343C121.92 55.8837 121.558 55.8744 121.243 55.9765ZM84.495 57.1643C84.5043 57.3221 84.5229 57.4891 84.5693 57.6376C84.6157 57.7861 84.6528 57.9345 84.7363 58.0181C84.7734 58.0552 84.8662 58.0923 84.9405 58.0923C85.0611 58.083 85.1353 57.9717 85.2003 57.8789C85.3766 57.6469 85.4787 57.387 85.5993 57.1086C85.7107 56.8395 85.8035 56.5426 85.8777 56.2271C85.8963 56.1436 85.9612 55.9672 85.9241 55.9023C85.9056 55.8652 85.822 55.8559 85.7849 55.8837C85.7478 55.9116 85.7385 56.0415 85.72 56.125C85.6736 56.3941 85.5993 56.6075 85.5158 56.821C85.4044 57.1179 85.2838 57.3963 85.1075 57.6098C84.9312 57.4984 84.9776 57.1736 84.9776 56.8767C84.9776 56.5519 85.0147 56.2642 85.0425 56.0044C84.9683 55.9487 84.8477 56.0044 84.792 56.0415C84.6249 56.524 84.4115 56.9973 84.1424 57.3778C84.1053 57.4242 84.0589 57.4798 84.0125 57.517C83.9011 57.053 83.9754 56.4312 84.1238 56.0693C83.9661 56.0415 83.697 56.0508 83.6413 56.1807C83.6227 56.2178 83.6135 56.292 83.6042 56.3384C83.5485 56.6354 83.4835 56.8859 83.3351 57.0715C83.2794 57.1458 83.1959 57.1922 83.1402 57.2757C83.1309 57.2942 83.066 57.387 83.0938 57.4613C83.1309 57.5448 83.2423 57.4891 83.2887 57.4427C83.3907 57.3592 83.4835 57.2293 83.5578 57.1643C83.5578 57.3685 83.5856 57.5077 83.6135 57.7118C83.632 57.8417 83.6413 58.0181 83.7063 58.0923C83.8269 58.2408 83.9754 58.0273 84.0403 57.9438C84.1888 57.6933 84.3466 57.4149 84.495 57.1643ZM134.689 57.2386C134.791 56.9416 134.884 56.6354 134.94 56.2827C134.967 56.1157 135.023 55.828 134.782 55.893C134.615 55.9394 134.476 56.0879 134.346 56.2085C134.002 56.5055 133.687 56.8024 133.39 57.1458C133.297 57.2571 133.177 57.3314 133.177 57.5077C133.316 57.5541 133.409 57.4149 133.483 57.3406C133.733 57.0901 134.012 56.8488 134.318 56.6725C134.29 56.9509 134.281 57.2014 134.207 57.4613C134.179 57.5634 134.142 57.684 134.104 57.8139C134.077 57.916 134.012 58.0923 134.067 58.1851C134.132 58.2965 134.355 58.2965 134.457 58.2222C134.531 58.1573 134.568 58.0366 134.624 57.9438C134.68 57.8603 134.736 57.7675 134.8 57.6747C134.921 57.4984 135.042 57.3128 135.237 57.22C135.385 57.155 135.561 57.2014 135.654 57.285C135.747 57.3685 135.803 57.5262 135.868 57.6654C135.933 57.8232 135.998 58.0459 136.23 58.0273C136.369 58.0088 136.499 57.9067 136.61 57.8325C136.805 57.6933 136.99 57.5634 137 57.285C136.888 57.22 136.833 57.3314 136.768 57.3963C136.666 57.4984 136.582 57.5726 136.462 57.6561C136.424 57.684 136.322 57.7582 136.276 57.7489C136.202 57.7397 136.192 57.5726 136.174 57.4891C136.155 57.3778 136.127 57.2664 136.109 57.1922C136.044 56.9602 135.951 56.6632 135.766 56.5704C135.571 56.4683 135.339 56.6354 135.209 56.7375C135.088 56.8303 134.967 56.9323 134.875 57.0344C134.81 57.0901 134.763 57.1922 134.689 57.2386ZM124.287 56.06C124.222 56.06 124.082 56.0415 124.036 56.0879C124.008 56.1157 123.98 56.2456 123.962 56.292C123.897 56.5147 123.795 56.7003 123.702 56.8767C123.563 57.1458 123.451 57.3685 123.21 57.5077C122.987 57.2107 122.885 56.5426 123.043 56.1064C122.83 56.0879 122.681 56.1714 122.505 56.1992C122.384 56.4219 122.477 56.8024 122.338 57.0251C122.31 57.0715 122.264 57.1179 122.226 57.1736C122.189 57.22 122.134 57.285 122.143 57.3499C122.152 57.4056 122.199 57.4427 122.245 57.4706C122.329 57.3963 122.403 57.285 122.486 57.22C122.579 57.4706 122.653 57.8139 122.848 57.9809C123.015 58.1201 123.173 57.9717 123.284 57.8603C123.488 57.6469 123.665 57.4242 123.813 57.1829C124.017 56.8395 124.212 56.4962 124.287 56.06Z" fill="black"/>
<path d="M60.2289 43.0584L59.8948 44.636H57.4264L55.9974 51.5123H54.0208L55.4499 44.636H53L53.3434 43.0584H60.2289ZM61.3425 43.0584L59.5886 51.5216H61.5652L62.289 47.9581H65.6576L64.9245 51.5216H66.901L68.6549 43.0584H66.6598L65.9731 46.3435H62.6231L63.3098 43.0584H61.3425ZM70.4459 43.0584L69.4715 47.7818C69.388 48.1809 69.3323 48.5984 69.3323 48.9604C69.3323 50.7513 70.5016 51.67 72.4039 51.6608C74.928 51.6608 76.1529 50.4266 76.6912 47.8653L77.6934 43.0584H75.7168L74.7053 47.9396C74.3805 49.5079 73.7031 50.1389 72.6638 50.1389C71.7822 50.1389 71.3182 49.6099 71.3182 48.9232C71.3182 48.5613 71.3553 48.218 71.4296 47.921L72.4318 43.0584H70.4459ZM87.3814 51.5123L88.6342 43.0492H85.9523L84.2356 46.26C83.8366 47.0209 83.3447 48.0231 82.9828 48.9604H82.9271C82.9179 48.0231 82.8158 47.0673 82.7601 46.2692L82.4724 43.0399H79.8277L77.5078 51.503H79.3266L80.2453 48.0138C80.4773 47.1044 80.7557 45.8331 81.0155 44.7102H81.0434C81.099 45.8424 81.164 47.0116 81.2475 47.9396L81.5816 51.3638H83.122L85.0058 47.9117C85.5162 46.9838 86.0915 45.8145 86.6019 44.7195H86.639C86.3792 45.9352 86.1751 47.1044 86.0266 48.0231L85.4605 51.5123H87.3814ZM89.0146 51.4288C89.4694 51.5123 90.3045 51.5772 91.3531 51.5772C92.8936 51.5772 94.0628 51.3731 94.8423 50.8905C95.5661 50.4544 96.1044 49.7955 96.1044 48.8768C96.1044 47.9489 95.5383 47.2807 94.6474 47.0302V46.9931C95.6589 46.7239 96.5127 46.0651 96.5127 44.9979C96.5127 44.2834 96.058 43.7359 95.4455 43.4482C94.8238 43.1234 94.1278 43.012 93.1534 43.012C92.244 43.012 91.381 43.0863 90.7221 43.2162L89.0146 51.4288ZM91.7058 47.7354H92.3275C93.2462 47.7354 94.0164 47.986 94.0164 48.8304C94.0164 49.7677 93.0421 50.1574 91.9656 50.1574C91.6779 50.1574 91.4459 50.1574 91.2047 50.1296L91.7058 47.7354ZM92.4203 44.4597C92.5688 44.4411 92.8565 44.4133 93.1998 44.4133C93.9607 44.4133 94.4897 44.6731 94.4897 45.2763C94.4897 46.0094 93.7473 46.4177 92.6616 46.4177H92.0027L92.4203 44.4597ZM102.173 49.3223L102.368 51.5216H104.438L103.37 43.0584H100.828L96.3085 51.5216H98.4243L99.51 49.3223H102.173ZM100.095 47.9396L101.004 46.1208C101.255 45.6289 101.514 44.9794 101.746 44.4597H101.784C101.821 44.9701 101.867 45.6568 101.904 46.1208L102.081 47.9396H100.095ZM108.122 51.5123L108.836 48.0231L112.836 43.0492H110.479L109.096 45.1835C108.706 45.796 108.419 46.2785 108.149 46.7332H108.122C108.038 46.3064 107.945 45.898 107.76 45.2021L107.175 43.0584H105.059L106.869 48.0695L106.154 51.5216H108.122V51.5123ZM86.2122 14.681C86.0359 14.681 85.8781 14.6068 85.7575 14.4769C85.6275 14.3377 85.5626 14.1799 85.5626 13.985C85.5626 13.7902 85.6275 13.6324 85.7575 13.4932C85.8874 13.354 86.0359 13.2891 86.2122 13.2891C86.3978 13.2891 86.5462 13.354 86.6762 13.4932C86.8061 13.6324 86.871 13.7994 86.871 13.985C86.871 14.1706 86.8061 14.3377 86.6762 14.4769C86.5462 14.6068 86.3885 14.681 86.2122 14.681ZM86.3606 15.4698C86.3606 15.2749 86.4256 15.1079 86.5462 14.978C86.6762 14.8388 86.8246 14.7738 87.0009 14.7738C87.1865 14.7738 87.335 14.8388 87.4649 14.978C87.5948 15.1172 87.6505 15.2842 87.6505 15.4698C87.6505 15.6554 87.5856 15.8224 87.4649 15.9523C87.335 16.0915 87.1865 16.1565 87.0009 16.1565C86.8246 16.1565 86.6762 16.0915 86.5462 15.9523C86.4256 15.8131 86.3606 15.6554 86.3606 15.4698ZM85.4141 16.1565C85.2378 16.1565 85.0893 16.0915 84.9594 15.9523C84.8295 15.8131 84.7645 15.6554 84.7645 15.4698C84.7645 15.2749 84.8295 15.1079 84.9594 14.978C85.0893 14.8388 85.2378 14.7738 85.4141 14.7738C85.5997 14.7738 85.7482 14.8388 85.8781 14.978C86.008 15.1172 86.073 15.2842 86.073 15.4698C86.073 15.6554 86.008 15.8224 85.8781 15.9523C85.7575 16.0915 85.5997 16.1565 85.4141 16.1565ZM90.7407 17.3814C90.917 17.5392 91.5944 17.6413 91.78 17.7062V24.6475H83.6138V28.3965C83.6417 30.0111 81.4331 31.1804 80.0411 31.1804C79.3823 31.1804 78.6121 31.0134 77.7119 30.67C78.8441 30.6143 81.4609 29.6028 81.7765 28.5264L81.7672 24.6382H77.6006V19.7199C77.7398 18.4115 78.4821 17.6784 79.8184 17.5113L81.5445 17.5206C82.426 17.1958 83.0292 16.4906 83.3633 15.377L83.6046 14.7367V23.0699H89.9241V14.7367L90.2117 15.4234C90.6015 16.3607 90.3324 17.0102 90.7407 17.3814ZM81.86 19.2374L80.6629 19.2559C79.8648 19.2281 79.4194 19.4972 79.3359 20.054V22.8565H81.86V19.2374ZM94.7031 29.8627C95.7796 29.9926 96.3735 30.5865 96.4848 31.6351V35.6068H79.5586L78.0646 33.7602L74.5383 29.6028C74.1207 29.1945 73.6845 29.1296 73.2298 29.3987C72.6174 29.7049 72.7287 30.2988 73.5546 31.1804C74.0464 31.7929 74.5475 32.396 75.0579 32.9992C75.6426 33.7138 76.1622 34.3355 76.6355 34.8552C77.0531 35.5975 77.0531 36.3863 76.6262 37.2308C75.7353 38.4 74.5661 38.9846 73.1185 38.9846C72.8958 38.9846 72.673 38.9754 72.4318 38.9568C71.4296 38.8269 70.5387 38.2979 69.7592 37.3607C69.3416 36.674 69.1282 35.8852 69.1282 34.9944C69.1282 34.0293 69.3045 33.0271 69.6571 31.9784C69.787 31.7279 69.8891 31.5423 69.9726 31.4124C69.8891 32.0434 69.8613 32.5723 69.8613 32.9992C69.8613 34.2891 70.0933 35.2727 70.5573 35.9687C71.012 36.5719 71.7915 36.9617 72.905 37.138C73.2577 37.1751 73.6103 37.1565 73.9722 37.0637C74.5754 36.906 74.9837 36.609 75.1693 36.1636C75.1229 35.7367 74.9651 35.3841 74.696 35.0964L71.7079 31.5794C71.1512 30.9298 70.9748 30.2246 71.179 29.4729C71.4481 28.6749 71.9678 28.1366 72.738 27.8582C73.0721 27.7098 73.4247 27.6355 73.7959 27.6355C74.6218 27.6355 75.3178 27.9603 75.8838 28.5913L80.2453 33.8808H85.9059V27.6355L86.1287 28.1923C86.4349 28.944 86.7597 29.4636 87.0752 29.7606C87.2144 29.8905 87.3629 29.974 87.5113 30.0204V33.8901H91.6594V27.6355L91.8542 28.1459C92.1234 29.0368 92.6152 29.6121 93.3204 29.8627H94.7031ZM94.8702 32.1269C94.8145 31.8207 94.5361 31.6815 94.0257 31.7001L93.2648 31.6908V33.8901H94.8702V32.1269ZM87.8361 37.4442C88.0403 37.4442 88.2166 37.5184 88.3558 37.6762C88.495 37.8247 88.5692 38.0103 88.5692 38.2237C88.5692 38.4464 88.495 38.6227 88.3558 38.7712C88.2166 38.9197 88.0403 38.9939 87.8361 38.9939C87.6413 38.9939 87.4742 38.9197 87.335 38.7712C87.1865 38.6227 87.1216 38.4371 87.1216 38.2237C87.1216 38.0103 87.1865 37.8247 87.335 37.6762C87.4649 37.5277 87.6413 37.4442 87.8361 37.4442ZM74.0279 39.4672C74.232 39.4672 74.3991 39.5414 74.5383 39.6899C74.6775 39.8384 74.7517 40.024 74.7517 40.2374C74.7517 40.4416 74.6775 40.6272 74.5383 40.7756C74.3991 40.9241 74.232 40.9983 74.0279 40.9983C73.833 40.9983 73.666 40.9241 73.5268 40.7756C73.3876 40.6272 73.3226 40.4416 73.3226 40.2374C73.3226 40.024 73.3876 39.8384 73.5268 39.6899C73.666 39.5507 73.833 39.4672 74.0279 39.4672ZM72.274 39.4672C72.4689 39.4672 72.6452 39.5414 72.7844 39.6899C72.9236 39.8384 72.9978 40.024 72.9978 40.2374C72.9978 40.4416 72.9236 40.6272 72.7844 40.7756C72.6452 40.9241 72.4689 40.9983 72.274 40.9983C72.0791 40.9983 71.9028 40.9241 71.7636 40.7756C71.6244 40.6272 71.5502 40.4416 71.5502 40.2374C71.5502 40.024 71.6244 39.8384 71.7636 39.6899C71.9121 39.5507 72.0791 39.4672 72.274 39.4672Z" fill="#E60012"/>
</svg>
