<svg width="190" height="73" viewBox="0 0 190 73" fill="none" xmlns="http://www.w3.org/2000/svg">
<path d="M127.801 50.2294C125.735 50.2294 123.715 49.6163 121.997 48.4675C120.279 47.3187 118.94 45.686 118.15 43.7757C117.359 41.8653 117.152 39.7633 117.555 37.7353C117.958 35.7073 118.953 33.8445 120.414 32.3824C121.875 30.9203 123.736 29.9246 125.763 29.5212C127.789 29.1178 129.89 29.3248 131.798 30.1161C133.707 30.9074 135.339 32.2474 136.486 33.9666C137.634 35.6859 138.247 37.7072 138.247 39.7749C138.247 42.5476 137.146 45.2067 135.187 47.1673C133.228 49.128 130.571 50.2294 127.801 50.2294ZM127.801 45.9082C129.013 45.9082 130.198 45.5485 131.206 44.8745C132.213 44.2006 132.999 43.2427 133.463 42.122C133.927 41.0013 134.048 39.7681 133.811 38.5783C133.575 37.3886 132.991 36.2957 132.134 35.4379C131.277 34.5802 130.185 33.996 128.996 33.7594C127.808 33.5227 126.575 33.6442 125.456 34.1084C124.336 34.5726 123.379 35.3588 122.705 36.3674C122.032 37.376 121.672 38.5618 121.672 39.7749C121.672 41.4015 122.318 42.9616 123.467 44.1118C124.617 45.262 126.175 45.9082 127.801 45.9082ZM105.934 50.2294C103.867 50.2294 101.848 49.6163 100.13 48.4675C98.4121 47.3187 97.0732 45.686 96.2825 43.7757C95.4919 41.8653 95.285 39.7633 95.6881 37.7353C96.0912 35.7073 97.086 33.8445 98.547 32.3824C100.008 30.9203 101.869 29.9246 103.896 29.5212C105.922 29.1178 108.022 29.3248 109.931 30.1161C111.84 30.9074 113.471 32.2474 114.619 33.9666C115.767 35.6859 116.38 37.7072 116.38 39.7749C116.38 42.5476 115.279 45.2067 113.32 47.1673C111.361 49.128 108.704 50.2294 105.934 50.2294ZM105.934 45.9082C107.146 45.9082 108.33 45.5485 109.338 44.8745C110.346 44.2006 111.132 43.2427 111.595 42.122C112.059 41.0013 112.181 39.7681 111.944 38.5783C111.708 37.3886 111.124 36.2957 110.267 35.4379C109.41 34.5802 108.318 33.996 107.129 33.7594C105.94 33.5227 104.708 33.6442 103.588 34.1084C102.468 34.5726 101.511 35.3588 100.838 36.3674C100.165 37.376 99.8051 38.5618 99.8051 39.7749C99.8051 41.4015 100.451 42.9616 101.6 44.1118C102.749 45.262 104.308 45.9082 105.934 45.9082ZM94.5124 39.6355C94.5124 45.4761 89.8325 50.2294 84.0663 50.2294C78.3 50.2294 73.6201 45.49 73.6201 39.6494C73.6201 33.8088 77.8682 29.3203 84.0663 29.3203C86.3505 29.3203 88.4676 29.8082 90.1947 31.0767V25.0131C90.1947 23.8561 91.2114 22.9082 92.3535 22.9082C93.4956 22.9082 94.5124 23.8561 94.5124 25.0131V39.6355ZM84.0663 45.9082C85.2783 45.9082 86.4632 45.5485 87.471 44.8745C88.4788 44.2006 89.2643 43.2427 89.7282 42.122C90.192 41.0013 90.3134 39.7681 90.0769 38.5783C89.8404 37.3886 89.2568 36.2957 88.3997 35.4379C87.5426 34.5802 86.4506 33.996 85.2618 33.7594C84.0731 33.5227 82.8408 33.6442 81.721 34.1084C80.6012 34.5726 79.6441 35.3588 78.9707 36.3674C78.2973 37.376 77.9379 38.5618 77.9379 39.7749C77.9379 41.4015 78.5835 42.9616 79.7328 44.1118C80.8821 45.262 82.4409 45.9082 84.0663 45.9082Z" fill="#8F8F8F"/>
<path d="M62.1991 50.2294C60.133 50.2294 58.1134 49.6163 56.3955 48.4675C54.6776 47.3187 53.3387 45.686 52.5481 43.7756C51.7575 41.8653 51.5506 39.7633 51.9537 37.7353C52.3567 35.7073 53.3516 33.8445 54.8125 32.3824C56.2735 30.9203 58.1348 29.9246 60.1611 29.5212C62.1875 29.1178 64.2879 29.3248 66.1966 30.1161C68.1054 30.9074 69.7369 32.2474 70.8847 33.9666C72.0326 35.6859 72.6452 37.7071 72.6452 39.7749C72.6452 42.5476 71.5446 45.2067 69.5856 47.1673C67.6266 49.128 64.9696 50.2294 62.1991 50.2294ZM62.1991 45.9082C63.4112 45.9082 64.596 45.5485 65.6038 44.8745C66.6116 44.2006 67.3971 43.2427 67.861 42.122C68.3248 41.0013 68.4462 39.7681 68.2097 38.5783C67.9732 37.3886 67.3896 36.2957 66.5325 35.4379C65.6754 34.5802 64.5835 33.996 63.3947 33.7594C62.2059 33.5227 60.9737 33.6442 59.8538 34.1084C58.734 34.5726 57.7769 35.3587 57.1035 36.3674C56.4301 37.376 56.0707 38.5618 56.0707 39.7749C56.0707 41.4015 56.7163 42.9616 57.8656 44.1118C59.0149 45.262 60.5737 45.9082 62.1991 45.9082Z" fill="#714B67"/>
</svg>
