<svg width="190" height="73" viewBox="0 0 190 73" fill="none" xmlns="http://www.w3.org/2000/svg">
<g clip-path="url(#clip0_1046_3417)">
<mask id="mask0_1046_3417" style="mask-type:luminance" maskUnits="userSpaceOnUse" x="-76" y="-49" width="686" height="986">
<path d="M-76 -48.8125H609.728V936.64H-76V-48.8125Z" fill="white"/>
</mask>
<g mask="url(#mask0_1046_3417)">
<path d="M4.66735 61.5535C4.4352 61.5535 4.31301 61.4418 4.31301 61.2557V17.49C4.31301 17.2584 4.43113 17.1425 4.66735 17.1425H13.8802C9.84806 15.0951 5.41269 13.3951 0.574106 11.9929C0.464138 11.9309 0.341952 11.7571 0.403045 11.5834C0.403045 11.4593 0.513013 11.3477 0.696293 11.3477C0.696293 11.3477 0.712584 11.3477 0.745167 11.3477C7.89308 12.6878 14.4545 14.6236 20.2706 17.1425H47.677C47.8481 17.1425 47.958 17.2542 47.958 17.49V61.2557C47.958 61.4418 47.8481 61.5535 47.677 61.5535H4.66735Z" fill="white"/>
<path fill-rule="evenodd" clip-rule="evenodd" d="M0.806367 11.0508C7.94206 12.4033 14.5035 14.3267 20.3195 16.7836H47.6771C48.0192 16.7836 48.3003 17.0814 48.3003 17.4289V61.2566C48.3003 61.6165 48.0192 61.9019 47.6771 61.9019H4.66746C4.26424 61.9019 3.971 61.6165 3.971 61.2566V17.4289C3.971 17.0814 4.26424 16.7836 4.66746 16.7836H12.4996C8.80958 15.096 4.77743 13.5698 0.513119 12.2792C0.170997 12.2172 -6.43246e-05 11.8698 0.0610289 11.5223C0.109904 11.2245 0.403151 11.0508 0.696399 11.0508C0.728982 11.0508 0.765638 11.0508 0.806367 11.0508ZM15.261 17.4289H4.66746V61.2566H47.6771V17.4289H20.2096C14.4546 15.034 7.89318 13.0362 0.696399 11.696C6.04817 13.2223 10.9356 15.2077 15.261 17.4289Z" fill="white"/>
<path d="M20.2095 17.4282C14.4545 15.0333 7.89307 13.0355 0.696289 11.6953C6.04806 13.2216 10.9355 15.207 15.2609 17.4282H13.9902H13.5259V60.2136C13.6806 60.1308 13.8354 60.0688 13.9902 60.0274V61.2559H47.677V17.4282H20.2095Z" fill="#00539F"/>
<path d="M13.526 60.2136V17.4902H4.66748V61.2559H8.57745C10.3451 60.9085 11.9946 60.561 13.526 60.2136Z" fill="#FBAF31"/>
<path d="M61.093 23.3352C61.7162 23.7447 62.7548 24.39 62.9258 24.39C63.0969 24.39 63.9644 23.2856 64.3676 22.8761L62.4126 21.6973C62.0705 21.9951 61.374 22.752 61.2641 22.752C61.093 22.752 60.1033 22.1068 59.5901 21.6973C59.1258 22.2929 58.5027 22.8761 58.2705 23.2856C58.8448 23.6951 59.8834 24.3403 60.0544 24.3403C60.1033 24.3403 60.7387 23.7447 61.093 23.3352Z" fill="#00539F"/>
<path d="M34.8353 42.5326C34.8353 47.099 32.4771 55.5246 13.526 60.2151L8.29639 61.2574H15.1999C31.9517 58.6268 42.8996 53.0676 42.8996 42.0735C42.8996 32.2333 34.09 23.3983 20.2096 17.4297H15.261C27.3453 23.8078 34.8353 32.7049 34.8353 42.5326Z" fill="white"/>
<path fill-rule="evenodd" clip-rule="evenodd" d="M91.9452 31.4751C91.542 32.1203 90.9066 32.9393 90.3323 33.6342C90.2834 33.6962 90.2834 33.6962 90.1613 33.6962L86.1291 33.3488C84.4674 33.3488 82.6834 35.0984 81.8159 35.0984H65.9805C65.8706 35.0984 65.7484 34.9867 65.6384 34.9247C65.4674 34.751 65.1741 34.4656 65.113 34.2794C64.942 33.6342 64.8931 32.9393 64.6609 32.232C63.8545 32.6415 63.8545 34.2794 62.877 34.3415L58.9548 33.5845V33.2247C58.9548 33.051 59.5902 31.3634 59.9323 30.3583C60.1645 29.7254 61.313 29.0181 61.7162 28.7203C62.4127 28.3729 63.0969 27.9013 63.7323 27.4918C63.6834 27.2561 63.5002 26.8466 63.5002 26.7349C63.5002 26.5612 64.4288 25.159 64.8931 24.3897C65.2963 26.6232 65.5162 29.4896 66.1516 31.9962C66.2738 32.4678 66.677 32.4678 67.1291 32.4678H82.3902C82.9034 32.4678 84.6384 31.9466 84.9194 31.6488C84.113 31.1772 82.2191 30.3086 81.1195 30.3086C80.3741 30.3086 80.2641 30.594 79.2867 30.8298V30.594C79.2867 30.4824 79.5066 30.1845 79.5677 30.0108C80.313 29.0181 81.5227 27.7276 82.5002 27.7276C83.2577 27.7276 83.8931 27.9013 84.5162 28.1991C85.3838 28.6707 86.3002 29.3159 87.5709 29.9488C88.5484 30.4824 90.5034 31.1772 91.9452 31.4751ZM64.5998 31.0035C64.5998 30.8298 64.3066 29.3159 64.1355 28.4845C63.9034 28.6086 63.6834 28.8444 63.6834 28.9561C63.2191 30.3583 61.8384 30.594 61.142 31.0035C61.8384 31.1772 62.987 31.4751 63.158 31.4751H64.5998V31.0035ZM96.7838 40.8313C95.403 40.8313 91.7741 39.7765 91.1998 39.3174C91.1998 38.9079 91.542 38.9575 91.6641 38.9575C91.8352 38.9575 93.9613 39.4291 94.1323 39.4291C95.5741 39.4291 100.584 36.2152 100.584 33.7583C100.584 33.5721 100.584 33.1626 100.474 32.8152H100.352C99.7162 34.6269 98.9709 35.0984 97.7612 35.0984C96.0384 35.0984 95.9162 34.0437 95.9162 32.7035C95.9162 32.5298 95.8674 32.1699 95.9162 31.8845C95.9773 31.3013 97.7002 27.7276 99.2641 27.7276C100.242 27.7276 101.158 29.713 101.28 30.0729C101.39 30.2962 101.5 30.594 101.561 30.8918C101.683 31.413 101.793 32.3437 101.793 32.5298C101.793 35.3962 100.009 40.8313 96.7838 40.8313ZM99.6674 32.0583C99.6674 31.0656 98.8609 30.594 98.3355 30.594C98.1034 30.594 96.8937 30.9415 96.8937 31.6488C96.8937 32.1699 98.2866 32.4057 98.4577 32.4057C98.9098 32.4057 99.0931 32.3437 99.6674 32.0583ZM123.677 23.2232C124.251 23.5707 124.826 23.9802 125.461 24.3276C125.339 24.6254 125.107 24.9232 124.887 25.2086C124.532 25.6181 124.019 26.3254 123.616 26.8466C123.555 26.9086 123.555 26.9707 123.555 27.1444L124.08 31.6488L123.506 34.9247C123.323 34.9247 123.213 35.0984 123.042 35.0984H112.045C111.813 34.4532 111.581 33.8699 111.348 33.2867C110.713 33.4605 110.774 34.4532 110.139 35.0984H104.274C104.042 35.0984 103.809 34.5152 103.809 34.4532C103.809 34.3415 103.981 32.6415 104.213 31.8225C104.274 31.413 104.555 30.594 104.897 30.0729L105.08 30.2466C105.019 30.7678 104.958 31.5867 105.08 31.9962C105.129 32.1699 105.361 32.4057 105.483 32.4057H110.945C111.006 32.232 111.067 32.232 111.067 32.0583C111.067 31.1772 110.09 28.1991 110.029 27.9634L111.348 25.3327C111.874 27.4918 112.497 29.8371 112.961 31.7605C113.022 32.1699 113.536 32.4678 114 32.4678H122.296C122.345 32.0583 122.406 31.8225 122.406 31.6488C122.406 31.4751 122.235 30.1845 122.113 29.4772C121.942 28.4845 121.661 26.4991 121.258 25.0969C121.136 24.9232 120.683 24.6254 120.28 24.3276C120.854 23.2232 121.258 22.3422 122.113 21.1758C122.113 21.5232 122.113 21.9327 122.345 22.2305C122.638 22.64 123.213 22.9254 123.677 23.2232ZM130.006 35.0984L128.858 24.9232C128.858 24.5137 130.409 22.1064 130.703 21.6969L131.326 30.1845C131.326 31.8845 131.155 33.2867 130.006 35.0984ZM168.874 35.0984C168.752 35.0984 168.581 34.9867 168.471 34.9247C167.774 34.6269 167.603 33.994 167.432 33.5225L166.626 35.0984H152.403C152.171 34.751 152.171 34.1057 152.11 33.5845L151.254 35.0984H139.732C138.926 35.0984 137.545 34.2174 137.264 33.2247C137.203 32.8772 137.032 32.1203 137.032 31.9342C137.032 30.6561 137.838 28.1991 138.584 28.2488C138.584 28.2488 138.645 28.3108 138.706 28.3108V28.6086C138.706 28.7203 138.413 29.2539 138.352 29.4772C138.303 29.6013 138.303 30.0108 138.303 30.1225C138.303 31.0656 138.816 31.9342 140.136 32.294C140.197 32.294 140.307 32.4057 140.49 32.4057H152.11L151.083 24.4517C151.658 23.5086 152.403 22.5159 153.038 21.6349C153.1 22.4539 153.271 23.5086 153.319 24.1539C153.381 24.6875 153.442 25.6181 153.503 26.3254C153.674 27.6656 153.723 30.2466 154.016 32.1203C154.016 32.4057 154.297 32.4678 154.529 32.4678H167.09C167.493 31.7605 167.139 30.9415 167.371 30.3583C167.713 29.6013 168.409 28.9561 169.094 28.3108V30.0108C169.094 30.1225 168.874 31.1772 168.874 31.351C168.874 31.533 168.931 31.7108 169.045 31.8845C169.326 32.3437 169.729 32.4678 170.193 32.4678H181.936C182.107 32.4678 187.984 32.4057 188.045 32.4678C187.642 31.1772 187.116 30.3583 186.432 29.3035L187.752 27.1444C188.851 28.4845 189.426 29.713 189.426 31.1772C189.426 31.351 189.193 33.7583 189.022 35.0984H168.874ZM165.013 24.6254C165.013 24.5137 165.135 24.3276 165.245 24.278C165.477 24.0422 166.051 23.459 166.516 23.0495C166.564 23.0495 166.748 22.9254 166.858 22.9254C167.029 22.9254 168.703 24.5137 168.703 24.6254C168.703 24.7991 168.581 24.9232 168.532 24.9729C168.128 25.3824 167.554 25.7422 167.151 26.0276C167.029 26.0896 167.029 26.1517 166.858 26.1517C166.687 26.1517 166.222 25.7918 165.941 25.6181C165.648 25.3824 165.013 24.7991 165.013 24.6254ZM144.351 30.7678C144.229 30.7678 143.593 30.7678 143.251 30.6561C143.251 30.594 143.361 30.4203 143.422 30.3583C144.058 30.0729 145.206 29.6634 146.135 29.2539C145.732 28.9561 144.29 28.8444 144.29 28.0751C144.29 26.8466 146.941 23.7444 147.797 23.7444H148.151C147.968 24.278 147.748 24.9232 147.454 25.3824C147.345 25.5561 145.842 25.9656 145.842 26.5612C145.842 27.2561 147.516 26.8466 147.516 27.9013C147.516 28.7203 146.99 29.8371 145.732 30.594C145.438 30.7678 144.522 30.7678 144.351 30.7678ZM185.748 37.8532C185.858 37.8532 187.581 39.2553 187.581 39.4911C187.581 39.9626 186.09 40.7196 186.09 40.7196C185.919 40.7196 184.709 39.9006 184.184 39.4911C184.306 39.2553 185.393 37.8532 185.748 37.8532ZM140.551 55.2875C140.551 57.3349 138.938 59.5064 135.419 59.5064C135.187 59.5064 134.674 59.4444 134.1 59.4444C133.525 59.3824 132.951 59.3824 132.658 59.3824C132.426 59.3824 132.022 59.3824 131.558 59.3824C131.155 59.4444 130.642 59.4444 130.238 59.4444C130.01 59.4444 129.896 59.3865 129.896 59.2707C129.896 59.1466 129.945 59.097 130.177 59.097C130.471 59.097 130.703 59.0349 130.874 59.0349C131.277 58.9108 131.338 58.5013 131.448 57.9802C131.509 57.1612 131.509 55.5853 131.509 53.8232C131.509 50.8451 131.509 46.924 131.509 46.2787C131.448 45.6334 131.277 45.3356 130.642 45.1619C130.532 45.1619 130.177 45.1123 129.896 45.1123C129.725 45.1123 129.603 45.1123 129.603 44.9261C129.603 44.8145 129.725 44.7524 130.006 44.7524C131.045 44.7524 132.254 44.8145 132.597 44.8145C133.525 44.8145 134.271 44.7524 134.906 44.7524C138.352 44.7524 138.987 46.6882 138.987 47.6809C138.987 49.2568 138.071 50.2619 137.032 51.0809C138.584 51.6021 140.551 53.0042 140.551 55.2875ZM133.806 50.721C133.806 50.8948 133.867 50.8948 133.928 50.9568C134.1 51.0188 134.381 51.0188 134.845 51.0188C135.48 51.0188 135.883 50.8948 136.226 50.6714C136.69 50.2619 136.971 49.5546 136.971 48.5619C136.971 47.2714 136.226 45.5714 134.613 45.5714C134.332 45.5714 134.148 45.5714 133.977 45.6334C133.867 45.6334 133.806 45.7451 133.806 45.9313V50.721ZM138.181 56.1561C138.181 54.9276 137.777 53.2896 136.348 52.2969C135.945 51.9991 135.48 51.8875 134.735 51.8254C134.381 51.8254 134.209 51.8254 133.928 51.8254C133.847 51.7841 133.806 51.8254 133.806 51.9495V56.5656C133.806 57.794 133.867 58.1415 134.503 58.3772C134.955 58.613 135.419 58.613 135.883 58.613C136.751 58.613 138.181 58.1415 138.181 56.1561ZM89.9413 51.7634C89.9413 56.2181 86.8867 59.7298 82.0481 59.7298C76.5741 59.7298 74.3381 55.5729 74.3381 52.1232C74.3381 48.7853 76.5252 44.5167 82.2191 44.5167C86.9477 44.5167 89.9413 47.321 89.9413 51.7634ZM87.2288 52.4707C87.2288 48.14 84.8095 45.4473 81.6449 45.4473C79.4577 45.4473 76.9773 46.6758 76.9773 51.54C76.9773 55.5729 79.1645 58.7371 82.8545 58.7371C84.1741 58.7371 87.2288 58.0918 87.2288 52.4707ZM70.4159 46.9736C71.3445 48.0283 72.2609 49.6042 72.2609 51.9495C72.2609 54.3444 71.2223 56.2181 70.1838 57.3225C69.2674 58.2656 67.3124 59.6057 63.7934 59.6057C63.1092 59.6057 62.3027 59.5561 61.5574 59.494C60.8609 59.432 60.1645 59.3824 59.7124 59.3824C59.4802 59.3824 59.077 59.432 58.6127 59.432C58.2095 59.432 57.6963 59.432 57.2931 59.432C57.065 59.432 56.951 59.3741 56.951 59.2583C56.951 59.1466 56.9998 59.0845 57.232 59.0845C57.5252 59.0845 57.7574 59.0845 57.9285 59.0225C58.3317 58.9729 58.3805 58.5013 58.5027 57.9678C58.5516 57.1488 58.5516 55.6349 58.5516 53.8232C58.5516 50.8327 58.5516 46.9116 58.5516 46.2663C58.5027 45.621 58.3317 45.3356 57.6963 45.1619C57.5741 45.1619 57.232 45.0999 56.951 45.0999C56.7677 45.0999 56.6577 45.0999 56.6577 44.9261C56.6577 44.8021 56.7677 44.7524 57.0609 44.7524C58.0995 44.7524 59.2481 44.8021 59.8223 44.8021C60.3966 44.8021 61.6063 44.7524 62.7548 44.7524C65.1252 44.7524 68.2899 44.7524 70.4159 46.9736ZM69.6706 52.4707C69.6706 50.0137 68.6931 48.4378 67.8256 47.6188C66.1027 45.9188 63.9156 45.6831 62.4127 45.6831C62.0706 45.6831 61.3741 45.7451 61.2031 45.7948C61.032 45.9188 60.9709 45.9809 60.9709 46.2043C60.9709 46.8495 60.9709 48.5495 60.9709 50.0758C60.9709 52.1232 60.9709 56.094 60.9709 56.4539C61.032 56.913 61.032 57.732 61.2031 57.9181C61.4352 58.3276 62.1805 58.7371 63.6834 58.7371C65.6384 58.7371 66.958 58.3276 68.0577 57.3225C69.3285 56.2802 69.6706 54.4561 69.6706 52.4707ZM123.787 59.2583C123.787 59.3824 123.616 59.432 122.932 59.432C122.235 59.432 120.854 59.432 119.303 59.3824C119.009 59.3824 118.777 59.3824 118.777 59.2583C118.777 59.1466 118.838 59.0845 119.009 59.0845C119.132 59.0225 119.303 58.8488 119.181 58.613L117.69 54.5181C117.649 54.4023 117.572 54.3651 117.458 54.4064H113.193C113.145 54.4064 113.083 54.4064 113.022 54.5181L112.045 57.3225C111.813 57.794 111.752 58.2656 111.752 58.5013C111.752 58.8488 111.935 59.0845 112.509 59.0845H112.79C113.022 59.0845 113.083 59.1466 113.083 59.2583C113.083 59.3741 112.969 59.432 112.741 59.432C112.155 59.432 111.3 59.3824 110.725 59.3824C110.493 59.3824 109.454 59.432 108.477 59.432C108.363 59.432 108.265 59.4154 108.184 59.3824C108.11 59.4154 108.033 59.432 107.952 59.432C106.693 59.432 105.483 59.3824 104.958 59.3824C104.506 59.3824 103.345 59.432 102.6 59.432C102.331 59.432 102.197 59.3741 102.197 59.2583C102.197 59.1466 102.258 59.0845 102.49 59.0845C102.771 59.0845 103.003 59.0225 103.174 59.0225C103.577 58.9108 103.638 58.5013 103.748 57.9678C103.809 57.1488 103.809 55.5729 103.809 53.8232V52.1232C103.809 51.9991 103.748 51.9991 103.7 51.9991H96.4416C96.3805 51.9991 96.3317 51.9991 96.3317 52.1232V53.8232C96.3317 55.5729 96.3317 57.1488 96.3805 57.9678C96.4416 58.5013 96.5516 58.9108 97.1381 59.0225C97.4191 59.0225 97.8223 59.0845 98.1156 59.0845C98.3437 59.0845 98.4373 59.1424 98.3966 59.2583C98.3966 59.3741 98.2826 59.432 98.0545 59.432C96.7838 59.432 95.5741 59.3824 95.0609 59.3824C94.6577 59.3824 93.4481 59.432 92.6416 59.432C92.4136 59.432 92.2995 59.3741 92.2995 59.2583C92.2995 59.1466 92.3484 59.0845 92.5805 59.0845C92.8738 59.0845 93.1059 59.0225 93.277 59.0225C93.6802 58.9108 93.7413 58.5013 93.8513 57.9678C93.9124 57.1488 93.9124 55.5729 93.9124 53.8232C93.9124 50.8327 93.9124 46.9116 93.9124 46.2663C93.8513 45.621 93.6802 45.3356 93.0448 45.1619C92.9349 45.1619 92.5805 45.0999 92.2995 45.0999C92.1285 45.0999 92.0063 45.0999 92.0063 44.9261C92.0063 44.8021 92.1284 44.7524 92.4095 44.7524C93.4481 44.7524 94.6577 44.8021 95.122 44.8021C95.5741 44.8021 96.7838 44.7524 97.5413 44.7524C97.8223 44.7524 97.9445 44.8021 97.9445 44.9261C97.9445 45.0999 97.8223 45.0999 97.5902 45.0999C97.4802 45.0999 97.3092 45.1619 97.077 45.1619C96.5516 45.2736 96.3805 45.621 96.3317 46.2663C96.3317 46.9116 96.3317 47.4327 96.3317 50.4232V50.7707C96.3317 50.8948 96.3805 50.9444 96.4416 50.9444H103.7C103.748 50.9444 103.809 50.8948 103.809 50.7707C103.809 47.7926 103.809 46.9116 103.809 46.2663C103.748 45.621 103.577 45.3356 102.954 45.1619C102.832 45.1619 102.49 45.0999 102.197 45.0999C102.026 45.0999 101.916 45.0999 101.916 44.9261C101.916 44.8021 102.026 44.7524 102.319 44.7524C103.345 44.7524 104.506 44.8021 105.019 44.8021C105.483 44.8021 106.693 44.7524 107.438 44.7524C107.732 44.7524 107.842 44.8021 107.842 44.9261C107.842 45.0999 107.732 45.0999 107.5 45.0999C107.328 45.0999 107.145 45.1619 106.925 45.1619C106.461 45.2736 106.29 45.621 106.229 46.2663C106.229 46.9116 106.229 47.4327 106.229 50.4232V53.8232C106.229 55.5729 106.229 57.1488 106.29 57.9678C106.351 58.5013 106.461 58.9108 107.035 59.0225C107.328 59.0225 107.732 59.0845 108.013 59.0845C108.094 59.0845 108.151 59.1052 108.184 59.1466C108.224 59.1052 108.282 59.0845 108.355 59.0845C108.538 59.0845 108.758 59.0845 108.941 59.0225C109.797 58.9108 110.151 58.2656 110.554 57.3225L115.332 45.0999C115.552 44.5663 115.674 44.3429 115.906 44.3429C116.016 44.3429 116.187 44.5167 116.358 44.9758C116.822 46.0305 119.877 53.9349 121.087 56.913C121.832 58.613 122.345 58.9108 122.748 59.0225C123.042 59.0845 123.335 59.0845 123.555 59.0845C123.738 59.0845 123.787 59.0845 123.787 59.2583ZM117.226 53.2896L115.503 48.4875C115.503 48.4378 115.442 48.3137 115.381 48.3137C115.332 48.3137 115.332 48.4378 115.271 48.4875L113.548 53.2896C113.507 53.3641 113.523 53.4013 113.597 53.4013H117.116C117.226 53.4013 117.226 53.3517 117.226 53.2896ZM172.271 44.9261C172.271 45.042 172.157 45.0999 171.928 45.0999C171.745 45.0999 171.574 45.0999 171.354 45.1619C170.829 45.3356 170.658 45.7451 170.658 46.7999L170.426 59.0845C170.426 59.494 170.364 59.6678 170.193 59.6678C169.961 59.6678 169.741 59.432 169.558 59.2583C168.348 58.0918 165.88 55.5108 163.925 53.5254C161.848 51.4159 159.722 49.021 159.368 48.6736L159.551 56.8013C159.551 58.3276 159.832 58.7867 160.174 58.9729C160.528 59.0845 160.871 59.0845 161.152 59.0845C161.388 59.0845 161.506 59.1424 161.506 59.2583C161.506 59.3824 161.335 59.432 161.042 59.432C159.832 59.432 159.087 59.3824 158.683 59.3824C158.512 59.3824 157.645 59.432 156.667 59.432C156.513 59.432 156.399 59.4154 156.325 59.3824C156.203 59.432 155.971 59.432 155.568 59.432C154.883 59.432 153.503 59.432 151.951 59.3824C151.658 59.3824 151.426 59.3824 151.426 59.2583C151.426 59.1466 151.487 59.0845 151.658 59.0845C151.768 59.0225 151.951 58.8488 151.829 58.613L150.338 54.5181C150.297 54.4023 150.22 54.3651 150.106 54.4064H145.842C145.781 54.4064 145.732 54.4064 145.732 54.5181L144.693 57.3225C144.461 57.794 144.4 58.2656 144.4 58.5013C144.4 58.8488 144.571 59.0845 145.145 59.0845H145.438C145.671 59.0845 145.732 59.1466 145.732 59.2583C145.732 59.3741 145.614 59.432 145.377 59.432C144.803 59.432 143.948 59.3824 143.361 59.3824C143.141 59.3824 142.103 59.432 141.125 59.432C140.889 59.432 140.771 59.3741 140.771 59.2583C140.771 59.1424 140.848 59.0845 141.003 59.0845C141.174 59.0845 141.406 59.0845 141.577 59.0225C142.445 58.9108 142.787 58.2656 143.19 57.3225L147.968 45.0999C148.2 44.5663 148.322 44.3429 148.554 44.3429C148.725 44.3429 148.835 44.5167 149.006 44.9758C149.471 46.0305 152.525 53.9349 153.735 56.913C154.48 58.613 154.993 58.9108 155.397 59.0225C155.69 59.0845 155.971 59.0845 156.203 59.0845C156.285 59.0845 156.342 59.0845 156.374 59.0845C156.415 59.0845 156.472 59.0845 156.545 59.0845C156.777 59.0845 157.132 59.0845 157.413 58.9729C157.877 58.8488 157.938 58.2656 157.987 56.5656L158.158 45.0999C158.158 44.6904 158.219 44.4546 158.39 44.4546C158.622 44.4546 158.793 44.6904 159.087 45.0378C159.319 45.2736 162.251 48.4378 165.013 51.2422C166.345 52.5823 168.874 55.3991 169.216 55.6845H169.338L169.106 46.9736C169.106 45.7948 168.935 45.4473 168.471 45.2115C168.177 45.0999 167.725 45.0999 167.432 45.0999C167.2 45.0999 167.151 45.0378 167.151 44.9261C167.151 44.8021 167.371 44.7524 167.664 44.7524C168.642 44.7524 169.558 44.8021 169.961 44.8021C170.145 44.8021 170.89 44.7524 171.806 44.7524C172.1 44.7524 172.271 44.8021 172.271 44.9261ZM149.874 53.2896L148.151 48.4875C148.151 48.4378 148.09 48.3137 148.029 48.3137C147.968 48.3137 147.968 48.4378 147.919 48.4875L146.184 53.2896C146.135 53.3517 146.184 53.4013 146.245 53.4013H149.752C149.874 53.4013 149.874 53.3517 149.874 53.2896ZM189.951 59.2583C189.951 59.3824 189.829 59.432 189.487 59.432H187.813C187.238 59.432 186.896 59.432 186.493 59.3824C185.454 59.3203 184.99 58.9108 184.135 58.1415C183.328 57.3845 179.528 52.8802 179.174 52.359L178.954 52.0612H178.832V53.8232C178.832 55.5729 178.832 57.1488 178.893 57.9678C178.954 58.5013 179.125 58.9108 179.577 59.0225C179.871 59.0225 180.274 59.0845 180.506 59.0845C180.677 59.0845 180.787 59.1466 180.787 59.2583C180.787 59.3824 180.616 59.432 180.384 59.432C179.345 59.432 178.148 59.3824 177.683 59.3824C177.219 59.3824 176.009 59.432 175.264 59.432C174.995 59.432 174.861 59.3741 174.861 59.2583C174.861 59.1424 174.975 59.0845 175.203 59.0845C175.496 59.0845 175.728 59.0225 175.9 59.0225C176.242 58.9108 176.352 58.5013 176.413 57.9678C176.535 57.1488 176.535 55.5729 176.535 53.8232V50.4232C176.535 47.4327 176.535 46.9116 176.474 46.2663C176.413 45.621 176.303 45.3356 175.667 45.1619C175.496 45.1619 175.203 45.0999 174.922 45.0999C174.69 45.0999 174.568 45.0999 174.568 44.9261C174.568 44.8021 174.751 44.7524 175.032 44.7524C176.009 44.7524 177.219 44.8021 177.683 44.8021C178.148 44.8021 179.345 44.7524 179.981 44.7524C180.274 44.7524 180.384 44.8021 180.384 44.9261C180.384 45.0999 180.274 45.0999 180.103 45.0999C179.932 45.0999 179.809 45.1619 179.577 45.1619C179.064 45.2736 178.954 45.621 178.893 46.2663C178.832 46.9116 178.832 47.4327 178.832 50.4232V51.2422H178.954C179.577 50.5349 182.351 47.6188 182.925 46.9736C183.438 46.3283 183.903 45.8568 183.903 45.5094C183.903 45.3356 183.781 45.1619 183.609 45.1619C183.438 45.0999 183.377 45.0378 183.377 44.9261C183.377 44.8021 183.438 44.7524 183.671 44.7524C184.074 44.7524 185.112 44.8021 185.626 44.8021C186.2 44.8021 187.299 44.7524 187.874 44.7524C188.045 44.7524 188.216 44.8021 188.216 44.9261C188.216 45.0999 188.106 45.0999 187.935 45.0999C187.642 45.0999 187.177 45.2115 186.774 45.3356C186.2 45.5714 185.564 45.9809 184.758 46.7999C184.135 47.3831 181.251 50.3115 180.616 51.0064C181.312 51.8875 185.051 55.9824 185.797 56.6897C186.603 57.5086 187.471 58.3772 188.509 58.7867C189.083 59.0225 189.487 59.0845 189.719 59.0845C189.829 59.0845 189.951 59.1466 189.951 59.2583Z" fill="#00539F"/>
</g>
</g>
<defs>
<clipPath id="clip0_1046_3417">
<rect width="190" height="51" fill="white" transform="translate(0 11)"/>
</clipPath>
</defs>
</svg>
