<svg width="190" height="73" viewBox="0 0 190 73" fill="none" xmlns="http://www.w3.org/2000/svg">
<g clip-path="url(#clip0_1041_3324)">
<path d="M84.795 32.0155V26.3387H82.9195L82.9272 32.2121C82.9272 33.1542 82.564 34.3125 81.824 34.9083C81.0272 35.551 79.9393 35.8761 78.5863 35.8761C77.2134 35.8761 76.1132 35.554 75.3226 34.9174C74.5779 34.3277 74.2178 33.2842 74.2178 32.33V26.3372H72.327V32.0563C72.327 33.5171 72.8802 35.0656 73.9175 35.9321C75.0131 36.8621 76.5867 37.222 78.5939 37.222C80.5614 37.222 82.1181 36.8591 83.2198 35.9245C84.2633 35.0475 84.795 33.4627 84.795 32.0155ZM95.4748 21.4135V36.9649H97.3258V21.4135H95.5928M108 21.4135V36.9649H109.849V21.4135H108.121M130.796 27.9779C129.669 26.7349 128.126 26.0847 126.183 26.0847C124.37 26.0847 122.939 26.5187 121.926 27.3791C121.683 27.6044 120.536 28.3016 120.536 30.8436V36.9498H122.403V30.96C122.403 29.1605 122.862 28.6463 123.388 28.2577C124.085 27.739 125.008 27.4744 126.126 27.4744C127.303 27.4744 128.248 27.7496 128.941 28.2985C129.584 28.8081 129.894 29.4448 129.894 30.2523V36.9816H131.661V30.2523C131.661 29.4448 132.036 28.8081 132.68 28.2985C133.363 27.7496 134.307 27.4744 135.488 27.4744C136.657 27.4744 137.598 27.7496 138.288 28.2955C138.927 28.8097 139.238 29.4478 139.238 30.2523V36.9498H141.041V30.9993C141.041 28.8853 140.612 28.1246 139.645 27.3322C138.64 26.5036 137.217 26.0847 135.424 26.0847C133.516 26.0847 131.967 26.7349 130.796 27.9779ZM189.785 44.1796V30.9963C189.785 29.5506 189.258 28.3726 188.21 27.4925C187.107 26.561 185.552 26.0862 183.589 26.0862C181.646 26.0862 180.042 26.5837 178.934 27.5288C177.484 28.7915 177.362 29.6414 177.362 30.9086V36.9498H179.214V30.4867C179.214 29.5854 179.6 28.8762 180.367 28.3242C181.153 27.7587 182.234 27.4744 183.584 27.4744C184.934 27.4744 186.03 27.801 186.837 28.4422C187.588 29.041 187.956 29.788 187.956 30.7256V44.1796M59.9173 27.6196C58.5581 26.6003 56.6995 26.0847 54.3919 26.0847C48.1618 26.0847 46.4211 29.5733 46.7582 32.8366V44.1917H48.6077V35.2486C49.2206 36.0213 52.0369 37.2522 54.3199 37.2522C56.603 37.2522 58.457 36.7381 59.8437 35.7249C61.2534 34.6891 61.9705 33.3266 61.9705 31.6738C61.9705 29.9937 61.281 28.6282 59.9173 27.6196ZM58.5873 34.6346C57.5576 35.4331 56.0774 35.8383 54.3199 35.8383C52.3847 35.7778 48.5862 34.4562 48.5969 31.9974C48.5862 31.0704 49.0719 29.7351 49.9561 28.9079C50.9581 27.9553 52.4276 27.4744 54.3199 27.4744C56.1065 27.4744 57.5377 27.8797 58.5719 28.6841C59.5679 29.4554 60.0521 30.4277 60.0521 31.6586C60.0521 32.9032 59.5725 33.8755 58.5873 34.6346ZM165.35 28.4558C164.229 27.1009 161.69 26.0847 159.053 26.0847C156.747 26.0847 154.885 26.6003 153.523 27.6196C152.159 28.6267 151.467 29.9937 151.467 31.6738C151.467 33.3281 152.187 34.6891 153.606 35.7249C154.992 36.7381 156.258 37.2069 159.097 37.2069C161.935 37.2069 164.129 35.7688 164.82 35.1442V36.9649H166.576V32.141C166.576 30.3052 166.19 29.4659 165.35 28.4558ZM163.214 34.5333C162.009 35.3257 160.138 35.8383 159.128 35.8383C157.19 35.8383 155.875 35.4391 154.848 34.6497C153.875 33.8967 153.403 32.9183 153.403 31.6586C153.403 30.4186 153.883 29.4448 154.879 28.6841C155.912 27.8797 157.341 27.4744 159.128 27.4744C160.997 27.4744 162.459 27.9583 163.47 28.9155C164.362 29.7593 164.808 30.8572 164.819 32.197C164.777 33.2056 164.16 33.9012 163.214 34.5333ZM55.9579 50.4401V51.7345H57.1806V48.3744H55.9594V49.6326H54.041V48.3744H52.8214V51.7345H54.041V50.4401M72.4144 49.1759H72.5676V48.3759H68.5469V49.1759H69.9459V51.7345H71.1671V49.1759M77.1889 50.4219H79.4229V49.6386H77.1889L77.1919 49.1759L79.3923 49.1774H79.5455V48.3759H75.9677V51.7376H79.5654V50.9331H77.1889M84.5345 48.5257V48.3759H83.3148V51.7376H86.7624V50.9331H84.5299M114.889 50.6639L113.107 48.4334L113.061 48.3729H111.318V51.7345H112.544L112.538 51.5833L112.475 49.442L114.253 51.6771L114.299 51.7345H116.045V48.3744H114.823L114.827 48.5287M143.036 50.4219H145.269V49.6386H143.033V49.1774H145.391V48.3759H141.816V51.7376H145.413V50.9331H143.033M174.834 49.1759H176.237V48.3759H172.215V49.1759H173.611L173.617 51.5863V51.7345H174.835V51.5863M158.788 48.3502C157.255 48.3502 156.618 48.5272 156.618 49.6205V50.4446C156.618 51.6665 157.476 51.7572 158.786 51.7572C160.027 51.7572 160.977 51.6635 160.977 50.4446V49.6205C160.977 48.441 160.07 48.3502 158.788 48.3502ZM159.756 50.4446C159.756 50.8605 159.666 50.9588 158.786 50.9588C157.839 50.9588 157.839 50.8907 157.839 50.4446V49.6205C157.852 49.2515 157.858 49.1517 158.786 49.1517C159.218 49.1517 159.557 49.1623 159.678 49.2848C159.716 49.3226 159.764 49.3967 159.755 49.6144M168.446 50.304L168.484 50.2798C168.804 50.0938 168.838 49.7868 168.838 49.442C168.838 48.574 168.228 48.3896 167.244 48.3744H164.652V51.7345H165.87V50.7214H167.125C167.581 50.7259 167.581 50.9285 167.581 51.0132V51.7345H168.8V51.0132C168.8 50.6639 168.691 50.4371 168.446 50.304ZM166.93 49.9229L165.87 49.9154V49.1744H166.995C167.617 49.1744 167.617 49.2303 167.617 49.5373C167.617 49.8322 167.617 49.9229 166.93 49.9229ZM122.335 48.3744H119.902V51.7345H122.485C123.77 51.7345 124.363 51.3066 124.363 50.3857V49.6628C124.363 48.5287 123.339 48.3744 122.335 48.3744ZM123.143 50.3857C123.143 50.6352 123.031 50.9316 122.485 50.9316H121.123V49.1759H122.334C123.069 49.1759 123.143 49.3226 123.143 49.6628V50.3857ZM137.702 50.304L137.741 50.2813C138.062 50.0938 138.096 49.7868 138.096 49.442C138.096 48.574 137.483 48.3896 136.5 48.3744H133.91V51.7345H135.131V50.7214H136.383C136.84 50.7259 136.84 50.9285 136.84 51.0132V51.7345H138.058V51.0132C138.058 50.6639 137.951 50.434 137.702 50.304ZM136.185 49.9229L135.131 49.9154V49.1744H136.25C136.878 49.1744 136.878 49.2303 136.878 49.5343C136.878 49.8322 136.878 49.9229 136.185 49.9229ZM107.862 51.5168L106.245 48.4576L106.204 48.3759H104.668L104.625 48.4576L103.04 51.5153L102.926 51.7376H104.218L104.258 51.6544L104.517 51.1629H106.397L106.663 51.6559L106.706 51.7376H107.978L107.86 51.5153L107.862 51.5168ZM104.88 50.4129L105.454 49.2938L106.031 50.4129M63.0569 48.3502C61.5261 48.3502 60.8872 48.5272 60.8872 49.6205V50.4446C60.8872 51.6665 61.7468 51.7572 63.0569 51.7572C64.2965 51.7572 65.2465 51.6635 65.2465 50.4446V49.6205C65.2465 48.441 64.3378 48.3502 63.0569 48.3502ZM64.0268 50.4446C64.0268 50.8605 63.9379 50.9588 63.0569 50.9588C62.1069 50.9588 62.1069 50.8907 62.1069 50.4446V49.6205C62.1222 49.2515 62.1268 49.1517 63.0569 49.1517C63.4874 49.1517 63.8276 49.1623 63.9471 49.2848C63.9854 49.3226 64.0314 49.3967 64.0268 49.6144M94.1234 49.2742C94.1234 48.2988 93.1029 48.3472 92.2019 48.3472C91.1094 48.3472 90.0767 48.3835 90.0767 49.3604C90.0767 50.2783 90.9577 50.3554 91.8924 50.3887L92.0686 50.3947L92.3306 50.4008C92.9527 50.4159 93.0401 50.4386 93.0401 50.7274C93.0401 51.0117 92.9788 51.0964 92.2234 51.0964C91.3285 51.0964 91.2703 50.986 91.2703 50.8106H90.0522C90.0522 51.0798 90.1319 51.2355 90.2927 51.3943C90.659 51.7542 91.3408 51.7542 92.1314 51.7542H92.2019C93.083 51.7542 94.2199 51.6937 94.2199 50.673C94.2199 49.7566 93.4124 49.7218 92.2019 49.6779C91.2948 49.6432 91.2259 49.6296 91.2259 49.3453C91.2259 49.0806 91.3163 49.0353 92.179 49.0353C92.8807 49.0353 92.9037 49.1169 92.9037 49.2742M153.031 49.2742C153.031 48.2988 152.011 48.3472 151.11 48.3472C150.017 48.3472 148.983 48.3835 148.983 49.3604C148.983 50.2783 149.865 50.3554 150.799 50.3887L150.976 50.3947L151.238 50.4008C151.86 50.4159 151.948 50.4386 151.948 50.7274C151.948 51.0117 151.886 51.0964 151.133 51.0964C150.239 51.0964 150.178 50.986 150.178 50.8106H148.96C148.96 51.0798 149.036 51.2355 149.199 51.3943C149.567 51.7542 150.248 51.7542 151.041 51.7542H151.11C151.991 51.7542 153.128 51.6937 153.128 50.673C153.128 49.7566 152.323 49.7218 151.105 49.6779C150.201 49.6432 150.134 49.6296 150.134 49.3453C150.134 49.0806 150.224 49.0353 151.087 49.0353C151.788 49.0353 151.813 49.1169 151.813 49.2742M183.569 49.2742C183.569 48.2988 182.548 48.3472 181.648 48.3472C180.555 48.3472 179.524 48.3835 179.524 49.3604C179.524 50.2783 180.403 50.3554 181.34 50.3887L181.514 50.3947L181.776 50.4008C182.398 50.4159 182.486 50.4386 182.486 50.7274C182.486 51.0117 182.424 51.0964 181.669 51.0964C180.777 51.0964 180.716 50.986 180.716 50.8106H179.498C179.498 51.0798 179.577 51.2355 179.738 51.3943C180.106 51.7542 180.788 51.7542 181.577 51.7542H181.648C182.527 51.7542 183.665 51.6937 183.665 50.673C183.665 49.7566 182.856 49.7218 181.646 49.6779C180.74 49.6432 180.673 49.6296 180.673 49.3453C180.673 49.0806 180.762 49.0353 181.625 49.0353C182.329 49.0353 182.351 49.1169 182.351 49.2742M26.6611 47.1193L25.4614 45.9277L20.2624 51.0117C22.6881 50.2562 24.8877 48.9189 26.6611 47.1193ZM22.711 43.1906L14.0767 51.6408C14.5594 51.6877 15.0481 51.7179 15.5431 51.7194C15.9767 51.7224 16.4011 51.7013 16.8225 51.6695L24.0885 44.5592M19.9621 40.4536L9.65766 50.5429C10.3242 50.8151 11.0122 51.0465 11.7262 51.231L21.3381 41.8221M17.2163 37.7165L6.16871 48.5347C6.68968 48.9339 7.24436 49.2984 7.81589 49.6326L18.5907 39.0835M14.4644 34.9839L3.40145 45.8098C3.8029 46.3194 4.23347 46.8033 4.69468 47.2584L15.8419 36.3525M11.7216 32.2469L1.36355 42.3801C1.63629 43.0046 1.94274 43.6065 2.2921 44.1887L13.0915 33.6139M8.96968 29.5053L0.248065 38.0446C0.333872 38.831 0.473307 39.5977 0.670968 40.3432L10.3441 30.8768M6.21774 26.7727L0.839517 32.0458C0.502525 33.1253 0.292753 34.2396 0.214355 35.3665L7.59524 28.1443M25.4629 45.9262L30.291 41.2021C30.6496 40.1178 30.8856 38.9792 30.9882 37.8057L24.0885 44.5592M22.711 43.1906L30.9867 35.0974C30.9163 34.3134 30.7851 33.5358 30.5944 32.7716L21.3427 41.8251M19.9682 40.4566L29.911 30.7271C29.6475 30.095 29.3441 29.4826 29.004 28.9004L18.5923 39.088M17.2163 37.7165L27.9053 27.2642C27.5092 26.7503 27.0814 26.2609 26.6244 25.7989L15.8419 36.3525M14.4674 34.9839L25.1641 24.518C24.6476 24.1096 24.1028 23.7372 23.5338 23.4036L13.0915 33.6169M11.7216 32.2469L21.7058 22.4766C21.0401 22.1926 20.3544 21.9566 19.6541 21.7704L10.3441 30.8798M8.96968 29.5113L17.3266 21.3349C16.7791 21.275 16.2287 21.2447 15.6779 21.2441C15.3194 21.2441 14.9669 21.2547 14.613 21.2744L7.59371 28.1428M11.2405 21.8657C8.87127 22.5541 6.70454 23.7947 4.92298 25.4828L6.22234 26.7727" fill="black"/>
</g>
<defs>
<clipPath id="clip0_1041_3324">
<rect width="190" height="31" fill="white" transform="translate(0 21)"/>
</clipPath>
</defs>
</svg>
