<svg width="190" height="73" viewBox="0 0 190 73" fill="none" xmlns="http://www.w3.org/2000/svg">
<g clip-path="url(#clip0_1046_3491)">
<path d="M123.127 15.0215L113.173 32.4325L113.055 32.4003V32.398L106.774 21.4523L112.883 27.0252L123.127 15.0215Z" fill="#E41323"/>
<path d="M119.82 43.9621L116.558 44.0288L112.558 36.7378L108.697 43.8632C107.972 44.1346 107.222 44.0794 106.424 43.9184L113.055 32.4023L113.173 32.4345V32.4391L119.82 43.9621Z" fill="#101820"/>
<path d="M73.2351 42.2958C70.5418 44.6441 66.8825 44.352 63.4279 43.9932L63.4233 32.714C67.0067 32.254 71.5032 32.0378 73.8607 34.8277C75.3948 37.1346 75.197 40.2281 73.2351 42.2958ZM70.8914 41.2654C72.1771 39.4921 72.1771 36.8747 70.8546 35.2003C69.769 33.8249 67.9221 33.6685 66.3052 33.9284L66.3282 42.7742C68.1061 42.9628 69.8173 42.7466 70.8914 41.2654Z" fill="#101820"/>
<path d="M102.949 42.7879C101.019 44.6831 97.0883 44.276 94.2363 43.9816V32.7139C97.454 32.201 102.843 32.0998 103.059 35.1611C103.149 36.4284 102.45 37.4243 101.102 37.9625C102.171 38.2385 103.103 38.779 103.459 39.5541C103.965 40.6512 103.832 41.9208 102.949 42.7856V42.7879ZM100.237 36.0558C100.382 35.3221 100.237 34.5884 99.6045 34.1836C98.8524 33.7029 97.9508 33.6592 97.0791 33.7949L97.0745 37.4473C98.5764 37.5899 100.002 37.2403 100.235 36.0535L100.237 36.0558ZM99.9449 42.4176C100.725 41.9323 100.971 41.1089 100.803 40.2855C100.541 38.9929 98.7466 38.6226 97.0745 38.8273L97.1021 42.8661C98.0842 42.9397 99.0778 42.9581 99.9449 42.4176Z" fill="#101820"/>
<path d="M87.2554 32.6679L89.3346 32.6518L89.2932 39.7611C89.2794 42.0956 87.6901 43.8988 85.4131 44.2162C84.408 44.3565 83.442 44.3542 82.4392 44.1794C80.4842 43.8367 78.9777 42.3348 78.9616 40.2809L78.8926 32.6426H81.7699L81.809 39.2068C81.8136 40.0716 81.9815 40.9847 82.4806 41.6862C83.1545 42.6338 84.3528 42.7626 85.4522 42.4705C86.4412 42.206 87.2094 41.1871 87.2163 39.952L87.2531 32.6702L87.2554 32.6679Z" fill="#101820"/>
<path d="M82.856 53.4522C82.856 55.9523 80.8297 57.9786 78.3296 57.9786C75.8295 57.9786 73.8032 55.9523 73.8032 53.4522C73.8032 50.9521 75.8295 48.9258 78.3296 48.9258C80.8297 48.9258 82.856 50.9521 82.856 53.4522ZM80.0339 51.1315C79.6912 50.4553 79.0656 50.0919 78.4124 50.0712C77.7592 50.0505 77.1175 50.3909 76.7334 51.0349C75.8778 52.4701 75.8686 54.317 76.646 55.7982C77.0117 56.4928 77.7063 56.8838 78.3848 56.8424C80.3306 56.7205 81.2322 53.4959 80.0316 51.1338L80.0339 51.1315Z" fill="#5B6770"/>
<path d="M97.2864 57.7285C95.8443 58.0045 94.4643 57.9355 93.0015 57.7101V49.1978C94.6437 48.9586 96.1985 48.9195 97.7004 49.2461C99.6784 49.6762 100.828 51.1896 100.872 53.1745C100.923 55.4101 99.6255 57.28 97.2864 57.7262V57.7285ZM98.5054 54.8397C98.8619 53.7219 98.8573 52.4155 98.2639 51.3713C97.6084 50.219 96.2284 49.8901 95.0163 50.1707L95.0324 56.7487C96.6746 57.05 98.0339 56.3232 98.5054 54.842V54.8397Z" fill="#5B6770"/>
<path d="M71.1743 57.6674L69.1135 57.6996L69.1066 53.9184L65.4243 53.9115L65.4289 57.6881L63.4233 57.695V49.1781L65.4174 49.2057L65.422 52.8029L69.1089 52.8006L69.1135 49.1942L71.1674 49.1758L71.1743 57.6674Z" fill="#5B6770"/>
<path d="M116.201 57.492C116.201 57.7818 115.217 57.8646 115.019 57.6369L110.463 52.4757L110.431 57.6829C109.954 57.7381 109.58 57.7473 109.039 57.6691L109.051 49.2258C109.458 49.0694 110.058 49.0418 110.299 49.3247L114.752 54.571L114.798 49.2166C115.247 49.097 115.638 49.0924 116.215 49.2373L116.201 57.492Z" fill="#5B6770"/>
<path d="M124.9 54.1861L123.405 54.1677C122.998 54.1631 123.002 53.1074 123.419 53.1051L126.576 53.0936L126.558 57.137C125.01 57.9972 123.246 58.2157 121.592 57.7097C120.033 57.2336 119.124 55.8398 118.966 54.2505C118.812 52.7164 119.189 51.1432 120.401 50.1174C122.089 48.6868 124.523 48.5534 126.466 49.6459C126.429 50.0691 126.206 50.4141 125.85 50.7384C124.713 49.9495 123.094 49.8276 122.057 50.8304C120.548 52.2932 120.797 55.6121 122.48 56.5344C123.232 56.9461 124.134 56.9185 124.909 56.5712L124.902 54.1884L124.9 54.1861Z" fill="#5B6770"/>
<path d="M126.574 32.6348H123.688V44.029H126.574V32.6348Z" fill="#101820"/>
<path d="M90.5998 56.4337C90.7171 56.8362 90.7355 57.2456 90.632 57.7125H85.5122V49.1887C86.1815 49.1082 86.7542 49.1105 87.5201 49.2232V56.5809L90.6021 56.4337H90.5998Z" fill="#5B6770"/>
<path d="M105.835 49.1484H103.825V57.7113H105.835V49.1484Z" fill="#5B6770"/>
</g>
<defs>
<clipPath id="clip0_1046_3491">
<rect width="190" height="73" fill="white"/>
</clipPath>
</defs>
</svg>
