<svg width="190" height="73" viewBox="0 0 190 73" fill="none" xmlns="http://www.w3.org/2000/svg">
<path fill-rule="evenodd" clip-rule="evenodd" d="M142.77 24.1758V30.4191L146.79 30.4221C149.969 30.4221 151.465 29.2349 151.465 27.264C151.465 25.3276 150.008 24.1758 146.71 24.1758H142.77ZM149.491 31.2904C151.36 31.4465 151.809 31.9415 152.534 33.0686L154.078 35.8776C154.884 37.0375 155.564 37.6606 157.142 37.6606V38.0862C157.142 38.0862 155.776 38.0862 155.208 38.0862C154.333 38.0862 152.655 38.1945 151.718 37.0472L149.701 33.7212C148.995 32.7393 148.781 31.9449 146.432 31.9449H142.771L142.775 36.4271C142.775 37.2212 143.123 37.5236 143.769 37.5236H144.122V38.0866H138.757V37.5236H139.107C139.754 37.5236 140.102 37.2212 140.102 36.4271V24.6055C140.102 23.8107 139.754 23.5072 139.107 23.5072H138.757V22.9453H147.702C152.893 22.9453 154.344 25.0703 154.344 27.1143C154.344 29.4335 152.513 30.792 149.491 31.2904Z" fill="#231F20"/>
<path fill-rule="evenodd" clip-rule="evenodd" d="M171.512 24.6067C171.512 23.8108 171.859 23.5091 172.506 23.5091H172.859V22.9473H167.489V23.5091H167.842C168.488 23.5091 168.836 23.8108 168.836 24.6067V36.4269C168.836 37.2209 168.488 37.5233 167.842 37.5233H167.489V38.0863H172.859V37.5233H172.506C171.86 37.5233 171.512 37.2209 171.512 36.4269V24.6067Z" fill="#231F20"/>
<path fill-rule="evenodd" clip-rule="evenodd" d="M12.3466 36.4268C12.3466 37.2208 11.9979 37.5232 11.3517 37.5232H11V38.0862H21.6049C25.8352 38.0862 28.2566 36.7139 28.2566 33.8108C28.2566 31.6354 26.885 30.3257 23.4768 29.9087C25.1232 29.4783 26.5833 28.3359 26.5833 26.5652C26.5833 23.9929 24.0155 22.9453 20.6066 22.9453H11V23.5072H11.3513C11.9975 23.5072 12.3462 23.8107 12.3462 24.6055L12.3466 36.4268ZM15.0208 24.2714H19.4777C22.8123 24.2714 23.9341 24.9953 23.9341 26.5849C23.9341 28.1933 22.9601 29.423 19.3224 29.423L15.0055 29.4215L15.0208 24.2714ZM20.5656 30.8559C23.8905 30.8559 25.2778 32.2152 25.2778 33.8515C25.2778 35.3736 24.2668 36.3958 20.4845 36.3958H15.0208V30.8559H20.5656Z" fill="#231F20"/>
<path fill-rule="evenodd" clip-rule="evenodd" d="M68.0408 22.9457V23.5076H67.6895C67.0433 23.5076 66.6954 23.8111 66.6954 24.6059L66.6972 36.4085L74.3539 36.41C75.6154 36.3577 76.607 35.6917 77.1812 34.7785L77.7065 34.9767L76.1433 38.0941L62.688 38.0866V37.5236H63.0397C63.6859 37.5236 64.0342 37.2212 64.0342 36.4271V24.6055C64.0342 23.8107 63.6859 23.5072 63.0397 23.5072H62.688V22.9453L68.0408 22.9457Z" fill="#231F20"/>
<path fill-rule="evenodd" clip-rule="evenodd" d="M54.0729 22.9468V23.5087H53.7216C52.9346 23.5087 52.845 23.9193 52.5 24.5596L45.5668 38.0859H43.3447L36.3335 24.5637C35.9878 23.9238 35.8952 23.509 35.1068 23.509H34.7573V22.9472L40.3118 22.9453V23.5072H39.9623C39.2213 23.5072 38.9338 24.0138 39.2739 24.6903L44.9501 35.6189L50.5452 24.6903C50.8861 24.0138 50.6012 23.5072 49.8605 23.5072H49.5103V22.9453L54.0729 22.9468Z" fill="#231F20"/>
<path fill-rule="evenodd" clip-rule="evenodd" d="M104.236 30.8858V31.4477H103.619C102.973 31.4477 102.626 31.7497 102.626 32.546L102.628 35.3513C101.682 36.926 98.662 38.609 94.0521 38.609C87.518 38.609 83.355 34.9977 83.355 30.5431C83.355 26.8643 87.2727 22.6094 93.948 22.6094C97.7156 22.6094 100.469 23.925 101.236 24.4316C101.236 24.4876 102.047 27.8062 102.045 27.8129C102.043 27.8204 101.468 28.0279 101.467 28.0279C101.464 28.0298 99.7216 23.8705 94.2705 23.8515C89.5702 23.835 86.3648 27.2346 86.3648 30.5517C86.3648 34.2115 89.5247 37.2254 94.2705 37.2078C97.2359 37.1959 100.044 35.6622 100.036 34.5501L100.043 32.5457C100.043 31.7497 99.6962 31.4473 99.0492 31.4473H98.4339V30.8854H104.236V30.8858Z" fill="#231F20"/>
<path fill-rule="evenodd" clip-rule="evenodd" d="M123.474 32.3267L119.804 25.2289L119.799 25.2393L116.246 32.3263L123.474 32.3267ZM130.172 37.5227V38.0857H124.563V37.5227H124.914C125.654 37.5227 125.94 37.0195 125.596 36.3441L124.286 34.0126H115.367L114.153 36.3441C113.811 37.0195 114.094 37.5227 114.835 37.5227H115.185L115.182 38.0857H110.535V37.5227H110.884C111.437 37.5227 111.694 37.3215 112.011 36.7298L119.27 22.959H121.311L128.541 36.4569C128.596 36.5543 128.646 36.645 128.697 36.7283C129.012 37.3208 129.268 37.5224 129.819 37.5224L130.172 37.5227Z" fill="#231F20"/>
<path fill-rule="evenodd" clip-rule="evenodd" d="M29.2316 50.323H28.486V48.0636H25.5808V50.323H24.8345V45.1348H25.5808V47.3942H28.486V45.1348H29.2316V50.323Z" fill="#231F20"/>
<path fill-rule="evenodd" clip-rule="evenodd" d="M35.4837 47.7299C35.4837 46.5889 36.3431 45.7527 37.5 45.7527C38.6626 45.7527 39.5235 46.5886 39.5235 47.7299C39.5235 48.8637 38.6626 49.707 37.5 49.707C36.3431 49.707 35.4837 48.8637 35.4837 47.7299ZM34.7153 47.7299C34.7153 49.1366 35.7879 50.3917 37.4836 50.3917C39.2409 50.3917 40.2914 49.1287 40.2914 47.7299C40.2914 46.2854 39.2114 45.0684 37.5 45.0684C35.8182 45.0684 34.7153 46.2929 34.7153 47.7299Z" fill="#231F20"/>
<path fill-rule="evenodd" clip-rule="evenodd" d="M49.1642 45.8038H47.3688V50.323H46.6225V45.8038H44.8271V45.1348H49.1642V45.8038Z" fill="#231F20"/>
<path fill-rule="evenodd" clip-rule="evenodd" d="M57.3704 45.8038H55.1726V47.371H57.2953V48.0404H55.1726V49.6536H57.4379V50.323H54.4263V45.1348H57.3704V45.8038Z" fill="#231F20"/>
<path fill-rule="evenodd" clip-rule="evenodd" d="M63.5319 49.6536H65.875V50.323H62.7871V45.1348H63.5319V49.6536Z" fill="#231F20"/>
<path fill-rule="evenodd" clip-rule="evenodd" d="M73.5492 46.2772C73.1079 45.8591 72.6819 45.737 72.3321 45.737C71.8524 45.737 71.5096 45.9883 71.5096 46.353C71.5096 47.3494 73.7541 47.3349 73.7541 48.9857C73.7541 49.7985 73.1389 50.3917 72.3015 50.3917C71.7377 50.3917 71.283 50.2413 70.8488 49.912V48.9701C71.2296 49.4558 71.7094 49.7227 72.2178 49.7227C72.7958 49.7227 73.0634 49.3572 73.0634 49.069C73.0634 47.9957 70.8193 47.8751 70.8193 46.4519C70.8193 45.6075 71.4421 45.0684 72.3941 45.0684C72.7883 45.0684 73.1833 45.1897 73.5492 45.432V46.2772Z" fill="#231F20"/>
<path fill-rule="evenodd" clip-rule="evenodd" d="M88.1594 49.0995C87.8029 49.4557 87.4295 49.7069 87.0484 49.7069C86.7138 49.7069 86.4331 49.4556 86.4103 49.1596C86.4103 48.7568 86.737 48.4902 87.3153 48.1247L88.1594 49.0995ZM89.2171 47.7454C89.1028 48.003 88.8751 48.3685 88.6619 48.5813L87.9305 47.7454C88.5999 47.2735 88.8825 46.8636 88.8825 46.3603C88.8825 45.7294 88.3658 45.2344 87.6349 45.2344C86.8281 45.2344 86.3043 45.7066 86.3043 46.4279C86.3043 46.8707 86.5843 47.3123 86.8901 47.6304C86.1669 48.0486 85.6655 48.5361 85.6655 49.1592C85.6655 49.8514 86.2658 50.3912 86.9733 50.3912C87.4445 50.3912 87.9697 50.2016 88.616 49.6158L89.2092 50.3237H90.1672L89.1181 49.1051C89.5049 48.6717 89.8185 48.1628 89.9626 47.745H89.2171V47.7454ZM87.033 46.3603C87.033 46.0796 87.2772 45.8649 87.5968 45.8649C87.9391 45.8649 88.19 46.0938 88.19 46.3988C88.19 46.6654 88.069 46.892 87.5128 47.2437C87.2921 47.0301 87.033 46.6799 87.033 46.3603Z" fill="#231F20"/>
<path fill-rule="evenodd" clip-rule="evenodd" d="M102.991 45.7735H103.469C104.192 45.7735 104.481 46.0707 104.488 46.5568C104.496 46.9906 104.267 47.4013 103.469 47.4013H102.991V45.7735ZM102.245 45.1348V50.3226H102.991V48.071H103.302C103.681 48.071 103.994 48.1927 104.68 49.2571L105.362 50.3226H106.252C105.897 49.8279 105.767 49.6532 105.546 49.2952C105.151 48.6493 104.862 48.1696 104.389 47.8579C104.945 47.638 105.256 47.1888 105.256 46.5874C105.256 45.6899 104.603 45.1348 103.553 45.1348H102.245Z" fill="#231F20"/>
<path fill-rule="evenodd" clip-rule="evenodd" d="M114.332 45.8038H112.134V47.371H114.256V48.0404H112.134V49.6536H114.4V50.323H111.389V45.1348H114.332V45.8038Z" fill="#231F20"/>
<path fill-rule="evenodd" clip-rule="evenodd" d="M122.219 46.2772C121.78 45.8591 121.351 45.737 121.002 45.737C120.523 45.737 120.181 45.9883 120.181 46.353C120.181 47.3494 122.426 47.3349 122.426 48.9857C122.426 49.7985 121.808 50.3917 120.972 50.3917C120.411 50.3917 119.954 50.2413 119.52 49.912V48.9701C119.9 49.4558 120.379 49.7227 120.888 49.7227C121.466 49.7227 121.733 49.3572 121.733 49.069C121.733 47.9957 119.489 47.8751 119.489 46.4519C119.489 45.6075 120.114 45.0684 121.064 45.0684C121.459 45.0684 121.855 45.1897 122.22 45.432V46.2772H122.219Z" fill="#231F20"/>
<path fill-rule="evenodd" clip-rule="evenodd" d="M128.343 47.7299C128.343 46.5889 129.202 45.7527 130.359 45.7527C131.523 45.7527 132.383 46.5886 132.383 47.7299C132.383 48.8637 131.523 49.707 130.359 49.707C129.202 49.707 128.343 48.8637 128.343 47.7299ZM127.575 47.7299C127.575 49.1366 128.648 50.3917 130.343 50.3917C132.101 50.3917 133.151 49.1287 133.151 47.7299C133.151 46.2854 132.07 45.0684 130.359 45.0684C128.678 45.0684 127.575 46.2929 127.575 47.7299Z" fill="#231F20"/>
<path fill-rule="evenodd" clip-rule="evenodd" d="M139.388 45.7735H139.867C140.59 45.7735 140.879 46.0707 140.885 46.5568C140.893 46.9906 140.665 47.4013 139.867 47.4013H139.388V45.7735ZM138.641 45.1348V50.3226H139.388V48.071H139.699C140.081 48.071 140.392 48.1927 141.076 49.2571L141.761 50.3226H142.651C142.293 49.8279 142.163 49.6532 141.944 49.2952C141.549 48.6493 141.258 48.1696 140.787 47.8579C141.343 47.638 141.653 47.1888 141.653 46.5874C141.653 45.6899 140.999 45.1348 139.951 45.1348H138.641Z" fill="#231F20"/>
<path fill-rule="evenodd" clip-rule="evenodd" d="M150.96 45.8038H149.166V50.323H148.419V45.8038H146.625V45.1348H150.96V45.8038Z" fill="#231F20"/>
<path fill-rule="evenodd" clip-rule="evenodd" d="M158.688 46.2772C158.246 45.8591 157.821 45.737 157.47 45.737C156.992 45.737 156.65 45.9883 156.65 46.353C156.65 47.3494 158.893 47.3349 158.893 48.9857C158.893 49.7985 158.278 50.3917 157.441 50.3917C156.878 50.3917 156.421 50.2413 155.987 49.912V48.9701C156.368 49.4558 156.847 49.7227 157.358 49.7227C157.936 49.7227 158.202 49.3572 158.202 49.069C158.202 47.9957 155.958 47.8751 155.958 46.4519C155.958 45.6075 156.58 45.0684 157.531 45.0684C157.927 45.0684 158.323 45.1897 158.688 45.432V46.2772H158.688Z" fill="#231F20"/>
<path fill-rule="evenodd" clip-rule="evenodd" d="M176.37 22.8242H176.278C176.259 22.8623 176.223 22.8679 176.199 22.8679C176.147 22.8679 176.114 22.8324 176.028 22.7943C175.965 22.7671 175.887 22.748 175.783 22.748C175.479 22.748 175.224 22.9788 175.224 23.2968C175.224 23.6986 175.618 23.8315 175.799 23.8994C175.989 23.97 176.193 24.0297 176.193 24.2197C176.193 24.3635 176.073 24.5643 175.783 24.5643C175.579 24.5643 175.349 24.4232 175.246 24.2063H175.14L175.17 24.6815H175.254C175.254 24.6786 175.256 24.6759 175.256 24.6733C175.265 24.6513 175.295 24.6218 175.343 24.6218C175.387 24.6218 175.433 24.6352 175.498 24.6543C175.58 24.6789 175.68 24.7088 175.821 24.7088C176.228 24.7088 176.497 24.4262 176.497 24.0924C176.497 23.6907 176.169 23.5739 175.81 23.4436C175.731 23.4163 175.498 23.3405 175.498 23.1531C175.498 23.0307 175.585 22.8922 175.794 22.8922C175.96 22.8922 176.19 22.9631 176.264 23.2666H176.369L176.37 22.8242Z" fill="#231F20"/>
<path fill-rule="evenodd" clip-rule="evenodd" d="M176.728 22.7773V22.8748C176.826 22.8748 176.88 22.9562 176.88 23.0973V24.3976C176.88 24.4305 176.88 24.5794 176.728 24.5794V24.6772H177.181V24.5794C177.119 24.5794 177.03 24.5496 177.03 24.4006V22.9942H177.04L177.654 24.6772H177.844L178.441 23.0379H178.46V24.4278C178.46 24.4659 178.455 24.5634 178.324 24.5794V24.6772H179V24.5794C178.965 24.5742 178.867 24.5496 178.867 24.4278V23.0297C178.867 22.9998 178.87 22.8942 179 22.8748V22.7773H178.382L177.888 24.1318H177.877L177.383 22.7773H176.728Z" fill="#231F20"/>
</svg>
