<svg width="190" height="73" viewBox="0 0 190 73" fill="none" xmlns="http://www.w3.org/2000/svg">
<path d="M95 66.9062C120.171 66.9062 140.5 55.869 140.5 42.2627C140.5 28.6564 120.171 17.6191 95 17.6191C69.8291 17.6191 49.5 28.6594 49.5 42.2627C49.5 55.8659 69.8291 66.9062 95 66.9062Z" fill="#ED1C24"/>
<path d="M66.5852 20.4674C67.1961 19.3694 67.9262 18.6718 68.6777 18.3442C69.4078 18.0167 70.1592 18.0864 70.816 18.5535C70.816 18.5535 78.9018 24.2951 81.6511 26.2302C82.0024 26.488 82.2864 26.7913 82.4025 27.1644C82.5186 27.5374 82.5186 27.9105 82.2864 28.3776L81.9565 28.9599L81.6266 29.5423C81.367 29.9851 81.0401 30.2186 80.6644 30.2884C80.2887 30.3582 79.8641 30.2884 79.4669 30.1246C76.342 28.8416 67.1503 25.0594 67.1503 25.0594C66.3989 24.7561 65.9529 24.1738 65.8337 23.3791C65.7177 22.5845 65.9284 21.6048 66.5394 20.5098L66.5852 20.4643V20.4674ZM123.415 20.4674C122.804 19.3694 122.074 18.6718 121.323 18.3442C120.593 18.0167 119.841 18.0864 119.184 18.5535C119.184 18.5535 111.099 24.2951 108.349 26.2302C107.998 26.488 107.714 26.7913 107.598 27.1644C107.457 27.5132 107.482 27.9105 107.714 28.3776L108.044 28.9599L108.374 29.5423C108.633 29.9851 108.96 30.2186 109.336 30.2884C109.712 30.3582 110.136 30.2884 110.533 30.1246C113.658 28.8416 122.85 25.0594 122.85 25.0594C123.601 24.7561 124.047 24.1738 124.167 23.3791C124.286 22.5845 124.072 21.6048 123.461 20.5098L123.415 20.4643V20.4674ZM95.7058 24.0858C96.2465 24.0858 96.6467 23.8978 96.9033 23.5945C97.1629 23.2912 97.3248 22.8938 97.3737 22.451L98.9713 8.91752C99.066 8.10163 98.7361 7.401 98.0549 6.88841C97.3737 6.39706 96.3168 6.09375 94.9757 6.09375C93.6347 6.09375 92.5778 6.39706 91.8966 6.88841C91.2154 7.37976 90.8855 8.10163 90.9802 8.91752L92.5778 22.451C92.6236 22.8938 92.7886 23.2912 93.0482 23.5945C93.3079 23.8978 93.705 24.0858 94.2457 24.0858H95.7028H95.7058ZM88.6769 24.9715C89.0526 24.7379 89.242 24.4589 89.2879 24.1313C89.3337 23.828 89.2879 23.5004 89.1229 23.1971L84.9166 14.5408C84.6569 14.0039 84.1865 13.7006 83.5755 13.6764C82.9646 13.6309 82.1887 13.8644 81.3181 14.4013C80.4719 14.9381 79.9313 15.5205 79.6716 16.0816C79.4364 16.6427 79.5067 17.2008 79.861 17.6679L85.8544 25.2293C86.0651 25.4871 86.3492 25.6964 86.6303 25.7904C86.9113 25.8844 87.287 25.8359 87.6658 25.6023L88.1607 25.299L88.6555 24.9957L88.68 24.9715H88.6769ZM101.815 25.2748L102.31 25.5781C102.686 25.8116 103.04 25.8571 103.346 25.7661C103.651 25.6721 103.911 25.4871 104.122 25.205L110.115 17.6436C110.491 17.1765 110.561 16.6397 110.304 16.0573C110.069 15.4962 109.528 14.8896 108.658 14.377C107.812 13.8402 107.036 13.6309 106.4 13.6521C105.789 13.6976 105.319 14.0009 105.059 14.5165L100.853 23.1729C100.712 23.4762 100.642 23.8037 100.688 24.107C100.734 24.4103 100.923 24.7137 101.299 24.9472L101.794 25.2505L101.818 25.2748H101.815Z" fill="#FFF200"/>
<path d="M124.567 48.0503C122.239 48.0503 120.455 46.3457 120.455 43.8495C120.455 41.3533 122.218 39.5789 124.567 39.5789C126.916 39.5789 128.727 41.2138 128.727 43.8495C128.727 46.4852 126.894 48.0503 124.567 48.0503ZM123.672 51.878C125.764 51.878 127.713 51.1318 128.724 49.4273V50.874C128.724 51.2471 128.984 51.5049 129.36 51.5049H132.203C132.579 51.5049 132.839 51.2471 132.839 50.874V36.7339C132.839 36.3609 132.579 36.1031 132.203 36.1031H129.36C128.984 36.1031 128.724 36.3609 128.724 36.7339V38.1565C127.643 36.5944 125.764 35.7755 123.672 35.7755C119.371 35.7755 116.151 39.0421 116.151 43.8738C116.151 48.7054 119.371 51.9022 123.672 51.9022M115.589 39.4637C115.94 38.669 116.435 37.9229 116.976 37.292C117.235 36.9887 117.235 36.5216 116.811 36.2638C116.365 36.006 115.494 35.9605 114.859 35.9605C113.286 35.9605 111.193 36.4033 109.922 38.2717L109.547 38.8328V36.7339C109.547 36.3609 109.287 36.1031 108.911 36.1031H105.997C105.621 36.1031 105.362 36.3609 105.362 36.7339V50.874C105.362 51.2471 105.621 51.5049 105.997 51.5049H108.911C109.287 51.5049 109.547 51.2471 109.547 50.874V44.9687C109.547 41.9599 111.263 40.137 113.848 40.137C116.432 40.137 115.235 40.3251 115.61 39.4364L115.586 39.4607L115.589 39.4637ZM95.0001 48.0503C92.7213 48.0503 91.029 46.3457 91.029 43.8495C91.029 41.3533 92.7457 39.5789 95.0001 39.5789C97.2545 39.5789 99.1606 41.2138 99.1606 43.8495C99.1606 46.4852 97.3278 48.0503 95.0001 48.0503ZM94.1295 51.878C96.222 51.878 98.1709 51.1318 99.182 49.4273V50.874C99.182 51.2471 99.4416 51.5049 99.8174 51.5049H102.661C103.037 51.5049 103.297 51.2471 103.297 50.874V36.7339C103.297 36.3609 103.037 36.1031 102.661 36.1031H99.8174C99.4416 36.1031 99.182 36.3609 99.182 36.7339V38.1565C98.1006 36.5944 96.222 35.7755 94.1295 35.7755C90.0178 35.7755 86.7493 39.0421 86.7493 43.8738C86.7493 48.7054 90.0392 51.9022 94.1295 51.9022M78.7123 51.878C81.5563 51.878 83.5785 50.9438 84.892 49.3575C85.1975 48.9844 85.1517 48.6114 84.776 48.2838L83.2028 46.9068C82.9431 46.7188 82.7079 46.649 82.3811 46.9068C81.3699 47.841 80.0534 48.2838 78.7154 48.2838C76.5068 48.2838 75.1903 46.9766 74.7901 45.087H82.8759C84.6385 45.087 85.5305 44.2013 85.5305 42.3815C85.5305 39.1149 82.992 35.73 78.2694 35.73C73.5468 35.73 70.7029 39.1847 70.7029 43.6887C70.7029 48.1928 74.1822 51.8325 78.7184 51.8325M62.5437 51.878C66.5851 51.878 69.5482 49.3575 69.5482 45.8574C69.5482 42.3572 67.526 40.6527 63.4846 39.6487C60.9461 39.0178 59.8189 38.575 59.8189 37.2678C59.8189 35.9605 61.0164 35.4479 62.7331 35.4479C64.4499 35.4479 65.5771 35.9605 66.8936 36.7552C67.1991 36.9432 67.5993 36.8704 67.7856 36.4974L68.9128 34.4895C69.1022 34.1862 69.1022 33.7889 68.7967 33.5553C67.4099 32.4361 65.1311 31.6172 62.7331 31.6172C58.5023 31.6172 55.5881 33.9284 55.5881 37.4497C55.5881 40.9711 57.7967 42.5847 61.7678 43.5856C63.8603 44.0982 65.1769 44.6593 65.1769 46.0363C65.1769 47.4133 64.1658 48.0442 62.5223 48.0442C60.8789 48.0442 59.1133 47.4133 57.7264 46.2941C57.421 46.0363 57.0911 46.0363 56.8345 46.3639L55.3774 48.487C55.1177 48.7903 55.188 49.1877 55.4934 49.4212C57.256 50.9832 60.0541 51.8719 62.4979 51.8719M81.486 41.9842H74.9275C75.3735 40.3493 76.5007 39.2787 78.5229 39.2787C80.5452 39.2787 81.3669 40.4676 81.483 41.9842" fill="white"/>
</svg>
