<svg width="190" height="73" viewBox="0 0 190 73" fill="none" xmlns="http://www.w3.org/2000/svg">
<g clip-path="url(#clip0_1046_3495)">
<path d="M118.686 26.1476H114.233C113.918 26.1476 113.691 26.0786 113.552 25.9404L113.028 25.3883C111.037 23.3866 109.5 21.9199 108.434 20.9709C107.691 20.2636 106.835 19.6808 105.902 19.2453C105.658 19.159 105.623 19.021 105.78 18.8657L108.731 15.8632C108.774 15.8232 108.83 15.8008 108.889 15.8008C108.947 15.8008 109.003 15.8232 109.046 15.8632L118.826 25.8024C118.845 25.8275 118.857 25.8573 118.861 25.8887C118.896 25.9922 118.861 26.0786 118.721 26.1303H118.686V26.1476Z" fill="#E40A2C"/>
<path d="M59.588 46.8014C59.5606 46.7903 59.5366 46.7725 59.5181 46.7497C59.5048 46.7229 59.4988 46.6931 59.5006 46.6633V29.6667C59.4941 29.5403 59.538 29.4163 59.6229 29.3215L62.6443 26.2155C62.6614 26.195 62.6827 26.1783 62.7067 26.1664C62.7308 26.1544 62.7571 26.1477 62.784 26.1465H64.4082C64.4256 26.1439 64.4432 26.1439 64.4606 26.1465C64.6352 26.2155 64.74 26.3536 64.74 26.5779C64.7408 33.2731 64.7408 39.9682 64.74 46.6633C64.74 46.7151 64.7051 46.7669 64.6702 46.8014C64.6522 46.8197 64.6304 46.8339 64.6062 46.8427C64.582 46.8517 64.5562 46.8553 64.5305 46.8532H59.6404L59.588 46.8014ZM85.5929 46.4046H85.6976H85.6452C85.6452 36.9312 85.6976 31.3405 85.6976 29.5977C85.6976 29.3905 85.6976 29.218 85.8024 29.0972L88.6142 26.2328C88.6644 26.1803 88.7333 26.1494 88.8062 26.1465H90.5527C90.8147 26.1465 90.9369 26.2845 90.9369 26.5606V46.5771C90.9369 46.7497 90.8496 46.8532 90.6925 46.8532C87.8749 46.8436 85.0572 46.8321 82.2396 46.8187C82.2088 46.7967 82.1846 46.7668 82.1697 46.7324L73.612 26.5951C73.6068 26.5921 73.6007 26.5905 73.5945 26.5905C73.5885 26.5905 73.5824 26.5921 73.5771 26.5951L73.4723 26.6124V46.6116C73.4723 46.7842 73.4723 46.8532 73.2453 46.8532H68.46C68.4086 46.8534 68.3588 46.835 68.3203 46.8014C68.2799 46.766 68.2548 46.7166 68.2504 46.6633L68.233 46.3355V29.8909C68.233 29.6149 68.3377 29.3733 68.5473 29.1662C69.5397 28.1739 70.5294 27.1788 71.5163 26.181L71.6386 26.1465H76.6509C76.8779 26.1465 77.0002 26.2155 77.0701 26.3709C79.9248 33.0429 82.7658 39.7209 85.5929 46.4046Z" fill="#001257"/>
<path d="M129.358 36.4993C129.358 36.6029 129.34 36.6719 129.288 36.7236L119.211 46.7836C119.141 46.8526 119.071 46.8698 119.001 46.8181C118.914 46.7836 118.879 46.7146 118.879 46.6111V41.7795C118.879 41.6415 118.949 41.5206 119.054 41.3999L123.769 36.7064C123.804 36.6719 123.821 36.5856 123.821 36.4993C123.821 36.413 123.821 36.3268 123.752 36.2923L119.071 31.5988C118.949 31.4779 118.896 31.3571 118.896 31.2364V26.3875C118.896 26.284 118.914 26.215 119.001 26.1805C119.071 26.1287 119.141 26.146 119.211 26.215L129.288 36.275C129.34 36.3268 129.358 36.3958 129.358 36.4993Z" fill="#E40A2C"/>
<path d="M105.585 26.1465C107.07 26.1465 108.362 26.5433 109.428 27.3198C110.012 27.6973 110.488 28.2189 110.806 28.8331C111.125 29.4474 111.276 30.1332 111.244 30.8227C111.244 31.7027 110.982 32.4793 110.528 33.1522C110.039 33.8424 109.41 34.3084 108.607 34.5326C108.258 34.619 107.734 34.6535 107.035 34.6535H105.428V34.6707H105.446C108.17 34.7397 110.161 35.4472 111.419 36.8449C112.519 38.0528 112.921 39.6059 112.641 41.5729C112.542 42.4111 112.248 43.215 111.781 43.9217C111.314 44.6284 110.688 45.2183 109.952 45.6452C108.642 46.439 107.035 46.8532 105.131 46.8532H94.6001C94.4605 46.8532 94.3906 46.715 94.3906 46.4735V29.7356C94.3906 29.563 94.4605 29.4078 94.6001 29.2525C94.8272 29.0454 95.8227 28.0446 97.5691 26.2327C97.5921 26.2104 97.6195 26.1928 97.6495 26.181C97.6794 26.1691 97.7116 26.1633 97.7438 26.1637H105.585V26.1465ZM99.8745 38.2254C99.8448 38.2252 99.8155 38.2313 99.7884 38.2432C99.7613 38.2551 99.737 38.2725 99.7173 38.2944C99.6983 38.3154 99.684 38.3399 99.6749 38.3667C99.6659 38.3934 99.6624 38.4216 99.6649 38.4496V43.195L99.6823 43.2813C99.6948 43.3056 99.712 43.3273 99.7331 43.3451C99.754 43.3628 99.7784 43.3764 99.8047 43.3848L99.8745 43.402H105.271C105.935 43.402 106.563 43.1431 107.017 42.6945C107.489 42.2287 107.751 41.6247 107.751 40.9862V40.6411C107.754 40.3193 107.691 40.0003 107.564 39.7036C107.438 39.4069 107.252 39.1387 107.017 38.9156C106.549 38.4694 105.922 38.2217 105.271 38.2254H99.857H99.8745ZM99.8745 29.5976C99.8464 29.6019 99.8197 29.6118 99.7957 29.6266C99.7716 29.6414 99.7509 29.6609 99.7347 29.6839C99.7121 29.7067 99.6943 29.7336 99.6823 29.7632C99.6703 29.7929 99.6644 29.8245 99.6649 29.8564V34.5326C99.6649 34.6017 99.6998 34.6535 99.7347 34.7052C99.7872 34.757 99.8396 34.7742 99.9094 34.7742H104.293C104.922 34.7742 105.516 34.5154 105.97 34.0495C106.406 33.6009 106.668 32.9797 106.668 32.3412V31.9961C106.659 31.3655 106.41 30.7617 105.97 30.3051C105.752 30.083 105.491 29.9062 105.203 29.7847C104.916 29.6633 104.606 29.5996 104.293 29.5976H99.892H99.8745Z" fill="#001257"/>
<path d="M118.727 46.8535C118.867 46.9226 118.902 47.0089 118.867 47.1124C118.863 47.1438 118.851 47.1736 118.832 47.1986L109.051 57.1379C109.009 57.1779 108.953 57.2003 108.894 57.2003C108.836 57.2003 108.779 57.1779 108.737 57.1379L105.803 54.1354C105.628 53.9628 105.663 53.8421 105.908 53.7386C106.624 53.4625 107.48 52.8757 108.44 52.013C109.506 51.0812 111.042 49.6144 113.016 47.6128L113.557 47.0606C113.697 46.9225 113.907 46.8535 114.238 46.8535C115.735 46.8457 117.231 46.8457 118.727 46.8535Z" fill="#E40A2C"/>
</g>
<defs>
<clipPath id="clip0_1046_3495">
<rect width="71" height="46" fill="white" transform="translate(59.5 13.5)"/>
</clipPath>
</defs>
</svg>
