<svg width="190" height="73" viewBox="0 0 190 73" fill="none" xmlns="http://www.w3.org/2000/svg">
<g clip-path="url(#clip0_910_2424)">
<g clip-path="url(#clip1_910_2424)">
<g clip-path="url(#clip2_910_2424)">
<path d="M80.4322 34.2208C80.156 34.2208 79.8797 34.1523 79.6034 34.1523C79.3271 34.1523 79.0508 34.1523 78.7745 34.2208C78.291 32.9208 77.7385 31.4155 77.1168 29.9786H73.1107C72.5582 31.3471 72.0056 32.7155 71.5221 34.2208C71.3149 34.2208 71.1077 34.1523 70.9695 34.1523C70.7623 34.1523 70.6242 34.1523 70.417 34.2208L75.321 23.3418H75.6663L80.4322 34.2208ZM75.1829 25.3944L73.4561 29.3629H76.9096L75.1829 25.3944Z" fill="#2B2A7F"/>
<path d="M92.658 23.6152C93.0724 27.4468 93.4868 31.2784 93.9703 34.2889C93.694 34.2889 93.4868 34.2205 93.2105 34.2205C92.9343 34.2205 92.727 34.2205 92.4508 34.2889C92.1745 31.1415 91.8982 27.7889 91.6219 26.2152C89.8261 29.431 88.4446 31.9626 87.4777 34.0836H87.2704L86.4416 32.3047C85.4055 30.2521 84.3004 28.1994 83.2643 26.2152C82.919 29.2258 82.5046 32.3731 82.5046 34.2889C82.2973 34.2889 82.1592 34.2205 81.952 34.2205C81.7448 34.2205 81.6066 34.2205 81.3994 34.2889C81.8138 31.7573 82.7808 25.2573 82.919 23.6152H83.3334C84.5767 26.0784 86.0962 29.0205 87.7539 31.7573C89.2735 29.0889 90.724 26.3521 92.3126 23.6152H92.658Z" fill="#2B2A7F"/>
<path d="M97.4927 28.1994H99.9102C100.394 28.1994 100.877 28.131 101.292 28.131C101.292 28.2679 101.223 28.4047 101.223 28.5415C101.223 28.6784 101.223 28.8152 101.292 28.9521C100.808 28.9521 100.394 28.8836 99.9102 28.8836H97.4927V33.4679C98.4597 33.4679 99.4267 33.4679 100.325 33.3994C100.808 33.3994 101.292 33.331 101.775 33.2626C101.775 33.3994 101.706 33.6047 101.706 33.7415C101.706 33.8784 101.706 34.0836 101.775 34.2205H96.1113V23.6152H101.706C101.706 23.7521 101.637 23.9573 101.637 24.0942C101.637 24.231 101.637 24.3679 101.706 24.5731C101.223 24.5047 100.739 24.4363 100.325 24.4363H97.4927V28.1994Z" fill="#2B2A7F"/>
<path d="M103.986 23.6152H107.301C109.718 23.6152 110.755 24.4363 110.755 26.01C110.755 27.7889 109.097 28.6784 107.508 28.9521L110.755 32.9889L111.514 33.8784L111.791 34.2889C111.445 34.2889 111.169 34.2205 110.893 34.2205C110.616 34.2205 110.271 34.2205 109.995 34.2889C109.649 33.81 109.304 33.3994 109.028 32.9205L107.163 30.5258L105.92 29.0889H105.298V34.2889C105.022 34.2889 104.814 34.2205 104.607 34.2205C104.4 34.2205 104.124 34.2205 103.917 34.2889L103.986 23.6152ZM105.367 28.4731C105.574 28.4731 106.61 28.5415 107.37 28.4047C108.544 28.1994 109.373 27.3784 109.373 26.1468C109.373 25.0521 108.821 24.3679 107.646 24.1626C107.094 24.0942 105.989 24.0942 105.367 24.1626V28.4731Z" fill="#2B2A7F"/>
<path d="M113.656 23.6152C113.863 23.6152 114.139 23.6837 114.346 23.6837C114.554 23.6837 114.761 23.6837 115.037 23.6152V34.2889C114.761 34.2889 114.554 34.2205 114.346 34.2205C114.139 34.2205 113.863 34.2205 113.656 34.2889V23.6152Z" fill="#2B2A7F"/>
<path d="M126.157 33.5365C125.19 34.2208 123.878 34.426 122.704 34.426C119.25 34.426 117.178 32.2365 117.178 28.8155C117.178 25.326 119.803 23.3418 123.118 23.3418C124.293 23.3418 125.467 23.6155 126.503 24.026C126.365 24.4365 126.227 24.8471 126.157 25.2576H126.019C125.812 24.9839 124.638 23.8892 122.98 23.8892C120.079 23.8892 118.629 26.2155 118.629 28.8839C118.629 31.8944 120.356 33.8102 122.842 33.8102C124.569 33.8102 125.881 32.7839 126.157 32.5786V33.5365Z" fill="#2B2A7F"/>
<path d="M136.587 34.2208C136.311 34.2208 136.035 34.1523 135.758 34.1523C135.482 34.1523 135.206 34.1523 134.93 34.2208C134.446 32.9208 133.894 31.4155 133.272 29.9786H129.266C128.713 31.3471 128.161 32.7155 127.677 34.2208C127.47 34.2208 127.263 34.1523 127.125 34.1523C126.918 34.1523 126.779 34.1523 126.572 34.2208L131.476 23.3418H131.822L136.587 34.2208ZM131.269 25.3944L129.542 29.3629H132.996L131.269 25.3944Z" fill="#2B2A7F"/>
<path d="M147.5 34.2205H147.016C146.878 34.0152 146.533 33.6047 146.188 33.2626L139.419 25.8731H139.281V34.2889C139.142 34.2889 139.004 34.2205 138.866 34.2205C138.728 34.2205 138.59 34.2205 138.452 34.2889V23.6152H139.073L146.533 31.6205H146.671V23.6152C146.809 23.6152 146.947 23.6837 147.086 23.6837C147.224 23.6837 147.362 23.6837 147.5 23.6152V34.2205Z" fill="#2B2A7F"/>
<path d="M70.9008 46.9474C71.5224 47.9737 72.2131 48.5895 73.4564 48.5895C74.6997 48.5895 75.6667 47.5632 75.6667 46.3316C75.6667 43.458 70.7626 44.6895 70.7626 41.2001C70.7626 39.2159 72.3513 38.1895 74.2852 38.1895C75.045 38.1895 75.9429 38.3948 76.5646 38.9422C76.3574 39.3527 76.2883 39.7632 76.1502 40.2422H75.8739C75.5285 39.4211 74.8378 38.8738 73.9399 38.8738C72.8348 38.8738 71.9368 39.558 71.9368 40.7211C71.9368 43.5948 76.9099 42.4316 76.9099 45.7843C76.9099 48.0422 75.1832 49.3422 73.042 49.3422C72.2822 49.3422 71.0389 49.0001 70.4863 48.4527C70.6245 47.9738 70.6936 47.5632 70.7626 47.0843H70.9008V46.9474Z" fill="#2B2A7F"/>
<path d="M87.2702 48.3843C86.3032 49.0685 84.9909 49.2738 83.8167 49.2738C80.3631 49.2738 78.291 47.0843 78.291 43.6632C78.291 40.1738 80.9157 38.1895 84.2311 38.1895C85.4053 38.1895 86.5795 38.4632 87.6156 38.8738C87.4774 39.2843 87.3393 39.6948 87.2702 40.1053H87.1321C86.9249 39.8316 85.7507 38.7369 84.093 38.7369C81.192 38.7369 79.7415 41.0632 79.7415 43.7316C79.7415 46.7422 81.4683 48.658 83.9548 48.658C85.6816 48.658 86.994 47.6316 87.2702 47.4264V48.3843Z" fill="#2B2A7F"/>
<path d="M97.5621 38.3945C97.7693 38.3945 98.0456 38.463 98.2528 38.463C98.46 38.463 98.6672 38.463 98.9435 38.3945V49.0682C98.6672 49.0682 98.46 48.9998 98.2528 48.9998C98.0456 48.9998 97.7693 48.9998 97.5621 49.0682V43.7314C96.4569 43.7314 95.3518 43.663 94.2467 43.663C93.1415 43.663 92.0364 43.7314 90.9313 43.7314V49.0682C90.655 49.0682 90.4478 48.9998 90.2406 48.9998C90.0333 48.9998 89.7571 48.9998 89.5498 49.0682V38.3945C89.7571 38.3945 90.0333 38.463 90.2406 38.463C90.4478 38.463 90.655 38.463 90.9313 38.3945V42.8419C92.0364 42.8419 93.1415 42.9103 94.2467 42.9103C95.3518 42.9103 96.4569 42.8419 97.5621 42.8419V38.3945Z" fill="#2B2A7F"/>
<path d="M101.016 43.7316C101.016 40.3106 103.571 38.1895 106.818 38.1895C109.788 38.1895 112.758 39.7632 112.758 43.5264C112.758 47.0159 110.271 49.2738 106.749 49.2738C103.295 49.2738 101.016 47.0843 101.016 43.7316ZM110.271 40.1738C109.511 39.2159 108.268 38.6685 107.025 38.6685C104.262 38.6685 102.604 40.7211 102.604 43.8685C102.604 47.0159 104.538 48.658 106.887 48.658C110.202 48.658 111.376 45.2369 111.307 43.5264C111.238 42.2948 111.1 41.2001 110.271 40.1738Z" fill="#2B2A7F"/>
<path d="M114.139 43.7316C114.139 40.3106 116.695 38.1895 119.941 38.1895C122.911 38.1895 125.881 39.7632 125.881 43.5264C125.881 47.0159 123.395 49.2738 119.872 49.2738C116.418 49.2738 114.139 47.0843 114.139 43.7316ZM123.326 40.1738C122.566 39.2159 121.323 38.6685 120.079 38.6685C117.316 38.6685 115.659 40.7211 115.659 43.8685C115.659 47.0159 117.593 48.658 119.941 48.658C123.257 48.658 124.431 45.2369 124.362 43.5264C124.362 42.2948 124.154 41.2001 123.326 40.1738Z" fill="#2B2A7F"/>
<path d="M129.335 48.2472C130.302 48.2472 131.269 48.2472 132.167 48.1787C132.65 48.1787 133.134 48.1103 133.687 48.0419C133.687 48.1788 133.617 48.384 133.617 48.5209C133.617 48.6577 133.617 48.863 133.687 48.9998H127.954V38.3945C128.161 38.3945 128.437 38.463 128.644 38.463C128.852 38.463 129.059 38.463 129.335 38.3945V48.2472Z" fill="#2B2A7F"/>
<path d="M46.0439 53.1177C49.8919 52.6712 53.7399 49.8429 55.9814 45.5261C55.6078 45.7494 55.1969 45.9355 54.7859 46.1215C48.0613 48.8009 39.3193 42.7351 35.2472 32.5385C34.9857 31.9059 34.7615 31.2733 34.5747 30.6406C34.9483 37.8973 37.1525 44.1864 42.4575 49.7685C43.6529 51.0337 44.9979 52.2618 46.4175 53.3782C46.3054 53.3038 46.156 53.1921 46.0439 53.1177Z" fill="#F7323F"/>
<path d="M43.2422 16.5371C45.5958 17.6907 48.323 19.2537 51.0128 21.3377C57.2144 26.101 61.2118 31.7948 62.9677 37.9723C63.827 34.8835 64.1632 31.6087 64.1632 28.1106V16.5371H43.2422Z" fill="#2B2A7F"/>
<path d="M51.7597 21.8965C51.7223 21.9337 51.6849 21.9337 51.6476 21.9709C48.2479 24.2037 45.2592 26.8831 42.7188 29.9347C45.2592 31.5349 47.949 33.5816 50.3027 36.1121C52.5816 32.6513 55.1593 29.8974 57.625 27.7763C55.9812 25.6551 54.0386 23.72 51.7597 21.8965Z" fill="#E63329"/>
<path d="M55.9814 45.5273C53.7399 49.8441 49.8919 52.6724 46.0439 53.1189C47.09 53.9748 48.2108 54.7935 49.3316 55.5006C51.7973 53.9376 54.2256 51.8909 56.243 49.8069C56.4298 49.5836 56.6539 49.3975 56.8407 49.1743C56.6539 47.8718 56.355 46.6809 55.9814 45.5273Z" fill="#2B2A7F"/>
<path d="M64.2004 16.5371C61.6973 17.0953 56.9153 18.5094 51.7598 21.8958C54.0387 23.7193 55.9814 25.6545 57.6252 27.7385C60.1656 25.5056 62.5566 23.9426 64.2004 22.9751V16.5371Z" fill="#0070BA"/>
<path d="M42.7189 29.8965C40.1038 33.0225 38.0117 36.595 36.48 40.428C37.7502 43.7773 39.6555 46.866 42.4201 49.7687C43.0178 50.4013 43.6903 51.0339 44.3254 51.6294C45.2593 45.3402 47.5382 40.1675 50.2654 36.0368C47.9865 33.5435 45.2967 31.4967 42.7189 29.8965Z" fill="#2B2A7F"/>
<path d="M50.3027 36.0743C53.4782 39.4979 56.0186 43.8147 56.8405 49.1363C59.9413 45.7126 61.884 42.0285 63.0047 37.9722C61.9961 34.3624 60.2028 30.9016 57.6251 27.7012C55.1967 29.8596 52.5816 32.6134 50.3027 36.0743Z" fill="#B20E10"/>
<path d="M51.6478 21.9332C51.6851 21.896 51.7225 21.896 51.7599 21.8588C51.5357 21.6727 51.3116 21.4866 51.05 21.3006C48.3228 19.2166 45.5956 17.6536 43.2794 16.5H34.5V25.7662C36.2932 26.4361 39.394 27.7758 42.719 29.8597C45.2594 26.8454 48.2481 24.2032 51.6478 21.9332Z" fill="#E42313"/>
</g>
</g>
</g>
<defs>
<clipPath id="clip0_910_2424">
<rect width="190" height="73" fill="white"/>
</clipPath>
<clipPath id="clip1_910_2424">
<rect width="113" height="40" fill="white" transform="translate(34.5 16.5)"/>
</clipPath>
<clipPath id="clip2_910_2424">
<rect width="113" height="40" fill="white" transform="translate(34.5 16.5)"/>
</clipPath>
</defs>
</svg>
