<svg width="190" height="73" viewBox="0 0 190 73" fill="none" xmlns="http://www.w3.org/2000/svg">
<g clip-path="url(#clip0_910_2412)">
<path d="M137.718 63.7572L49.6714 63.751L52.2944 61.002L140.089 61.0173C139.415 62.358 138.65 62.6225 137.721 63.7602L137.718 63.7572Z" fill="#EB2B30"/>
<path d="M101.359 35.9774C100.298 36.6877 99.1881 36.8322 97.8689 36.8291L69.093 36.783C68.4565 36.783 67.983 36.002 67.8507 35.6207C67.6939 35.1656 67.8999 34.4153 68.3673 33.9509L91.9557 10.4303C92.789 9.81526 93.5362 9.39398 94.5264 9.24023L102.58 9.31096L80.898 30.9682L106.254 31.0143L101.362 35.9743L101.359 35.9774Z" fill="#EB2B30"/>
<path d="M87.7522 28.2037L93.3856 22.435L105.75 22.3981L108.967 19.031L118.536 9.27402L124.292 9.26172C124.889 9.26172 125.489 9.57537 125.685 9.90132C125.882 10.2273 126.079 11.2697 125.713 11.6356L109.117 28.2283L87.7461 28.2037H87.7522Z" fill="#EB2B30"/>
<path d="M104.858 19.6432L96.27 19.6278L106.59 9.27734L115.018 9.41572L104.858 19.6432Z" fill="#EB2B30"/>
<path d="M82.5524 54.5534L82.4816 47.5701C82.4755 46.9458 82.0112 45.7527 81.2732 45.7251C79.5389 45.6636 78.2412 47.404 78.2382 49.0276L78.2289 54.5134C77.1957 54.6272 76.2978 54.6764 75.2339 54.4119L75.1632 45.353C75.1601 44.7657 75.2616 43.5203 75.7351 43.3266C76.6638 43.1021 77.5217 43.1697 78.3858 43.4065C77.9737 44.0307 77.7646 44.5104 78.2628 44.9532C79.2129 43.7079 80.4491 42.9668 81.7683 42.9668C83.1705 42.9668 84.3297 43.6525 85.0985 45.1869C85.9103 43.4127 88.4841 42.4963 90.3014 43.2835C91.1778 43.6617 92.3001 44.3936 92.3094 45.7589L92.3832 54.5442L89.6034 54.5503L89.5911 47.5209C89.5911 46.749 88.9361 45.6359 88.1058 45.7035C86.4453 45.8388 85.4429 47.361 85.4121 48.8769L85.3014 54.5503L82.5555 54.5565L82.5524 54.5534Z" fill="#465660"/>
<path d="M97.8535 58.6768C96.7865 58.972 95.8517 58.9136 94.8154 58.8029V43.2742H97.6075C97.5399 43.7108 97.3093 44.1044 97.5983 44.5749C99.2988 42.6592 102.128 42.3855 104.139 44.2028C106.783 46.589 106.716 51.4998 103.991 53.7384C102.036 55.3466 99.6155 55.1713 97.9489 53.6185L97.8535 58.6799V58.6768ZM102.764 50.7157C103.441 48.9014 103.219 46.9765 101.614 45.9371C100.63 45.3006 98.9452 45.685 98.324 46.6997C97.6598 47.7821 97.6721 49.0244 97.9396 50.2329C98.1918 51.3676 99.1727 52.2778 100.237 52.3054C101.233 52.3331 102.343 51.8411 102.761 50.7187L102.764 50.7157Z" fill="#465660"/>
<path d="M122.069 52.2241C123.364 52.3102 124.563 52.135 125.544 51.0895C126.153 51.6922 126.565 52.218 126.851 53.1497C125.249 54.6841 122.813 55.3237 120.525 54.6134C118.628 54.023 116.635 52.3072 116.337 50.0132C116.024 47.5963 116.771 45.1978 118.717 43.9831C120.664 42.7685 123.296 42.5502 125.288 44.14C126.823 45.3669 127.361 47.6178 126.934 49.5796L119.366 49.6842C119.597 51.1325 120.621 52.1288 122.069 52.2241ZM124.052 47.4979C123.945 45.8035 122.847 45.3331 121.706 45.3669C120.565 45.4007 119.72 46.0618 119.449 47.4763L124.055 47.4979H124.052Z" fill="#465660"/>
<path d="M63.3676 53.294C62.5005 52.1686 62.6573 50.0868 63.5521 49.1612C65.0896 47.5714 67.2268 47.47 69.4254 47.5253C69.7729 47.5345 69.739 46.5751 69.5084 46.3199C68.2846 44.9823 66.3166 45.4804 64.5331 46.6151C64.201 45.8002 63.8627 45.2437 63.5029 44.4872C65.0128 43.3556 67.0176 42.7621 68.8134 43.0789C71.1289 43.4878 72.6818 44.9085 72.6757 47.2762L72.651 54.4041C71.6824 54.6808 70.8829 54.6409 70.0312 54.5425L69.8282 53.3309C68.2077 55.2436 65.1112 55.5572 63.3707 53.2971L63.3676 53.294ZM66.3719 52.3069C67.236 52.6759 68.2846 52.4176 68.8288 51.8057C69.4039 51.16 69.8559 50.425 69.5853 49.318C67.8725 49.9546 66.3535 49.3119 65.7723 50.8924C65.6247 51.2922 65.8153 52.0702 66.3719 52.3069Z" fill="#465660"/>
<path d="M61.6208 54.5664L52.1313 54.5756L52.1498 41.5222L54.8804 38.9023L54.905 51.8112L61.63 51.8173L61.6208 54.5664Z" fill="#465660"/>
<path d="M115.077 46.0298C112.909 45.7438 111.221 47.0507 111.159 49.1417L111.002 54.4122C109.978 54.6705 109.062 54.6213 108.01 54.5198L108.072 43.4007C109.173 43.1362 110.027 43.2038 111.098 43.2746C111.116 43.9265 110.975 44.4123 111.245 45.1565C111.983 43.6866 113.407 42.9917 115.07 43.2776L115.077 46.0298Z" fill="#465660"/>
<path d="M132.933 54.5691C131.054 54.9043 129.36 53.9203 129.332 51.9523L129.203 41.8263L132.189 38.9512L132.309 51.7278C132.755 52.0107 133.413 51.9953 133.643 52.2075C133.899 52.4412 133.939 53.9818 133.797 54.3907C133.677 54.7382 133.164 54.5291 132.93 54.5691H132.933Z" fill="#465660"/>
<path d="M139.384 54.5691C137.505 54.9043 135.811 53.9203 135.783 51.9523L135.654 41.8263L138.64 38.9512L138.76 51.7339C139.218 52.0199 139.858 51.983 140.085 52.2013C140.359 52.4658 140.39 53.9848 140.251 54.3907C140.132 54.7382 139.615 54.5291 139.384 54.5691Z" fill="#465660"/>
</g>
<defs>
<clipPath id="clip0_910_2412">
<rect width="190" height="73" fill="white"/>
</clipPath>
</defs>
</svg>
