<svg width="190" height="73" viewBox="0 0 190 73" fill="none" xmlns="http://www.w3.org/2000/svg">
<g clip-path="url(#clip0_910_2387)">
<path d="M109.142 34.8994C120.844 32.6623 130.064 23.1874 132.233 11.1465V26.6089C132.233 31.1709 128.624 34.8775 124.181 34.8775H109.142M156.617 36.2154H141.578C137.135 36.2154 133.526 39.9219 133.526 44.4839V59.9463C135.695 47.9273 144.915 38.4525 156.617 36.2154Z" fill="#8CC541"/>
<path d="M133.505 11.1465V26.6089C133.505 31.1709 137.114 34.8775 141.557 34.8775H156.596C144.915 32.6404 135.696 23.1655 133.505 11.1465Z" fill="#048B98"/>
<path d="M34.4883 51.5889L33.5079 50.9748C33.2785 51.3477 33.1533 51.5889 33.0907 51.7644C33.5496 52.0276 33.8834 52.225 34.1128 52.3346C34.3005 52.0056 34.384 51.8302 34.4048 51.8302C34.822 52.0934 35.1349 52.2688 35.3018 52.3346C35.3435 52.2908 35.4061 52.1592 35.5104 51.9837C35.6147 51.8302 35.6564 51.7424 35.6564 51.6986V51.5889L34.7594 51.0625C34.6343 51.3038 34.5508 51.4793 34.4883 51.5889ZM44.1459 49.4176L45.168 50.0756C45.4392 49.615 45.5852 49.3299 45.6269 49.2641C44.9386 48.8693 44.584 48.6719 44.584 48.6719C44.4588 48.8474 44.3337 49.0886 44.1459 49.4176ZM45.7938 43.9125C45.4809 44.5266 45.3349 44.8556 45.3349 44.8556C45.7312 45.711 45.9398 46.2374 45.9398 46.4128L45.9189 46.5006H35.2392C35.0306 46.9392 34.8637 47.2682 34.7386 47.4875C34.8429 47.5533 35.0932 47.5753 35.4895 47.5972C35.8858 47.6191 36.157 47.663 36.303 47.7288C36.5742 47.8604 36.7202 48.1016 36.7202 48.4087C36.5116 48.5622 36.2404 48.7158 35.8858 48.8474C35.5104 48.9789 35.0306 49.0886 34.4674 49.1325C34.0085 49.1544 33.7999 49.1544 33.7999 49.1544C32.5693 49.1544 31.9643 48.6938 31.9643 47.7946C31.9643 47.5533 32.0895 47.1805 32.3189 46.6322C32.5484 46.1058 32.6735 45.8207 32.6735 45.7987V45.6452L32.5901 45.6013C32.3189 45.8645 32.0686 46.3032 31.8183 46.8954C31.568 47.4875 31.4429 48.0139 31.4429 48.4745C31.4429 49.0667 31.6515 49.5053 32.0478 49.8124C32.4024 50.0756 32.8404 50.2072 33.4036 50.2072C33.7791 50.2072 34.1962 50.1414 34.6551 50.0317C35.4061 49.8563 36.0318 49.5931 36.5533 49.286L36.6785 49.0886C37.1373 48.3648 37.4502 47.7946 37.6171 47.4437H46.1901C46.3778 46.6541 46.4613 46.1277 46.4613 45.9084C46.4613 45.6452 46.3778 45.2943 46.211 44.8118C46.1067 44.3731 45.9398 44.0661 45.7938 43.9125ZM54.8048 43.9125C54.492 44.5266 54.3459 44.8556 54.3459 44.8556C54.7423 45.711 54.93 46.2374 54.93 46.4128L54.9091 46.5006H52.8024H52.7815H52.3018H52.2809C52.0515 46.1716 51.8637 45.5794 51.7386 44.7679C51.6134 43.8248 51.4883 43.1888 51.3423 42.8817C51.2797 42.9914 51.1962 43.1668 51.0711 43.3862C50.9459 43.6055 50.8625 43.7809 50.8208 43.8906L51.3214 45.8865C51.2588 46.2374 51.1337 46.4348 50.9251 46.5006C50.4036 46.6322 49.903 46.698 49.465 46.698C49.1729 46.698 48.9018 46.6541 48.6306 46.6102L48.4637 46.4567C48.4429 46.4128 48.422 46.347 48.4012 46.2374C48.3803 45.9523 48.3594 45.7987 48.2969 45.7768C48.0674 46.4567 47.9423 46.9392 47.9423 47.1805C47.9423 47.2243 47.984 47.334 48.0257 47.4875L48.1508 47.5753C48.3803 47.6411 48.6097 47.663 48.8809 47.663C49.2564 47.663 49.6944 47.6191 50.2159 47.5753C50.6748 47.5095 50.9251 47.4437 50.9877 47.3998C51.238 47.0489 51.4257 46.7638 51.5091 46.5444C51.53 46.5883 51.5926 46.7199 51.7177 46.9612C51.8012 47.1366 51.9054 47.2682 52.0097 47.334C52.114 47.3998 52.1975 47.4437 52.26 47.4437H55.1594C55.3472 46.6541 55.4515 46.1277 55.4515 45.9084C55.4515 45.6452 55.368 45.2943 55.2012 44.8118C55.0969 44.3731 54.93 44.0661 54.8048 43.9125ZM53.1361 49.4176L54.1582 50.0756C54.4294 49.615 54.5754 49.3299 54.6171 49.2641C53.9079 48.8693 53.5742 48.6719 53.5742 48.6719C53.4699 48.8474 53.3239 49.0886 53.1361 49.4176ZM59.8944 41.9825C60.0821 41.6535 60.1864 41.478 60.249 41.4342C60.7705 41.7412 61.0834 41.9167 61.2294 41.9825L61.6466 41.2806L60.5827 40.6007C60.3742 40.9297 60.2699 41.1271 60.2281 41.171C59.7901 40.9297 59.4564 40.7323 59.2269 40.6007L58.8097 41.3684C58.9349 41.4342 59.1018 41.5438 59.3521 41.6754C59.6024 41.8289 59.7901 41.9167 59.8944 41.9825ZM91.1827 41.5219C90.8699 41.3464 90.6196 41.2148 90.4527 41.1052C90.3901 41.0613 90.3484 40.9955 90.3484 40.9078L90.3693 40.7543C90.3901 40.6446 90.3901 40.5788 90.3693 40.5349H90.2024C89.9312 40.9736 89.7435 41.3245 89.6183 41.5658C89.5766 41.6096 89.5766 41.6974 89.5766 41.7851C89.5766 41.8728 89.5975 41.9386 89.6183 41.9605C89.7018 42.0702 89.7643 42.136 89.8269 42.1799C89.9729 43.1668 90.0772 43.9345 90.1398 44.4828C90.1607 44.6582 90.2024 44.9214 90.2232 45.2285C90.2858 45.7549 90.3275 46.0619 90.3275 46.1497C90.3275 46.2812 90.3067 46.369 90.3067 46.4128L90.2858 46.4786C90.0981 46.4786 89.368 46.4786 88.0748 46.5006H87.6576C87.6993 46.4567 87.7828 46.3032 87.9079 46.0839C88.0122 45.9303 88.0748 45.8207 88.0748 45.7987C88.0748 45.4039 87.7827 45.0311 87.2196 44.6582C86.6981 44.3293 86.26 44.1757 85.8637 44.1757C85.3214 44.1757 84.5288 44.4828 83.4858 45.1188C82.2343 45.8865 81.3791 46.347 80.8785 46.5225H80.2735C80.0232 46.5225 79.8564 46.4786 79.8146 46.3909C79.9607 46.2155 80.065 45.9084 80.1067 45.4917C80.1275 45.2285 80.1693 44.9434 80.1901 44.6802C79.8772 44.9872 79.5852 45.2724 79.3349 45.5794C79.3349 45.7549 79.3349 45.9084 79.314 46.0839C79.2932 46.3909 79.1889 46.5444 78.9803 46.5444H77.4993H72.2846C72.1594 46.5444 72.076 46.4567 71.9926 46.3032L71.9508 46.1935V46.0839C72.1386 45.9961 72.3889 45.9303 72.6392 45.8865C72.7852 45.8426 72.8895 45.8426 72.9312 45.8426H73.7239L74.0993 44.8776H73.557C73.2232 44.8776 72.9938 44.8776 72.8686 44.8337C71.8257 44.5705 71.0331 44.3731 70.5324 44.2196C70.3447 44.1538 70.1361 44.1319 69.9067 44.1319C69.7398 44.1319 69.6355 44.1319 69.6147 44.1538C69.4686 44.1977 69.3435 44.2415 69.2183 44.3073C68.968 44.4609 68.7594 44.724 68.5926 45.1408C68.53 45.3162 68.5091 45.4039 68.5091 45.4478V45.6233C68.5717 45.5794 68.6969 45.4917 68.8846 45.3381C69.0097 45.2504 69.1558 45.1846 69.3018 45.1846L69.4061 45.1627L69.5312 45.1408C69.7815 45.1408 70.449 45.2943 71.5337 45.6013C71.0748 45.9742 70.6367 46.2374 70.2404 46.3909C69.9275 46.5006 69.6564 46.5444 69.4269 46.5444H62.7938C62.5018 46.5444 62.314 46.4786 62.2097 46.347L62.168 46.1935C61.9803 44.4609 61.8134 43.1668 61.73 42.2895C61.3545 42.7282 61.1459 43.0133 61.1042 43.123C61.1042 43.3642 61.1042 43.5397 61.1459 43.6713C61.0416 43.7151 60.8122 43.8248 60.395 43.9345C60.0821 44.0441 59.8318 44.1538 59.7067 44.2854C59.2478 44.7021 58.9558 45.2724 58.8306 46.04C58.9766 46.1497 59.1435 46.2593 59.3312 46.3032C59.4355 46.347 59.5607 46.3909 59.7484 46.4348C60.4159 46.6102 60.7705 46.698 60.8331 46.698L60.9999 46.6102C61.0625 46.5006 61.1251 46.369 61.1668 46.2813C61.2502 46.1277 61.3545 46.0181 61.4588 45.9742C61.5005 46.0619 61.5214 46.1497 61.5423 46.2374C61.584 46.6541 61.6257 46.8734 61.6466 46.9392C61.73 47.1366 61.8343 47.2682 62.0012 47.3559C62.0846 47.3998 62.1472 47.4217 62.2097 47.4217H69.6772C69.7189 47.4217 69.8232 47.3998 69.9275 47.3559C70.2821 47.1366 70.5324 46.9612 70.6993 46.8296C71.0331 46.5883 71.3042 46.3909 71.4711 46.2593C71.5754 46.7638 71.6588 47.0708 71.6797 47.1586C71.7631 47.334 71.8465 47.4217 71.9508 47.4217H78.7926C78.876 47.4217 79.0012 47.3121 79.2097 47.0927C79.314 47.2243 79.3766 47.334 79.4392 47.4217H90.4527C90.5778 47.2463 90.6613 47.027 90.703 46.7857C90.7238 46.5664 90.7656 46.347 90.8073 46.1497C90.8281 45.9742 90.849 45.7987 90.849 45.6452L90.5778 42.5308L90.6404 42.5747C90.8281 42.2676 91.0159 41.9167 91.1827 41.5219ZM60.9791 45.7329C60.8956 45.7329 60.7705 45.711 60.6245 45.6891C60.4785 45.6671 60.249 45.6013 59.957 45.4917C59.7901 45.4478 59.6232 45.3382 59.4981 45.2066C59.6441 45.0969 59.8527 44.9872 60.1656 44.8995C60.4576 44.7898 60.6662 44.7021 60.7913 44.6363C60.9582 44.417 61.0834 44.2415 61.1877 44.0661L61.4588 45.7549H60.9791V45.7329ZM86.9275 46.4567C86.8441 46.5006 86.7815 46.5444 86.7398 46.5444H82.0674C82.5889 46.2593 83.1104 45.9742 83.6318 45.6891C84.2785 45.3381 84.8416 45.1627 85.3005 45.1627C85.5091 45.1627 85.7386 45.2066 85.9263 45.2724C86.0306 45.2943 86.2392 45.4478 86.5312 45.6671C86.9067 45.9303 87.0735 46.1497 87.0735 46.3032C87.0527 46.347 87.011 46.3909 86.9275 46.4567ZM92.4134 41.4561L92.9975 47.4656C93.3104 46.8515 93.4564 46.2812 93.4564 45.7987L93.1226 39.877C92.6637 40.6446 92.4134 41.171 92.4134 41.4561ZM98.2539 41.9825C98.4416 41.6535 98.5459 41.478 98.6085 41.4342C99.13 41.7412 99.4637 41.9167 99.5889 41.9825L100.006 41.2806L98.9423 40.6007C98.7337 40.9297 98.6294 41.1271 98.5877 41.171C98.1496 40.9297 97.8159 40.7323 97.5864 40.6007L97.1692 41.3684C97.2944 41.4342 97.4613 41.5438 97.7116 41.6754C97.9619 41.8289 98.1288 41.9167 98.2539 41.9825ZM110.978 41.9825C111.166 42.0263 111.332 42.0702 111.52 42.1141C111.374 42.2457 111.228 42.3553 111.082 42.4869C110.811 42.7282 110.665 42.9036 110.665 43.0133L110.728 43.123C111.562 42.5089 112.334 42.1579 113.022 42.0921C113.168 41.8947 113.272 41.7193 113.314 41.5877H112.167C111.353 41.5438 110.957 41.4122 110.957 41.1929C110.957 41.0832 111.04 40.9516 111.228 40.7981C111.416 40.6446 111.583 40.5788 111.729 40.5788C111.896 40.5788 112.083 40.6446 112.25 40.7981C112.396 40.4911 112.48 40.3595 112.48 40.4033C112.48 40.3595 112.417 40.2717 112.313 40.1621C112.188 40.0524 112.104 39.9866 112.062 39.9866C111.708 39.9866 111.374 40.184 111.04 40.5569C110.707 40.9297 110.54 41.2806 110.54 41.6316C110.561 41.807 110.707 41.9167 110.978 41.9825ZM115.463 49.0228C114.941 48.6938 114.586 48.4745 114.399 48.3868C114.253 48.5622 114.107 48.8474 113.94 49.1983L115.024 49.8124C115.17 49.5711 115.275 49.3957 115.337 49.286C115.796 49.5273 116.13 49.7247 116.38 49.8562C116.505 49.6808 116.631 49.4176 116.797 49.0667C116.193 48.6938 115.859 48.4964 115.775 48.4745C115.609 48.7158 115.525 48.9132 115.463 49.0228ZM128.332 45.3601C128.04 44.7679 127.331 44.0003 126.247 43.0791C126.059 42.9256 125.934 42.8378 125.892 42.8378C125.829 42.8378 125.746 42.9475 125.621 43.1888C125.496 43.43 125.433 43.5836 125.433 43.6493C125.412 43.7809 125.412 43.9125 125.433 44.0222C125.037 44.417 124.703 44.9434 124.432 45.6233C124.411 45.6671 124.369 45.8426 124.307 46.1497C124.265 46.369 124.202 46.5006 124.14 46.5225H116.547C116.526 46.4348 116.526 46.3032 116.505 46.1716C116.505 46.04 116.485 45.9523 116.485 45.9303V45.0311C116.485 45.0092 116.464 44.8776 116.443 44.6363C116.401 44.417 116.401 44.2415 116.401 44.1538C116.359 44.1757 116.255 44.3293 116.026 44.6363C115.817 44.9434 115.713 45.1408 115.713 45.2285C115.713 45.2285 115.734 45.4039 115.796 45.7329C115.838 46.0619 115.88 46.2813 115.88 46.4128L115.859 46.5225H113.231C113.064 46.5225 112.959 46.4567 112.897 46.3032L113.168 44.4608V44.0222C113.085 44.088 112.897 44.2854 112.626 44.6144C112.355 44.9434 112.229 45.1408 112.229 45.2066V46.2154C112.188 46.3032 112.104 46.3909 111.958 46.4567C111.812 46.5225 111.708 46.5444 111.624 46.5444H101.132C100.861 46.5444 100.653 46.4786 100.548 46.347L100.507 46.1935C100.298 44.4609 100.152 43.1668 100.069 42.2895C99.6932 42.7282 99.4846 43.0133 99.4429 43.123C99.4429 43.3642 99.4429 43.5397 99.4846 43.6713C99.3803 43.7151 99.1508 43.8248 98.7337 43.9345C98.3999 44.0441 98.1705 44.1538 98.0453 44.2854C97.5864 44.7021 97.2944 45.2724 97.1692 46.04C97.3153 46.1497 97.4821 46.2593 97.6699 46.3032C97.7742 46.347 97.8993 46.3909 98.087 46.4348C98.7545 46.6102 99.1091 46.698 99.1717 46.698L99.3386 46.6102C99.4012 46.5006 99.4637 46.369 99.5054 46.2813C99.5889 46.1277 99.6932 46.0181 99.7975 45.9742C99.8392 46.0619 99.86 46.1497 99.8809 46.2374C99.9226 46.6541 99.9643 46.8734 99.9852 46.9392C100.069 47.1366 100.173 47.2682 100.34 47.3559C100.423 47.3998 100.507 47.4217 100.569 47.4217H111.729C111.937 47.0708 112.083 46.8734 112.125 46.8515C112.209 46.9612 112.271 47.0927 112.355 47.2024C112.459 47.3559 112.563 47.4217 112.647 47.4217H115.504C115.734 47.0927 115.88 46.8954 115.921 46.8734C116.067 47.1147 116.172 47.3121 116.234 47.4217H124.161C124.056 47.4217 124.494 47.3559 125.516 47.2024L127.874 47.4217C128.04 47.3779 128.186 47.2024 128.332 46.8954C128.478 46.6102 128.541 46.347 128.541 46.0839C128.541 45.9523 128.458 45.6891 128.332 45.3601ZM99.3386 45.7329C99.2551 45.7329 99.13 45.711 98.984 45.6891C98.838 45.6671 98.6085 45.6013 98.3165 45.4917C98.1288 45.4478 97.9827 45.3382 97.8576 45.2066C98.0036 45.0969 98.2122 44.9872 98.5251 44.8995C98.8171 44.7898 99.0257 44.7021 99.1508 44.6363C99.3177 44.417 99.4429 44.2415 99.5472 44.0661L99.8183 45.7549H99.3386V45.7329ZM126.142 46.0619C125.996 46.2374 125.85 46.3032 125.725 46.3032C125.621 46.3032 125.454 46.2593 125.245 46.1716C124.953 46.0619 124.807 45.9523 124.807 45.7768C124.807 45.7549 124.87 45.6671 124.995 45.4917C125.329 45.053 125.579 44.8337 125.788 44.8337C125.934 44.8337 126.059 44.9434 126.184 45.1188C126.309 45.3162 126.372 45.4697 126.372 45.6013C126.372 45.7329 126.288 45.8865 126.142 46.0619ZM128.04 46.5444H127.79C127.623 46.5444 127.415 46.5006 127.185 46.3909C126.893 46.2593 126.726 46.1058 126.726 45.9303C126.726 45.8645 126.768 45.7329 126.831 45.5794C126.935 45.3601 127.039 45.2504 127.143 45.2504C127.269 45.2504 127.456 45.4259 127.707 45.7987C127.894 46.0839 127.999 46.3032 128.04 46.4348V46.5444Z" fill="black"/>
<path d="M31.5054 59.7711V53.7835H33.4452C34.2587 53.7835 34.9054 54.0686 35.3643 54.6389C35.8232 55.2091 36.0526 55.9109 36.0526 56.7444C36.0526 57.5997 35.8232 58.3016 35.3851 58.8718C34.9471 59.4421 34.3839 59.7491 33.6956 59.7491H31.5054V59.7711ZM32.2354 59.135H33.4244C34.0502 59.135 34.5299 58.9157 34.8428 58.4771C35.1765 58.0384 35.3225 57.4462 35.3225 56.7225C35.3225 56.1303 35.1557 55.6039 34.8637 55.1214C34.5508 54.6608 34.071 54.4195 33.4244 54.4195H32.2354V59.135ZM40.4747 57.6875C40.4747 58.2358 40.3704 58.6306 40.1201 58.8718C39.8906 59.1131 39.536 59.2228 39.098 59.2228C38.8686 59.2228 38.6391 59.1789 38.4305 59.0912C38.2219 59.0034 38.0551 58.8718 37.9508 58.6744C37.8465 58.499 37.8048 58.17 37.8048 57.6875V53.7835H37.0747V57.6875C37.0747 58.4551 37.2416 59.0034 37.5544 59.3544C37.8673 59.7053 38.3679 59.8807 39.0563 59.8807C39.6612 59.8807 40.1618 59.7053 40.5164 59.3763C40.8919 59.0473 41.0796 58.4771 41.0796 57.6875V53.7835H40.4747V57.6875ZM42.4354 59.7711V53.8054H44.7508C45.3348 53.8054 45.752 53.937 46.044 54.2441C46.3152 54.5292 46.4612 54.8801 46.4612 55.2749C46.4612 55.9548 46.1066 56.4154 45.4391 56.6347C45.8563 56.7444 46.1483 56.9418 46.3569 57.205C46.5655 57.4901 46.6489 57.7971 46.6489 58.1481C46.6489 58.6086 46.5029 59.0034 46.19 59.3324C45.8771 59.6395 45.3974 59.793 44.7716 59.793H42.4354V59.7711ZM43.1446 56.3496H44.417C44.9385 56.3496 45.2931 56.2399 45.46 56.0425C45.6268 55.8452 45.7311 55.6039 45.7311 55.3188C45.7311 55.0336 45.6268 54.8143 45.4391 54.6389C45.2514 54.4634 44.9594 54.3757 44.5839 54.3757H43.1238V56.3496H43.1446ZM43.1446 59.1131H44.7091C45.0845 59.1131 45.3974 59.0254 45.5851 58.828C45.7937 58.6306 45.898 58.3893 45.898 58.0823C45.898 57.8629 45.8563 57.6656 45.752 57.4901C45.6686 57.3146 45.5225 57.1611 45.3557 57.0734C45.1888 56.9637 44.9385 56.9198 44.6048 56.9198H43.1446V59.1131ZM49.2563 54.595L50.1532 57.4682H48.3594L49.2563 54.595ZM48.9017 53.7835L47.0035 59.7491H47.6084L48.1299 57.9945H50.2784L50.8624 59.7491H51.6133L49.7152 53.7835H48.9017ZM52.3851 59.7711H53.1152V53.8054H52.3851V59.7711ZM60.1863 53.7835V56.2619H57.4747V53.7835H56.7446V59.7491H57.4747V56.8979H60.1863V59.7491H60.9164V53.7835H60.1863ZM62.3557 53.7835V59.7491H66.1103V59.0912H63.0857V56.9418H65.4428V56.3277H63.0857V54.4415H66.0477V53.7835H62.3557ZM68.6551 54.595L69.552 57.4682H67.7581L68.6551 54.595ZM68.3213 53.7835L66.444 59.7491H67.0489L67.5704 57.9945H69.7189L70.3029 59.7491H71.033L69.1557 53.7835H68.3213ZM71.8048 53.7835V59.7491H75.2465V59.0912H72.5557V53.7616H71.8048V53.7835ZM74.871 53.7835V54.4415H76.5397V59.7491H77.2698V54.4415H78.9385V53.7835H74.871ZM83.1729 53.7835V56.2619H80.4612V53.7835H79.7311V59.7491H80.4612V56.8979H83.1729V59.7491H83.9029V53.7835H83.1729ZM89.0759 54.595L89.9729 57.4682H88.179L89.0759 54.595ZM88.7213 53.7835L86.844 59.7491H87.4489L87.9704 57.9945H90.1189L90.7029 59.7491H91.4538L89.5557 53.7835H88.7213ZM95.3336 57.6875C95.3336 58.2358 95.2293 58.6306 94.979 58.8718C94.7495 59.1131 94.4158 59.2228 93.9569 59.2228C93.7275 59.2228 93.498 59.1789 93.2894 59.0912C93.0808 59.0034 92.914 58.8718 92.8097 58.6744C92.7054 58.499 92.6637 58.17 92.6637 57.6875V53.7835H91.9336V57.6875C91.9336 58.4551 92.1005 59.0034 92.4133 59.3544C92.7262 59.7053 93.2268 59.8807 93.9152 59.8807C94.5201 59.8807 95.0207 59.7053 95.3753 59.3763C95.7508 59.0473 95.9385 58.4771 95.9385 57.6875V53.7835H95.3336V57.6875ZM96.6477 53.7835V54.4415H98.3164V59.7491H99.0465V54.4415H100.715V53.7835H96.6477ZM104.97 53.7835V56.2619H102.259V53.7835H101.529V59.7491H102.259V56.8979H104.97V59.7491H105.7V53.7835H104.97ZM109.142 59.8807C108.391 59.8807 107.807 59.5737 107.39 58.9815C106.973 58.3893 106.764 57.6436 106.764 56.7882C106.764 55.889 106.973 55.1433 107.411 54.5511C107.849 53.959 108.433 53.6738 109.142 53.6738C109.851 53.6738 110.435 53.959 110.873 54.5511C111.312 55.1214 111.52 55.8671 111.52 56.7444C111.52 57.5997 111.311 58.3235 110.894 58.9596C110.498 59.5737 109.914 59.8807 109.142 59.8807ZM109.163 59.2886C109.664 59.2886 110.06 59.0473 110.352 58.5648C110.644 58.0823 110.79 57.4682 110.79 56.7225C110.79 55.9548 110.644 55.3626 110.352 54.924C110.06 54.5073 109.664 54.2879 109.163 54.2879C108.662 54.2879 108.266 54.5292 107.974 54.9898C107.682 55.4504 107.536 56.0645 107.536 56.8102C107.536 57.534 107.682 58.1481 107.974 58.6086C108.266 59.0473 108.662 59.2886 109.163 59.2886ZM116.839 59.7711H116.067L115.004 57.183H113.335V59.7711H112.646V53.8054H114.941C115.567 53.8054 116.026 53.9809 116.338 54.3318C116.631 54.6827 116.797 55.0556 116.797 55.4723C116.797 55.8013 116.714 56.1083 116.547 56.3935C116.38 56.6786 116.109 56.8979 115.713 57.0076L116.839 59.7711ZM113.335 56.5689H114.858C115.254 56.5689 115.567 56.4593 115.754 56.2399C115.963 56.0206 116.046 55.7574 116.046 55.4504C116.046 55.1433 115.942 54.8801 115.734 54.7047C115.525 54.5292 115.254 54.4415 114.941 54.4415H113.335V56.5689ZM117.986 59.7711H118.716V53.8054H117.986V59.7711ZM119.53 53.7835V54.4415H121.199V59.7491H121.929V54.4415H123.597V53.7835H119.53ZM127.894 53.7835L126.351 56.5251L124.807 53.7835H123.931L125.892 57.2488V59.7711H126.622V57.2488L128.562 53.7835H127.894Z" fill="black"/>
</g>
<defs>
<clipPath id="clip0_910_2387">
<rect width="190" height="73" fill="white"/>
</clipPath>
</defs>
</svg>
