<svg width="190" height="73" viewBox="0 0 190 73" fill="none" xmlns="http://www.w3.org/2000/svg">
<path d="M50.0083 33.3335L29.2666 25.8594L22.8204 33.5533C21.5487 35.0921 21.5048 36.8068 22.8204 37.2464L29.2227 39.5766L50.8415 35.4878C51.1485 34.5206 50.8415 33.6413 50.0083 33.3335Z" fill="#5BA646"/>
<path d="M33.6956 22.6503C32.5555 22.8701 31.3715 23.5735 30.4506 24.5848L46.4564 30.1684L48.0789 29.8606C50.3592 29.421 52.771 27.9701 54.4374 25.9916L62.3306 16.5391L33.6956 22.6503ZM22.5135 42.4787C20.2332 42.9184 17.8213 44.3692 16.155 46.3477L8.26172 55.8003L37.9492 50.2166C39.1332 49.9968 40.4487 49.2054 41.3258 48.1063L50.0961 37.2468C50.0961 37.2468 50.0961 37.2468 50.0961 37.2029L30.8014 40.852L22.5135 42.4787Z" fill="#18355F"/>
<path d="M74.7842 23.3977L56.3228 51.9313H64.9176L69.4344 44.5451H80.3534L81.1427 51.9313H89.6499L85.2209 23.3977H74.7842ZM71.8023 39.8848L75.5736 33.7296C76.5821 32.0589 77.6346 29.8606 78.5993 28.146H78.7309C78.9063 29.8606 79.1255 32.1468 79.3009 33.7296L80.0464 39.8848H71.8023ZM165.82 30.3882C168.144 28.9373 171.214 28.1899 174.503 28.1899C177.791 28.1899 180.247 28.7175 181.387 29.1132L183.58 24.1451C182.527 23.6175 179.414 22.9141 175.292 22.9141C169.942 22.9141 165.294 23.8813 161.347 25.9477C155.603 28.8054 151.787 33.8175 151.787 40.1925C151.787 47.7106 158.541 52.283 168.539 52.283C173.099 52.283 176.52 51.7115 178.537 51.052L177.879 46.1279C175.95 46.6994 173.319 47.0511 170.687 47.0511C163.978 47.0511 160.602 44.0175 160.602 39.4891C160.602 35.6201 162.619 32.3227 165.82 30.3882ZM135.782 40.5442H141.614L140.079 46.5675C139.158 46.8753 137.843 47.0951 135.957 47.0951C129.993 47.0951 126.222 44.677 126.222 39.8848C126.222 35.9718 128.415 32.5865 131.66 30.652C134.203 29.1572 137.58 28.3658 141.351 28.3658C144.727 28.3658 147.665 28.9373 149.376 29.5529L151.787 24.4089C150.34 23.8373 146.657 23.1339 141.702 23.1339C135.124 23.1339 129.248 24.6287 124.994 27.2666C120.171 30.3442 117.233 34.9606 117.233 40.3244C117.233 43.9735 118.987 47.0951 122.012 49.1175C125.17 51.2279 129.423 52.2391 134.685 52.2391C139.465 52.2391 144.026 51.3598 146.964 50.6123L150.735 35.6641H136.966L135.782 40.5442ZM108.374 35.2244C105.173 33.8615 102.849 32.8503 102.849 31.2235C102.849 29.6408 104.823 28.2339 108.594 28.2339C111.751 28.1899 114.426 28.9813 115.698 29.5089L118.241 24.4089C116.619 23.7494 113.9 22.958 109.295 22.958C101.007 22.958 94.342 26.4753 94.342 32.2348C94.342 35.9718 98.1571 38.1701 102.235 39.7968C105.743 41.1598 107.366 42.2149 107.366 43.7977C107.366 46.0399 104.516 47.1391 101.358 47.1391C97.8501 47.1391 94.649 46.3477 92.4125 45.3365L89.6937 50.3485C91.4917 51.3598 95.2629 52.371 100.569 52.371C108.988 52.371 116.005 49.1175 116.005 42.7425C115.917 39.3572 112.979 37.027 108.374 35.2244Z" fill="#18355F"/>
</svg>
