<svg width="190" height="73" viewBox="0 0 190 73" fill="none" xmlns="http://www.w3.org/2000/svg">
<g clip-path="url(#clip0_1041_3314)">
<path d="M91.3863 30.8689C91.2953 30.9703 91.1471 30.9001 91.0327 30.9105C91.1263 30.8377 91.2693 30.8715 91.3863 30.8689Z" fill="#7FBD41"/>
<path d="M110.054 33.2065H110.005L110.015 32.8555C110.088 32.9439 110.054 33.0869 110.057 33.2065H110.054Z" fill="#7FBD41"/>
<path d="M95.7621 30.9102C95.6841 30.9024 95.5645 30.9648 95.5073 30.866C95.5931 30.866 95.6997 30.84 95.7621 30.9102Z" fill="#7FBD41"/>
<path d="M110.01 33.7653L110.005 33.2089C110.018 33.1647 110.033 33.1647 110.054 33.2089V33.6717C110.059 33.7263 110.039 33.7627 110.01 33.7679V33.7653Z" fill="#7FBD41"/>
<path d="M92.4549 30.8193C92.5901 30.7725 92.7851 30.7751 92.9151 30.8193C93.2583 30.7777 93.6795 30.7803 94.0331 30.8193C94.1449 30.7673 94.3113 30.7881 94.4387 30.8193C94.6389 30.8193 94.8339 30.8583 95.0549 30.8609L95.5073 30.8687L95.7621 30.9129C98.1125 31.1469 100.486 31.7111 102.618 32.8135C103.591 33.3179 104.477 33.8847 105.301 34.6101L106.602 35.8971L106.947 36.3183C107.233 36.6667 107.402 37.0541 107.265 37.5195C107.155 37.8809 106.856 38.1409 106.427 38.2891C105.918 38.4659 105.395 38.6375 104.865 38.6401C104.433 38.6063 103.973 38.6037 103.544 38.6505L103.19 38.5959L102.936 38.5465C102.754 38.5647 102.572 38.5413 102.374 38.4971L99.8701 37.9459L94.5817 36.5289C93.0061 36.1077 91.4487 35.8347 89.8653 35.6631C89.7665 35.6137 89.6625 35.6085 89.5585 35.6449C89.4961 35.6449 89.4129 35.6241 89.3583 35.5903C89.2413 35.5591 89.1165 35.5513 88.9995 35.5929L88.6485 35.5305C88.4717 35.5305 88.3001 35.5201 88.1337 35.4941C87.9933 35.5383 87.7775 35.5357 87.6241 35.4941H87.0131C86.8597 35.5383 86.6491 35.5357 86.5035 35.4941C86.3397 35.5123 86.1681 35.5227 85.9913 35.5305C85.7729 35.6059 85.5441 35.5877 85.2919 35.6137C83.1157 35.8347 81.0149 36.3885 79.0493 37.3375L78.2875 37.7067L77.6245 38.0577L76.8367 38.5309L76.3687 38.8351C76.0047 39.0717 75.6615 39.2979 75.3209 39.5605L74.3667 40.3015L74.0495 40.5641C73.9117 40.6785 73.8311 40.7227 73.7063 40.8683C73.6231 40.9671 73.3787 41.0061 73.3527 41.2037C73.3475 41.2349 73.2747 41.2505 73.2565 41.2401C73.2383 41.2297 73.2045 41.1699 73.2253 41.1335L73.5945 40.4757C75.3495 37.3557 78.5215 34.9507 81.7455 33.4245C84.6809 32.0361 87.8321 31.2015 91.0353 30.9103L91.3889 30.8687H91.6957C91.8465 30.8479 91.9999 30.8349 92.1585 30.8271C92.2391 30.7907 92.3691 30.8193 92.4575 30.8193H92.4549Z" fill="#7FBD41"/>
<path d="M104.865 38.6373L103.544 38.6477C103.549 38.6139 103.588 38.5957 103.643 38.5957H104.769C104.823 38.5957 104.862 38.6139 104.865 38.6399V38.6373Z" fill="#7FBD41"/>
<path d="M94.033 30.7656C94.0772 30.7812 94.0746 30.7968 94.033 30.815H92.915C92.8708 30.802 92.8708 30.7838 92.915 30.7656H94.0356H94.033Z" fill="#7FBD41"/>
<path d="M86.5034 35.4954C86.5476 35.5084 86.5476 35.5266 86.5034 35.5448L85.9912 35.5292C86.155 35.472 86.3266 35.4954 86.5034 35.4928V35.4954Z" fill="#7FBD41"/>
<path d="M87.0129 35.4941C87.0077 35.5279 86.9687 35.5487 86.9167 35.5487H86.5059V35.4967H87.0155L87.0129 35.4941Z" fill="#7FBD41"/>
<path d="M88.131 35.4967C88.1752 35.5123 88.1752 35.5279 88.131 35.5461H87.7202C87.6656 35.5487 87.6292 35.5305 87.624 35.4941H88.1336L88.131 35.4967Z" fill="#7FBD41"/>
<path d="M88.6457 35.5305L88.1309 35.5435V35.4941C88.3103 35.4941 88.4741 35.4993 88.6457 35.5305Z" fill="#7FBD41"/>
<path d="M92.9127 30.7665V30.8185H92.4551C92.4629 30.7821 92.4993 30.7613 92.5539 30.7639H92.9127V30.7665Z" fill="#7FBD41"/>
<path d="M92.1557 30.8294C92.0101 30.8944 91.8541 30.8684 91.6929 30.8684C91.6981 30.8346 91.7371 30.8164 91.7891 30.8164L92.1531 30.8294H92.1557Z" fill="#7FBD41"/>
<path d="M94.4388 30.816H94.0332V30.7666C94.1684 30.7666 94.327 30.7328 94.4388 30.816Z" fill="#7FBD41"/>
<path d="M89.3559 35.5899H88.9971C89.0959 35.5093 89.2519 35.5249 89.3559 35.5899Z" fill="#7FBD41"/>
<path d="M89.8625 35.6604L89.5557 35.6422C89.6259 35.5642 89.7923 35.559 89.8625 35.6604Z" fill="#7FBD41"/>
<path d="M103.19 38.5922C103.105 38.5792 102.995 38.6182 102.936 38.5428C103.021 38.535 103.128 38.5246 103.19 38.5922Z" fill="#7FBD41"/>
<path d="M71.1918 38.0214C71.1918 38.1098 71.2126 38.1878 71.2568 38.258C71.275 38.466 71.1918 38.4842 71.0982 38.6012C71.0046 38.7182 70.924 38.8534 70.807 38.9704C70.6614 39.116 70.5184 39.2122 70.365 39.337C69.6552 39.9168 68.7842 40.3302 67.8664 40.3276C67.622 40.364 67.3698 40.3666 67.128 40.3276C65.9164 40.3224 64.4812 39.6204 63.579 38.7442C63.0694 38.2502 62.6586 37.751 62.3596 37.1062C62.1282 36.6044 61.9384 36.0792 61.9384 35.5176C61.8994 35.2758 61.8968 35.0236 61.9384 34.7818C61.9384 34.4984 61.993 34.2072 62.0944 33.9004L62.669 34.2072C63.1656 34.4724 63.722 34.5426 64.2862 34.6258L66.8524 35.0054C67.9626 35.1692 69.4082 35.5436 70.2194 36.2638C70.7524 36.737 71.1008 37.3168 71.197 38.0188L71.1918 38.0214Z" fill="#7FBD41"/>
<path d="M67.8639 40.3281C67.6637 40.4035 67.2971 40.4035 67.1255 40.3281H67.8639Z" fill="#7FBD41"/>
<path d="M61.9359 35.5171C61.8579 35.3221 61.8579 34.9554 61.9359 34.7812V35.5171Z" fill="#7FBD41"/>
<path d="M71.2572 38.2581C71.174 38.2347 71.1844 38.1229 71.1922 38.0215C71.2 38.0865 71.252 38.1905 71.2572 38.2581Z" fill="#7FBD41"/>
<path d="M114.581 36.8673C114.487 36.8985 114.36 36.9167 114.276 36.8673C114.185 36.9089 114.016 36.9063 113.92 36.8673C113.853 36.9193 113.707 36.8959 113.616 36.8673H113.361L113.104 36.8257C112.199 36.7347 111.333 36.4019 110.527 35.9495C110.244 35.2189 110.085 34.5065 110.01 33.7655C110.025 33.5757 110.041 33.3911 110.054 33.2065C110.038 33.0999 110.025 32.9829 110.012 32.8555C110.322 28.6513 114.568 25.9239 118.543 25.6717C119.016 25.6483 119.492 25.6431 119.97 25.6535C122.269 25.8771 124.208 26.6467 125.831 28.3601C126.028 28.5707 126.221 28.7319 126.398 29.0127C125.917 29.1323 125.498 29.3507 125.085 29.6315L124.601 29.9591C124.528 30.0085 124.411 30.1125 124.351 30.1593L124.042 30.4063C123.847 30.6299 123.691 30.7885 123.449 30.9497C122.95 31.2825 122.789 31.8493 122.227 32.1665C122.147 32.4109 121.98 32.5747 121.749 32.6943C121.692 32.9127 121.551 33.0739 121.338 33.1545C121.309 33.3625 121.161 33.4301 121.034 33.5601L120.431 34.1685C120.293 34.3089 120.163 34.3947 120.051 34.4961L119.833 34.6963L119.188 35.1721C117.961 36.0743 116.073 36.8621 114.581 36.8673Z" fill="#7FBD41"/>
<path d="M119.973 25.6556L118.545 25.6738C118.545 25.6738 118.566 25.6348 118.603 25.6348L119.973 25.6556Z" fill="#7FBD41"/>
<path d="M114.276 36.8698C114.32 36.8828 114.32 36.8984 114.276 36.9192H113.917C113.873 36.9036 113.876 36.8854 113.917 36.8672H114.274L114.276 36.8698Z" fill="#7FBD41"/>
<path d="M113.92 36.8672V36.9192C113.816 36.9192 113.691 36.9478 113.616 36.8698H113.92V36.8672Z" fill="#7FBD41"/>
<path d="M114.581 36.8672C114.505 36.9478 114.378 36.9192 114.276 36.9192V36.8698H114.581V36.8672Z" fill="#7FBD41"/>
<path d="M113.361 36.8669C113.276 36.8669 113.166 36.8929 113.104 36.8253C113.185 36.8331 113.304 36.7707 113.361 36.8669Z" fill="#7FBD41"/>
<path d="M72.7699 23.5986C72.8921 23.5544 73.0273 23.5596 73.1547 23.5908C76.4671 23.7988 79.4779 26.053 80.6349 29.1652C80.7857 29.5734 80.8091 29.9816 80.4763 30.291C80.2735 30.4808 80.0707 30.6628 79.8133 30.7954L78.0349 31.7028C77.7489 31.8484 77.5071 32.0044 77.2653 32.202C77.1171 32.3242 76.9923 32.371 76.8961 32.5738C76.8415 32.6908 76.7089 32.8234 76.6361 32.9534C76.5165 33.164 76.2851 33.2966 76.0615 33.3122L75.7443 33.2654C75.5597 33.2134 75.4115 33.086 75.2555 32.9482C73.7007 31.5806 73.0247 29.355 72.4345 27.3894C72.0575 26.2246 71.7429 24.9636 70.9785 24.0042C71.4101 23.8144 71.8235 23.6714 72.2837 23.6454L72.5671 23.5934H72.7699V23.5986Z" fill="#7FBD41"/>
<path d="M73.1548 23.5908L72.77 23.5986C72.8584 23.518 73.0352 23.518 73.1548 23.5908Z" fill="#7FBD41"/>
<path d="M72.5671 23.5982C72.4969 23.6736 72.3903 23.645 72.2837 23.6502C72.3383 23.5722 72.4657 23.593 72.5671 23.5982Z" fill="#7FBD41"/>
<path d="M76.0643 33.315C75.9343 33.3254 75.8589 33.2994 75.7471 33.2682C75.8745 33.2526 76.0019 33.2318 76.0643 33.315Z" fill="#7FBD41"/>
<path d="M107.615 17.554L107.665 17.801C107.683 18.2742 107.795 18.7292 107.883 19.2128L108 19.8628L108.094 20.284L108.2 20.7832C108.38 21.6282 108.58 22.4472 108.525 23.2922C108.489 23.3936 108.489 23.5002 108.53 23.599L108.455 23.9916C108.341 24.5922 108.166 25.1798 107.919 25.7492L107.394 26.6852L106.955 27.2598C106.877 27.3612 106.762 27.3872 106.71 27.5432C106.677 27.6446 106.497 27.8084 106.396 27.8604C106.157 27.9852 105.629 28.734 104.108 29.1474C103.757 29.2436 103.432 29.3658 103.086 29.3424L102.831 29.3918H102.576C102.342 29.4386 102.051 29.4386 101.815 29.3918L101.315 29.3762C100.073 29.2098 98.9285 28.7028 97.9873 27.8838C98.5801 27.4834 99.0429 27.018 99.4381 26.4538L101.341 23.7342L102.644 21.779C103.273 20.8352 104.357 19.426 105.174 18.711C105.829 18.1364 106.541 17.658 107.423 17.528C107.477 17.5202 107.574 17.5306 107.615 17.5488V17.554Z" fill="#7FBD41"/>
<path d="M102.576 29.3945C102.571 29.4283 102.532 29.4491 102.478 29.4491H101.911C101.856 29.4491 101.817 29.4283 101.812 29.3945H102.574H102.576Z" fill="#7FBD41"/>
<path d="M108.528 23.5998C108.447 23.527 108.45 23.3632 108.523 23.293L108.528 23.5998Z" fill="#7FBD41"/>
<path d="M107.664 17.8017C107.592 17.7471 107.605 17.6353 107.615 17.5547C107.703 17.5911 107.662 17.7289 107.664 17.8017Z" fill="#7FBD41"/>
<path d="M103.086 29.3431C103.026 29.4185 102.917 29.3925 102.831 29.3925C102.893 29.3223 102.997 29.3379 103.086 29.3431Z" fill="#7FBD41"/>
<path d="M93.1697 22.0239C93.1983 22.1019 93.2165 22.2137 93.1645 22.2787C93.2113 22.4971 93.2061 22.8091 93.1645 23.0405C93.2191 23.1029 93.1931 23.2667 93.1645 23.3655V23.5683C93.1203 23.6489 93.1333 23.7399 93.1645 23.8231C93.1645 23.9791 93.0267 24.1091 93.1021 24.3457C93.0163 24.4393 93.0449 24.5537 93.0267 24.6551L92.8759 25.4429L92.4599 27.1537C92.3455 27.1641 92.2675 27.1381 92.1921 27.0939C92.1037 27.0887 92.0205 27.0757 91.9451 27.0549C91.8801 27.1095 91.7319 27.0835 91.6409 27.0549H91.2847C91.2015 27.0835 91.0819 27.1043 91.0169 27.0497C90.9415 27.0861 90.8557 27.1043 90.7621 27.1095C89.4569 27.3071 88.2245 27.9493 87.4237 27.9207C87.2703 27.8765 87.1091 27.8765 86.9531 27.9051C86.6515 27.8947 86.3811 27.7907 86.1055 27.6633C85.7545 27.0289 85.4633 26.3815 85.4009 25.6795C85.4373 25.3467 85.4321 24.9879 85.4035 24.6525C85.5075 23.7685 85.8039 22.9495 86.1549 22.1331C86.8959 20.4171 87.3535 19.3329 87.5199 17.3985L87.5745 16.7693C87.5927 16.5171 87.6083 16.2675 87.6239 16.0231C87.5875 15.9425 87.5849 15.8515 87.6161 15.7449C87.6343 15.6903 87.6525 15.6461 87.6993 15.6643L87.7981 15.7007C90.1303 16.3897 92.0569 17.7573 92.8291 20.1259C93.0345 20.7525 93.1827 21.3843 93.1723 22.0213L93.1697 22.0239Z" fill="#7FBD41"/>
<path d="M85.4009 25.6793V24.6523C85.4191 24.6705 85.4399 24.7095 85.4399 24.7641V25.5857C85.4399 25.6403 85.4191 25.6793 85.4009 25.6793Z" fill="#7FBD41"/>
<path d="M87.5745 16.7715L87.5693 16.0045C87.5823 15.9135 87.6005 15.9213 87.6239 16.0253V16.6909C87.6265 16.7455 87.6057 16.7819 87.5745 16.7715Z" fill="#7FBD41"/>
<path d="M93.219 23.043C93.2034 23.0872 93.1852 23.0846 93.167 23.043V22.2812C93.18 22.237 93.1982 22.237 93.219 22.2812V23.0456V23.043Z" fill="#7FBD41"/>
<path d="M87.4213 27.9239L86.9507 27.9083C87.0885 27.8459 87.2913 27.8459 87.4213 27.9239Z" fill="#7FBD41"/>
<path d="M91.9478 27.0547C91.992 27.0703 91.9894 27.0885 91.9478 27.1067C91.8464 27.1067 91.7216 27.1353 91.6436 27.0547H91.9478Z" fill="#7FBD41"/>
<path d="M93.167 23.366V23.041H93.219C93.219 23.1424 93.2502 23.2672 93.167 23.366Z" fill="#7FBD41"/>
<path d="M87.6239 16.0262L87.5693 16.0054C87.5693 15.9014 87.5823 15.8416 87.6161 15.748L87.6239 16.0262Z" fill="#7FBD41"/>
<path d="M93.1669 23.8232C93.0889 23.753 93.0889 23.6022 93.1669 23.5684V23.8232Z" fill="#7FBD41"/>
<path d="M93.219 22.2756H93.167L93.1722 22.0234C93.245 22.0832 93.219 22.1924 93.219 22.2756Z" fill="#7FBD41"/>
<path d="M91.2846 27.054C91.2248 27.1294 91.1182 27.106 91.0324 27.106C90.9544 27.106 90.9492 27.0878 91.0168 27.0488L91.2846 27.054Z" fill="#7FBD41"/>
<path d="M91.017 27.0489L91.0326 27.1061H90.7622C90.8376 27.0983 90.8974 27.0463 91.017 27.0489Z" fill="#7FBD41"/>
<path d="M92.1923 27.0932L91.9453 27.1062V27.0542C92.0285 27.0542 92.1091 27.0412 92.1923 27.0932Z" fill="#7FBD41"/>
<path d="M134.382 56.7412C133.316 57.0584 132.432 56.7334 131.998 55.7584C131.657 54.9888 131.228 54.2582 130.612 53.6966C129.414 52.5994 127.864 52.6722 126.387 53.1974C125.826 53.3976 125.386 53.7642 125.017 54.2192L123.951 55.5374C122.846 56.9024 120.808 56.8166 119.193 56.3486C118.002 56.0054 116.921 55.488 115.849 54.864L113.343 53.252L112.251 52.511C111.991 52.3342 111.726 52.1808 111.44 52.056C111.328 52.2094 111.323 52.355 111.32 52.524L111.299 54.383C111.292 55.1214 111.042 56.268 110.387 56.5696C110.07 56.7152 109.708 56.6476 109.375 56.5514C107.938 56.1354 107.181 54.565 107.08 53.1142V50.3608L107.121 44.2534C107.121 43.97 107.228 43.6554 107.363 43.4292C107.61 43.0184 108.075 42.8338 108.538 42.7818L109.04 42.7246L110.74 42.7428L111.921 42.7818C112.776 42.8884 113.6 43.034 114.404 43.3512C115.597 43.8192 116.642 44.542 117.474 45.5092C117.877 45.9798 118.195 46.5258 118.273 47.142C118.384 48.0286 118.028 49.1492 117.383 49.7914C116.91 50.262 116.32 50.5584 115.717 50.8184L114.872 51.1824C116.107 51.9936 117.898 53.291 119.333 53.369C119.978 53.4028 120.561 52.9972 120.841 52.4356L121.64 50.8444L122.62 48.7774L123.184 47.6048L124.518 44.932C124.736 44.4926 125.048 44.1572 125.399 43.8244C126.067 43.19 127.009 42.9794 127.895 43.2394C128.582 43.4422 129.154 43.827 129.65 44.334C130.061 44.7526 130.443 45.1738 130.714 45.7198L133.844 51.9754L134.421 53.1896L134.967 54.318C135.136 54.669 135.243 55.0408 135.284 55.423C135.352 56.06 134.996 56.567 134.382 56.749V56.7412ZM114.079 47.714C114.396 47.4488 114.573 47.1082 114.531 46.713C114.432 45.7666 113.132 45.465 112.189 45.3428C111.731 45.283 111.258 45.27 110.878 45.5768C110.275 46.0656 110.553 47.2694 110.652 48.104C110.686 48.3848 110.759 48.6084 111.102 48.6422C112.147 48.7436 113.278 48.3822 114.076 47.714H114.079ZM128.985 50.0436C129.284 49.6016 129.336 49.0764 129.234 48.559C129.078 47.7556 128.634 47.1316 128.054 46.583C127.807 46.349 127.542 46.2008 127.211 46.4608C126.109 47.3292 125.831 49.404 126.86 50.1554C127.583 50.6806 128.478 50.7924 128.985 50.0436Z" fill="#DF0017"/>
<path d="M61.1274 57.2816L60.3786 57.3232C59.9626 57.3466 59.5336 57.3362 59.1176 57.3232L58.0308 57.2894C57.1936 57.1854 56.3772 57.0346 55.5972 56.7304C54.8172 56.4262 54.4818 55.3264 54.4818 54.6296V49.8638L54.5364 48.4858L54.565 45.527C53.7382 45.4178 53.1428 44.5884 53.0336 43.7876C52.8906 42.6332 54.6456 42.4954 55.722 42.4434C55.9794 42.4304 56.1848 42.3888 56.45 42.4434L57.451 42.4746L57.9242 42.5058C59.5206 42.7008 61.0858 42.992 62.6016 43.5146C64.0264 44.006 65.4616 44.9004 66.1012 46.2784C66.4834 47.1052 66.3612 48.0698 65.7268 48.7484C65.0924 49.427 64.1694 49.7208 64.1694 49.908C64.1694 50.0822 65.3758 50.2408 66.1558 51.1976C67.1802 52.4586 67.3518 53.7846 66.3092 55.069C65.823 55.6696 65.1964 56.07 64.4944 56.408C63.4388 56.9176 62.3156 57.1568 61.1274 57.2816ZM61.7852 47.2352C62.1232 46.892 62.1414 46.3096 61.7644 45.9846C61.0884 45.3996 59.4322 45.176 58.504 45.28C58.101 45.3242 57.8358 45.6648 57.7838 46.034C57.7058 46.593 57.8046 47.1078 57.9684 47.646C58.0074 47.776 58.0256 47.9866 58.1608 48.062C58.5196 48.2674 58.9538 48.2856 59.362 48.2284C60.2408 48.1062 61.1664 47.8618 61.7826 47.2352H61.7852ZM59.4166 54.7258C60.5996 54.8688 61.858 54.4892 62.7004 53.7586C62.9838 53.5142 63.1164 53.0826 63.041 52.742C62.9318 52.248 62.6094 51.8762 62.196 51.598C60.3396 50.363 57.4744 50.4436 57.477 51.9282V53.4128C57.477 54.1018 57.9372 54.5438 58.621 54.627L59.4192 54.7232L59.4166 54.7258Z" fill="#DF0017"/>
<path d="M74.0132 53.1032C73.3502 53.2852 72.695 53.7766 72.2686 54.3122L71.187 55.6616C70.6384 56.3454 69.835 56.6626 68.9588 56.6522C68.3842 56.647 67.911 56.3532 67.7004 55.8124C67.3494 54.8998 67.638 53.5348 68.067 52.6482L68.7456 51.2494L69.3228 50.043L69.8662 48.9094L70.5474 47.5002L71.6446 45.298C72.136 44.31 72.9732 43.2778 74.0938 43.1816H74.8556C76.166 43.3844 77.4686 44.6064 78.038 45.7426L80.9006 51.46L81.6312 52.9784L82.2292 54.2108C82.6946 55.1676 82.8818 56.2544 81.8678 56.6938C81.1398 57.0084 80.3208 56.9772 79.728 56.4C79.2756 55.9606 79.1378 55.0636 78.233 54.0418C77.6038 53.332 76.8134 52.9186 75.8592 52.8458C75.2378 52.799 74.6242 52.9394 74.0158 53.1058L74.0132 53.1032ZM75.5186 50.4642C75.9762 50.1964 76.1868 49.7102 76.2076 49.1902C76.244 48.2828 75.7786 47.4508 75.1234 46.819C74.9596 46.663 74.7828 46.4498 74.5436 46.4472C74.2576 46.4446 74.008 46.6552 73.8208 46.8736C73.2852 47.5054 73.0668 48.3634 73.215 49.1772C73.4256 50.3342 74.8088 50.8776 75.5186 50.4642Z" fill="#DF0017"/>
<path d="M99.7113 52.3357C98.5465 52.2395 96.9735 52.6841 96.2091 53.6331L95.1691 54.9305C94.5217 55.7365 93.5727 56.2461 92.5301 56.1109C91.4875 55.9757 91.2535 54.9435 91.3575 53.9685C91.4459 53.1339 91.7345 52.4007 92.0933 51.6545L92.8343 50.1127L93.4323 48.8725L93.9939 47.6999L95.5799 44.5201C95.7593 44.1587 95.9933 43.8571 96.2559 43.5659C96.8071 42.9549 97.5585 42.5753 98.3827 42.6351C99.8231 42.7391 101.211 43.9949 101.82 45.2065L104.651 50.8511L105.431 52.4709L105.98 53.6019C106.331 54.3247 106.658 55.3855 106.094 55.8899C105.702 56.2409 105.148 56.4047 104.63 56.3761C103.9 56.3345 103.369 55.8639 103.081 55.2243C102.415 53.7397 101.425 52.4787 99.7113 52.3383V52.3357ZM99.7503 49.6733C100.403 48.8465 100.057 47.5985 99.3967 46.7483L98.7467 46.0801C98.1357 45.4535 97.3193 46.5455 97.0489 47.6635C96.8825 48.3499 96.9969 49.0935 97.5143 49.6057C97.7405 49.8267 98.0733 49.9515 98.3697 50.0607C98.8689 50.2453 99.4071 50.1023 99.7477 49.6733H99.7503Z" fill="#DF0017"/>
<path d="M90.1458 50.2926L89.2462 55.4146C89.1968 55.6928 89.1526 55.932 88.9472 56.1452C88.2504 56.8784 86.7242 56.998 85.9286 56.2882C85.6452 56.036 85.5386 55.6642 85.4684 55.2794C85.3644 54.71 85.4658 54.151 85.6478 53.5998L86.1652 52.0398C86.3264 51.5588 86.2978 51.0466 86.1132 50.5656C85.7206 50.706 85.367 50.7684 84.99 50.7684H84.6078C83.8408 50.7684 83.1336 50.511 82.4784 50.0794C80.9158 49.055 79.855 47.3442 79.738 45.4696C79.6808 44.5466 79.8108 43.0802 80.5206 42.6382C81.1576 42.2404 81.9844 42.4224 82.442 43.0074C82.6578 43.283 82.832 43.6236 82.8294 43.9824V44.7936C82.8242 45.1654 82.7722 45.4956 82.8294 45.8674C82.8944 46.3198 82.9698 46.793 83.3234 47.1154C84.1632 47.8824 85.8376 47.651 86.7242 46.7514C87.4392 46.026 88.2218 43.3038 89.5686 42.984C89.7272 42.9476 89.9872 42.9398 90.138 42.9866C90.9544 43.2492 91.3756 43.9772 91.4536 44.7936C91.568 45.9818 91.165 47.2168 90.7854 48.3608L90.1432 50.29L90.1458 50.2926Z" fill="#DF0017"/>
<path d="M136.959 44.5606C137.032 45.2678 136.793 45.8502 136.325 46.2792C135.857 46.7082 135.215 46.8564 134.57 46.7238C133.967 46.599 133.436 46.1804 133.205 45.6058C132.973 45.0312 132.971 44.415 133.293 43.8248C133.701 43.0734 134.572 42.7198 135.423 42.8862C136.273 43.0526 136.876 43.713 136.962 44.5606H136.959ZM136.561 44.9324C136.6 44.376 136.395 43.9444 136.005 43.6116C135.768 43.4088 135.464 43.2424 135.126 43.2242C134.286 43.1826 133.54 43.804 133.452 44.636C133.356 45.5304 134.006 46.2922 134.848 46.3754C135.69 46.4586 136.499 45.8398 136.561 44.9324Z" fill="#DF0017"/>
<path d="M135.329 45.9112C135.337 45.6694 135.381 45.412 135.204 45.2274C135.108 45.126 134.915 45.1416 134.775 45.165L134.77 45.9164H134.109V43.7324H135.331C135.633 43.7324 135.859 43.943 135.919 44.19C135.994 44.4968 135.901 44.7776 135.568 44.9206C136.039 45.1286 135.81 45.4588 135.953 45.9164H135.326L135.329 45.9112ZM135.334 44.4604C135.344 44.3876 135.337 44.294 135.272 44.2472C135.129 44.1432 134.954 44.1172 134.775 44.1406V44.6892C135.058 44.736 135.308 44.6502 135.334 44.463V44.4604Z" fill="#DF0017"/>
</g>
<defs>
<clipPath id="clip0_1041_3314">
<rect width="190" height="73" fill="white"/>
</clipPath>
</defs>
</svg>
