<svg width="11" height="20" viewBox="0 0 11 20" fill="none" xmlns="http://www.w3.org/2000/svg">
<path d="M10.408 0H7.816C4.904 0 3.02 1.928 3.02 4.92V7.188H0.408C0.184 7.188 0 7.368 0 7.596V10.884C0 11.108 0.184 11.292 0.408 11.292H3.016V19.588C3.016 19.812 3.2 19.996 3.424 19.996H6.824C7.048 19.996 7.232 19.812 7.232 19.588V11.292H10.28C10.504 11.292 10.688 11.108 10.688 10.884V7.596C10.688 7.488 10.648 7.384 10.568 7.308C10.492 7.232 10.388 7.188 10.28 7.188H7.228V5.264C7.228 4.34 7.448 3.868 8.652 3.868H10.4C10.624 3.868 10.808 3.684 10.808 3.46V0.412C10.808 0.188 10.628 0.004 10.4 0.004L10.408 0Z" fill="#1977F3"/>
</svg>
