<svg width="21" height="20" viewBox="0 0 21 20" fill="none" xmlns="http://www.w3.org/2000/svg">
<path d="M20.928 12.26V20H16.44V12.78C16.44 10.968 15.792 9.728 14.168 9.728C12.928 9.728 12.192 10.56 11.868 11.368C11.748 11.656 11.72 12.056 11.72 12.46V19.996H7.232C7.232 19.996 7.292 7.768 7.232 6.5H11.72V8.412C11.72 8.412 11.7 8.44 11.692 8.456H11.72V8.412C12.316 7.496 13.38 6.184 15.764 6.184C18.716 6.184 20.928 8.112 20.928 12.256V12.26ZM2.54 0C1.004 0 0 1.008 0 2.332C0 3.656 0.976 4.664 2.48 4.664H2.508C4.072 4.664 5.044 3.628 5.044 2.332C5.016 1.008 4.072 0 2.536 0H2.54ZM0.268 20H4.752V6.504H0.268V20Z" fill="#3060BF"/>
</svg>
