<svg width="22" height="15" viewBox="0 0 22 15" fill="none" xmlns="http://www.w3.org/2000/svg">
<path d="M21.5495 2.34697C21.2973 1.4303 20.5541 0.70662 19.6126 0.45662C17.8919 -0.00390625 11.0045 -0.00390625 11.0045 -0.00390625C11.0045 -0.00390625 4.11712 -0.00390625 2.3964 0.439076C1.46847 0.689076 0.707207 1.4303 0.454955 2.34697C0 4.02241 0 7.50048 0 7.50048C0 7.50048 0 10.9961 0.454955 12.654C0.707207 13.5707 1.45045 14.2943 2.3964 14.5443C4.13514 15.0049 11.0045 15.0049 11.0045 15.0049C11.0045 15.0049 17.8919 15.0049 19.6126 14.5619C20.5541 14.3163 21.2973 13.5926 21.5541 12.6759C22.009 11.0005 22.009 7.52241 22.009 7.52241C22.009 7.52241 22.027 4.0268 21.5541 2.35136L21.5495 2.34697ZM8.80631 10.711V4.28557L14.5315 7.49609L8.80631 10.7066V10.711Z" fill="#FD0000"/>
</svg>
