<svg width="190" height="73" viewBox="0 0 190 73" fill="none" xmlns="http://www.w3.org/2000/svg">
<g clip-path="url(#clip0_2733_9442)">
<g clip-path="url(#clip1_2733_9442)">
<path d="M34.5925 37.0308C33.9931 31.5721 39.7128 27.1943 47.3682 27.2542C55.0216 27.3141 61.7178 31.7848 62.3173 37.2377C62.9167 42.6983 57.2008 47.0703 49.5455 47.0123C41.8901 46.9562 35.1939 42.4837 34.5925 37.0327M63.7404 38.7227C63.0482 31.9549 55.3445 26.4111 46.5348 26.3377C37.7192 26.2642 31.139 31.6939 31.8312 38.4578C32.5235 45.2256 40.2272 50.7694 49.0388 50.8429C57.8505 50.9125 64.4346 45.4867 63.7404 38.7208" fill="#FBB584"/>
<path d="M50.4366 50.9783C46.0994 55.5185 39.1286 55.8917 34.8784 51.8195C30.6263 47.751 30.6978 40.7744 35.0408 36.24C39.3819 31.7056 46.3508 31.3285 50.601 35.3988C54.8512 39.4711 54.7796 46.4478 50.4366 50.9783ZM34.3563 36.0969C29.3114 41.3642 29.2283 49.4739 34.1707 54.2095C39.1131 58.9392 47.2132 58.5041 52.2562 53.233C57.303 47.9618 57.3862 39.8521 52.4418 35.1204C47.5013 30.3907 39.4012 30.8257 34.3544 36.0988" fill="#F89B6C"/>
<path d="M34.8177 19.1206C43.846 15.7386 52.7717 19.1612 54.7537 26.7624C56.7396 34.3694 51.0295 43.2797 42.0032 46.6597C32.975 50.0475 24.0473 46.623 22.0653 39.0198C20.0775 31.4148 25.7914 22.5064 34.8177 19.1206ZM26.4334 22.0288C17.0687 29.4424 14.6845 40.1916 21.1062 46.0274C27.5298 51.8671 40.3306 50.585 49.6972 43.1714C59.0639 35.7578 61.45 25.0144 55.0225 19.1747C48.597 13.3351 35.7981 14.6132 26.4334 22.0288Z" fill="#F37321"/>
<path d="M82.7076 36.57H72.3316V45.2115H70.1582V28.5859H72.3316V34.0563H82.7076V28.5859H84.883V45.2115H82.7076V36.57ZM111.417 32.7046C113.01 32.7046 114.251 33.1861 115.141 34.1452C116.03 35.1082 116.479 36.0731 116.479 37.9004V45.2115H114.304V37.7998C114.304 36.7421 114.019 36.3496 113.451 35.7617C112.886 35.17 112.136 34.8703 111.202 34.8703H109.206C108.274 34.8703 107.524 35.1681 106.956 35.7617C106.391 36.3496 106.109 36.7421 106.109 37.7998V45.2115H103.935V37.9004C103.935 36.0731 104.378 35.1082 105.273 34.1452C106.155 33.188 107.4 32.7046 108.994 32.7046H111.419H111.417ZM138.807 32.7046V40.1125C138.807 41.1702 138.527 41.5646 137.96 42.1544C137.39 42.7442 136.645 43.042 135.709 43.042H134.35C133.42 43.042 132.666 42.7442 132.105 42.1544C131.538 41.5627 131.254 41.1682 131.254 40.1125V32.7046H128.976V40.1125C128.976 41.1702 128.692 41.5646 128.125 42.1544C127.557 42.7442 126.807 43.042 125.871 43.042H124.519C123.585 43.042 122.835 42.7442 122.27 42.1544C121.702 41.5627 121.418 41.1682 121.418 40.1125V32.7046H119.242V40.0138C119.242 41.847 119.685 42.8119 120.578 43.7729C121.466 44.732 122.711 45.2096 124.306 45.2096H126.087C127.681 45.2096 128.924 44.732 129.815 43.7729C129.92 43.6588 130.022 43.5408 130.113 43.4268C130.206 43.5389 130.308 43.6588 130.413 43.7729C131.304 44.732 132.546 45.2096 134.137 45.2096H135.922C137.515 45.2096 138.759 44.732 139.648 43.7729C140.539 42.8119 140.986 41.845 140.986 40.0138V32.7046H138.807ZM155.177 34.1413C154.286 33.1861 153.041 32.7066 151.449 32.7066H149.026C147.866 32.7066 146.897 32.9637 146.108 33.4684V28.5879H143.921V45.2135H146.141V37.8907C146.141 36.8388 146.425 36.4405 146.988 35.8507C147.557 35.2609 148.307 34.9651 149.239 34.9651H151.234C152.168 34.9651 152.921 35.2609 153.489 35.8507C154.05 36.4405 154.334 36.8407 154.334 37.8907V45.2135H156.513V37.9042C156.513 36.0731 156.065 35.1082 155.175 34.1433L155.177 34.1413ZM171.72 34.4991C170.873 33.3041 169.465 32.7046 167.471 32.7046H160.371V34.8723H167.292C167.974 34.8723 168.736 34.9341 169.343 35.2725C169.976 35.636 170.142 36.3998 170.142 37.0263H163.999C162.411 37.0263 161.282 37.239 160.609 37.6683C159.667 38.26 159.151 39.3815 159.132 41.031C159.132 42.7654 159.596 43.9469 160.508 44.5463C161.175 44.993 162.332 45.2115 163.977 45.2115H169.8C170.635 45.2019 171.304 44.7996 171.768 44.1789C172.244 43.5428 172.501 42.6688 172.501 41.7503V37.0728C172.427 36.1427 172.222 35.2126 171.72 34.4971V34.4991ZM169.567 42.5199C169.103 42.8641 168.328 43.0439 167.249 43.0439H164.124C163.254 43.0439 162.651 42.9665 162.301 42.806C161.684 42.5527 161.377 41.9746 161.365 41.1702C161.365 40.3136 161.684 39.7412 162.339 39.4415C162.732 39.2578 163.335 39.1978 164.147 39.1978H167.912C169.39 39.1862 170.148 39.7296 170.208 40.8995C170.208 41.6227 169.987 42.2008 169.567 42.5218V42.5199ZM100.325 34.4991C99.4763 33.3041 98.0705 32.7046 96.0789 32.7046H88.9766V34.8723H95.8971C96.5816 34.8723 97.3416 34.9341 97.9487 35.2725C98.581 35.636 98.7473 36.3998 98.7473 37.0263H92.6041C91.0185 37.0263 89.8873 37.239 89.2144 37.6683C88.2727 38.26 87.7564 39.3815 87.7371 41.031C87.7371 42.7654 88.1992 43.9469 89.1119 44.5463C89.7771 44.993 90.9353 45.2115 92.5828 45.2115H98.4012C99.2385 45.2019 99.9075 44.7996 100.372 44.1789C100.845 43.5428 101.106 42.6688 101.106 41.7503V37.0728C101.033 36.1427 100.83 35.2126 100.325 34.4971V34.4991ZM98.1711 42.5199C97.707 42.8641 96.9316 43.0439 95.8546 43.0439H92.7298C91.8596 43.0439 91.2563 42.9665 90.9063 42.806C90.2895 42.5527 89.982 41.9746 89.9704 41.1702C89.9704 40.3136 90.2895 39.7412 90.945 39.4415C91.3375 39.2578 91.9408 39.1978 92.753 39.1978H96.5159C97.9951 39.1862 98.7512 39.7296 98.8111 40.8995C98.8111 41.6227 98.5907 42.2008 98.1692 42.5218L98.1711 42.5199Z" fill="black"/>
</g>
</g>
<defs>
<clipPath id="clip0_2733_9442">
<rect width="190" height="73" fill="white"/>
</clipPath>
<clipPath id="clip1_2733_9442">
<rect width="155" height="41.9778" fill="white" transform="translate(17.5 15.5107)"/>
</clipPath>
</defs>
</svg>
