<svg width="190" height="73" viewBox="0 0 190 73" fill="none" xmlns="http://www.w3.org/2000/svg">
<g clip-path="url(#clip0_2774_9672)">
<path fill-rule="evenodd" clip-rule="evenodd" d="M87.2658 36.105C88.6002 35.5854 89.4651 34.2988 89.4404 32.8885C89.4404 29.9936 87.3894 28.5586 84.5723 28.5586H77.1836V44.2947H85.2148C87.6859 44.2947 90.1076 42.5627 90.1076 39.9153C90.1076 36.773 87.2658 36.1297 87.2658 36.105ZM81.0386 31.8246H83.9051C84.6711 31.7751 85.3383 32.3689 85.3878 33.1359C85.3878 33.1854 85.3878 33.2596 85.3878 33.3091C85.363 34.1256 84.7205 34.7442 83.9051 34.7442H81.0138L81.0386 31.8246ZM83.9298 41.004H81.0633V37.9112H83.8556C85.2642 37.9112 85.9314 38.5297 85.9314 39.4452C85.9314 40.5833 85.0912 41.004 83.9298 41.004Z" fill="#ED0007"/>
<path fill-rule="evenodd" clip-rule="evenodd" d="M98.6083 28.1621C94.0614 28.1621 91.3926 31.7992 91.3926 36.4013C91.3926 41.0033 94.0614 44.6405 98.6083 44.6405C103.155 44.6405 105.824 41.0281 105.824 36.4013C105.824 31.7745 103.18 28.1621 98.6083 28.1621ZM98.6083 40.8796C96.3843 40.8796 95.2723 38.8755 95.2723 36.4013C95.2723 33.9271 96.3843 31.9477 98.6083 31.9477C100.832 31.9477 101.969 33.9518 101.969 36.4013C101.969 38.9003 100.832 40.8796 98.6083 40.8796Z" fill="#ED0007"/>
<path fill-rule="evenodd" clip-rule="evenodd" d="M114.201 34.7439L113.657 34.6202C112.323 34.348 111.26 34.0016 111.26 33.0367C111.26 31.9975 112.273 31.5769 113.163 31.5769C114.399 31.6016 115.56 32.1212 116.375 33.0367L118.822 30.6119C117.71 29.3501 115.906 28.1377 113.089 28.1377C109.778 28.1377 107.257 29.9934 107.257 33.0861C107.257 35.9068 109.283 37.2923 111.754 37.8119L112.298 37.9356C114.349 38.3563 115.115 38.6779 115.115 39.6676C115.115 40.6078 114.275 41.2264 112.99 41.2264C111.458 41.2264 110.074 40.5583 109.011 39.1975L106.516 41.6717C107.899 43.3294 109.654 44.616 113.039 44.616C115.98 44.616 119.118 42.9336 119.118 39.4944C119.168 35.9068 116.45 35.214 114.201 34.7439Z" fill="#ED0007"/>
<path fill-rule="evenodd" clip-rule="evenodd" d="M127.916 40.8803C126.186 40.8803 124.382 39.4452 124.382 36.303C124.382 33.5071 126.063 31.9483 127.817 31.9483C129.201 31.9483 130.016 32.5916 130.659 33.705L133.822 31.6019C132.24 29.2019 130.362 28.1875 127.768 28.1875C123.023 28.1875 120.453 31.8741 120.453 36.3277C120.453 41.004 123.295 44.6658 127.718 44.6658C130.832 44.6658 132.315 43.5772 133.921 41.2514L130.733 39.0988C130.091 40.138 129.399 40.8803 127.916 40.8803Z" fill="#ED0007"/>
<path fill-rule="evenodd" clip-rule="evenodd" d="M144.375 28.5586V34.3483H139.605V28.5586H135.479V44.2947H139.605V38.0844H144.375V44.2947H148.501V28.5586H144.375Z" fill="#ED0007"/>
<path d="M53.4109 24.5498C46.8376 24.5498 41.5 29.8941 41.5 36.4756C41.5 43.057 46.8376 48.4014 53.4109 48.4014C59.9841 48.4014 65.3217 43.057 65.3217 36.4756C65.3217 29.8941 59.9841 24.5498 53.4109 24.5498ZM53.4109 47.2879C47.4554 47.2879 42.612 42.4385 42.612 36.4756C42.612 30.5127 47.4554 25.6632 53.4109 25.6632C59.3663 25.6632 64.2097 30.5127 64.2097 36.4756C64.2097 42.4385 59.3663 47.2879 53.4109 47.2879Z" fill="black"/>
<path d="M58.3289 29.0283H57.5134V33.1108H49.334V29.0283H48.4938C44.3917 31.75 43.255 37.2675 45.9733 41.3995C46.6405 42.4139 47.5054 43.2799 48.4938 43.9232H49.334V39.8407H57.5134V43.9232H58.3289C62.431 41.2015 63.5677 35.684 60.8742 31.5768C60.207 30.5623 59.3421 29.6964 58.3289 29.0283ZM48.1973 42.3149C44.9848 39.4448 44.6883 34.4964 47.5548 31.2799C47.7525 31.0572 47.9749 30.8345 48.1973 30.6366V42.3149ZM57.5134 38.7025H49.334V34.2242H57.5134V38.7025ZM58.6254 42.2902V39.8159V33.1108V30.6366C61.8379 33.5314 62.1097 38.4799 59.2185 41.6964C59.0208 41.8943 58.8231 42.0922 58.6254 42.2902Z" fill="black"/>
</g>
<defs>
<clipPath id="clip0_2774_9672">
<rect width="107" height="24" fill="white" transform="translate(41.5 24.5)"/>
</clipPath>
</defs>
</svg>
