<svg width="190" height="58" viewBox="0 0 190 58" fill="none" xmlns="http://www.w3.org/2000/svg">
<path d="M91.3868 23.3264C91.2958 23.4278 91.1476 23.3576 91.0332 23.368C91.1268 23.2952 91.2698 23.329 91.3868 23.3264Z" fill="#7FBD41"/>
<path d="M110.054 25.6818H110.005L110.015 25.3281C110.088 25.4172 110.054 25.5613 110.057 25.6818H110.054Z" fill="#7FBD41"/>
<path d="M95.7626 23.368C95.6846 23.3602 95.565 23.4226 95.5078 23.3238C95.5936 23.3238 95.7002 23.2978 95.7626 23.368Z" fill="#7FBD41"/>
<path d="M110.01 26.245L110.005 25.6843C110.018 25.6397 110.033 25.6397 110.054 25.6843V26.1507C110.059 26.2057 110.039 26.2424 110.01 26.2476V26.245Z" fill="#7FBD41"/>
<path d="M92.4549 23.2763C92.5901 23.2292 92.7851 23.2318 92.9151 23.2763C93.2583 23.2344 93.6795 23.237 94.0331 23.2763C94.1449 23.2239 94.3113 23.2449 94.4387 23.2763C94.6389 23.2763 94.8339 23.3156 95.0549 23.3183L95.5073 23.3261L95.7621 23.3707C98.1125 23.6065 100.486 24.175 102.618 25.286C103.591 25.7942 104.477 26.3654 105.301 27.0964L106.602 28.3934L106.947 28.8178C107.233 29.1689 107.402 29.5593 107.265 30.0283C107.155 30.3925 106.856 30.6545 106.427 30.8039C105.918 30.982 105.395 31.1549 104.865 31.1576C104.433 31.1235 103.973 31.1209 103.544 31.168L103.19 31.113L102.936 31.0632C102.754 31.0816 102.572 31.058 102.374 31.0135L99.8701 30.458L94.5817 29.0301C93.0061 28.6056 91.4487 28.3305 89.8653 28.1576C89.7665 28.1078 89.6625 28.1025 89.5585 28.1392C89.4961 28.1392 89.4129 28.1183 89.3583 28.0842C89.2413 28.0528 89.1165 28.0449 88.9995 28.0868L88.6485 28.0239C88.4717 28.0239 88.3001 28.0135 88.1337 27.9873C87.9933 28.0318 87.7775 28.0292 87.6241 27.9873H87.0131C86.8597 28.0318 86.6491 28.0292 86.5035 27.9873C86.3397 28.0056 86.1681 28.0161 85.9913 28.0239C85.7729 28.0999 85.5441 28.0816 85.2919 28.1078C83.1157 28.3305 81.0149 28.8886 79.0493 29.8449L78.2875 30.217L77.6245 30.5707L76.8367 31.0475L76.3687 31.3541C76.0047 31.5925 75.6615 31.8205 75.3209 32.0851L74.3667 32.8318L74.0495 33.0964C73.9117 33.2117 73.8311 33.2563 73.7063 33.403C73.6231 33.5025 73.3787 33.5418 73.3527 33.741C73.3475 33.7724 73.2747 33.7881 73.2565 33.7777C73.2383 33.7672 73.2045 33.7069 73.2253 33.6702L73.5945 33.0073C75.3495 29.8632 78.5215 27.4397 81.7455 25.9017C84.6809 24.5025 87.8321 23.6615 91.0353 23.368L91.3889 23.3261H91.6957C91.8465 23.3052 91.9999 23.2921 92.1585 23.2842C92.2391 23.2475 92.3691 23.2763 92.4575 23.2763H92.4549Z" fill="#7FBD41"/>
<path d="M104.865 31.1549L103.544 31.1653C103.549 31.1315 103.588 31.1133 103.643 31.1133H104.769C104.823 31.1133 104.862 31.1315 104.865 31.1575V31.1549Z" fill="#7FBD41"/>
<path d="M94.033 23.2241C94.0772 23.2397 94.0746 23.2553 94.033 23.2735H92.915C92.8708 23.2605 92.8708 23.2423 92.915 23.2241H94.0356H94.033Z" fill="#7FBD41"/>
<path d="M86.5034 27.9901C86.5476 28.0031 86.5476 28.0213 86.5034 28.0395L85.9912 28.0239C86.155 27.9667 86.3266 27.9901 86.5034 27.9875V27.9901Z" fill="#7FBD41"/>
<path d="M87.0129 27.9875C87.0077 28.0213 86.9687 28.0421 86.9167 28.0421H86.5059V27.9901H87.0155L87.0129 27.9875Z" fill="#7FBD41"/>
<path d="M88.131 27.9901C88.1752 28.0057 88.1752 28.0213 88.131 28.0395H87.7202C87.6656 28.0421 87.6292 28.0239 87.624 27.9875H88.1336L88.131 27.9901Z" fill="#7FBD41"/>
<path d="M88.6457 28.0239L88.1309 28.0369V27.9875C88.3103 27.9875 88.4741 27.9927 88.6457 28.0239Z" fill="#7FBD41"/>
<path d="M92.9127 23.224V23.276H92.4551C92.4629 23.2396 92.4993 23.2188 92.5539 23.2214H92.9127V23.224Z" fill="#7FBD41"/>
<path d="M92.1562 23.2869C92.0106 23.3519 91.8546 23.3259 91.6934 23.3259C91.6986 23.2921 91.7376 23.2739 91.7896 23.2739L92.1536 23.2869H92.1562Z" fill="#7FBD41"/>
<path d="M94.4388 23.2735H94.0332V23.2241C94.1684 23.2241 94.327 23.1903 94.4388 23.2735Z" fill="#7FBD41"/>
<path d="M89.3559 28.0841H88.9971C89.0959 28.0035 89.2519 28.0191 89.3559 28.0841Z" fill="#7FBD41"/>
<path d="M89.8625 28.1546L89.5557 28.1364C89.6259 28.0584 89.7923 28.0532 89.8625 28.1546Z" fill="#7FBD41"/>
<path d="M103.19 31.11C103.105 31.097 102.995 31.136 102.936 31.0606C103.021 31.0528 103.128 31.0424 103.19 31.11Z" fill="#7FBD41"/>
<path d="M71.1928 30.5342C71.1928 30.6233 71.2136 30.7019 71.2578 30.7726C71.276 30.9822 71.1928 31.0006 71.0992 31.1185C71.0056 31.2364 70.925 31.3726 70.808 31.4905C70.6624 31.6372 70.5194 31.7342 70.366 31.86C69.6562 32.4442 68.7852 32.8608 67.8674 32.8582C67.623 32.8949 67.3708 32.8975 67.129 32.8582C65.9174 32.853 64.4822 32.1455 63.58 31.2626C63.0704 30.7648 62.6596 30.2617 62.3606 29.6119C62.1292 29.1062 61.9394 28.577 61.9394 28.011C61.9004 27.7674 61.8978 27.5132 61.9394 27.2696C61.9394 26.984 61.994 26.6905 62.0954 26.3813L62.67 26.6905C63.1666 26.9578 63.723 27.0285 64.2872 27.1124L66.8534 27.4949C67.9636 27.66 69.4092 28.0372 70.2204 28.763C70.7534 29.2399 71.1018 29.8241 71.198 30.5316L71.1928 30.5342Z" fill="#7FBD41"/>
<path d="M67.8644 32.8584C67.6642 32.9338 67.2976 32.9338 67.126 32.8584H67.8644Z" fill="#7FBD41"/>
<path d="M61.9364 28.011C61.8584 27.8145 61.8584 27.4451 61.9364 27.2695V28.011Z" fill="#7FBD41"/>
<path d="M71.2576 30.7728C71.1744 30.7493 71.1848 30.6366 71.1926 30.5344C71.2004 30.5999 71.2524 30.7047 71.2576 30.7728Z" fill="#7FBD41"/>
<path d="M114.582 29.371C114.488 29.4025 114.361 29.4208 114.277 29.371C114.186 29.4129 114.017 29.4103 113.921 29.371C113.854 29.4234 113.708 29.3998 113.617 29.371H113.362L113.105 29.3291C112.2 29.2374 111.334 28.902 110.528 28.4461C110.245 27.7099 110.086 26.992 110.011 26.2453C110.026 26.054 110.042 25.868 110.055 25.6819C110.039 25.5745 110.026 25.4566 110.013 25.3282C110.323 21.0915 114.569 18.3431 118.544 18.0889C119.017 18.0653 119.493 18.0601 119.971 18.0706C122.27 18.2959 124.209 19.0715 125.832 20.7981C126.029 21.0103 126.222 21.1728 126.399 21.4557C125.918 21.5763 125.499 21.7963 125.086 22.0793L124.602 22.4094C124.529 22.4592 124.412 22.564 124.352 22.6112L124.043 22.8601C123.848 23.0854 123.692 23.2452 123.45 23.4077C122.951 23.7431 122.79 24.3142 122.228 24.6339C122.148 24.8802 121.981 25.0453 121.75 25.1658C121.693 25.3859 121.552 25.5483 121.339 25.6295C121.31 25.8391 121.162 25.9073 121.035 26.0383L120.432 26.6514C120.294 26.7929 120.164 26.8793 120.052 26.9815L119.834 27.1832L119.189 27.6627C117.962 28.5719 116.074 29.3658 114.582 29.371Z" fill="#7FBD41"/>
<path d="M119.974 18.073L118.547 18.0912C118.547 18.0912 118.568 18.0522 118.604 18.0522L119.974 18.073Z" fill="#7FBD41"/>
<path d="M114.278 29.3734C114.322 29.3864 114.322 29.402 114.278 29.4228H113.919C113.875 29.4072 113.877 29.389 113.919 29.3708H114.275L114.278 29.3734Z" fill="#7FBD41"/>
<path d="M113.921 29.3708V29.4228C113.817 29.4228 113.693 29.4514 113.617 29.3734H113.921V29.3708Z" fill="#7FBD41"/>
<path d="M114.582 29.3708C114.506 29.4514 114.379 29.4228 114.277 29.4228V29.3734H114.582V29.3708Z" fill="#7FBD41"/>
<path d="M113.362 29.3705C113.276 29.3705 113.167 29.3965 113.104 29.3289C113.185 29.3367 113.305 29.2743 113.362 29.3705Z" fill="#7FBD41"/>
<path d="M72.7709 16.0007C72.8931 15.9562 73.0283 15.9614 73.1557 15.9928C76.4681 16.2024 79.4789 18.4741 80.6359 21.6103C80.7867 22.0217 80.8101 22.433 80.4773 22.7448C80.2745 22.9361 80.0717 23.1195 79.8143 23.2531L78.0359 24.1675C77.7499 24.3142 77.5081 24.4714 77.2663 24.6706C77.1181 24.7937 76.9933 24.8409 76.8971 25.0452C76.8425 25.1631 76.7099 25.2968 76.6371 25.4278C76.5175 25.64 76.2861 25.7736 76.0625 25.7893L75.7453 25.7422C75.5607 25.6898 75.4125 25.5614 75.2565 25.4225C73.7017 24.0444 73.0257 21.8016 72.4355 19.8208C72.0585 18.647 71.7439 17.3762 70.9795 16.4094C71.4111 16.2182 71.8245 16.0741 72.2847 16.0479L72.5681 15.9955H72.7709V16.0007Z" fill="#7FBD41"/>
<path d="M73.1553 15.9924L72.7705 16.0002C72.8589 15.9196 73.0357 15.9196 73.1553 15.9924Z" fill="#7FBD41"/>
<path d="M72.5686 16.0006C72.4984 16.076 72.3918 16.0474 72.2852 16.0526C72.3398 15.9746 72.4672 15.9954 72.5686 16.0006Z" fill="#7FBD41"/>
<path d="M76.0652 25.7916C75.9352 25.802 75.8598 25.776 75.748 25.7448C75.8754 25.7292 76.0028 25.7084 76.0652 25.7916Z" fill="#7FBD41"/>
<path d="M107.616 9.90897L107.665 10.1579C107.684 10.6347 107.795 11.0932 107.884 11.5806L108.001 12.2356L108.094 12.6601L108.201 13.1631C108.38 14.0146 108.581 14.84 108.526 15.6915C108.49 15.7937 108.49 15.9011 108.531 16.0007L108.456 16.3963C108.341 17.0015 108.167 17.5937 107.92 18.1675L107.395 19.1107L106.956 19.6898C106.878 19.7919 106.763 19.8181 106.711 19.9753C106.677 20.0775 106.498 20.2426 106.397 20.295C106.157 20.4208 105.63 21.1753 104.109 21.5919C103.758 21.6889 103.433 21.812 103.087 21.7885L102.832 21.8382H102.577C102.343 21.8854 102.052 21.8854 101.815 21.8382L101.316 21.8225C100.073 21.6548 98.9295 21.1439 97.9883 20.3186C98.5811 19.9151 99.0439 19.4461 99.4391 18.8775L101.342 16.1369L102.645 14.1666C103.274 13.2155 104.358 11.7954 105.175 11.0749C105.83 10.4959 106.542 10.0138 107.424 9.88277C107.478 9.87491 107.574 9.88539 107.616 9.90373V9.90897Z" fill="#7FBD41"/>
<path d="M102.577 21.8411C102.572 21.8749 102.533 21.8957 102.478 21.8957H101.911C101.857 21.8957 101.818 21.8749 101.812 21.8411H102.574H102.577Z" fill="#7FBD41"/>
<path d="M108.529 16.0008C108.448 15.9275 108.451 15.7624 108.524 15.6917L108.529 16.0008Z" fill="#7FBD41"/>
<path d="M107.666 10.1578C107.593 10.1028 107.606 9.99016 107.617 9.90894C107.705 9.94562 107.663 10.0845 107.666 10.1578Z" fill="#7FBD41"/>
<path d="M103.087 21.7884C103.027 21.8638 102.918 21.8378 102.832 21.8378C102.894 21.7676 102.998 21.7832 103.087 21.7884Z" fill="#7FBD41"/>
<path d="M93.1702 14.4129C93.1988 14.4915 93.217 14.6042 93.165 14.6697C93.2118 14.8898 93.2066 15.2042 93.165 15.4374C93.2196 15.5003 93.1936 15.6653 93.165 15.7649V15.9693C93.1208 16.0505 93.1338 16.1422 93.165 16.226C93.165 16.3832 93.0272 16.5142 93.1026 16.7527C93.0168 16.847 93.0454 16.9623 93.0272 17.0645L92.8764 17.8583L92.4604 19.5824C92.346 19.5928 92.268 19.5666 92.1926 19.5221C92.1042 19.5169 92.021 19.5038 91.9456 19.4828C91.8806 19.5378 91.7324 19.5116 91.6414 19.4828H91.2852C91.202 19.5116 91.0824 19.5326 91.0174 19.4776C90.942 19.5142 90.8562 19.5326 90.7626 19.5378C89.4574 19.7369 88.225 20.3841 87.4242 20.3553C87.2708 20.3107 87.1096 20.3107 86.9536 20.3396C86.652 20.3291 86.3816 20.2243 86.106 20.0959C85.755 19.4566 85.4638 18.8042 85.4014 18.0968C85.4378 17.7614 85.4326 17.3998 85.404 17.0618C85.508 16.171 85.8044 15.3457 86.1554 14.523C86.8964 12.7937 87.354 11.7011 87.5204 9.75179L87.575 9.11773C87.5932 8.86358 87.6088 8.61205 87.6244 8.36576C87.588 8.28454 87.5854 8.19284 87.6166 8.08541C87.6348 8.03039 87.653 7.98585 87.6998 8.00419L87.7986 8.04087C90.1308 8.7352 92.0574 10.1134 92.8296 12.5003C93.035 13.1317 93.1832 13.7684 93.1728 14.4103L93.1702 14.4129Z" fill="#7FBD41"/>
<path d="M85.4014 18.097V17.062C85.4196 17.0804 85.4404 17.1197 85.4404 17.1747V18.0026C85.4404 18.0576 85.4196 18.097 85.4014 18.097Z" fill="#7FBD41"/>
<path d="M87.5745 9.12047L87.5693 8.34754C87.5823 8.25584 87.6005 8.2637 87.6239 8.3685V9.03924C87.6265 9.09427 87.6057 9.13095 87.5745 9.12047Z" fill="#7FBD41"/>
<path d="M93.22 15.4398C93.2044 15.4843 93.1862 15.4817 93.168 15.4398V14.6721C93.181 14.6275 93.1992 14.6275 93.22 14.6721V15.4424V15.4398Z" fill="#7FBD41"/>
<path d="M87.4218 20.3575L86.9512 20.3419C87.089 20.2795 87.2918 20.2795 87.4218 20.3575Z" fill="#7FBD41"/>
<path d="M91.9478 19.4829C91.992 19.4985 91.9894 19.5167 91.9478 19.5349C91.8464 19.5349 91.7216 19.5635 91.6436 19.4829H91.9478Z" fill="#7FBD41"/>
<path d="M93.168 15.765V15.4375H93.22C93.22 15.5397 93.2512 15.6654 93.168 15.765Z" fill="#7FBD41"/>
<path d="M87.6239 8.36848L87.5693 8.34752C87.5693 8.24272 87.5823 8.18246 87.6161 8.08813L87.6239 8.36848Z" fill="#7FBD41"/>
<path d="M93.1679 16.226C93.0899 16.1553 93.0899 16.0033 93.1679 15.9692V16.226Z" fill="#7FBD41"/>
<path d="M93.22 14.667H93.168L93.1732 14.4128C93.246 14.4731 93.22 14.5831 93.22 14.667Z" fill="#7FBD41"/>
<path d="M91.2856 19.4827C91.2258 19.5581 91.1192 19.5347 91.0334 19.5347C90.9554 19.5347 90.9502 19.5165 91.0178 19.4775L91.2856 19.4827Z" fill="#7FBD41"/>
<path d="M91.0175 19.4774L91.0331 19.5346H90.7627C90.8381 19.5268 90.8979 19.4748 91.0175 19.4774Z" fill="#7FBD41"/>
<path d="M92.1923 19.5219L91.9453 19.5349V19.4829C92.0285 19.4829 92.1091 19.4699 92.1923 19.5219Z" fill="#7FBD41"/>
<path d="M134.384 49.3991C133.318 49.7187 132.434 49.3912 131.999 48.4087C131.659 47.6331 131.23 46.8969 130.614 46.3309C129.415 45.2253 127.865 45.2986 126.389 45.8279C125.827 46.0296 125.388 46.3991 125.018 46.8576L123.952 48.186C122.847 49.5615 120.809 49.475 119.194 49.0034C118.004 48.6576 116.922 48.1362 115.851 47.5074L113.344 45.8829L112.252 45.1362C111.992 44.958 111.727 44.8034 111.441 44.6777C111.329 44.8322 111.324 44.979 111.322 45.1493L111.301 47.0226C111.293 47.7668 111.043 48.9222 110.388 49.2261C110.071 49.3729 109.71 49.3047 109.377 49.2078C107.939 48.7886 107.182 47.2061 107.081 45.744V42.9694L107.123 36.8148C107.123 36.5292 107.229 36.2122 107.364 35.9842C107.611 35.5702 108.077 35.3842 108.54 35.3318L109.041 35.2742L110.742 35.2925L111.922 35.3318C112.778 35.4392 113.602 35.586 114.405 35.9056C115.599 36.3772 116.644 37.1056 117.476 38.0803C117.879 38.5545 118.196 39.1047 118.274 39.7257C118.386 40.6191 118.03 41.7484 117.385 42.3956C116.912 42.8698 116.321 43.1685 115.718 43.4305L114.873 43.7973C116.108 44.6148 117.9 45.9222 119.335 46.0008C119.98 46.0349 120.562 45.6261 120.843 45.0602L121.641 43.4567L122.621 41.3737L123.185 40.1921L124.519 37.4986C124.738 37.0558 125.05 36.7178 125.401 36.3825C126.069 35.7432 127.01 35.5309 127.897 35.7929C128.583 35.9973 129.155 36.3851 129.652 36.896C130.062 37.3178 130.445 37.7423 130.715 38.2925L133.845 44.5964L134.423 45.82L134.969 46.9571C135.138 47.3109 135.244 47.6855 135.286 48.0707C135.353 48.7126 134.997 49.2235 134.384 49.4069V49.3991ZM114.08 40.3021C114.397 40.0349 114.574 39.6916 114.533 39.2934C114.434 38.3397 113.134 38.0357 112.19 37.9126C111.732 37.8523 111.259 37.8392 110.88 38.1484C110.276 38.641 110.555 39.8541 110.653 40.6951C110.687 40.9781 110.76 41.2034 111.103 41.2375C112.148 41.3397 113.279 40.9755 114.078 40.3021H114.08ZM128.986 42.6497C129.285 42.2043 129.337 41.675 129.236 41.1536C129.08 40.344 128.635 39.7152 128.055 39.1624C127.808 38.9266 127.543 38.7772 127.213 39.0392C126.11 39.9143 125.832 42.0052 126.862 42.7624C127.585 43.2916 128.479 43.4043 128.986 42.6497Z" fill="#DF0017"/>
<path d="M61.1284 49.9441L60.3796 49.986C59.9636 50.0096 59.5346 49.9991 59.1186 49.986L58.0318 49.952C57.1946 49.8472 56.3782 49.6952 55.5982 49.3886C54.8182 49.0821 54.4828 47.9738 54.4828 47.2716V42.469L54.5374 41.0803L54.566 38.0987C53.7392 37.9886 53.1438 37.1528 53.0346 36.3458C52.8916 35.1825 54.6466 35.0437 55.723 34.9913C55.9804 34.9782 56.1858 34.9362 56.451 34.9913L57.452 35.0227L57.9252 35.0541C59.5216 35.2506 61.0868 35.5441 62.6026 36.0707C64.0274 36.5659 65.4626 37.4672 66.1022 38.8559C66.4844 39.6891 66.3622 40.6611 65.7278 41.345C65.0934 42.0288 64.1704 42.3249 64.1704 42.5135C64.1704 42.6891 65.3768 42.8489 66.1568 43.8131C67.1812 45.0838 67.3528 46.4201 66.3102 47.7144C65.824 48.3197 65.1974 48.7231 64.4954 49.0638C63.4398 49.5773 62.3166 49.8183 61.1284 49.9441ZM61.7862 39.8201C62.1242 39.4742 62.1424 38.8873 61.7654 38.5598C61.0894 37.9703 59.4332 37.745 58.505 37.8498C58.102 37.8943 57.8368 38.2375 57.7848 38.6096C57.7068 39.1729 57.8056 39.6917 57.9694 40.2341C58.0084 40.3651 58.0266 40.5773 58.1618 40.6533C58.5206 40.8603 58.9548 40.8786 59.363 40.821C60.2418 40.6978 61.1674 40.4515 61.7836 39.8201H61.7862ZM59.4176 47.3686C60.6006 47.5127 61.859 47.1301 62.7014 46.3939C62.9848 46.1476 63.1174 45.7127 63.042 45.3694C62.9328 44.8716 62.6104 44.4969 62.197 44.2166C60.3406 42.972 57.4754 43.0533 57.478 44.5493V46.0454C57.478 46.7397 57.9382 47.1852 58.622 47.269L59.4202 47.3659L59.4176 47.3686Z" fill="#DF0017"/>
<path d="M74.0137 45.7336C73.3507 45.917 72.6955 46.4122 72.2691 46.952L71.1875 48.3118C70.6389 49.0009 69.8355 49.3205 68.9593 49.31C68.3847 49.3048 67.9115 49.0087 67.7009 48.4637C67.3499 47.5441 67.6385 46.1685 68.0675 45.2751L68.7461 43.8655L69.3233 42.6498L69.8667 41.5074L70.5479 40.0873L71.6451 37.8681C72.1365 36.8725 72.9737 35.8323 74.0943 35.7354H74.8561C76.1665 35.9397 77.4691 37.1712 78.0385 38.3161L80.9011 44.0777L81.6317 45.6078L82.2297 46.8498C82.6951 47.814 82.8823 48.9092 81.8683 49.352C81.1403 49.669 80.3213 49.6375 79.7285 49.0559C79.2761 48.6131 79.1383 47.7092 78.2335 46.6795C77.6043 45.9642 76.8139 45.5476 75.8597 45.4742C75.2383 45.4271 74.6247 45.5685 74.0163 45.7362L74.0137 45.7336ZM75.5191 43.0742C75.9767 42.8044 76.1873 42.3144 76.2081 41.7904C76.2445 40.876 75.7791 40.0375 75.1239 39.4009C74.9601 39.2437 74.7833 39.0288 74.5441 39.0262C74.2581 39.0236 74.0085 39.2358 73.8213 39.4559C73.2857 40.0926 73.0673 40.9572 73.2155 41.7773C73.4261 42.9432 74.8093 43.4908 75.5191 43.0742Z" fill="#DF0017"/>
<path d="M99.7122 44.9607C98.5474 44.8638 96.9744 45.3118 96.21 46.2681L95.17 47.5756C94.5226 48.3878 93.5737 48.9013 92.5311 48.7651C91.4885 48.6288 91.2545 47.5887 91.3585 46.6061C91.4469 45.7651 91.7355 45.0262 92.0943 44.2743L92.8353 42.7205L93.4333 41.4708L93.9949 40.2891L95.5808 37.0847C95.7602 36.7205 95.9943 36.4166 96.2569 36.1232C96.8081 35.5074 97.5594 35.1249 98.3836 35.1852C99.824 35.29 101.212 36.5555 101.821 37.7764L104.652 43.4647L105.432 45.097L105.981 46.2367C106.332 46.9651 106.659 48.0341 106.095 48.5424C105.703 48.8961 105.149 49.0612 104.631 49.0323C103.901 48.9904 103.37 48.5162 103.082 47.8716C102.416 46.3756 101.426 45.1048 99.7122 44.9633V44.9607ZM99.7513 42.2778C100.404 41.4446 100.058 40.1869 99.3977 39.3302L98.7477 38.6568C98.1367 38.0253 97.3203 39.1258 97.0499 40.2524C96.8835 40.9441 96.9979 41.6935 97.5153 42.2096C97.7415 42.4323 98.0743 42.5581 98.3707 42.6681C98.8699 42.8542 99.408 42.7101 99.7486 42.2778H99.7513Z" fill="#DF0017"/>
<path d="M90.1473 42.9013L89.2477 48.0629C89.1983 48.3432 89.1541 48.5842 88.9487 48.7991C88.2519 49.538 86.7257 49.6585 85.9301 48.9432C85.6467 48.689 85.5401 48.3144 85.4699 47.9266C85.3659 47.3528 85.4673 46.7895 85.6493 46.234L86.1667 44.662C86.3279 44.1773 86.2993 43.6611 86.1147 43.1764C85.7221 43.3179 85.3685 43.3808 84.9915 43.3808H84.6093C83.8423 43.3808 83.1351 43.1214 82.4799 42.6864C80.9173 41.6541 79.8565 39.9301 79.7395 38.041C79.6823 37.1109 79.8123 35.6332 80.5221 35.1877C81.1591 34.7869 81.9859 34.9703 82.4435 35.5598C82.6593 35.8375 82.8335 36.1807 82.8309 36.5423V37.3598C82.8257 37.7345 82.7737 38.0672 82.8309 38.4419C82.8959 38.8978 82.9713 39.3746 83.3249 39.6995C84.1647 40.4725 85.8391 40.2393 86.7257 39.3327C87.4407 38.6017 88.2233 35.8585 89.5701 35.5362C89.7287 35.4995 89.9887 35.4917 90.1395 35.5388C90.9559 35.8035 91.3771 36.5371 91.4551 37.3598C91.5695 38.5572 91.1665 39.8017 90.7869 40.9545L90.1447 42.8987L90.1473 42.9013Z" fill="#DF0017"/>
<path d="M136.96 37.1239C137.033 37.8365 136.794 38.4234 136.326 38.8557C135.858 39.288 135.216 39.4374 134.571 39.3038C133.968 39.178 133.437 38.7562 133.206 38.1771C132.974 37.5981 132.972 36.9771 133.294 36.3824C133.702 35.6252 134.573 35.2688 135.424 35.4365C136.274 35.6042 136.877 36.2697 136.963 37.1239H136.96ZM136.562 37.4985C136.601 36.9378 136.396 36.5029 136.006 36.1675C135.769 35.9632 135.465 35.7955 135.127 35.7771C134.287 35.7352 133.541 36.3614 133.453 37.1998C133.357 38.1011 134.007 38.8688 134.849 38.9527C135.691 39.0365 136.5 38.4129 136.562 37.4985Z" fill="#DF0017"/>
<path d="M135.33 38.4864C135.338 38.2427 135.382 37.9833 135.205 37.7973C135.109 37.6951 134.916 37.7109 134.776 37.7344L134.771 38.4916H134.11V36.2908H135.332C135.634 36.2908 135.86 36.503 135.92 36.7519C135.995 37.0611 135.902 37.344 135.569 37.4882C136.04 37.6978 135.811 38.0305 135.954 38.4916H135.327L135.33 38.4864ZM135.335 37.0244C135.345 36.951 135.338 36.8567 135.273 36.8095C135.13 36.7047 134.955 36.6785 134.776 36.7021V37.255C135.059 37.3021 135.309 37.2157 135.335 37.027V37.0244Z" fill="#DF0017"/>
</svg>
