<svg width="190" height="58" viewBox="0 0 190 58" fill="none" xmlns="http://www.w3.org/2000/svg">
<g clip-path="url(#clip0_2651_1458)">
<g clip-path="url(#clip1_2651_1458)">
<path d="M84.4322 26.7212C84.156 26.7212 83.8797 26.6527 83.6034 26.6527C83.3271 26.6527 83.0508 26.6527 82.7745 26.7212C82.291 25.4212 81.7385 23.9159 81.1168 22.479H77.1107C76.5582 23.8475 76.0056 25.2159 75.5221 26.7212C75.3149 26.7212 75.1077 26.6527 74.9695 26.6527C74.7623 26.6527 74.6242 26.6527 74.417 26.7212L79.321 15.8422H79.6663L84.4322 26.7212ZM79.1829 17.8948L77.4561 21.8633H80.9096L79.1829 17.8948Z" fill="#2B2A7F"/>
<path d="M96.658 16.1157C97.0724 19.9473 97.4868 23.7789 97.9703 26.7894C97.694 26.7894 97.4868 26.721 97.2105 26.721C96.9343 26.721 96.727 26.721 96.4508 26.7894C96.1745 23.642 95.8982 20.2894 95.6219 18.7157C93.8261 21.9315 92.4446 24.4631 91.4777 26.5841H91.2704L90.4416 24.8052C89.4055 22.7526 88.3004 20.6999 87.2643 18.7157C86.919 21.7263 86.5046 24.8736 86.5046 26.7894C86.2973 26.7894 86.1592 26.721 85.952 26.721C85.7448 26.721 85.6066 26.721 85.3994 26.7894C85.8138 24.2578 86.7808 17.7578 86.919 16.1157H87.3334C88.5767 18.5789 90.0962 21.521 91.7539 24.2578C93.2735 21.5894 94.724 18.8526 96.3126 16.1157H96.658Z" fill="#2B2A7F"/>
<path d="M101.493 20.6999H103.91C104.394 20.6999 104.877 20.6315 105.292 20.6315C105.292 20.7684 105.223 20.9052 105.223 21.042C105.223 21.1789 105.223 21.3157 105.292 21.4526C104.808 21.4526 104.394 21.3841 103.91 21.3841H101.493V25.9684C102.46 25.9684 103.427 25.9684 104.325 25.8999C104.808 25.8999 105.292 25.8315 105.775 25.7631C105.775 25.8999 105.706 26.1052 105.706 26.242C105.706 26.3789 105.706 26.5841 105.775 26.721H100.111V16.1157H105.706C105.706 16.2526 105.637 16.4578 105.637 16.5947C105.637 16.7315 105.637 16.8684 105.706 17.0736C105.223 17.0052 104.739 16.9368 104.325 16.9368H101.493V20.6999Z" fill="#2B2A7F"/>
<path d="M107.985 16.1157H111.3C113.718 16.1157 114.754 16.9368 114.754 18.5105C114.754 20.2894 113.096 21.1789 111.508 21.4526L114.754 25.4894L115.514 26.3789L115.79 26.7894C115.445 26.7894 115.168 26.721 114.892 26.721C114.616 26.721 114.271 26.721 113.994 26.7894C113.649 26.3105 113.304 25.8999 113.027 25.421L111.162 23.0263L109.919 21.5894H109.297V26.7894C109.021 26.7894 108.814 26.721 108.607 26.721C108.399 26.721 108.123 26.721 107.916 26.7894L107.985 16.1157ZM109.366 20.9736C109.574 20.9736 110.61 21.042 111.37 20.9052C112.544 20.6999 113.373 19.8789 113.373 18.6473C113.373 17.5526 112.82 16.8684 111.646 16.6631C111.093 16.5947 109.988 16.5947 109.366 16.6631V20.9736Z" fill="#2B2A7F"/>
<path d="M117.655 16.1157C117.862 16.1157 118.139 16.1842 118.346 16.1842C118.553 16.1842 118.76 16.1841 119.037 16.1157V26.7894C118.76 26.7894 118.553 26.721 118.346 26.721C118.139 26.721 117.862 26.721 117.655 26.7894V16.1157Z" fill="#2B2A7F"/>
<path d="M130.157 26.0369C129.19 26.7212 127.878 26.9264 126.703 26.9264C123.25 26.9264 121.178 24.7369 121.178 21.3159C121.178 17.8264 123.802 15.8422 127.118 15.8422C128.292 15.8422 129.466 16.1158 130.502 16.5264C130.364 16.9369 130.226 17.3474 130.157 17.7579H130.019C129.812 17.4843 128.637 16.3895 126.98 16.3895C124.079 16.3895 122.628 18.7158 122.628 21.3843C122.628 24.3948 124.355 26.3106 126.842 26.3106C128.568 26.3106 129.881 25.2843 130.157 25.079V26.0369Z" fill="#2B2A7F"/>
<path d="M140.587 26.7212C140.311 26.7212 140.035 26.6527 139.758 26.6527C139.482 26.6527 139.206 26.6527 138.93 26.7212C138.446 25.4212 137.894 23.9159 137.272 22.479H133.266C132.713 23.8475 132.161 25.2159 131.677 26.7212C131.47 26.7212 131.263 26.6527 131.125 26.6527C130.918 26.6527 130.779 26.6527 130.572 26.7212L135.476 15.8422H135.822L140.587 26.7212ZM135.269 17.8948L133.542 21.8633H136.996L135.269 17.8948Z" fill="#2B2A7F"/>
<path d="M151.5 26.721H151.016C150.878 26.5157 150.533 26.1052 150.188 25.7631L143.419 18.3736H143.281V26.7894C143.142 26.7894 143.004 26.721 142.866 26.721C142.728 26.721 142.59 26.721 142.452 26.7894V16.1157H143.073L150.533 24.121H150.671V16.1157C150.809 16.1157 150.947 16.1842 151.086 16.1842C151.224 16.1842 151.362 16.1841 151.5 16.1157V26.721Z" fill="#2B2A7F"/>
<path d="M74.9008 39.4474C75.5224 40.4737 76.2131 41.0895 77.4564 41.0895C78.6997 41.0895 79.6667 40.0632 79.6667 38.8316C79.6667 35.958 74.7626 37.1895 74.7626 33.7001C74.7626 31.7159 76.3513 30.6895 78.2852 30.6895C79.045 30.6895 79.9429 30.8948 80.5646 31.4422C80.3574 31.8527 80.2883 32.2632 80.1502 32.7422H79.8739C79.5285 31.9211 78.8378 31.3738 77.9399 31.3738C76.8348 31.3738 75.9368 32.058 75.9368 33.2211C75.9368 36.0948 80.9099 34.9316 80.9099 38.2843C80.9099 40.5422 79.1832 41.8422 77.042 41.8422C76.2822 41.8422 75.0389 41.5001 74.4863 40.9527C74.6245 40.4738 74.6936 40.0632 74.7626 39.5843H74.9008V39.4474Z" fill="#2B2A7F"/>
<path d="M91.2702 40.8843C90.3032 41.5685 88.9909 41.7738 87.8167 41.7738C84.3631 41.7738 82.291 39.5843 82.291 36.1632C82.291 32.6738 84.9157 30.6895 88.2311 30.6895C89.4053 30.6895 90.5795 30.9632 91.6156 31.3738C91.4774 31.7843 91.3393 32.1948 91.2702 32.6053H91.1321C90.9249 32.3316 89.7507 31.2369 88.093 31.2369C85.192 31.2369 83.7415 33.5632 83.7415 36.2316C83.7415 39.2422 85.4683 41.158 87.9548 41.158C89.6816 41.158 90.994 40.1316 91.2702 39.9264V40.8843Z" fill="#2B2A7F"/>
<path d="M101.562 30.8947C101.769 30.8947 102.046 30.9632 102.253 30.9632C102.46 30.9632 102.667 30.9632 102.944 30.8947V41.5684C102.667 41.5684 102.46 41.5 102.253 41.5C102.046 41.5 101.769 41.5 101.562 41.5684V36.2316C100.457 36.2316 99.3518 36.1632 98.2467 36.1632C97.1415 36.1632 96.0364 36.2316 94.9313 36.2316V41.5684C94.655 41.5684 94.4478 41.5 94.2406 41.5C94.0333 41.5 93.7571 41.5 93.5498 41.5684V30.8947C93.7571 30.8947 94.0333 30.9632 94.2406 30.9632C94.4478 30.9632 94.655 30.9632 94.9313 30.8947V35.3421C96.0364 35.3421 97.1415 35.4105 98.2467 35.4105C99.3518 35.4105 100.457 35.3421 101.562 35.3421V30.8947Z" fill="#2B2A7F"/>
<path d="M105.016 36.2316C105.016 32.8106 107.571 30.6895 110.818 30.6895C113.788 30.6895 116.758 32.2632 116.758 36.0264C116.758 39.5159 114.271 41.7738 110.749 41.7738C107.295 41.7738 105.016 39.5843 105.016 36.2316ZM114.271 32.6738C113.511 31.7159 112.268 31.1685 111.025 31.1685C108.262 31.1685 106.604 33.2211 106.604 36.3685C106.604 39.5159 108.538 41.158 110.887 41.158C114.202 41.158 115.376 37.7369 115.307 36.0264C115.238 34.7948 115.1 33.7001 114.271 32.6738Z" fill="#2B2A7F"/>
<path d="M118.14 36.2316C118.14 32.8106 120.695 30.6895 123.942 30.6895C126.912 30.6895 129.882 32.2632 129.882 36.0264C129.882 39.5159 127.395 41.7738 123.873 41.7738C120.419 41.7738 118.14 39.5843 118.14 36.2316ZM127.326 32.6738C126.566 31.7159 125.323 31.1685 124.08 31.1685C121.317 31.1685 119.659 33.2211 119.659 36.3685C119.659 39.5159 121.593 41.158 123.942 41.158C127.257 41.158 128.431 37.7369 128.362 36.0264C128.362 34.7948 128.155 33.7001 127.326 32.6738Z" fill="#2B2A7F"/>
<path d="M133.335 40.7474C134.302 40.7474 135.269 40.7474 136.166 40.6789C136.65 40.6789 137.133 40.6105 137.686 40.5421C137.686 40.679 137.617 40.8842 137.617 41.0211C137.617 41.1579 137.617 41.3632 137.686 41.5H131.953V30.8947C132.16 30.8947 132.437 30.9632 132.644 30.9632C132.851 30.9632 133.058 30.9632 133.335 30.8947V40.7474Z" fill="#2B2A7F"/>
<path d="M50.0444 45.6183C53.8924 45.1718 57.7404 42.3435 59.9819 38.0267C59.6083 38.25 59.1974 38.4361 58.7864 38.6221C52.0618 41.3015 43.3198 35.2357 39.2477 25.0391C38.9861 24.4065 38.762 23.7739 38.5752 23.1412C38.9488 30.3979 41.153 36.687 46.4579 42.2691C47.6534 43.5343 48.9984 44.7624 50.418 45.8788C50.3059 45.8044 50.1565 45.6927 50.0444 45.6183Z" fill="#F7323F"/>
<path d="M47.2422 9.03723C49.5958 10.1909 52.323 11.7538 55.0128 13.8378C61.2144 18.6012 65.2118 24.2949 66.9677 30.4724C67.827 27.3836 68.1632 24.1088 68.1632 20.6107V9.03723H47.2422Z" fill="#2B2A7F"/>
<path d="M55.7597 14.396C55.7223 14.4332 55.6849 14.4332 55.6476 14.4704C52.2479 16.7032 49.2592 19.3826 46.7188 22.4342C49.2592 24.0344 51.949 26.0811 54.3027 28.6116C56.5816 25.1508 59.1593 22.3969 61.625 20.2758C59.9812 18.1546 58.0386 16.2195 55.7597 14.396Z" fill="#E63329"/>
<path d="M59.9814 38.0267C57.7399 42.3435 53.8919 45.1718 50.0439 45.6183C51.09 46.4742 52.2108 47.2929 53.3316 48C55.7973 46.437 58.2256 44.3903 60.243 42.3063C60.4298 42.083 60.6539 41.8969 60.8407 41.6737C60.6539 40.3712 60.355 39.1803 59.9814 38.0267Z" fill="#2B2A7F"/>
<path d="M68.2004 9.03723C65.6973 9.59544 60.9153 11.0095 55.7598 14.396C58.0387 16.2195 59.9814 18.1546 61.6252 20.2386C64.1656 18.0057 66.5566 16.4428 68.2004 15.4752V9.03723Z" fill="#0070BA"/>
<path d="M46.7185 22.3969C44.1033 25.5229 42.0112 29.0954 40.4795 32.9284C41.7497 36.2777 43.655 39.3664 46.4196 42.2691C47.0173 42.9017 47.6898 43.5342 48.3249 44.1297C49.2588 37.8405 51.5377 32.6679 54.2649 28.5372C51.986 26.0439 49.2962 23.9971 46.7185 22.3969Z" fill="#2B2A7F"/>
<path d="M54.3027 28.5745C57.4782 31.9981 60.0186 36.3149 60.8405 41.6365C63.9413 38.2128 65.884 34.5287 67.0047 30.4724C65.9961 26.8626 64.2028 23.4018 61.6251 20.2014C59.1967 22.3598 56.5816 25.1136 54.3027 28.5745Z" fill="#B20E10"/>
<path d="M55.6478 14.4332C55.6851 14.396 55.7225 14.396 55.7599 14.3588C55.5357 14.1727 55.3116 13.9866 55.05 13.8006C52.3228 11.7166 49.5956 10.1536 47.2794 9H38.5V18.2662C40.2932 18.9361 43.394 20.2758 46.719 22.3597C49.2594 19.3454 52.2481 16.7032 55.6478 14.4332Z" fill="#E42313"/>
</g>
</g>
<defs>
<clipPath id="clip0_2651_1458">
<rect width="113" height="40" fill="white" transform="translate(38.5 9)"/>
</clipPath>
<clipPath id="clip1_2651_1458">
<rect width="113" height="40" fill="white" transform="translate(38.5 9)"/>
</clipPath>
</defs>
</svg>
