<svg width="190" height="58" viewBox="0 0 190 58" fill="none" xmlns="http://www.w3.org/2000/svg">
<path d="M94.9114 20.8192C96.994 20.2099 98.389 19.0235 98.389 17.0915C98.389 14.1655 95.0882 12.8909 90.913 12.8909H86.1582V31.1444H92.3571C97.053 31.1444 101.159 29.5892 101.159 26.1021C101.218 23.3203 98.6641 21.3884 94.9015 20.8192H94.9114ZM92.1312 30.1103H89.5278V13.933H91.2667C94.3416 13.933 95.3829 15.1595 95.3829 16.9953C95.3829 17.2759 95.6187 20.2981 92.6027 20.8593C93.3592 21.0036 94.8033 21.4284 95.9625 22.2702C97.1807 23.0718 97.7603 24.3465 97.7603 25.8055C97.7603 28.3547 96.0215 30.0943 92.141 30.0943L92.1312 30.1103Z" fill="black"/>
<path d="M39.062 30.5351C40.5651 31.1925 42.5397 31.481 44.2196 31.481C47.1177 31.481 52.2163 30.6313 52.2163 26.4787C52.2163 23.6008 49.6621 21.9494 45.3788 19.6407C43.4042 18.5103 40.7419 17.38 40.7419 15.4881C40.8009 13.9329 42.5397 12.987 44.976 12.987C47.4124 12.987 49.3182 13.9329 49.78 14.1654L48.5618 12.4659C47.7464 12.0891 45.9584 11.9929 44.9662 11.9929C41.7243 11.9929 37.9519 13.1232 37.9519 16.2337C37.9519 18.7348 40.3293 20.0976 44.3277 22.4625C46.1844 23.5447 49.0825 25.2442 49.0825 27.3205C49.0825 29.2525 47.2257 30.479 44.2196 30.479C40.683 30.4309 38.1386 28.7314 37.5 28.2664L39.062 30.5271V30.5351Z" fill="black"/>
<path d="M68.201 31.4812C62.2379 31.4812 57.542 27.5691 57.542 22.0458C57.542 16.6186 62.1789 12.6104 68.201 12.6104C74.2231 12.6104 78.8011 16.6186 78.8011 22.0458C78.86 27.5611 74.2231 31.4812 68.201 31.4812ZM75.5592 22.0458C75.5592 17.0916 72.6021 13.6525 68.201 13.6525C63.7999 13.6525 60.8429 17.1397 60.8429 22.0458C60.9018 27 63.7999 30.4391 68.201 30.4391C72.6021 30.4391 75.5592 27 75.5592 22.0458Z" fill="black"/>
<path d="M146.36 25.7733H137.725L135.062 31.1523H133.785L143.118 12.522L152.5 31.1523H149.022L146.36 25.7733ZM138.196 24.7792H145.849L142.027 17.1876L138.206 24.7792H138.196Z" fill="black"/>
<path d="M124.118 12.8989V20.3944H112.123V12.8989H108.822V31.1525H112.123V21.4365H124.118V31.1525H127.36V12.8989H124.118Z" fill="black"/>
<path d="M54.6129 42.135V42.3675H53.3358V42.2232C53.3358 41.7021 52.8151 41.1891 51.8917 41.1891C50.7324 41.1891 50.0939 41.8945 50.0939 42.7924V43.4978C50.0939 44.3957 50.6735 45.1011 51.8917 45.1011C52.8151 45.1011 53.3358 44.6281 53.3358 44.067V43.8746H54.6129V44.1071C54.6129 45.1011 53.6894 45.9909 51.8327 45.9909C49.8581 45.9909 48.7578 44.9568 48.7578 43.4898V42.8324C48.7578 41.3734 49.917 40.3313 51.8818 40.3313C53.7386 40.2832 54.6031 41.1329 54.6031 42.127L54.6129 42.135Z" fill="black"/>
<path d="M63.1895 42.8486V43.4177C63.1895 45.0691 61.9713 45.967 60.0654 45.967C58.1498 45.967 56.9414 45.0691 56.9414 43.4177V42.8486C56.9414 41.1972 58.1596 40.2512 60.0654 40.2512C61.9811 40.2993 63.1895 41.1972 63.1895 42.8486ZM58.2676 42.8486V43.4578C58.2676 44.5401 58.9062 45.1092 60.0654 45.1092C61.2247 45.1092 61.8632 44.5881 61.8632 43.4578V42.8486C61.8632 41.7663 61.2247 41.1972 60.0654 41.1972C58.9062 41.1972 58.2676 41.7182 58.2676 42.8486Z" fill="black"/>
<path d="M67.1287 40.4436L70.4295 44.2194V40.4436H71.6477V45.8708H70.3706L67.0697 42.0469V45.8708H65.8516V40.4436H67.1287Z" fill="black"/>
<path d="M79.8794 41.9988V42.1431H78.5434V41.9988C78.5434 41.5258 78.1406 41.1491 77.0992 41.1491C76.2838 41.1491 75.7632 41.4296 75.7632 41.8545C75.7632 42.3275 76.1659 42.4237 77.4431 42.7043C79.3587 43.0329 79.9875 43.4097 79.9875 44.3557C79.9875 45.3898 78.8282 46.0071 77.2073 46.0071C75.2916 46.0071 74.3682 45.3016 74.3682 44.2595V44.0671H75.7042V44.1633C75.7042 44.7324 76.2249 45.1092 77.2662 45.1092C78.1307 45.1092 78.6612 44.8286 78.6612 44.4038C78.6612 43.9308 78.3174 43.7945 76.9224 43.5059C75.1246 43.1772 74.4271 42.8005 74.4271 41.9026C74.4271 40.9567 75.4685 40.2993 77.1483 40.2993C79.0051 40.2993 79.8696 41.0529 79.8696 41.9988H79.8794Z" fill="black"/>
<path d="M87.7008 40.4436V41.3415H85.4413V45.8708H84.1052V41.3415H81.8457V40.4436H87.7008Z" fill="black"/>
<path d="M91.4044 45.863H90.0684V40.4358H93.2513C94.7544 40.4358 95.5108 41.045 95.5108 41.991V42.2716C95.5108 42.977 94.9902 43.5462 94.0667 43.7306L95.8056 45.903H94.3614L92.7405 43.8749H91.3455L91.4044 45.8549V45.863ZM91.4044 42.985H93.0254C93.8899 42.985 94.3025 42.7045 94.3025 42.2315V41.999C94.3025 41.526 93.9587 41.2455 93.0843 41.2455H91.4044V42.9931V42.985Z" fill="black"/>
<path d="M99.4607 40.4436V43.7945C99.4607 44.6443 100.04 45.1172 101.023 45.1172C102.005 45.1172 102.585 44.6443 102.585 43.7945V40.4436H103.862V43.7464C103.862 45.1573 102.879 46.0071 101.023 46.0071C99.166 46.0071 98.1836 45.2054 98.1836 43.7464V40.4436H99.4607Z" fill="black"/>
<path d="M112.211 42.135V42.3675H110.933V42.2232C110.933 41.7021 110.413 41.1891 109.43 41.1891C108.271 41.1891 107.633 41.8945 107.633 42.7924V43.4978C107.633 44.3957 108.212 45.1011 109.43 45.1011C110.413 45.1011 110.933 44.6281 110.933 44.067V43.8746H112.211V44.1071C112.211 45.1011 111.287 45.9909 109.43 45.9909C107.456 45.9909 106.355 44.9568 106.355 43.4898V42.8324C106.355 41.3734 107.515 40.3313 109.479 40.3313C111.336 40.2832 112.201 41.1329 112.201 42.127L112.211 42.135Z" fill="black"/>
<path d="M120.032 40.4436V41.3415H117.713V45.8708H116.436V41.3415H114.177V40.4436H120.032Z" fill="black"/>
<path d="M123.793 40.4436H122.457V45.9109H123.793V40.4436Z" fill="black"/>
<path d="M132.773 42.8486V43.4177C132.773 45.0691 131.555 45.967 129.649 45.967C127.734 45.967 126.525 45.0691 126.525 43.4177V42.8486C126.525 41.1972 127.744 40.2512 129.649 40.2512C131.565 40.2993 132.773 41.1972 132.773 42.8486ZM127.852 42.8486V43.4578C127.852 44.5401 128.49 45.1092 129.649 45.1092C130.809 45.1092 131.447 44.5881 131.447 43.4578V42.8486C131.447 41.7663 130.809 41.1972 129.649 41.1972C128.49 41.1972 127.852 41.7182 127.852 42.8486Z" fill="black"/>
<path d="M136.713 40.4436L140.014 44.2194V40.4436H141.232V45.8708H139.955L136.654 42.0469H136.595V45.8708H135.436V40.4436H136.713Z" fill="black"/>
</svg>
