<svg width="190" height="58" viewBox="0 0 190 58" fill="none" xmlns="http://www.w3.org/2000/svg">
<g clip-path="url(#clip0_2651_1448)">
<g clip-path="url(#clip1_2651_1448)">
<path d="M115.35 19.9972H111.524C111.254 19.9972 111.059 19.9372 110.939 19.8171L110.489 19.337C108.778 17.5964 107.458 16.321 106.542 15.4957C105.903 14.8807 105.169 14.3739 104.367 13.9953C104.157 13.9202 104.127 13.8002 104.262 13.6651L106.797 11.0543C106.834 11.0195 106.882 11 106.932 11C106.983 11 107.031 11.0195 107.068 11.0543L115.47 19.6971C115.487 19.7189 115.497 19.7448 115.5 19.7721C115.53 19.8621 115.5 19.9372 115.38 19.9822H115.35V19.9972Z" fill="#E40A2C"/>
<path d="M64.5756 37.9581C64.5521 37.9484 64.5314 37.9329 64.5156 37.9131C64.5042 37.8898 64.499 37.8639 64.5006 37.838V23.0583C64.4949 22.9484 64.5326 22.8406 64.6056 22.7582L67.2014 20.0573C67.2161 20.0395 67.2344 20.0249 67.2551 20.0146C67.2757 20.0042 67.2984 19.9983 67.3215 19.9973H68.7169C68.7318 19.995 68.747 19.995 68.7619 19.9973C68.912 20.0573 69.002 20.1774 69.002 20.3724C69.0027 26.1943 69.0027 32.0162 69.002 37.838C69.002 37.883 68.972 37.9281 68.942 37.9581C68.9265 37.974 68.9078 37.9863 68.887 37.994C68.8663 38.0018 68.844 38.0049 68.8219 38.0031H64.6206L64.5756 37.9581ZM86.9178 37.613H87.0078H86.9628C86.9628 29.3753 87.0078 24.5138 87.0078 22.9983C87.0078 22.8182 87.0078 22.6682 87.0978 22.5631L89.5136 20.0723C89.5567 20.0267 89.6159 19.9998 89.6786 19.9973H91.1791C91.4042 19.9973 91.5092 20.1173 91.5092 20.3574V37.763C91.5092 37.9131 91.4342 38.0031 91.2992 38.0031C88.8784 37.9948 86.4576 37.9848 84.0368 37.9731C84.0104 37.954 83.9896 37.928 83.9768 37.8981L76.6244 20.3874C76.6199 20.3848 76.6147 20.3834 76.6094 20.3834C76.6042 20.3834 76.599 20.3848 76.5944 20.3874L76.5044 20.4024V37.793C76.5044 37.9431 76.5044 38.0031 76.3093 38.0031H72.198C72.1539 38.0033 72.1111 37.9873 72.078 37.9581C72.0433 37.9273 72.0218 37.8843 72.018 37.838L72.003 37.5529V23.2533C72.003 23.0133 72.093 22.8032 72.273 22.6231C73.1257 21.7602 73.976 20.8949 74.8239 20.0273L74.9289 19.9973H79.2353C79.4303 19.9973 79.5354 20.0573 79.5954 20.1924C82.0481 25.9942 84.4889 31.8011 86.9178 37.613Z" fill="#001257"/>
<path d="M124.519 28.9995C124.519 29.0896 124.504 29.1496 124.459 29.1946L115.801 37.9424C115.741 38.0024 115.681 38.0174 115.621 37.9724C115.546 37.9424 115.516 37.8824 115.516 37.7924V33.591C115.516 33.471 115.576 33.3659 115.666 33.2609L119.717 29.1796C119.747 29.1496 119.762 29.0746 119.762 28.9995C119.762 28.9245 119.762 28.8495 119.702 28.8195L115.681 24.7382C115.576 24.6331 115.531 24.5281 115.531 24.4231V20.2067C115.531 20.1167 115.546 20.0567 115.621 20.0267C115.681 19.9816 115.741 19.9967 115.801 20.0567L124.459 28.8045C124.504 28.8495 124.519 28.9095 124.519 28.9995Z" fill="#E40A2C"/>
<path d="M104.095 19.9972C105.37 19.9972 106.48 20.3423 107.396 21.0175C107.898 21.3457 108.306 21.7993 108.58 22.3334C108.854 22.8676 108.983 23.4639 108.956 24.0635C108.956 24.8287 108.731 25.504 108.341 26.0891C107.921 26.6893 107.381 27.0945 106.69 27.2895C106.39 27.3646 105.94 27.3946 105.34 27.3946H103.96V27.4096H103.975C106.315 27.4696 108.026 28.0848 109.106 29.3002C110.052 30.3505 110.397 31.701 110.157 33.4115C110.072 34.1403 109.819 34.8394 109.418 35.4539C109.017 36.0684 108.479 36.5814 107.846 36.9526C106.72 37.6429 105.34 38.003 103.704 38.003H94.6566C94.5366 38.003 94.4766 37.8829 94.4766 37.6729V23.1182C94.4766 22.9681 94.5366 22.8331 94.6566 22.6981C94.8517 22.518 95.707 21.6477 97.2074 20.0722C97.2272 20.0528 97.2507 20.0375 97.2765 20.0272C97.3022 20.0169 97.3298 20.0118 97.3575 20.0122H104.095V19.9972ZM99.1881 30.5006C99.1626 30.5004 99.1374 30.5057 99.1141 30.5161C99.0908 30.5264 99.07 30.5416 99.053 30.5606C99.0367 30.5789 99.0244 30.6002 99.0166 30.6235C99.0089 30.6467 99.0059 30.6712 99.008 30.6956V34.822L99.023 34.897C99.0337 34.9182 99.0485 34.937 99.0666 34.9525C99.0846 34.9679 99.1055 34.9797 99.1281 34.987L99.1881 35.002H103.825C104.395 35.002 104.935 34.7769 105.325 34.3868C105.73 33.9817 105.955 33.4565 105.955 32.9013V32.6012C105.958 32.3214 105.903 32.044 105.795 31.786C105.687 31.528 105.527 31.2948 105.325 31.1008C104.922 30.7128 104.384 30.4974 103.825 30.5006H99.1731H99.1881ZM99.1881 22.9982C99.164 23.0019 99.141 23.0105 99.1204 23.0234C99.0997 23.0363 99.0819 23.0532 99.068 23.0732C99.0486 23.093 99.0333 23.1164 99.023 23.1422C99.0127 23.168 99.0076 23.1955 99.008 23.2232V27.2895C99.008 27.3496 99.038 27.3946 99.068 27.4396C99.1131 27.4846 99.1581 27.4996 99.2181 27.4996H102.984C103.524 27.4996 104.035 27.2745 104.425 26.8694C104.8 26.4793 105.025 25.9391 105.025 25.3839V25.0838C105.017 24.5355 104.803 24.0104 104.425 23.6134C104.237 23.4203 104.014 23.2665 103.766 23.1609C103.519 23.0553 103.253 22.9999 102.984 22.9982H99.2031H99.1881Z" fill="#001257"/>
<path d="M115.385 38.0029C115.505 38.063 115.535 38.138 115.505 38.228C115.502 38.2553 115.492 38.2812 115.475 38.303L107.072 46.9458C107.036 46.9806 106.988 47.0001 106.937 47.0001C106.887 47.0001 106.838 46.9806 106.802 46.9458L104.281 44.335C104.131 44.1849 104.161 44.0799 104.371 43.9899C104.987 43.7498 105.722 43.2396 106.547 42.4894C107.462 41.6791 108.783 40.4037 110.478 38.6631L110.943 38.183C111.064 38.0629 111.244 38.0029 111.529 38.0029C112.814 37.9961 114.099 37.9961 115.385 38.0029Z" fill="#E40A2C"/>
</g>
</g>
<defs>
<clipPath id="clip0_2651_1448">
<rect width="61" height="40" fill="white" transform="translate(64.5 9)"/>
</clipPath>
<clipPath id="clip1_2651_1448">
<rect width="61" height="40" fill="white" transform="translate(64.5 9)"/>
</clipPath>
</defs>
</svg>
