<svg width="190" height="58" viewBox="0 0 190 58" fill="none" xmlns="http://www.w3.org/2000/svg">
<path d="M87.356 25.3851V20.8099H85.9511L85.9569 25.5435C85.9569 26.3028 85.6848 27.2364 85.1305 27.7165C84.5336 28.2345 83.7187 28.4966 82.7053 28.4966C81.6769 28.4966 80.8528 28.237 80.2606 27.7239C79.7028 27.2485 79.433 26.4076 79.433 25.6386V20.8086H78.0167V25.418C78.0167 26.5953 78.431 27.8433 79.2081 28.5416C80.0287 29.2912 81.2075 29.5812 82.711 29.5812C84.1847 29.5812 85.3508 29.2887 86.1761 28.5356C86.9577 27.8287 87.356 26.5514 87.356 25.3851ZM95.3558 16.8404V29.3741H96.7423V16.8404H95.4442M104.738 16.8404V29.3741H106.123V16.8404H104.828M121.814 22.131C120.969 21.1292 119.813 20.6051 118.358 20.6051C117 20.6051 115.928 20.9549 115.169 21.6484C114.987 21.83 114.128 22.3918 114.128 24.4405V29.3619H115.526V24.5344C115.526 23.0841 115.871 22.6697 116.264 22.3565C116.787 21.9384 117.478 21.7251 118.315 21.7251C119.197 21.7251 119.905 21.947 120.424 22.3894C120.906 22.8001 121.138 23.3132 121.138 23.964V29.3875H122.461V23.964C122.461 23.3132 122.742 22.8001 123.224 22.3894C123.736 21.947 124.443 21.7251 125.328 21.7251C126.204 21.7251 126.909 21.947 127.425 22.3869C127.904 22.8013 128.137 23.3156 128.137 23.964V29.3619H129.488V24.5661C129.488 22.8622 129.166 22.2492 128.442 21.6106C127.689 20.9427 126.623 20.6051 125.28 20.6051C123.851 20.6051 122.691 21.1292 121.814 22.131ZM166 35.1887V24.5636C166 23.3985 165.605 22.4491 164.82 21.7398C163.994 20.989 162.829 20.6063 161.358 20.6063C159.903 20.6063 158.701 21.0073 157.872 21.769C156.786 22.7867 156.694 23.4716 156.694 24.4929V29.3619H158.082V24.1529C158.082 23.4265 158.371 22.8549 158.945 22.4101C159.534 21.9543 160.344 21.7251 161.355 21.7251C162.366 21.7251 163.187 21.9884 163.792 22.5051C164.354 22.9878 164.63 23.5898 164.63 24.3455V35.1887M68.7211 21.8421C67.703 21.0207 66.3108 20.6051 64.5823 20.6051C59.9155 20.6051 58.6116 23.4168 58.8641 26.0469V35.1985H60.2495V27.9908C60.7086 28.6136 62.8182 29.6056 64.5283 29.6056C66.2385 29.6056 67.6272 29.1912 68.666 28.3747C69.7219 27.5398 70.259 26.4417 70.259 25.1096C70.259 23.7556 69.7425 22.655 68.7211 21.8421ZM67.7248 27.496C66.9535 28.1395 65.8448 28.4661 64.5283 28.4661C63.0787 28.4173 60.2334 27.3521 60.2414 25.3704C60.2334 24.6233 60.5973 23.5472 61.2595 22.8805C62.0101 22.1127 63.1108 21.7251 64.5283 21.7251C65.8666 21.7251 66.9386 22.0518 67.7133 22.7001C68.4594 23.3217 68.8221 24.1054 68.8221 25.0974C68.8221 26.1005 68.4628 26.8841 67.7248 27.496ZM147.697 22.5161C146.857 21.4241 144.955 20.6051 142.98 20.6051C141.252 20.6051 139.858 21.0207 138.837 21.8421C137.816 22.6538 137.297 23.7556 137.297 25.1096C137.297 26.4429 137.836 27.5398 138.899 28.3747C139.938 29.1912 140.886 29.5691 143.013 29.5691C145.138 29.5691 146.782 28.41 147.3 27.9067V29.3741H148.615V25.4862C148.615 24.0067 148.326 23.3302 147.697 22.5161ZM146.097 27.4143C145.194 28.0529 143.792 28.4661 143.036 28.4661C141.584 28.4661 140.599 28.1443 139.83 27.5081C139.101 26.9012 138.748 26.1127 138.748 25.0974C138.748 24.0981 139.107 23.3132 139.853 22.7001C140.627 22.0518 141.697 21.7251 143.036 21.7251C144.436 21.7251 145.531 22.1151 146.288 22.8866C146.956 23.5667 147.29 24.4515 147.299 25.5313C147.268 26.3442 146.805 26.9049 146.097 27.4143ZM65.7553 40.2344V41.2777H66.6712V38.5696H65.7564V39.5836H64.3194V38.5696H63.4058V41.2777H64.3194V40.2344M78.0821 39.2155H78.1969V38.5708H75.1852V39.2155H76.2331V41.2777H77.1479V39.2155M81.6585 40.2198H83.3319V39.5885H81.6585L81.6608 39.2155L83.309 39.2167H83.4238V38.5708H80.7438V41.2801H83.4387V40.6317H81.6585M87.1608 38.6915V38.5708H86.2472V41.2801H88.8297V40.6317H87.1574M109.898 40.4148L108.563 38.6171L108.529 38.5684H107.224V41.2777H108.142L108.137 41.1558L108.09 39.43L109.422 41.2313L109.456 41.2777H110.764V38.5696H109.848L109.852 38.6939M130.982 40.2198H132.654V39.5885H130.98V39.2167H132.746V38.5708H130.068V41.2801H132.762V40.6317H130.98M154.8 39.2155H155.852V38.5708H152.839V39.2155H153.884L153.889 41.1582V41.2777H154.801V41.1582M142.781 38.5501C141.633 38.5501 141.156 38.6927 141.156 39.5738V40.2381C141.156 41.2228 141.798 41.2959 142.78 41.2959C143.709 41.2959 144.421 41.2204 144.421 40.2381V39.5738C144.421 38.6232 143.742 38.5501 142.781 38.5501ZM143.506 40.2381C143.506 40.5732 143.439 40.6524 142.78 40.6524C142.07 40.6524 142.071 40.5976 142.071 40.2381V39.5738C142.08 39.2765 142.084 39.196 142.78 39.196C143.103 39.196 143.357 39.2046 143.448 39.3033C143.476 39.3337 143.512 39.3935 143.505 39.569M150.015 40.1247L150.044 40.1052C150.284 39.9553 150.309 39.7079 150.309 39.43C150.309 38.7305 149.852 38.5818 149.115 38.5696H147.173V41.2777H148.086V40.4611H149.026C149.368 40.4647 149.368 40.6281 149.368 40.6963V41.2777H150.28V40.6963C150.28 40.4148 150.199 40.232 150.015 40.1247ZM148.88 39.8176L148.086 39.8115V39.2143H148.928C149.394 39.2143 149.394 39.2594 149.394 39.5068C149.394 39.7445 149.394 39.8176 148.88 39.8176ZM115.476 38.5696H113.653V41.2777H115.588C116.55 41.2777 116.994 40.9327 116.994 40.1905V39.608C116.994 38.6939 116.228 38.5696 115.476 38.5696ZM116.081 40.1905C116.081 40.3916 115.997 40.6305 115.588 40.6305H114.568V39.2155H115.475C116.026 39.2155 116.081 39.3337 116.081 39.608V40.1905ZM126.987 40.1247L127.015 40.1064C127.256 39.9553 127.282 39.7079 127.282 39.43C127.282 38.7305 126.823 38.5818 126.086 38.5696H124.146V41.2777H125.061V40.4611H125.999C126.341 40.4647 126.341 40.6281 126.341 40.6963V41.2777H127.253V40.6963C127.253 40.4148 127.173 40.2295 126.987 40.1247ZM125.85 39.8176L125.061 39.8115V39.2143H125.899C126.369 39.2143 126.369 39.2594 126.369 39.5044C126.369 39.7445 126.369 39.8176 125.85 39.8176ZM104.634 41.1022L103.423 38.6366L103.392 38.5708H102.242L102.21 38.6366L101.022 41.1009L100.937 41.2801H101.905L101.935 41.2131L102.129 40.817H103.537L103.737 41.2143L103.769 41.2801H104.721L104.633 41.1009L104.634 41.1022ZM102.401 40.2125L102.831 39.3106L103.263 40.2125M71.0728 38.5501C69.9262 38.5501 69.4476 38.6927 69.4476 39.5738V40.2381C69.4476 41.2228 70.0915 41.2959 71.0728 41.2959C72.0013 41.2959 72.7129 41.2204 72.7129 40.2381V39.5738C72.7129 38.6232 72.0323 38.5501 71.0728 38.5501ZM71.7993 40.2381C71.7993 40.5732 71.7328 40.6524 71.0728 40.6524C70.3612 40.6524 70.3612 40.5976 70.3612 40.2381V39.5738C70.3727 39.2765 70.3761 39.196 71.0728 39.196C71.3953 39.196 71.6501 39.2046 71.7396 39.3033C71.7683 39.3337 71.8028 39.3935 71.7993 39.569M94.3435 39.2947C94.3435 38.5086 93.5791 38.5476 92.9042 38.5476C92.0859 38.5476 91.3123 38.5769 91.3123 39.3642C91.3123 40.104 91.9722 40.1662 92.6724 40.193L92.8044 40.1978L93.0006 40.2027C93.4666 40.2149 93.532 40.2332 93.532 40.466C93.532 40.6951 93.4861 40.7633 92.9203 40.7633C92.25 40.7633 92.2064 40.6744 92.2064 40.533H91.2939C91.2939 40.7499 91.3536 40.8755 91.4741 41.0034C91.7484 41.2935 92.2592 41.2935 92.8514 41.2935H92.9042C93.5642 41.2935 94.4158 41.2448 94.4158 40.4221C94.4158 39.6835 93.8109 39.6555 92.9042 39.6201C92.2247 39.5921 92.1731 39.5811 92.1731 39.352C92.1731 39.1387 92.2408 39.1022 92.887 39.1022C93.4127 39.1022 93.4299 39.168 93.4299 39.2947M138.469 39.2947C138.469 38.5086 137.704 38.5476 137.03 38.5476C136.211 38.5476 135.436 38.5769 135.436 39.3642C135.436 40.104 136.098 40.1662 136.797 40.193L136.93 40.1978L137.126 40.2027C137.592 40.2149 137.657 40.2332 137.657 40.466C137.657 40.6951 137.611 40.7633 137.047 40.7633C136.378 40.7633 136.332 40.6744 136.332 40.533H135.419C135.419 40.7499 135.477 40.8755 135.598 41.0034C135.874 41.2935 136.385 41.2935 136.978 41.2935H137.03C137.69 41.2935 138.541 41.2448 138.541 40.4221C138.541 39.6835 137.939 39.6555 137.026 39.6201C136.349 39.5921 136.298 39.5811 136.298 39.352C136.298 39.1387 136.366 39.1022 137.012 39.1022C137.538 39.1022 137.556 39.168 137.556 39.2947M161.344 39.2947C161.344 38.5086 160.579 38.5476 159.904 38.5476C159.086 38.5476 158.314 38.5769 158.314 39.3642C158.314 40.104 158.972 40.1662 159.674 40.193L159.804 40.1978L160.001 40.2027C160.467 40.2149 160.532 40.2332 160.532 40.466C160.532 40.6951 160.486 40.7633 159.92 40.7633C159.252 40.7633 159.206 40.6744 159.206 40.533H158.294C158.294 40.7499 158.354 40.8755 158.474 41.0034C158.75 41.2935 159.26 41.2935 159.851 41.2935H159.904C160.563 41.2935 161.416 41.2448 161.416 40.4221C161.416 39.6835 160.81 39.6555 159.903 39.6201C159.225 39.5921 159.174 39.5811 159.174 39.352C159.174 39.1387 159.241 39.1022 159.887 39.1022C160.415 39.1022 160.431 39.168 160.431 39.2947M43.8102 37.558L42.9115 36.5976L39.0172 40.6951C40.8342 40.0862 42.4818 39.0084 43.8102 37.558ZM40.8513 34.3917L34.3837 41.2021C34.7453 41.2399 35.1114 41.2643 35.4821 41.2655C35.8069 41.2679 36.1249 41.2508 36.4405 41.2253L41.8831 35.4947M38.7922 32.1857L31.0736 40.3173C31.5729 40.5367 32.0882 40.7231 32.6231 40.8718L39.8229 33.2887M36.7355 29.9798L28.4602 38.6988C28.8504 39.0205 29.2659 39.3142 29.694 39.5836L37.765 31.0815M34.6741 27.7775L26.3873 36.5026C26.688 36.9133 27.0106 37.3033 27.356 37.6701L35.7059 28.8805M32.6196 25.5715L24.8608 33.7384C25.0651 34.2418 25.2947 34.7268 25.5564 35.1961L33.6457 26.6733M30.5583 23.3619L24.0253 30.2442C24.0895 30.878 24.194 31.4959 24.342 32.0968L31.5878 24.4673M28.4969 21.1596L24.4683 25.4094C24.2159 26.2795 24.0587 27.1776 24 28.0858L29.5287 22.265M42.9127 36.5964L46.5292 32.789C46.7978 31.9152 46.9746 30.9974 47.0515 30.0517L41.8831 35.4947M40.8513 34.3917L47.0503 27.8689C46.9976 27.237 46.8993 26.6104 46.7565 25.9944L39.8264 33.2911M38.7968 32.1882L46.2446 24.3467C46.0472 23.8372 45.8199 23.3436 45.5651 22.8744L37.7661 31.0852M36.7355 29.9798L44.7422 21.5557C44.4454 21.1416 44.125 20.7472 43.7827 20.3748L35.7059 28.8805M34.6764 27.7775L42.6889 19.3425C42.3019 19.0133 41.8939 18.7132 41.4677 18.4442L33.6457 26.6757M32.6196 25.5715L40.0984 17.6971C39.5997 17.4683 39.0861 17.278 38.5615 17.128L31.5878 24.4698M30.5583 23.3668L36.8181 16.777C36.408 16.7287 35.9957 16.7043 35.5831 16.7039C35.3145 16.7039 35.0506 16.7124 34.7854 16.7282L29.5276 22.2638M32.2592 17.2048C30.4846 17.7596 28.8615 18.7595 27.527 20.12L28.5003 21.1596" fill="black"/>
</svg>
