<svg width="190" height="58" viewBox="0 0 190 58" fill="none" xmlns="http://www.w3.org/2000/svg">
<path d="M27.6401 41.9849L26.5589 41.4076C26.3066 41.7776 26.1084 41.9849 26.0453 42.1403C26.5589 42.3993 26.9373 42.5621 27.1986 42.6657C27.3878 42.3475 27.514 42.1921 27.514 42.1921C28.0275 42.4511 28.3429 42.6139 28.5321 42.6657C28.5952 42.6139 28.6582 42.5103 28.7844 42.3475C28.9105 42.1847 28.9736 41.9775 28.9736 41.9775L27.8924 41.452C27.8293 41.711 27.7032 41.8738 27.6401 41.9775V41.9849ZM38.6865 39.9348L39.8398 40.5639C40.1552 40.142 40.3534 39.883 40.3534 39.7794C39.5245 39.4094 39.137 39.2021 39.137 39.2021C39.074 39.4094 38.9478 39.6758 38.6865 39.9348ZM40.6057 34.7468C40.2903 35.3241 40.0921 35.6349 40.0921 35.6349C40.5426 36.4194 40.7949 36.9449 40.7949 37.1003V37.2039H28.5321L27.9555 38.1512C28.0816 38.203 28.3429 38.2548 28.7844 38.2548C29.2259 38.2548 29.5503 38.3066 29.7395 38.3584C30.0548 38.462 30.19 38.7285 30.253 38.9875C30.0008 39.1429 29.6764 39.3057 29.298 39.4094C28.8475 39.5648 28.3429 39.6166 27.7032 39.6684H26.9373C25.5317 39.6684 24.8289 39.2465 24.8289 38.3584C24.8289 38.1512 24.9551 37.7812 25.2794 37.2557L25.6669 36.4712V36.3158C25.6669 36.3158 25.6038 36.3158 25.6038 36.264C25.2885 36.523 24.9641 36.9449 24.7118 37.4703C24.4595 38.0476 24.2613 38.5212 24.2613 38.9875C24.2613 39.5648 24.5136 39.9866 24.9641 40.2457C25.3515 40.5047 25.8561 40.6157 26.4958 40.6157C26.9463 40.6157 27.3878 40.5639 27.9014 40.4603C28.7303 40.3049 29.4962 40.0384 30.0728 39.7276C30.1359 39.6758 30.199 39.5722 30.199 39.5204C30.7126 38.8395 31.091 38.314 31.2802 37.944H41.1103C41.2995 37.2113 41.4256 36.6858 41.4256 36.4786C41.4256 36.2196 41.3626 35.9013 41.1733 35.4277C40.9211 35.1686 40.7859 34.8504 40.5967 34.7468H40.6057ZM50.8863 34.7468C50.5709 35.3241 50.3727 35.6349 50.3727 35.6349C50.8232 36.4194 51.0755 36.9449 51.0755 37.1003V37.2039H48.0751C47.8228 36.8857 47.5615 36.3158 47.4354 35.5757C47.3092 34.6876 47.12 34.0585 46.9849 33.7921C46.9218 33.8957 46.8587 34.0511 46.6695 34.2657C46.5434 34.473 46.4172 34.6358 46.3542 34.7394L46.9308 36.6266C46.8678 36.9449 46.7416 37.1521 46.4803 37.2039C45.8406 37.3075 45.327 37.4111 44.8225 37.4111C44.5071 37.4111 44.1827 37.3593 43.8674 37.3075L43.6782 37.1521C43.6151 37.1003 43.6151 37.0485 43.6151 36.9449C43.6151 36.6858 43.552 36.523 43.489 36.523C43.2367 37.1521 43.1015 37.6257 43.1015 37.8848C43.1015 37.9366 43.1646 38.0402 43.2277 38.203C43.2907 38.2548 43.3538 38.2548 43.3538 38.3066C43.6061 38.3584 43.8674 38.4102 44.1827 38.4102C44.6332 38.4102 45.1378 38.3584 45.7145 38.3066C46.228 38.2548 46.5434 38.203 46.6065 38.1512C46.9218 37.833 47.12 37.5221 47.1831 37.3149C47.1831 37.3667 47.3092 37.4703 47.4354 37.7368C47.4985 37.8922 47.6246 38.055 47.7507 38.1068L48.003 38.2104H51.3188C51.508 37.4777 51.6341 36.9523 51.6341 36.745C51.6341 36.486 51.5711 36.1678 51.3818 35.6941C51.2557 35.1686 51.0665 34.8578 50.8683 34.7468H50.8863ZM49.0302 39.9348L50.1835 40.5639C50.4988 40.142 50.6971 39.883 50.6971 39.7794C49.8681 39.4094 49.4807 39.2021 49.4807 39.2021C49.3546 39.4094 49.2284 39.6758 49.0302 39.9348ZM56.7519 32.9114C56.9411 32.5931 57.0672 32.4377 57.1393 32.3859C57.716 32.7041 58.0944 32.8596 58.2926 32.9114L58.7431 32.2305L57.5268 31.5496C57.2745 31.8678 57.1393 32.0233 57.1393 32.0751C56.6257 31.8678 56.2473 31.6532 55.986 31.5496L55.4724 32.2823C55.5986 32.3341 55.7878 32.4377 56.1122 32.6005C56.3644 32.756 56.6257 32.8078 56.7519 32.9188V32.9114ZM92.5132 32.4377C92.1257 32.2823 91.8734 32.1195 91.6842 32.0677C91.6212 32.0159 91.5581 31.9641 91.5581 31.8604L91.6212 31.705V31.4978H91.4319C91.1166 31.9197 90.9184 32.2305 90.7922 32.4969C90.7292 32.5487 90.7291 32.6005 90.7291 32.7041C90.7291 32.8078 90.7292 32.8596 90.7922 32.8596C90.8553 32.9632 90.9814 33.015 91.0445 33.0668C91.2337 34.0141 91.3599 34.7468 91.4319 35.2723C91.495 35.4277 91.495 35.6941 91.5581 35.9531C91.6212 36.4268 91.6842 36.7376 91.6842 36.8412V37.1595H88.4946C88.5577 37.1077 88.6208 36.9523 88.81 36.7376C88.9361 36.5822 88.9992 36.4786 88.9992 36.4786C88.9992 36.1086 88.6838 35.7459 87.9811 35.3759C87.4044 35.0576 86.8998 34.9022 86.4493 34.9022C85.8096 34.9022 84.9176 35.2204 83.7012 35.7903C82.2957 36.523 81.2775 36.9449 80.7009 37.1003H79.9981C79.6827 37.1003 79.5476 37.0485 79.4845 36.9449C79.6737 36.7894 79.7368 36.4712 79.7998 36.1086C79.8629 35.8495 79.8629 35.5831 79.8629 35.3241C79.5476 35.6423 79.1601 35.9013 78.9078 36.1604V36.634C78.9078 36.9523 78.7817 37.1077 78.5204 37.1077H70.8618C70.7356 37.1077 70.6095 37.0559 70.5464 36.9005C70.5464 36.8486 70.4834 36.7968 70.4834 36.7968V36.6932C70.7356 36.5896 70.9969 36.5378 71.2492 36.486C71.4384 36.4342 71.5015 36.4342 71.5646 36.4342H72.5196L72.9702 35.4869H72.3304C71.943 35.4869 71.6907 35.4869 71.5646 35.4351C70.3482 35.176 69.4562 35.0132 68.8795 34.8578C68.6903 34.806 68.429 34.7542 68.1768 34.7542H67.8614C67.6722 34.806 67.546 34.8578 67.4109 34.9096C67.0955 35.065 66.8973 35.3315 66.7081 35.6941C66.645 35.8495 66.582 35.9531 66.582 36.0123V36.3306C66.645 36.2788 66.7712 36.227 67.0325 36.0716C67.1586 35.9679 67.3478 35.9161 67.546 35.9161C67.546 35.9161 67.6091 35.9161 67.6722 35.8643H67.7983C68.1137 35.8643 68.8795 36.0197 70.0959 36.338C69.5823 36.708 69.0778 36.9153 68.6273 37.0707C68.3119 37.1743 67.9875 37.2261 67.6722 37.2261H60.0766C59.7613 37.2261 59.5 37.1743 59.4369 37.0189C59.3738 36.9671 59.3738 36.9153 59.3738 36.8634C59.1216 35.2871 58.9233 34.0289 58.7972 33.1926C58.3467 33.6145 58.0944 33.8735 58.0944 33.9771C58.0944 34.1843 58.0944 34.399 58.1575 34.5026C58.0313 34.5544 57.77 34.658 57.3285 34.7616C56.9411 34.8652 56.6888 34.9688 56.5627 35.0798C56.0491 35.4499 55.6707 36.0271 55.5445 36.7598C55.7337 36.8635 55.932 36.9671 56.1212 37.0189C56.2473 37.0707 56.3735 37.1225 56.6348 37.1225C57.4006 37.2779 57.7881 37.3815 57.8511 37.3815C57.9142 37.3815 57.9773 37.3297 58.0403 37.2779L58.2295 36.9597C58.3557 36.8042 58.4188 36.7006 58.5449 36.6414C58.608 36.745 58.608 36.7968 58.608 36.9005C58.671 37.2705 58.671 37.5295 58.7341 37.5813C58.7972 37.7367 58.9233 37.8996 59.1216 37.9514C59.1846 38.0032 59.3108 38.0032 59.3738 38.0032H67.9335C67.9965 38.0032 68.0596 38.0032 68.1858 37.9514C68.5732 37.7442 68.8886 37.5813 69.0778 37.4259C69.4652 37.1669 69.7806 37.0041 69.9698 36.9005C70.0959 37.3741 70.159 37.6849 70.2221 37.7368C70.2851 37.8922 70.4113 37.9958 70.5374 37.9958H78.3943C78.4573 37.9958 78.6465 37.8922 78.9078 37.6775C79.034 37.833 79.097 37.9366 79.1601 37.9958H91.7383C91.8644 37.8404 91.9906 37.6257 91.9906 37.4185C92.0536 37.2113 92.0536 36.9967 92.1167 36.7894C92.1798 36.634 92.1798 36.4712 92.1798 36.3158L91.8644 33.3258L91.9275 33.3776C92.1167 33.1704 92.3149 32.8004 92.5042 32.4303L92.5132 32.4377ZM57.9683 36.4786C57.8421 36.4786 57.716 36.4786 57.5808 36.4268C57.3916 36.4268 57.1303 36.3232 56.815 36.2196C56.6257 36.1678 56.4275 36.0642 56.3014 35.9605C56.4275 35.8569 56.6888 35.7533 57.0672 35.6423C57.3826 35.5387 57.6439 35.4869 57.77 35.3833C57.9592 35.176 58.0854 35.0132 58.2205 34.8578L58.5359 36.486H57.9592L57.9683 36.4786ZM87.6567 37.1595C87.5305 37.2113 87.4675 37.2113 87.4675 37.2113H82.1064C82.6831 36.9523 83.3228 36.6858 83.8904 36.375C84.6563 36.0567 85.296 35.8495 85.8096 35.8495C86.0619 35.8495 86.3232 35.9013 86.5124 35.9531C86.6385 36.0049 86.8278 36.1086 87.2152 36.3232C87.6657 36.5822 87.8549 36.7968 87.8549 36.9523C87.8549 37.0559 87.7918 37.1077 87.6657 37.1595H87.6567ZM93.9818 32.3859L94.6846 38.0994C95 37.5221 95.1982 36.9967 95.1982 36.523L94.8107 30.8613C94.2341 31.594 93.9818 32.1195 93.9818 32.3785V32.3859ZM100.622 32.9114C100.812 32.5931 100.938 32.4377 101.01 32.3859C101.586 32.7041 101.965 32.8596 102.163 32.9114L102.614 32.2305L101.397 31.5496C101.145 31.8678 101.01 32.0233 101.01 32.0751C100.496 31.8678 100.118 31.6532 99.8564 31.5496L99.3428 32.2823C99.469 32.3341 99.6582 32.4377 99.9826 32.6005C100.307 32.7634 100.496 32.8078 100.622 32.9188V32.9114ZM109.939 32.9114C110.128 32.9632 110.326 33.015 110.579 33.015C110.389 33.1186 110.263 33.274 110.065 33.385C109.75 33.5923 109.614 33.7551 109.614 33.8587C109.614 33.8932 109.635 33.9278 109.677 33.9623C110.633 33.385 111.525 33.0742 112.299 32.9632C112.489 32.756 112.552 32.5931 112.615 32.4895H111.335C110.443 32.4377 109.93 32.3341 109.93 32.1195C109.93 32.0159 110.056 31.8604 110.245 31.7494C110.434 31.594 110.633 31.5422 110.822 31.5422C111.011 31.5422 111.209 31.594 111.398 31.7494C111.588 31.4904 111.651 31.3276 111.651 31.3794C111.651 31.3276 111.588 31.2758 111.461 31.1722C111.335 31.0686 111.209 31.0167 111.146 31.0167C110.759 31.0167 110.38 31.1722 109.993 31.5422C109.605 31.9123 109.416 32.2231 109.416 32.5931C109.479 32.6967 109.668 32.8004 109.93 32.9114H109.939ZM115.111 39.5722C114.534 39.2539 114.092 39.0467 113.894 38.9431C113.768 39.0985 113.579 39.3649 113.381 39.7276L114.597 40.3049C114.786 40.0976 114.912 39.9348 114.984 39.8312C115.498 40.0384 115.876 40.2531 116.201 40.3567C116.327 40.2012 116.516 39.9348 116.714 39.624C116.012 39.2539 115.633 39.0985 115.561 39.0467C115.309 39.3057 115.174 39.4686 115.111 39.5722ZM135.032 36.1086C134.717 35.5313 133.879 34.7986 132.671 33.9549C132.419 33.7995 132.284 33.7477 132.284 33.7477C132.221 33.7477 132.095 33.8513 131.969 34.0659C131.842 34.2805 131.779 34.436 131.779 34.5396V34.9096C131.329 35.2797 130.95 35.7977 130.626 36.4268C130.563 36.4786 130.563 36.634 130.5 36.9005C130.437 37.1077 130.374 37.2187 130.311 37.2705H116.39C116.39 37.1669 116.39 37.0633 116.327 36.9523V35.7977C116.327 35.7459 116.327 35.6423 116.264 35.4277C116.201 35.213 116.201 35.0576 116.201 34.954C116.138 34.954 116.012 35.1094 115.75 35.4277C115.498 35.6867 115.363 35.9013 115.363 36.0049C115.363 36.0049 115.363 36.1604 115.426 36.4786C115.489 36.7968 115.489 37.0041 115.489 37.1077V37.2113H112.489C112.299 37.2113 112.173 37.1595 112.101 37.0041L112.417 35.2723V34.8504C112.29 34.9022 112.101 35.1094 111.777 35.4277C111.452 35.7459 111.326 35.9013 111.326 36.0049V36.9523C111.263 37.0559 111.2 37.1077 111.011 37.1595C110.885 37.2113 110.759 37.2631 110.624 37.2631H103.857C103.542 37.2631 103.28 37.2113 103.217 37.0559C103.154 37.0041 103.154 36.9523 103.154 36.9005C102.902 35.2204 102.767 34.0141 102.641 33.1778C102.19 33.5997 101.938 33.8587 101.938 33.9623C101.938 34.1695 101.938 34.3842 102.001 34.4878C101.875 34.5396 101.613 34.6432 101.172 34.7468C100.784 34.8504 100.532 34.954 100.406 35.065C99.8925 35.4351 99.514 36.0123 99.3879 36.745C99.5771 36.8486 99.7753 36.9523 99.9646 37.0041C100.091 37.0559 100.217 37.1077 100.478 37.1077C101.244 37.2631 101.631 37.3667 101.694 37.3667C101.758 37.3667 101.821 37.3149 101.884 37.2631L102.073 36.9449C102.199 36.7894 102.262 36.6858 102.388 36.6266C102.451 36.7302 102.451 36.782 102.451 36.8857C102.514 37.2557 102.514 37.5147 102.577 37.5665C102.641 37.722 102.767 37.8848 102.965 37.9366C103.028 37.9884 103.154 37.9884 103.217 37.9884H110.813C111.065 37.6701 111.2 37.4629 111.263 37.4111C111.326 37.5147 111.452 37.6183 111.516 37.7294C111.642 37.8848 111.768 37.9366 111.831 37.9366H115.084C115.336 37.6183 115.534 37.4629 115.534 37.4111C115.723 37.6701 115.849 37.833 115.922 37.9366H130.221C130.094 37.9366 130.608 37.8848 131.752 37.7294L134.437 37.9366C134.627 37.8848 134.825 37.7294 134.951 37.4629C135.14 37.2039 135.203 36.9375 135.203 36.6784C135.266 36.6784 135.203 36.4194 135.014 36.1012L135.032 36.1086ZM101.893 36.4786C101.83 36.4786 101.64 36.4786 101.442 36.4268C101.253 36.4268 100.992 36.3232 100.676 36.2196C100.487 36.1678 100.289 36.0642 100.163 35.9605C100.289 35.8569 100.55 35.7533 100.929 35.6423C101.244 35.5387 101.505 35.4869 101.631 35.3833C101.821 35.176 101.947 35.0132 102.082 34.8578L102.397 36.486H101.884L101.893 36.4786ZM132.545 36.7894C132.356 36.9449 132.23 37.0485 132.032 37.0485C131.906 37.0485 131.716 36.9967 131.455 36.9449C131.14 36.8412 130.941 36.7376 130.941 36.5748C130.941 36.5748 131.005 36.4712 131.131 36.3158C131.518 35.8939 131.833 35.6867 132.023 35.6867C132.212 35.6867 132.338 35.7903 132.473 35.9457C132.608 36.1012 132.662 36.264 132.662 36.4194C132.789 36.4712 132.725 36.6266 132.536 36.7894H132.545ZM134.717 37.2113H134.401C134.212 37.2113 133.951 37.1595 133.699 37.0559C133.383 36.9523 133.185 36.7968 133.185 36.634C133.185 36.5822 133.248 36.4786 133.311 36.3158C133.437 36.1086 133.563 35.9975 133.699 35.9975C133.834 35.9975 134.086 36.153 134.338 36.523C134.527 36.782 134.654 36.9967 134.726 37.1003V37.2039L134.717 37.2113ZM56.887 46.2848H53.8867V43.9239H52.9316V49.7484H53.8867V47.0249H56.887V49.7484H57.8421V43.9239H56.887V46.2848ZM123.157 49.7484H124.112V43.9239H123.157V49.7484ZM47.949 49.7484H48.904V43.9239H47.949V49.7484ZM43.9214 43.9757L41.75 49.741H42.5789L43.1556 48.061L45.5162 48.0092L46.219 49.741H47.1741L44.9396 43.9757H43.9214ZM43.4799 47.4393L44.435 44.923L45.3901 47.4393H43.4709H43.4799ZM40.2183 46.6474C40.9211 46.4402 41.2364 45.9665 41.2364 45.3893C41.2364 45.0192 41.0472 44.6566 40.7228 44.3902C40.3985 44.1237 39.8939 43.9683 39.1911 43.9683H36.5061V49.7928H39.1911C39.957 49.7928 40.5336 49.6374 40.849 49.3191C41.2364 49.0009 41.4256 48.6383 41.4256 48.1646C41.4256 47.7946 41.2995 47.5355 41.0382 47.2173C40.912 46.9583 40.5877 46.7436 40.2093 46.64L40.2183 46.6474ZM37.4702 44.6048H39.065C39.4524 44.6048 39.7678 44.6566 39.957 44.812C40.1462 44.9674 40.2723 45.182 40.2723 45.3893C40.2723 45.6483 40.1462 45.8629 40.02 46.0183C39.8308 46.1738 39.4434 46.2774 38.8667 46.2774H37.4612V44.5974L37.4702 44.6048ZM40.1552 48.7493C39.9029 48.9047 39.5785 49.0083 39.2001 49.0083H37.4792V47.0175H39.074C39.4614 47.0175 39.7137 47.0693 39.9029 47.1729C40.0921 47.2765 40.2183 47.3801 40.3534 47.5429C40.4886 47.7058 40.4796 47.913 40.4796 48.0684C40.4796 48.3866 40.4165 48.5939 40.1642 48.7493H40.1552ZM26.2976 43.9239H24V49.7484H26.5499C27.3788 49.7484 28.0185 49.4894 28.5321 48.9121C29.1088 48.3348 29.361 47.6539 29.361 46.8176C29.361 46.0331 29.1088 45.3005 28.5321 44.775C28.0185 44.2495 27.2527 43.9387 26.2976 43.9387V43.9239ZM27.8293 48.431C27.4419 48.8529 26.9373 49.0601 26.2345 49.0601H24.9551V44.6566H26.2345C26.9373 44.6566 27.514 44.8638 27.8293 45.2857C28.1447 45.7075 28.3429 46.233 28.3429 46.751C28.406 47.4319 28.2167 48.0092 27.8293 48.431ZM124.878 44.6566H126.797V49.741H127.752V44.6566H129.671V43.9239H124.887V44.6566H124.878ZM34.2806 47.6984C34.2806 48.2238 34.1544 48.5346 33.8931 48.8011C33.6409 49.0083 33.2534 49.1193 32.7398 49.1193C32.4876 49.1193 32.2263 49.0675 31.974 49.0157C31.7217 48.9121 31.5865 48.8085 31.4604 48.6457C31.3343 48.4828 31.2712 48.172 31.2712 47.7576V43.9831H30.3792V47.7576C30.3792 48.4902 30.5684 49.0157 30.9558 49.3858C31.3433 49.7558 31.9109 49.9112 32.7398 49.9112C33.4426 49.9112 34.0193 49.7558 34.4608 49.3858C34.9113 49.0675 35.1005 48.4976 35.1005 47.7576V43.9831H34.2716V47.7057L34.2806 47.6984ZM135.41 43.9239H135.284L134.455 43.9757L132.734 46.492L130.95 43.9239H129.869L132.167 47.2839V49.7484H133.122V47.3357L135.419 43.9239H135.41ZM89.6389 43.9239L87.4044 49.7484H88.2333L88.81 48.0684L91.1707 48.0166L91.8734 49.7484H92.8285L90.594 43.9239H89.6389ZM89.1253 47.4393L90.0804 44.923L91.0355 47.4393H89.1163H89.1253ZM113.065 43.8203C112.236 43.8203 111.534 44.1385 111.02 44.6566C110.506 45.2339 110.254 45.9665 110.254 46.8102C110.254 47.6539 110.506 48.3866 110.957 48.9639C111.471 49.5412 112.173 49.852 113.002 49.852C113.894 49.852 114.597 49.5338 115.111 48.9047C115.624 48.2756 115.876 47.5947 115.876 46.751C115.876 45.9073 115.624 45.1746 115.111 44.5974C114.597 44.0719 113.894 43.8129 113.065 43.8129V43.8203ZM114.408 48.4828C114.092 48.9047 113.642 49.1119 113.065 49.1119C112.489 49.1119 112.11 48.9047 111.786 48.4828C111.461 48.061 111.272 47.4837 111.272 46.8028C111.272 46.122 111.461 45.5447 111.786 45.071C112.101 44.6492 112.552 44.442 113.065 44.442C113.579 44.442 114.02 44.6492 114.345 45.0192C114.66 45.4411 114.858 45.9665 114.858 46.6992C114.858 47.4837 114.732 48.061 114.408 48.4828ZM97.1714 47.6984C97.1714 48.2238 97.0453 48.5346 96.784 48.8011C96.5317 49.0083 96.1442 49.1193 95.6307 49.1193C95.3784 49.1193 95.1171 49.0675 94.8648 49.0157C94.6125 48.9121 94.4774 48.8085 94.3512 48.6457C94.2251 48.4828 94.162 48.172 94.162 47.7576V43.9831H93.2069V47.7576C93.2069 48.4902 93.3962 49.0675 93.7836 49.3858C94.171 49.7558 94.7387 49.9112 95.5676 49.9112C96.2704 49.9112 96.847 49.7558 97.2885 49.3858C97.739 49.0675 97.9283 48.4976 97.9283 47.7576V43.9831H97.0993V47.7057H97.1624L97.1714 47.6984ZM98.7031 44.6566H100.622V49.741H101.577V44.6566H103.497V43.9239H98.7121V44.6566H98.7031ZM108.218 46.2848H105.217V43.9239H104.262V49.7484H105.217V47.0249H108.218V49.7484H109.173V43.9239H108.218V46.2848ZM83.2507 46.2848H80.2503V43.9239H79.2953V49.7484H80.2503V47.0249H83.2507V49.7484H84.2058V43.9239H83.2507V46.2848ZM73.736 44.6566H75.6552V49.741H76.6102V44.6566H78.5294V43.9239H73.745V44.6566H73.736ZM66.2035 43.9239L63.969 49.7484H64.861L65.4377 48.0684L67.7983 48.0166L68.5011 49.7484H69.4562L67.2217 43.9239H66.2035ZM65.69 47.4393L66.645 44.923L67.6001 47.4393H65.6809H65.69ZM60.3289 47.0693H63.0139V46.3884H60.3289V44.7084H63.7167V43.9757H59.3738V49.8002H63.8429V49.0675H60.3289V47.0767V47.0693ZM121.562 46.492C121.751 46.1738 121.877 45.9147 121.877 45.6039C121.877 45.182 121.688 44.8194 121.364 44.5012C120.976 44.1311 120.472 43.9757 119.706 43.9757H117.021V49.8002H117.913V47.3357L119.697 47.2839L120.976 49.8002H121.931L120.589 47.1285C121.039 46.9731 121.355 46.7584 121.544 46.4994L121.562 46.492ZM119.58 46.5956H117.922V44.7084H119.706C120.093 44.7084 120.346 44.812 120.598 44.9674C120.787 45.1228 120.913 45.3375 120.913 45.6483C120.913 45.9073 120.787 46.1738 120.598 46.381C120.346 46.4846 120.021 46.5882 119.58 46.5882V46.5956ZM71.1861 43.9239H70.2311V49.7484H74.3217V49.0157H71.2582L71.1952 43.9313L71.1861 43.9239Z" fill="black"/>
<path d="M138.673 8C135.735 18.1244 125.905 26.0952 113.453 28.2414V28.3968H129.798C134.906 28.3968 138.988 24.985 138.988 20.8479V8H138.673Z" fill="#8DC63F"/>
<path d="M166 28.2414C153.611 26.036 143.781 18.117 140.844 8H140.528V20.8479C140.528 25.0442 144.682 28.3968 149.719 28.3968H166V28.2414Z" fill="#008C99"/>
<path d="M166 29.6033H149.719C144.61 29.6033 140.528 33.0151 140.528 37.1522V50.0001H140.844C143.781 39.8757 153.548 31.9568 166 29.7587V29.6033Z" fill="#8DC63F"/>
</svg>
