<svg width="190" height="58" viewBox="0 0 190 58" fill="none" xmlns="http://www.w3.org/2000/svg">
<path d="M123.126 8L113.172 25.0227L113.055 24.9912V24.989L106.773 14.2874L112.882 19.736L123.126 8Z" fill="#E41323"/>
<path d="M119.82 36.2949L116.559 36.3601L112.559 29.2317L108.697 36.1982C107.973 36.4636 107.223 36.4096 106.425 36.2522L113.056 24.9929L113.173 25.0244V25.0289L119.82 36.2949Z" fill="#101820"/>
<path d="M73.2347 34.6667C70.5414 36.9627 66.8821 36.6771 63.4275 36.3263L63.4229 25.2986C67.0063 24.8489 71.5028 24.6375 73.8603 27.3652C75.3944 29.6206 75.1966 32.6452 73.2347 34.6667ZM70.891 33.6593C72.1767 31.9256 72.1767 29.3665 70.8542 27.7295C69.7686 26.3848 67.9217 26.2319 66.3048 26.486L66.3278 35.1345C68.1057 35.3189 69.8169 35.1075 70.891 33.6593Z" fill="#101820"/>
<path d="M102.949 35.1479C101.019 37.0008 97.0883 36.6028 94.2363 36.3149V25.2985C97.454 24.7971 102.843 24.6981 103.059 27.6912C103.149 28.9302 102.45 29.9039 101.102 30.4301C102.171 30.6999 103.103 31.2284 103.459 31.9862C103.965 33.0588 103.832 34.3001 102.949 35.1456V35.1479ZM100.237 28.5659C100.382 27.8486 100.237 27.1312 99.6045 26.7355C98.8524 26.2655 97.9508 26.2228 97.0791 26.3554L97.0745 29.9264C98.5764 30.0658 100.002 29.724 100.235 28.5637L100.237 28.5659ZM99.9449 34.7858C100.725 34.3113 100.971 33.5063 100.803 32.7013C100.541 31.4375 98.7466 31.0755 97.0745 31.2756L97.1021 35.2243C98.0842 35.2963 99.0778 35.3143 99.9449 34.7858Z" fill="#101820"/>
<path d="M87.2554 25.254L89.3346 25.2382L89.2932 32.189C89.2794 34.4714 87.6901 36.2344 85.4131 36.5447C84.408 36.6819 83.442 36.6797 82.4392 36.5087C80.4842 36.1737 78.9777 34.7053 78.9616 32.6972L78.8926 25.2292H81.7699L81.809 31.6471C81.8136 32.4926 81.9815 33.3853 82.4806 34.0712C83.1545 34.9976 84.3528 35.1235 85.4522 34.838C86.4412 34.5794 87.2094 33.5832 87.2163 32.3756L87.2531 25.2562L87.2554 25.254Z" fill="#101820"/>
<path d="M82.8555 45.5746C82.8555 48.019 80.8292 50.0001 78.3291 50.0001C75.829 50.0001 73.8027 48.019 73.8027 45.5746C73.8027 43.1303 75.829 41.1492 78.3291 41.1492C80.8292 41.1492 82.8555 43.1303 82.8555 45.5746ZM80.0334 43.3057C79.6907 42.6446 79.0651 42.2893 78.4119 42.269C77.7587 42.2488 77.117 42.5816 76.7329 43.2112C75.8773 44.6144 75.8681 46.4201 76.6455 47.8683C77.0112 48.5474 77.7058 48.9297 78.3843 48.8892C80.3301 48.77 81.2317 45.6173 80.0311 43.3079L80.0334 43.3057Z" fill="#5B6770"/>
<path d="M97.2859 49.7548C95.8438 50.0246 94.4638 49.9571 93.001 49.7368V41.4143C94.6432 41.1804 96.198 41.1422 97.6999 41.4615C99.6779 41.882 100.828 43.3617 100.872 45.3023C100.922 47.4881 99.625 49.3163 97.2859 49.7525V49.7548ZM98.5049 46.9304C98.8614 45.8375 98.8568 44.5603 98.2634 43.5393C97.6079 42.4127 96.2279 42.0912 95.0158 42.3655L95.0319 48.7968C96.6741 49.0914 98.0334 48.3808 98.5049 46.9326V46.9304Z" fill="#5B6770"/>
<path d="M71.1739 49.6958L69.1131 49.7273L69.1062 46.0304L65.4239 46.0236L65.4285 49.716L63.4229 49.7228V41.3958L65.417 41.4228L65.4216 44.9398L69.1085 44.9375L69.1131 41.4115L71.167 41.3936L71.1739 49.6958Z" fill="#5B6770"/>
<path d="M116.201 49.524C116.201 49.8073 115.217 49.8883 115.019 49.6657L110.463 44.6196L110.431 49.7106C109.954 49.7646 109.58 49.7736 109.039 49.6972L109.051 41.4422C109.458 41.2892 110.058 41.2623 110.299 41.5389L114.752 46.6681L114.798 41.4332C115.247 41.3162 115.638 41.3117 116.215 41.4534L116.201 49.524Z" fill="#5B6770"/>
<path d="M124.9 46.2904L123.405 46.2724C122.998 46.2679 123.003 45.2357 123.419 45.2335L126.577 45.2222L126.559 49.1755C125.011 50.0165 123.247 50.2301 121.593 49.7354C120.033 49.2699 119.125 47.9072 118.966 46.3533C118.812 44.8535 119.189 43.3153 120.401 42.3124C122.09 40.9137 124.523 40.7833 126.467 41.8514C126.43 42.2652 126.207 42.6025 125.85 42.9196C124.714 42.1483 123.095 42.0291 122.057 43.0095C120.549 44.4397 120.797 47.6846 122.481 48.5863C123.233 48.9888 124.134 48.9618 124.909 48.6223L124.903 46.2926L124.9 46.2904Z" fill="#5B6770"/>
<path d="M126.574 25.2212H123.688V36.3613H126.574V25.2212Z" fill="#101820"/>
<path d="M90.6003 48.4881C90.7176 48.8817 90.736 49.2819 90.6325 49.7384H85.5127V41.4047C86.182 41.326 86.7547 41.3283 87.5206 41.4384V48.632L90.6026 48.4881H90.6003Z" fill="#5B6770"/>
<path d="M105.835 41.3662H103.825V49.7381H105.835V41.3662Z" fill="#5B6770"/>
</svg>
