<svg width="190" height="58" viewBox="0 0 190 58" fill="none" xmlns="http://www.w3.org/2000/svg">
<path fill-rule="evenodd" clip-rule="evenodd" d="M86.623 41.2181H87.513V38.3981H90.493V41.2181H91.383V35.0081H90.493V37.6081H87.513V35.0081H86.623V41.2181Z" fill="black"/>
<path fill-rule="evenodd" clip-rule="evenodd" d="M93.6231 38.108C93.6231 37.788 93.6531 37.478 93.7531 37.188C93.8531 36.898 93.9731 36.648 94.1331 36.428C94.2931 36.208 94.5131 36.018 94.7631 35.888C95.3331 35.638 95.9631 35.638 96.5331 35.888C96.7831 36.018 97.0031 36.208 97.1631 36.428C97.3531 36.648 97.4831 36.938 97.5731 37.218C97.6631 37.508 97.7031 37.818 97.7031 38.138C97.7031 38.458 97.6731 38.738 97.5731 39.058C97.5131 39.348 97.3831 39.598 97.1931 39.818C97.0331 40.038 96.8131 40.228 96.5631 40.358C95.9931 40.608 95.3231 40.608 94.7631 40.358C94.5131 40.228 94.2931 40.038 94.1331 39.818C93.9731 39.598 93.8531 39.308 93.7531 39.058C93.6931 38.738 93.6231 38.428 93.6231 38.108ZM92.6731 38.108C92.6731 38.548 92.7331 38.998 92.8631 39.408C92.9931 39.788 93.1831 40.138 93.4631 40.418C93.7131 40.708 94.0631 40.928 94.4131 41.088C95.2331 41.408 96.1231 41.408 96.9131 41.088C97.2631 40.928 97.6131 40.708 97.8631 40.418C98.1131 40.128 98.3331 39.788 98.4631 39.408C98.5931 38.998 98.6531 38.548 98.6531 38.108C98.6531 37.668 98.5931 37.248 98.4631 36.838C98.3331 36.458 98.1431 36.108 97.8631 35.828C97.6131 35.538 97.2631 35.318 96.9131 35.158C96.5031 34.998 96.0931 34.908 95.6431 34.908C95.2331 34.908 94.7831 34.968 94.4031 35.158C94.0531 35.318 93.7031 35.538 93.4531 35.828C93.2031 36.118 92.9831 36.458 92.8531 36.838C92.7231 37.248 92.6631 37.698 92.6631 38.108H92.6731Z" fill="black"/>
<path fill-rule="evenodd" clip-rule="evenodd" d="M101.133 41.2181H102.023V35.7981H103.953V35.0081H99.2031V35.7981H101.133V41.2181Z" fill="black"/>
<path fill-rule="evenodd" clip-rule="evenodd" d="M104.863 41.2181H108.343V40.4281H105.743V38.3981H108.083V37.6081H105.743V35.7981H108.343V35.0081H104.863V41.2181Z" fill="black"/>
<path fill-rule="evenodd" clip-rule="evenodd" d="M109.743 41.2181H113.223V40.4281H110.623V35.0081H109.733V41.2181H109.743Z" fill="black"/>
<path fill-rule="evenodd" clip-rule="evenodd" d="M117.123 35.1281C116.903 35.0281 116.683 34.9981 116.453 34.9681C116.233 34.9381 116.013 34.9081 115.783 34.9081C115.273 34.8781 114.773 35.0381 114.363 35.3481C113.983 35.6381 113.793 36.1081 113.793 36.5881C113.793 36.8081 113.823 37.0281 113.923 37.2181C114.023 37.4081 114.113 37.5681 114.273 37.6981C114.403 37.8281 114.553 37.9181 114.713 38.0181C114.873 38.1181 115.063 38.2081 115.313 38.3381C115.603 38.4681 115.883 38.6281 116.103 38.8181C116.203 38.9181 116.293 39.0081 116.353 39.1381C116.413 39.2681 116.453 39.3881 116.453 39.5481C116.453 39.7081 116.423 39.8681 116.323 39.9881C116.263 40.1181 116.163 40.2081 116.043 40.3081C115.913 40.4081 115.793 40.4681 115.663 40.4981C115.533 40.5281 115.373 40.5581 115.253 40.5581C115.033 40.5581 114.813 40.5281 114.583 40.4581C114.363 40.3981 114.173 40.3281 113.953 40.2381L113.853 41.0581C114.073 41.1181 114.293 41.1881 114.523 41.2481C114.713 41.2781 114.903 41.3081 115.123 41.3081C115.443 41.3081 115.723 41.2781 116.013 41.2081C116.263 41.1481 116.523 41.0481 116.743 40.8881C116.963 40.7281 117.123 40.5381 117.213 40.3181C117.343 40.0681 117.403 39.7781 117.373 39.4981C117.373 39.2481 117.343 38.9881 117.243 38.7681C117.143 38.5781 117.023 38.3881 116.893 38.2281C116.763 38.0981 116.603 37.9781 116.413 37.8781C116.253 37.7781 116.033 37.6881 115.783 37.5581C115.503 37.4281 115.213 37.2681 114.993 37.0781C114.833 36.9481 114.743 36.7281 114.743 36.5081C114.743 36.3781 114.773 36.2181 114.843 36.1281C114.903 36.0281 115.003 35.9381 115.093 35.8781C115.193 35.8181 115.313 35.7781 115.443 35.7481C115.573 35.7181 115.693 35.7181 115.823 35.7181C116.013 35.7181 116.203 35.7481 116.393 35.7781C116.583 35.8381 116.803 35.9081 116.993 35.9681L117.123 35.1081V35.1281Z" fill="black"/>
<path fill-rule="evenodd" clip-rule="evenodd" d="M125.223 37.8581C125.193 38.1481 125.163 38.4581 125.093 38.7481C125.033 38.9681 124.933 39.1881 124.843 39.3781L123.573 37.9481C123.923 37.7881 124.273 37.5681 124.553 37.2781C124.803 37.0281 124.933 36.6781 124.933 36.3281C124.963 35.9181 124.803 35.5381 124.493 35.2781C124.173 35.0281 123.793 34.8981 123.383 34.9281C122.973 34.8981 122.563 35.0581 122.213 35.3081C121.893 35.5981 121.743 35.9781 121.773 36.3881C121.773 36.6381 121.833 36.8981 121.933 37.1181C122.063 37.3681 122.223 37.5981 122.413 37.8181C122.033 37.9781 121.653 38.1981 121.403 38.5181C121.153 38.8381 121.023 39.2181 121.053 39.6281C121.023 40.1081 121.243 40.5781 121.593 40.8981C122.003 41.2481 122.513 41.4081 123.053 41.3781C123.403 41.3781 123.753 41.3181 124.063 41.2181C124.343 41.0881 124.603 40.8981 124.823 40.6781L125.333 41.2781H126.443L125.363 40.0381C125.553 39.7481 125.713 39.4381 125.833 39.0881C125.963 38.7081 126.053 38.3281 126.053 37.9181L125.233 37.8581H125.223ZM121.993 39.5381C121.993 39.2881 122.053 39.0581 122.213 38.8681C122.403 38.6481 122.623 38.4581 122.883 38.2981L124.373 40.0381C124.213 40.1981 124.053 40.3281 123.903 40.4481C123.713 40.5781 123.493 40.6381 123.233 40.6381C122.913 40.6381 122.603 40.5381 122.383 40.3181C122.133 40.1281 121.973 39.8081 122.003 39.5281L121.993 39.5381ZM122.633 36.3681C122.633 36.1481 122.693 35.9281 122.853 35.7681C122.983 35.6381 123.203 35.5481 123.393 35.5481C123.583 35.5481 123.773 35.6081 123.933 35.7381C124.093 35.8981 124.153 36.1181 124.123 36.3081C124.123 36.5581 124.023 36.7881 123.833 36.9381C123.643 37.1281 123.423 37.2881 123.203 37.3781C123.043 37.2181 122.923 37.0281 122.793 36.8381C122.663 36.7381 122.633 36.5481 122.633 36.3581V36.3681Z" fill="black"/>
<path fill-rule="evenodd" clip-rule="evenodd" d="M129.913 41.2181H130.803V38.4581H131.343C131.563 38.4581 131.783 38.4881 131.973 38.5581C132.163 38.6881 132.293 38.8481 132.383 39.0681L133.333 41.2281H134.373L133.203 38.7581C133.143 38.5981 133.043 38.4681 132.913 38.3481C132.823 38.2481 132.693 38.1881 132.593 38.1281V38.0981C132.943 38.0381 133.263 37.8781 133.513 37.6181C133.763 37.3681 133.893 37.0481 133.863 36.6981C133.863 36.3781 133.803 36.0981 133.673 35.8081C133.543 35.5881 133.353 35.3981 133.133 35.2981C132.913 35.1681 132.663 35.1081 132.403 35.0781C132.083 35.0481 131.773 35.0181 131.453 35.0181H129.933L129.903 41.2281L129.913 41.2181ZM130.803 35.7981H131.653C131.973 35.7681 132.323 35.8581 132.573 36.0481C132.793 36.2081 132.893 36.4581 132.893 36.7181C132.893 37.0081 132.763 37.2581 132.543 37.4181C132.253 37.6081 131.913 37.7081 131.563 37.6681H130.803V35.7981Z" fill="black"/>
<path fill-rule="evenodd" clip-rule="evenodd" d="M135.423 41.2181H138.903V40.4281H136.303V38.3981H138.673V37.6081H136.303V35.7981H138.903V35.0081H135.423V41.2181Z" fill="black"/>
<path fill-rule="evenodd" clip-rule="evenodd" d="M143.243 35.1281C143.023 35.0281 142.803 34.9981 142.573 34.9681C142.353 34.9381 142.133 34.9081 141.903 34.9081C141.393 34.8781 140.893 35.0381 140.483 35.3481C140.103 35.6381 139.913 36.1081 139.913 36.5881C139.913 36.8081 139.943 37.0281 140.043 37.2181C140.143 37.4081 140.233 37.5681 140.393 37.6981C140.523 37.8281 140.673 37.9181 140.833 38.0181C140.993 38.1181 141.183 38.2081 141.433 38.3381C141.723 38.4681 141.973 38.6281 142.223 38.8181C142.323 38.9181 142.413 39.0081 142.473 39.1381C142.533 39.2681 142.573 39.3881 142.573 39.5481C142.573 39.8681 142.413 40.1481 142.163 40.3081C142.033 40.4081 141.913 40.4681 141.783 40.4981C141.653 40.5281 141.503 40.5581 141.373 40.5581C141.153 40.5581 140.933 40.5281 140.703 40.4581C140.483 40.3981 140.293 40.3281 140.073 40.2381L139.973 41.0581C140.193 41.1181 140.413 41.1881 140.643 41.2481C140.833 41.3081 141.053 41.3481 141.243 41.3481C141.563 41.3481 141.843 41.3181 142.133 41.2481C142.383 41.1881 142.643 41.0881 142.863 40.9281C143.083 40.7681 143.243 40.5781 143.333 40.3581C143.463 40.1081 143.523 39.8181 143.493 39.5381C143.493 39.2881 143.463 39.0281 143.363 38.8081C143.263 38.6181 143.143 38.4281 143.013 38.2681C142.883 38.1381 142.733 38.0181 142.543 37.9181C142.353 37.7881 142.133 37.6981 141.913 37.5981C141.633 37.4681 141.373 37.3081 141.123 37.1181C140.963 36.9881 140.873 36.7681 140.873 36.5481C140.873 36.4181 140.903 36.2581 140.973 36.1681C141.033 36.0681 141.133 35.9781 141.223 35.9181C141.323 35.8581 141.443 35.8181 141.573 35.7881C141.703 35.7581 141.823 35.7581 141.953 35.7581C142.143 35.7581 142.333 35.7881 142.523 35.8181C142.713 35.8781 142.933 35.9481 143.123 36.0081L143.253 35.1181L143.243 35.1281Z" fill="black"/>
<path fill-rule="evenodd" clip-rule="evenodd" d="M145.363 38.108C145.363 37.788 145.393 37.478 145.493 37.188C145.593 36.898 145.713 36.648 145.873 36.428C146.033 36.208 146.253 36.018 146.503 35.888C147.073 35.638 147.703 35.638 148.273 35.888C148.523 36.018 148.743 36.208 148.903 36.428C149.093 36.678 149.223 36.938 149.313 37.218C149.413 37.508 149.443 37.818 149.443 38.138C149.443 38.458 149.413 38.738 149.313 39.058C149.253 39.348 149.123 39.598 148.933 39.818C148.773 40.038 148.553 40.228 148.303 40.358C147.733 40.608 147.063 40.608 146.503 40.358C146.253 40.228 146.023 40.038 145.873 39.818C145.713 39.598 145.583 39.308 145.493 39.058C145.433 38.738 145.393 38.428 145.363 38.108ZM144.453 38.108C144.453 38.548 144.513 38.998 144.643 39.408C144.773 39.788 144.963 40.138 145.243 40.418C145.493 40.708 145.843 40.928 146.193 41.088C147.013 41.408 147.903 41.408 148.693 41.088C149.043 40.928 149.393 40.708 149.643 40.418C149.893 40.128 150.113 39.788 150.243 39.408C150.373 38.998 150.433 38.548 150.433 38.108C150.433 37.668 150.373 37.248 150.243 36.838C150.113 36.458 149.923 36.108 149.643 35.828C149.393 35.538 149.043 35.318 148.693 35.158C147.903 34.838 146.983 34.838 146.193 35.158C145.843 35.318 145.493 35.538 145.243 35.828C144.993 36.118 144.773 36.458 144.643 36.838C144.513 37.248 144.453 37.698 144.453 38.108Z" fill="black"/>
<path fill-rule="evenodd" clip-rule="evenodd" d="M151.603 41.2181H152.493V38.4581H153.033C153.253 38.4581 153.473 38.4881 153.663 38.5581C153.853 38.6881 153.983 38.8481 154.073 39.0681L155.023 41.2281H156.033L154.863 38.7581C154.803 38.5981 154.703 38.4681 154.573 38.3481C154.483 38.2481 154.353 38.1881 154.253 38.1281V38.0981C154.603 38.0381 154.923 37.8781 155.173 37.6181C155.423 37.3681 155.553 37.0481 155.523 36.6981C155.523 36.3781 155.463 36.0981 155.333 35.8081C155.203 35.5881 155.053 35.4281 154.823 35.2981C154.603 35.1681 154.353 35.1081 154.093 35.0781C153.773 35.0481 153.463 35.0181 153.143 35.0181H151.623L151.593 41.2281L151.603 41.2181ZM152.493 35.7981H153.343C153.663 35.7681 154.013 35.8581 154.263 36.0481C154.483 36.2081 154.583 36.4581 154.583 36.7181C154.583 37.0081 154.453 37.2581 154.233 37.4181C153.943 37.6081 153.603 37.7081 153.253 37.6681H152.493V35.7981Z" fill="black"/>
<path fill-rule="evenodd" clip-rule="evenodd" d="M158.163 41.2181H159.053V35.7981H160.983V35.0081H156.263V35.7981H158.163V41.2181Z" fill="black"/>
<path fill-rule="evenodd" clip-rule="evenodd" d="M164.813 35.1281C164.593 35.0281 164.373 34.9981 164.143 34.9681C163.923 34.9381 163.703 34.9081 163.473 34.9081C162.963 34.8781 162.463 35.0381 162.053 35.3481C161.673 35.6381 161.483 36.1081 161.483 36.5881C161.483 36.8081 161.513 37.0281 161.613 37.2181C161.673 37.4081 161.803 37.5681 161.963 37.6981C162.093 37.8281 162.243 37.9181 162.403 38.0181C162.563 38.1181 162.753 38.2081 163.003 38.3381C163.293 38.4681 163.573 38.6281 163.793 38.7781C163.893 38.8781 163.983 38.9681 164.043 39.0981C164.103 39.2281 164.143 39.3481 164.143 39.5081C164.143 39.6681 164.113 39.8281 164.013 39.9481C163.953 40.0781 163.853 40.1681 163.733 40.2681C163.603 40.3681 163.483 40.4281 163.353 40.4581C163.223 40.4881 163.073 40.5181 162.943 40.5181C162.723 40.5181 162.503 40.4881 162.273 40.4181C162.053 40.3581 161.863 40.2881 161.643 40.1981L161.543 41.0181C161.763 41.0781 161.983 41.1481 162.213 41.2081C162.403 41.2681 162.593 41.3081 162.813 41.3081C163.103 41.3081 163.413 41.2781 163.703 41.2081C163.953 41.1481 164.213 41.0481 164.433 40.8881C164.653 40.7281 164.813 40.5381 164.903 40.3181C165.033 40.0681 165.093 39.7781 165.063 39.4981C165.063 39.2481 165.033 38.9881 164.933 38.7681C164.833 38.5781 164.713 38.3881 164.583 38.2281C164.453 38.0981 164.303 37.9781 164.113 37.8781C163.953 37.7781 163.733 37.6881 163.483 37.5581C163.203 37.4281 162.913 37.2681 162.693 37.0781C162.533 36.9481 162.443 36.7281 162.443 36.5081C162.443 36.3781 162.473 36.2181 162.543 36.1281C162.603 36.0281 162.703 35.9381 162.793 35.8781C162.893 35.8181 163.013 35.7781 163.143 35.7481C163.273 35.7181 163.393 35.7181 163.523 35.7181C163.713 35.7181 163.903 35.7181 164.093 35.7781C164.283 35.8381 164.503 35.9081 164.693 35.9681L164.823 35.1081L164.813 35.1281Z" fill="black"/>
<path fill-rule="evenodd" clip-rule="evenodd" d="M33.713 17.568C33.173 17.468 32.603 17.378 32.003 17.318C31.433 17.258 30.863 17.218 30.293 17.218C29.663 17.218 28.993 17.248 28.363 17.348C27.763 17.448 27.193 17.598 26.653 17.858C26.143 18.078 25.733 18.458 25.413 18.908C25.063 19.418 24.903 19.988 24.933 20.588C24.903 21.098 25.033 21.638 25.283 22.078C25.503 22.458 25.793 22.808 26.173 23.028C26.523 23.248 26.903 23.438 27.313 23.568C27.753 23.698 28.233 23.818 28.703 23.888C29.143 23.948 29.593 24.078 30.003 24.238C30.223 24.298 30.413 24.528 30.413 24.748C30.413 24.998 30.253 25.188 29.903 25.288C29.493 25.418 29.053 25.478 28.633 25.448C28.003 25.448 27.393 25.388 26.793 25.258C26.193 25.158 25.623 24.968 25.053 24.748V27.438C25.753 27.598 26.483 27.728 27.173 27.818C27.903 27.918 28.603 27.948 29.323 27.948C29.923 27.948 30.563 27.888 31.163 27.788C31.733 27.688 32.273 27.498 32.783 27.218C33.253 26.968 33.673 26.588 33.953 26.138C34.273 25.628 34.423 25.058 34.393 24.458C34.423 23.948 34.303 23.408 34.043 22.968C33.823 22.588 33.503 22.238 33.153 22.018C32.803 21.798 32.423 21.638 32.013 21.508C31.633 21.408 31.163 21.288 30.583 21.188C30.143 21.128 29.733 20.998 29.313 20.838C29.093 20.778 28.933 20.588 28.933 20.358C28.933 20.198 28.993 20.068 29.093 19.978C29.223 19.878 29.383 19.788 29.533 19.758C29.693 19.728 29.883 19.698 30.073 19.658H30.673C31.213 19.658 31.753 19.688 32.293 19.788C32.803 19.888 33.303 20.008 33.783 20.168L33.683 17.568H33.713Z" fill="black"/>
<path fill-rule="evenodd" clip-rule="evenodd" d="M38.3633 20.0381H34.6533L36.5533 27.8081H41.2733L42.2233 22.5481H42.2533L43.1733 27.8081H47.8633L49.7633 20.0381H46.3433L45.4933 25.1081H45.4633L44.6133 20.0381H40.0833L39.2933 25.1081H39.2633L38.3733 20.0381H38.3633Z" fill="black"/>
<path fill-rule="evenodd" clip-rule="evenodd" d="M50.593 27.8082H54.363V20.0382H50.593V27.8082ZM54.323 16.6182H50.583V19.2182H54.353L54.323 16.6182Z" fill="black"/>
<path fill-rule="evenodd" clip-rule="evenodd" d="M55.4033 27.5579C56.4433 27.8479 57.5533 27.9979 58.6333 27.9979C59.1433 27.9979 59.6133 27.9379 60.1233 27.8679C60.5933 27.7679 61.0733 27.6179 61.5133 27.3879C61.9233 27.1979 62.2733 26.8779 62.5633 26.4979C62.8433 26.1179 62.9733 25.6379 62.9733 25.1679C63.0033 24.4079 62.5933 23.7079 61.9333 23.3579C61.6433 23.1979 61.3033 23.0679 60.9833 23.0079C60.6633 22.9479 60.2833 22.8779 59.8133 22.8179C59.4933 22.7879 59.2133 22.7179 58.8933 22.6579C58.7033 22.5979 58.6033 22.4979 58.6033 22.3679C58.6033 22.1479 58.7633 21.9879 58.9833 21.9579C59.3033 21.8979 59.6133 21.8279 59.9333 21.8579C60.7533 21.8579 61.5833 22.0179 62.3733 22.2979V20.2079C61.4533 20.0179 60.5033 19.8879 59.5533 19.8879C59.0433 19.8879 58.5133 19.9179 58.0033 19.9879C57.5333 20.0479 57.0533 20.1779 56.6133 20.3679C56.2033 20.5279 55.8533 20.8079 55.5633 21.1879C55.0933 21.9179 55.0233 22.8679 55.4333 23.6279C55.6233 23.9179 55.8433 24.1679 56.1633 24.3279C56.4433 24.4879 56.7633 24.6179 57.0833 24.7079C57.4033 24.8079 57.7833 24.8679 58.2233 24.9579C58.5733 25.0179 58.8833 25.0879 59.2033 25.1779C59.4233 25.2379 59.5233 25.3679 59.5233 25.5279C59.5233 25.7179 59.3933 25.8479 59.1133 25.9079C58.7933 26.0079 58.4833 26.0379 58.1633 26.0379C57.6533 26.0379 57.1833 25.9779 56.6733 25.8479C56.2333 25.7479 55.7833 25.5579 55.3733 25.3379L55.4033 27.5279V27.5579Z" fill="black"/>
<path fill-rule="evenodd" clip-rule="evenodd" d="M63.7031 27.5582C64.7831 27.8482 65.8531 27.9982 66.9631 27.9982C67.4731 27.9982 67.9431 27.9382 68.4531 27.8682C68.9231 27.7682 69.4031 27.6182 69.8431 27.3882C70.2531 27.1982 70.6031 26.8782 70.8831 26.4982C71.1631 26.1182 71.2931 25.6382 71.2931 25.1682C71.2931 24.7882 71.2031 24.3782 71.0131 24.0582C70.8231 23.7682 70.5731 23.5182 70.2531 23.3582C69.9631 23.1982 69.6231 23.0682 69.3031 23.0082C68.9831 22.9482 68.6031 22.8782 68.1331 22.8182C67.8131 22.7882 67.5331 22.7182 67.2131 22.6582C67.0231 22.5982 66.9231 22.4982 66.9231 22.3682C66.9231 22.1482 67.0531 21.9882 67.2731 21.9282C67.5931 21.8682 67.9031 21.7982 68.2231 21.8282C69.0431 21.8282 69.8731 21.9882 70.6631 22.2682V20.1782C69.7431 19.9882 68.7931 19.8582 67.8431 19.8582C67.3331 19.8582 66.8031 19.8882 66.2931 19.9582C65.8131 20.0182 65.3431 20.1482 64.9031 20.3382C64.4931 20.4981 64.1431 20.7782 63.8631 21.1582C63.3931 21.8882 63.3231 22.8382 63.7331 23.5982C63.9231 23.8882 64.1431 24.1382 64.4631 24.2982C64.7531 24.4582 65.0631 24.5882 65.3831 24.6782C65.7031 24.7782 66.0831 24.8382 66.5231 24.9282C66.8731 24.9582 67.1831 25.0582 67.5331 25.1182C67.7231 25.1782 67.8531 25.3082 67.8531 25.4682C67.8531 25.6282 67.7231 25.7882 67.4431 25.8482C67.1231 25.9482 66.8131 25.9782 66.4931 25.9782C65.9831 25.9782 65.5131 25.9182 65.0031 25.7882C64.5631 25.6882 64.1131 25.4982 63.7031 25.2782V27.5282V27.5582Z" fill="black"/>
<path fill-rule="evenodd" clip-rule="evenodd" d="M82.3829 27.808V24.288C82.3529 23.498 82.5429 22.668 82.9529 22.008C83.3329 21.438 83.9929 21.118 84.6929 21.148C85.2029 21.148 85.7029 21.398 85.9629 21.848C86.2129 22.258 86.3129 22.958 86.3129 23.878V27.838H87.7029V23.278C87.7029 22.228 87.4829 21.408 87.0029 20.838C86.5229 20.268 85.8329 19.978 84.8529 19.978C84.3129 19.978 83.8129 20.108 83.3329 20.358C82.8929 20.578 82.5429 20.928 82.3229 21.368H82.2929V20.128H80.9629V27.798H82.3929L82.3829 27.808Z" fill="black"/>
<path fill-rule="evenodd" clip-rule="evenodd" d="M94.1329 20.198H92.1029V17.978L90.7129 18.418V20.158H89.0029V21.298H90.7129V25.798C90.6529 26.398 90.8729 27.038 91.3129 27.448C91.7829 27.828 92.4229 28.018 93.0529 27.988C93.2429 27.988 93.4329 27.958 93.6529 27.928C93.8429 27.898 94.0329 27.828 94.2529 27.768V26.568C93.9729 26.758 93.6529 26.858 93.3029 26.818C92.9829 26.818 92.6729 26.688 92.4429 26.468C92.1929 26.178 92.0929 25.838 92.0929 25.458V21.338H94.0829V20.198H94.1129H94.1329Z" fill="black"/>
<path fill-rule="evenodd" clip-rule="evenodd" d="M101.733 26.1279C101.603 26.2279 101.483 26.2879 101.353 26.3779C101.163 26.4779 100.973 26.5679 100.783 26.6279C100.563 26.7279 100.343 26.7879 100.083 26.8179C99.8626 26.8779 99.6426 26.8779 99.3826 26.8779C99.0626 26.8779 98.7526 26.8179 98.4326 26.6879C98.1126 26.5579 97.8626 26.3979 97.6426 26.1479C97.4226 25.9279 97.2326 25.6379 97.1026 25.3279C96.9726 25.0079 96.9126 24.6579 96.9126 24.3179H102.333C102.333 23.7479 102.273 23.1479 102.173 22.5779C102.073 22.0979 101.883 21.6279 101.603 21.2179C101.353 20.8379 100.973 20.5179 100.553 20.3279C100.043 20.1079 99.5126 19.9779 98.9726 20.0079C98.4626 20.0079 97.9926 20.1079 97.5126 20.2979C97.0726 20.4879 96.6926 20.7379 96.3726 21.0879C96.0526 21.4379 95.8026 21.8479 95.6426 22.3279C95.4526 22.8379 95.3926 23.3379 95.3926 23.8779C95.3926 25.1479 95.7126 26.1579 96.3726 26.8879C97.0426 27.6179 98.0226 27.9979 99.3126 27.9979C99.7226 27.9979 100.103 27.9679 100.513 27.8679C100.863 27.7679 101.173 27.6779 101.493 27.5479L101.713 27.4879V26.1279H101.733ZM96.8826 23.3079C96.9126 23.0579 96.9826 22.7979 97.0726 22.5479C97.1626 22.2979 97.2926 22.0679 97.4526 21.8479C97.6126 21.6279 97.8326 21.4679 98.0826 21.3679C98.3726 21.2379 98.6526 21.1779 98.9426 21.1779C99.4826 21.1479 99.9826 21.3679 100.333 21.7779C100.683 22.1879 100.873 22.7279 100.843 23.2979H96.8826V23.3079Z" fill="black"/>
<path fill-rule="evenodd" clip-rule="evenodd" d="M104.173 27.808H105.563V24.358C105.533 23.568 105.723 22.778 106.133 22.078C106.453 21.538 107.023 21.218 107.653 21.258C107.903 21.258 108.193 21.288 108.413 21.388V20.118H108.383C108.223 20.088 108.093 20.058 107.943 20.018C107.783 19.988 107.623 19.988 107.503 19.988C107.093 19.988 106.683 20.118 106.363 20.368C105.983 20.618 105.693 20.968 105.513 21.348H105.483V20.178H104.183V27.818L104.173 27.808Z" fill="black"/>
<path fill-rule="evenodd" clip-rule="evenodd" d="M111.353 27.808V24.288C111.323 23.498 111.513 22.668 111.923 22.008C112.303 21.438 112.973 21.118 113.663 21.148C114.173 21.148 114.673 21.398 114.933 21.848C115.183 22.258 115.283 22.958 115.283 23.878V27.838H116.673V23.278C116.673 22.228 116.453 21.408 115.973 20.838C115.503 20.268 114.803 19.978 113.823 19.978C113.283 19.978 112.783 20.108 112.303 20.358C111.863 20.578 111.513 20.928 111.323 21.368H111.293V20.128H109.933V27.798H111.353V27.808Z" fill="black"/>
<path fill-rule="evenodd" clip-rule="evenodd" d="M119.523 21.948C119.803 21.698 120.153 21.508 120.533 21.378C120.913 21.248 121.323 21.158 121.733 21.158C122.433 21.158 122.903 21.318 123.193 21.638C123.513 22.078 123.663 22.588 123.603 23.128C123.323 23.098 123.093 23.098 122.903 23.098H122.113C121.703 23.098 121.323 23.128 120.913 23.228C120.503 23.328 120.123 23.448 119.773 23.668C119.423 23.858 119.143 24.108 118.913 24.458C118.693 24.808 118.593 25.218 118.593 25.628C118.533 26.328 118.813 26.958 119.353 27.408C119.953 27.818 120.653 28.038 121.383 28.008C121.893 28.038 122.393 27.908 122.813 27.658C123.163 27.468 123.483 27.178 123.733 26.838H123.763V27.818H125.063C125.033 27.628 125.033 27.468 125.033 27.278V26.328V23.158C125.033 22.108 124.783 21.318 124.303 20.778C123.833 20.238 123.033 19.988 121.963 19.988C121.073 19.988 120.223 20.238 119.463 20.688L119.523 21.958V21.948ZM123.613 24.858C123.643 25.398 123.423 25.908 123.073 26.288C122.663 26.668 122.093 26.888 121.493 26.858C121.143 26.858 120.793 26.728 120.513 26.508C120.003 26.098 119.913 25.368 120.323 24.858L120.353 24.828C120.543 24.638 120.793 24.478 121.053 24.388C121.303 24.288 121.593 24.228 121.873 24.198C122.163 24.168 122.413 24.168 122.693 24.168H123.133C123.323 24.168 123.483 24.168 123.573 24.168L123.603 24.868L123.613 24.858Z" fill="black"/>
<path fill-rule="evenodd" clip-rule="evenodd" d="M131.403 20.198H129.403V17.978L128.013 18.458V20.198H126.303V21.338H128.013V25.808C127.953 26.408 128.173 27.048 128.613 27.458C129.083 27.838 129.723 28.028 130.353 27.998C130.543 27.998 130.733 27.968 130.953 27.938C131.143 27.908 131.333 27.838 131.553 27.778V26.578C131.263 26.768 130.953 26.868 130.603 26.828C130.283 26.828 129.973 26.698 129.753 26.478C129.503 26.188 129.403 25.848 129.403 25.468V21.348H131.433L131.403 20.208V20.198Z" fill="black"/>
<path fill-rule="evenodd" clip-rule="evenodd" d="M133.362 27.808H134.752V20.198H133.362V27.808ZM134.852 16.938H133.272V18.518H134.852V16.938Z" fill="black"/>
<path fill-rule="evenodd" clip-rule="evenodd" d="M136.812 24.0081C136.812 24.5181 136.913 25.0581 137.103 25.5281C137.293 26.0081 137.543 26.4481 137.893 26.8281C138.243 27.2081 138.653 27.4981 139.133 27.7181C140.113 28.1281 141.252 28.1281 142.232 27.7181C142.702 27.5281 143.123 27.2381 143.473 26.8581C143.823 26.4781 144.072 26.0681 144.262 25.5881C144.452 25.1081 144.553 24.5781 144.553 24.0681C144.553 23.5281 144.452 22.9881 144.262 22.4881C144.072 22.0081 143.823 21.5681 143.473 21.2181C143.123 20.8381 142.712 20.5481 142.232 20.3581C141.722 20.1681 141.182 20.0681 140.652 20.0681C140.122 20.0681 139.573 20.1681 139.073 20.3581C138.593 20.5481 138.182 20.8381 137.842 21.1781C137.492 21.5281 137.243 21.9681 137.053 22.4481C136.893 22.9281 136.803 23.4581 136.833 23.9981L136.812 24.0081ZM138.273 24.0081C138.273 23.6581 138.332 23.3081 138.432 22.9581C138.532 22.6381 138.682 22.3281 138.902 22.0381C139.092 21.7881 139.373 21.5581 139.663 21.4081C140.293 21.0881 141.022 21.0881 141.622 21.4081C141.902 21.5681 142.163 21.7881 142.383 22.0381C142.603 22.3281 142.763 22.6381 142.863 22.9581C142.953 23.3081 143.023 23.6581 143.023 24.0081C143.023 24.3581 142.963 24.7081 142.863 25.0181C142.763 25.3381 142.613 25.6481 142.423 25.9381C142.233 26.2281 141.983 26.4481 141.663 26.6081C141.343 26.7681 140.963 26.8581 140.613 26.8581C140.233 26.8581 139.883 26.7981 139.573 26.6081C139.283 26.4481 139.003 26.2281 138.812 25.9381C138.622 25.6481 138.462 25.3381 138.402 25.0181C138.372 24.6981 138.303 24.3481 138.273 24.0081Z" fill="black"/>
<path fill-rule="evenodd" clip-rule="evenodd" d="M146.443 27.808H147.833V24.288C147.803 23.498 147.993 22.668 148.403 22.008C148.783 21.438 149.443 21.118 150.143 21.148C150.653 21.148 151.123 21.398 151.413 21.848C151.663 22.258 151.763 22.958 151.763 23.878V27.838H153.153V23.278C153.153 22.228 152.933 21.408 152.453 20.838C151.983 20.268 151.283 19.978 150.303 19.978C149.793 19.978 149.253 20.108 148.813 20.358C148.373 20.578 148.023 20.928 147.803 21.368H147.773V20.128H146.413L146.443 27.798V27.808Z" fill="black"/>
<path fill-rule="evenodd" clip-rule="evenodd" d="M155.973 21.948C156.253 21.698 156.603 21.508 156.983 21.378C157.363 21.248 157.773 21.158 158.183 21.158C158.883 21.158 159.353 21.318 159.643 21.638C159.963 22.078 160.113 22.588 160.053 23.128C159.763 23.098 159.543 23.098 159.353 23.098H158.563C158.153 23.098 157.773 23.128 157.363 23.228C156.953 23.328 156.573 23.448 156.223 23.638C155.873 23.828 155.593 24.078 155.373 24.428C155.153 24.778 155.053 25.188 155.053 25.598C154.993 26.298 155.273 26.928 155.813 27.378C156.413 27.788 157.113 28.008 157.843 27.978C158.353 28.008 158.853 27.878 159.263 27.628C159.613 27.438 159.933 27.148 160.183 26.808H160.213V27.788H161.513C161.483 27.598 161.483 27.438 161.483 27.248V26.298V23.128C161.483 22.078 161.233 21.288 160.753 20.748C160.283 20.238 159.483 19.958 158.413 19.958C157.523 19.958 156.673 20.208 155.913 20.658L155.973 21.958V21.948ZM160.063 24.858C160.093 25.398 159.873 25.908 159.523 26.288C159.113 26.668 158.543 26.888 157.943 26.858C157.593 26.858 157.243 26.728 156.963 26.508C156.673 26.288 156.523 25.968 156.523 25.618C156.523 25.328 156.623 25.078 156.803 24.858C156.993 24.668 157.243 24.508 157.503 24.418C157.793 24.318 158.043 24.258 158.323 24.228C158.603 24.198 158.863 24.198 159.143 24.198H159.583C159.773 24.198 159.933 24.198 160.023 24.198L160.053 24.868L160.063 24.858Z" fill="black"/>
<path fill-rule="evenodd" clip-rule="evenodd" d="M49.6428 38.938C34.0028 35.098 25.3828 38.148 25.3828 38.148C25.3828 38.148 31.8428 33.588 52.7728 37.288C67.4328 39.888 79.5928 34.178 79.5928 34.178C79.5928 34.178 65.6228 42.868 49.6328 38.928L49.6428 38.938Z" fill="#DC2C27"/>
<path d="M78.4525 17.408H77.0225V27.998H78.4525V17.408Z" fill="black"/>
<path d="M164.843 17.408H163.423V27.998H164.843V17.408Z" fill="black"/>
</svg>
