<svg width="190" height="58" viewBox="0 0 190 58" fill="none" xmlns="http://www.w3.org/2000/svg">
<path d="M72.3109 40.5842L71.9769 42.3109H69.5085L68.0794 49.8374H66.1028L67.5319 42.3109H65.082L65.4254 40.5842H72.3109ZM73.4245 40.5842L71.6706 49.8476H73.6472L74.371 45.9472H77.7396L77.0065 49.8476H78.9831L80.7369 40.5842H78.7418L78.0551 44.1799H74.7051L75.3918 40.5842H73.4245ZM82.5279 40.5842L81.5536 45.7542C81.47 46.191 81.4144 46.6481 81.4144 47.0442C81.4144 49.0045 82.5836 50.0101 84.486 49.9999C87.01 49.9999 88.235 48.649 88.7732 45.8456L89.7754 40.5842H87.7988L86.7873 45.9269C86.4625 47.6435 85.7851 48.3341 84.7458 48.3341C83.8642 48.3341 83.4002 47.7552 83.4002 47.0036C83.4002 46.6074 83.4373 46.2316 83.5116 45.9066L84.5138 40.5842H82.5279ZM99.4634 49.8374L100.716 40.5741H98.0344L96.3176 44.0885C95.9186 44.9213 95.4268 46.0183 95.0649 47.0442H95.0092C94.9999 46.0183 94.8978 44.9721 94.8421 44.0986L94.5545 40.5639H91.9097L89.5898 49.8273H91.4086L92.3273 46.0082C92.5593 45.0128 92.8377 43.6212 93.0976 42.3922H93.1254C93.1811 43.6314 93.246 44.9112 93.3295 45.9269L93.6636 49.6749H95.204L97.0878 45.8964C97.5982 44.8807 98.1736 43.6009 98.6839 42.4024H98.7211C98.4612 43.7329 98.2571 45.0128 98.1086 46.0183L97.5425 49.8374H99.4634ZM101.097 49.746C101.551 49.8374 102.387 49.9085 103.435 49.9085C104.976 49.9085 106.145 49.6851 106.924 49.1569C107.648 48.6795 108.186 47.9583 108.186 46.9528C108.186 45.9371 107.62 45.2057 106.729 44.9315V44.8909C107.741 44.5963 108.595 43.8751 108.595 42.7071C108.595 41.925 108.14 41.3257 107.528 41.0108C106.906 40.6553 106.21 40.5334 105.235 40.5334C104.326 40.5334 103.463 40.6147 102.804 40.7569L101.097 49.746ZM103.788 45.7034H104.41C105.328 45.7034 106.098 45.9777 106.098 46.902C106.098 47.9279 105.124 48.3545 104.048 48.3545C103.76 48.3545 103.528 48.3545 103.287 48.324L103.788 45.7034ZM104.502 42.118C104.651 42.0976 104.938 42.0672 105.282 42.0672C106.043 42.0672 106.572 42.3516 106.572 43.0118C106.572 43.8142 105.829 44.2611 104.744 44.2611H104.085L104.502 42.118ZM114.255 47.4403L114.45 49.8476H116.52L115.452 40.5842H112.91L108.391 49.8476H110.506L111.592 47.4403H114.255ZM112.177 45.9269L113.086 43.9361C113.337 43.3978 113.596 42.6868 113.828 42.118H113.866C113.903 42.6766 113.949 43.4282 113.986 43.9361L114.163 45.9269H112.177ZM120.204 49.8374L120.918 46.0183L124.918 40.5741H122.561L121.178 42.9102C120.788 43.5806 120.501 44.1088 120.231 44.6065H120.204C120.12 44.1392 120.027 43.6923 119.842 42.9305L119.257 40.5842H117.141L118.951 46.0691L118.236 49.8476H120.204V49.8374ZM98.2942 9.52358C98.1179 9.52358 97.9601 9.44232 97.8395 9.30012C97.7096 9.14776 97.6446 8.97509 97.6446 8.76179C97.6446 8.54849 97.7096 8.37582 97.8395 8.22346C97.9694 8.0711 98.1179 8 98.2942 8C98.4798 8 98.6283 8.0711 98.7582 8.22346C98.8881 8.37582 98.9531 8.55864 98.9531 8.76179C98.9531 8.96493 98.8881 9.14776 98.7582 9.30012C98.6283 9.44232 98.4705 9.52358 98.2942 9.52358ZM98.4427 10.3869C98.4427 10.1736 98.5076 9.99081 98.6283 9.84861C98.7582 9.69625 98.9067 9.62515 99.083 9.62515C99.2686 9.62515 99.417 9.69625 99.547 9.84861C99.6769 10.001 99.7326 10.1838 99.7326 10.3869C99.7326 10.5901 99.6676 10.7729 99.547 10.9151C99.417 11.0675 99.2686 11.1386 99.083 11.1386C98.9067 11.1386 98.7582 11.0675 98.6283 10.9151C98.5076 10.7628 98.4427 10.5901 98.4427 10.3869ZM97.4961 11.1386C97.3198 11.1386 97.1714 11.0675 97.0414 10.9151C96.9115 10.7628 96.8466 10.5901 96.8466 10.3869C96.8466 10.1736 96.9115 9.99081 97.0414 9.84861C97.1714 9.69625 97.3198 9.62515 97.4961 9.62515C97.6817 9.62515 97.8302 9.69625 97.9601 9.84861C98.09 10.001 98.155 10.1838 98.155 10.3869C98.155 10.5901 98.09 10.7729 97.9601 10.9151C97.8395 11.0675 97.6817 11.1386 97.4961 11.1386ZM102.823 12.4793C102.999 12.652 103.676 12.7637 103.862 12.8348V20.4324H95.6959V24.5359C95.7237 26.3032 93.5151 27.583 92.1232 27.583C91.4643 27.583 90.6941 27.4002 89.794 27.0244C90.9261 26.9634 93.543 25.8563 93.8585 24.6781L93.8492 20.4222H89.6826V15.0389C89.8218 13.6068 90.5642 12.8043 91.9005 12.6215L93.6265 12.6317C94.5081 12.2762 95.1113 11.5042 95.4453 10.2854L95.6866 9.58452V18.7057H102.006V9.58452L102.294 10.3362C102.684 11.362 102.414 12.073 102.823 12.4793ZM93.942 14.5108L92.7449 14.5311C91.9469 14.5006 91.5014 14.7952 91.4179 15.4046V18.472H93.942V14.5108ZM106.785 26.1407C107.862 26.2829 108.456 26.933 108.567 28.0807V32.428H91.6406L90.1466 30.4067L86.6203 25.8563C86.2027 25.4094 85.7666 25.3383 85.3119 25.6329C84.6994 25.968 84.8107 26.6181 85.6366 27.583C86.1285 28.2534 86.6296 28.9136 87.14 29.5738C87.7246 30.3559 88.2442 31.0365 88.7175 31.6053C89.1351 32.4179 89.1351 33.2812 88.7082 34.2055C87.8174 35.4853 86.6481 36.1252 85.2005 36.1252C84.9778 36.1252 84.7551 36.1151 84.5138 36.0948C83.5116 35.9526 82.6207 35.3736 81.8412 34.3477C81.4236 33.5961 81.2102 32.7327 81.2102 31.7576C81.2102 30.7013 81.3865 29.6043 81.7392 28.4566C81.8691 28.1823 81.9711 27.9792 82.0547 27.837C81.9711 28.5277 81.9433 29.1066 81.9433 29.5738C81.9433 30.9857 82.1753 32.0624 82.6393 32.8241C83.094 33.4844 83.8735 33.911 84.9871 34.1039C85.3397 34.1446 85.6923 34.1243 86.0542 34.0227C86.6574 33.85 87.0657 33.525 87.2513 33.0374C87.2049 32.5702 87.0472 32.1842 86.7781 31.8694L83.79 28.0198C83.2332 27.3088 83.0569 26.5368 83.261 25.7141C83.5301 24.8406 84.0498 24.2515 84.82 23.9468C85.1541 23.7843 85.5067 23.703 85.8779 23.703C86.7038 23.703 87.3998 24.0585 87.9659 24.7492L92.3273 30.5388H97.988V23.703L98.2107 24.3124C98.5169 25.1352 98.8417 25.704 99.1572 26.029C99.2964 26.1712 99.4449 26.2626 99.5934 26.3134V30.5489H103.741V23.703L103.936 24.2616C104.205 25.2367 104.697 25.8665 105.402 26.1407H106.785ZM106.952 28.6191C106.897 28.2839 106.618 28.1315 106.108 28.1518L105.347 28.1417V30.5489H106.952V28.6191ZM99.9182 34.4391C100.122 34.4391 100.299 34.5204 100.438 34.6931C100.577 34.8556 100.651 35.0587 100.651 35.2923C100.651 35.5361 100.577 35.7291 100.438 35.8916C100.299 36.0541 100.122 36.1354 99.9182 36.1354C99.7233 36.1354 99.5562 36.0541 99.417 35.8916C99.2686 35.7291 99.2036 35.526 99.2036 35.2923C99.2036 35.0587 99.2686 34.8556 99.417 34.6931C99.547 34.5305 99.7233 34.4391 99.9182 34.4391ZM86.1099 36.6534C86.3141 36.6534 86.4811 36.7347 86.6203 36.8972C86.7595 37.0597 86.8337 37.2628 86.8337 37.4964C86.8337 37.7199 86.7595 37.923 86.6203 38.0856C86.4811 38.2481 86.3141 38.3293 86.1099 38.3293C85.915 38.3293 85.748 38.2481 85.6088 38.0856C85.4696 37.923 85.4046 37.7199 85.4046 37.4964C85.4046 37.2628 85.4696 37.0597 85.6088 36.8972C85.748 36.7448 85.915 36.6534 86.1099 36.6534ZM84.356 36.6534C84.5509 36.6534 84.7272 36.7347 84.8664 36.8972C85.0056 37.0597 85.0799 37.2628 85.0799 37.4964C85.0799 37.7199 85.0056 37.923 84.8664 38.0856C84.7272 38.2481 84.5509 38.3293 84.356 38.3293C84.1612 38.3293 83.9849 38.2481 83.8457 38.0856C83.7065 37.923 83.6322 37.7199 83.6322 37.4964C83.6322 37.2628 83.7065 37.0597 83.8457 36.8972C83.9941 36.7448 84.1612 36.6534 84.356 36.6534Z" fill="#E60012"/>
</svg>
