<svg width="190" height="58" viewBox="0 0 190 58" fill="none" xmlns="http://www.w3.org/2000/svg">
<path d="M62.3604 23.3701C62.2694 23.4715 62.1212 23.4013 62.0068 23.4117C62.1004 23.3389 62.2434 23.3727 62.3604 23.3701Z" fill="#7FBD41"/>
<path d="M81.0279 25.7074H80.9785L80.9889 25.3564C81.0617 25.4448 81.0279 25.5878 81.0305 25.7074H81.0279Z" fill="#7FBD41"/>
<path d="M66.7362 23.4117C66.6582 23.4039 66.5386 23.4663 66.4814 23.3675C66.5672 23.3675 66.6738 23.3415 66.7362 23.4117Z" fill="#7FBD41"/>
<path d="M80.9837 26.2663L80.9785 25.7099C80.9915 25.6657 81.0071 25.6657 81.0279 25.7099V26.1727C81.0331 26.2273 81.0123 26.2637 80.9837 26.2689V26.2663Z" fill="#7FBD41"/>
<path d="M63.4285 23.3205C63.5637 23.2737 63.7587 23.2763 63.8887 23.3205C64.2319 23.2789 64.6531 23.2815 65.0067 23.3205C65.1185 23.2685 65.2849 23.2893 65.4123 23.3205C65.6125 23.3205 65.8075 23.3595 66.0285 23.3621L66.4809 23.3699L66.7357 23.4141C69.0861 23.6481 71.4599 24.2123 73.5919 25.3147C74.5643 25.8191 75.4509 26.3859 76.2751 27.1113L77.5751 28.3983L77.9209 28.8195C78.2069 29.1679 78.3759 29.5553 78.2381 30.0207C78.1289 30.3821 77.8299 30.6421 77.4009 30.7903C76.8913 30.9671 76.3687 31.1387 75.8383 31.1413C75.4067 31.1075 74.9465 31.1049 74.5175 31.1517L74.1639 31.0971L73.9091 31.0477C73.7271 31.0659 73.5451 31.0425 73.3475 30.9983L70.8437 30.4471L65.5553 29.0301C63.9797 28.6089 62.4223 28.3359 60.8389 28.1643C60.7401 28.1149 60.6361 28.1097 60.5321 28.1461C60.4697 28.1461 60.3865 28.1253 60.3319 28.0915C60.2149 28.0603 60.0901 28.0525 59.9731 28.0941L59.6221 28.0317C59.4453 28.0317 59.2737 28.0213 59.1073 27.9953C58.9669 28.0395 58.7511 28.0369 58.5977 27.9953H57.9867C57.8333 28.0395 57.6227 28.0369 57.4771 27.9953C57.3133 28.0135 57.1417 28.0239 56.9649 28.0317C56.7465 28.1071 56.5177 28.0889 56.2655 28.1149C54.0893 28.3359 51.9885 28.8897 50.0229 29.8387L49.2611 30.2079L48.5981 30.5589L47.8103 31.0321L47.3423 31.3363C46.9783 31.5729 46.6351 31.7991 46.2945 32.0617L45.3403 32.8027L45.0231 33.0653C44.8853 33.1797 44.8047 33.2239 44.6799 33.3695C44.5967 33.4683 44.3523 33.5073 44.3263 33.7049C44.3211 33.7361 44.2483 33.7517 44.2301 33.7413C44.2119 33.7309 44.1781 33.6711 44.1989 33.6347L44.5681 32.9769C46.3231 29.8569 49.4951 27.4519 52.7191 25.9257C55.6545 24.5373 58.8057 23.7027 62.0089 23.4115L62.3625 23.3699H62.6693C62.8201 23.3491 62.9735 23.3361 63.1321 23.3283C63.2127 23.2919 63.3427 23.3205 63.4311 23.3205H63.4285Z" fill="#7FBD41"/>
<path d="M75.8384 31.1388L74.5176 31.1492C74.5228 31.1154 74.5618 31.0972 74.6164 31.0972H75.7422C75.7968 31.0972 75.8358 31.1154 75.8384 31.1414V31.1388Z" fill="#7FBD41"/>
<path d="M65.0066 23.2686C65.0508 23.2842 65.0482 23.2998 65.0066 23.318H63.8886C63.8444 23.305 63.8444 23.2868 63.8886 23.2686H65.0092H65.0066Z" fill="#7FBD41"/>
<path d="M57.477 27.9979C57.5212 28.0109 57.5212 28.0291 57.477 28.0473L56.9648 28.0317C57.1286 27.9745 57.3002 27.9979 57.477 27.9953V27.9979Z" fill="#7FBD41"/>
<path d="M57.9865 27.9954C57.9813 28.0292 57.9423 28.05 57.8903 28.05H57.4795V27.998H57.9891L57.9865 27.9954Z" fill="#7FBD41"/>
<path d="M59.1047 27.998C59.1489 28.0136 59.1489 28.0292 59.1047 28.0474H58.6939C58.6393 28.05 58.6029 28.0318 58.5977 27.9954H59.1073L59.1047 27.998Z" fill="#7FBD41"/>
<path d="M59.6193 28.0318L59.1045 28.0448V27.9954C59.2839 27.9954 59.4477 28.0006 59.6193 28.0318Z" fill="#7FBD41"/>
<path d="M63.8863 23.2684V23.3204H63.4287C63.4365 23.284 63.4729 23.2632 63.5275 23.2658H63.8863V23.2684Z" fill="#7FBD41"/>
<path d="M63.1298 23.3309C62.9842 23.3959 62.8282 23.3699 62.667 23.3699C62.6722 23.3361 62.7112 23.3179 62.7632 23.3179L63.1272 23.3309H63.1298Z" fill="#7FBD41"/>
<path d="M65.4124 23.3179H65.0068V23.2685C65.142 23.2685 65.3006 23.2347 65.4124 23.3179Z" fill="#7FBD41"/>
<path d="M60.3295 28.0916H59.9707C60.0695 28.011 60.2255 28.0266 60.3295 28.0916Z" fill="#7FBD41"/>
<path d="M60.8361 28.1617L60.5293 28.1435C60.5995 28.0655 60.7659 28.0603 60.8361 28.1617Z" fill="#7FBD41"/>
<path d="M74.164 31.0944C74.0782 31.0814 73.969 31.1204 73.9092 31.045C73.995 31.0372 74.1016 31.0268 74.164 31.0944Z" fill="#7FBD41"/>
<path d="M42.1664 30.5226C42.1664 30.611 42.1872 30.689 42.2314 30.7592C42.2496 30.9672 42.1664 30.9854 42.0728 31.1024C41.9792 31.2194 41.8986 31.3546 41.7816 31.4716C41.636 31.6172 41.493 31.7134 41.3396 31.8382C40.6298 32.418 39.7588 32.8314 38.841 32.8288C38.5966 32.8652 38.3444 32.8678 38.1026 32.8288C36.891 32.8236 35.4558 32.1216 34.5536 31.2454C34.044 30.7514 33.6332 30.2522 33.3342 29.6074C33.1028 29.1056 32.913 28.5804 32.913 28.0188C32.874 27.777 32.8714 27.5248 32.913 27.283C32.913 26.9996 32.9676 26.7084 33.069 26.4016L33.6436 26.7084C34.1402 26.9736 34.6966 27.0438 35.2608 27.127L37.827 27.5066C38.9372 27.6704 40.3828 28.0448 41.194 28.765C41.727 29.2382 42.0754 29.818 42.1716 30.52L42.1664 30.5226Z" fill="#7FBD41"/>
<path d="M38.838 32.8289C38.6378 32.9043 38.2712 32.9043 38.0996 32.8289H38.838Z" fill="#7FBD41"/>
<path d="M32.9101 28.0188C32.8321 27.8238 32.8321 27.4572 32.9101 27.283V28.0188Z" fill="#7FBD41"/>
<path d="M42.2313 30.7593C42.1481 30.7359 42.1585 30.6241 42.1663 30.5227C42.1741 30.5877 42.2261 30.6917 42.2313 30.7593Z" fill="#7FBD41"/>
<path d="M85.5552 29.3683C85.4616 29.3995 85.3342 29.4177 85.251 29.3683C85.16 29.4099 84.991 29.4073 84.8948 29.3683C84.8272 29.4203 84.6816 29.3969 84.5906 29.3683H84.3358L84.0784 29.3267C83.1736 29.2357 82.3078 28.9029 81.5018 28.4505C81.2184 27.7199 81.0598 27.0075 80.9844 26.2665C81 26.0767 81.0156 25.8921 81.0286 25.7075C81.013 25.6009 81 25.4839 80.987 25.3565C81.2964 21.1523 85.5422 18.4249 89.5176 18.1727C89.9908 18.1493 90.4666 18.1441 90.945 18.1545C93.2434 18.3781 95.183 19.1477 96.8054 20.8611C97.003 21.0717 97.1954 21.2329 97.3722 21.5137C96.8912 21.6333 96.4726 21.8517 96.0592 22.1325L95.5756 22.4601C95.5028 22.5095 95.3858 22.6135 95.326 22.6603L95.0166 22.9073C94.8216 23.1309 94.6656 23.2895 94.4238 23.4507C93.9246 23.7835 93.7634 24.3503 93.2018 24.6675C93.1212 24.9119 92.9548 25.0757 92.7234 25.1953C92.6662 25.4137 92.5258 25.5749 92.3126 25.6555C92.284 25.8635 92.1358 25.9311 92.0084 26.0611L91.4052 26.6695C91.2674 26.8099 91.1374 26.8957 91.0256 26.9971L90.8072 27.1973L90.1624 27.6731C88.9352 28.5753 87.0476 29.3631 85.5552 29.3683Z" fill="#7FBD41"/>
<path d="M90.9479 18.157L89.5205 18.1752C89.5205 18.1752 89.5413 18.1362 89.5777 18.1362L90.9479 18.157Z" fill="#7FBD41"/>
<path d="M85.2513 29.3708C85.2955 29.3838 85.2955 29.3994 85.2513 29.4202H84.8925C84.8483 29.4046 84.8509 29.3864 84.8925 29.3682H85.2487L85.2513 29.3708Z" fill="#7FBD41"/>
<path d="M84.895 29.3682V29.4202C84.791 29.4202 84.6662 29.4488 84.5908 29.3708H84.895V29.3682Z" fill="#7FBD41"/>
<path d="M85.5552 29.3682C85.4798 29.4488 85.3524 29.4202 85.251 29.4202V29.3708H85.5552V29.3682Z" fill="#7FBD41"/>
<path d="M84.3355 29.3683C84.2497 29.3683 84.1405 29.3943 84.0781 29.3267C84.1587 29.3345 84.2783 29.2721 84.3355 29.3683Z" fill="#7FBD41"/>
<path d="M43.7445 16.1005C43.8667 16.0563 44.0019 16.0615 44.1293 16.0927C47.4417 16.3007 50.4525 18.5549 51.6095 21.6671C51.7603 22.0753 51.7837 22.4835 51.4509 22.7929C51.2481 22.9827 51.0453 23.1647 50.7879 23.2973L49.0095 24.2047C48.7235 24.3503 48.4817 24.5063 48.2399 24.7039C48.0917 24.8261 47.9669 24.8729 47.8707 25.0757C47.8161 25.1927 47.6835 25.3253 47.6107 25.4553C47.4911 25.6659 47.2597 25.7985 47.0361 25.8141L46.7189 25.7673C46.5343 25.7153 46.3861 25.5879 46.2301 25.4501C44.6753 24.0825 43.9993 21.8569 43.4091 19.8913C43.0321 18.7265 42.7175 17.4655 41.9531 16.5061C42.3847 16.3163 42.7981 16.1733 43.2583 16.1473L43.5417 16.0953H43.7445V16.1005Z" fill="#7FBD41"/>
<path d="M44.1289 16.0927L43.7441 16.1005C43.8325 16.0199 44.0093 16.0199 44.1289 16.0927Z" fill="#7FBD41"/>
<path d="M43.5422 16.1004C43.472 16.1758 43.3654 16.1472 43.2588 16.1524C43.3134 16.0744 43.4408 16.0952 43.5422 16.1004Z" fill="#7FBD41"/>
<path d="M47.0389 25.8167C46.9089 25.8271 46.8335 25.8011 46.7217 25.7699C46.8491 25.7543 46.9765 25.7335 47.0389 25.8167Z" fill="#7FBD41"/>
<path d="M78.5897 10.0555L78.6391 10.3025C78.6573 10.7757 78.7691 11.2307 78.8575 11.7143L78.9745 12.3643L79.0681 12.7855L79.1747 13.2847C79.3541 14.1297 79.5543 14.9487 79.4997 15.7937C79.4633 15.8951 79.4633 16.0017 79.5049 16.1005L79.4295 16.4931C79.3151 17.0937 79.1409 17.6813 78.8939 18.2507L78.3687 19.1867L77.9293 19.7613C77.8513 19.8627 77.7369 19.8887 77.6849 20.0447C77.6511 20.1461 77.4717 20.3099 77.3703 20.3619C77.1311 20.4867 76.6033 21.2355 75.0823 21.6489C74.7313 21.7451 74.4063 21.8673 74.0605 21.8439L73.8057 21.8933H73.5509C73.3169 21.9401 73.0257 21.9401 72.7891 21.8933L72.2899 21.8777C71.0471 21.7113 69.9031 21.2043 68.9619 20.3853C69.5547 19.9849 70.0175 19.5195 70.4127 18.9553L72.3159 16.2357L73.6185 14.2805C74.2477 13.3367 75.3319 11.9275 76.1483 11.2125C76.8035 10.6379 77.5159 10.1595 78.3973 10.0295C78.4519 10.0217 78.5481 10.0321 78.5897 10.0503V10.0555Z" fill="#7FBD41"/>
<path d="M73.5505 21.896C73.5453 21.9298 73.5063 21.9506 73.4517 21.9506H72.8849C72.8303 21.9506 72.7913 21.9298 72.7861 21.896H73.5479H73.5505Z" fill="#7FBD41"/>
<path d="M79.5025 16.1005C79.4219 16.0277 79.4245 15.8639 79.4973 15.7937L79.5025 16.1005Z" fill="#7FBD41"/>
<path d="M78.6396 10.3024C78.5668 10.2478 78.5798 10.136 78.5902 10.0554C78.6786 10.0918 78.637 10.2296 78.6396 10.3024Z" fill="#7FBD41"/>
<path d="M74.0605 21.8438C74.0007 21.9192 73.8915 21.8932 73.8057 21.8932C73.8681 21.823 73.9721 21.8386 74.0605 21.8438Z" fill="#7FBD41"/>
<path d="M64.1438 14.5249C64.1724 14.6029 64.1906 14.7147 64.1386 14.7797C64.1854 14.9981 64.1802 15.3101 64.1386 15.5415C64.1932 15.6039 64.1672 15.7677 64.1386 15.8665V16.0693C64.0944 16.1499 64.1074 16.2409 64.1386 16.3241C64.1386 16.4801 64.0008 16.6101 64.0762 16.8467C63.9904 16.9403 64.019 17.0547 64.0008 17.1561L63.85 17.9439L63.434 19.6547C63.3196 19.6651 63.2416 19.6391 63.1662 19.5949C63.0778 19.5897 62.9946 19.5767 62.9192 19.5559C62.8542 19.6105 62.706 19.5845 62.615 19.5559H62.2588C62.1756 19.5845 62.056 19.6053 61.991 19.5507C61.9156 19.5871 61.8298 19.6053 61.7362 19.6105C60.431 19.8081 59.1986 20.4503 58.3978 20.4217C58.2444 20.3775 58.0832 20.3775 57.9272 20.4061C57.6256 20.3957 57.3552 20.2917 57.0796 20.1643C56.7286 19.5299 56.4374 18.8825 56.375 18.1805C56.4114 17.8477 56.4062 17.4889 56.3776 17.1535C56.4816 16.2695 56.778 15.4505 57.129 14.6341C57.87 12.9181 58.3276 11.8339 58.494 9.89949L58.5486 9.27029C58.5668 9.01809 58.5824 8.76849 58.598 8.52409C58.5616 8.44349 58.559 8.35249 58.5902 8.24589C58.6084 8.19129 58.6266 8.14709 58.6734 8.16529L58.7722 8.20169C61.1044 8.89069 63.031 10.2583 63.8032 12.6269C64.0086 13.2535 64.1568 13.8853 64.1464 14.5223L64.1438 14.5249Z" fill="#7FBD41"/>
<path d="M56.375 18.1806V17.1536C56.3932 17.1718 56.414 17.2108 56.414 17.2654V18.087C56.414 18.1416 56.3932 18.1806 56.375 18.1806Z" fill="#7FBD41"/>
<path d="M58.5482 9.27299L58.543 8.50599C58.556 8.41499 58.5742 8.42279 58.5976 8.52679V9.19239C58.6002 9.24699 58.5794 9.28339 58.5482 9.27299Z" fill="#7FBD41"/>
<path d="M64.1936 15.544C64.178 15.5882 64.1598 15.5856 64.1416 15.544V14.7822C64.1546 14.738 64.1728 14.738 64.1936 14.7822V15.5466V15.544Z" fill="#7FBD41"/>
<path d="M58.3954 20.4244L57.9248 20.4088C58.0626 20.3464 58.2654 20.3464 58.3954 20.4244Z" fill="#7FBD41"/>
<path d="M62.9214 19.5559C62.9656 19.5715 62.963 19.5897 62.9214 19.6079C62.82 19.6079 62.6952 19.6365 62.6172 19.5559H62.9214Z" fill="#7FBD41"/>
<path d="M64.1416 15.8665V15.5415H64.1936C64.1936 15.6429 64.2248 15.7677 64.1416 15.8665Z" fill="#7FBD41"/>
<path d="M58.5976 8.52674L58.543 8.50593C58.543 8.40193 58.556 8.34214 58.5898 8.24854L58.5976 8.52674Z" fill="#7FBD41"/>
<path d="M64.1415 16.3241C64.0635 16.2539 64.0635 16.1031 64.1415 16.0693V16.3241Z" fill="#7FBD41"/>
<path d="M64.1936 14.7771H64.1416L64.1468 14.5249C64.2196 14.5847 64.1936 14.6939 64.1936 14.7771Z" fill="#7FBD41"/>
<path d="M62.2592 19.556C62.1994 19.6314 62.0928 19.608 62.007 19.608C61.929 19.608 61.9238 19.5898 61.9914 19.5508L62.2592 19.556Z" fill="#7FBD41"/>
<path d="M61.9911 19.5506L62.0067 19.6078H61.7363C61.8117 19.6 61.8715 19.548 61.9911 19.5506Z" fill="#7FBD41"/>
<path d="M63.1659 19.5949L62.9189 19.6079V19.5559C63.0021 19.5559 63.0827 19.5429 63.1659 19.5949Z" fill="#7FBD41"/>
<path d="M105.357 49.2427C104.291 49.5599 103.407 49.2349 102.973 48.2599C102.632 47.4903 102.203 46.7597 101.587 46.1981C100.389 45.1009 98.8391 45.1737 97.3623 45.6989C96.8007 45.8991 96.3613 46.2657 95.9921 46.7207L94.9261 48.0389C93.8211 49.4039 91.7827 49.3181 90.1681 48.8501C88.9773 48.5069 87.8957 47.9895 86.8245 47.3655L84.3181 45.7535L83.2261 45.0125C82.9661 44.8357 82.7009 44.6823 82.4149 44.5575C82.3031 44.7109 82.2979 44.8565 82.2953 45.0255L82.2745 46.8845C82.2667 47.6229 82.0171 48.7695 81.3619 49.0711C81.0447 49.2167 80.6833 49.1491 80.3505 49.0529C78.9127 48.6369 78.1561 47.0665 78.0547 45.6157V42.8623L78.0963 36.7549C78.0963 36.4715 78.2029 36.1569 78.3381 35.9307C78.5851 35.5199 79.0505 35.3353 79.5133 35.2833L80.0151 35.2261L81.7155 35.2443L82.8959 35.2833C83.7513 35.3899 84.5755 35.5355 85.3789 35.8527C86.5723 36.3207 87.6175 37.0435 88.4495 38.0107C88.8525 38.4813 89.1697 39.0273 89.2477 39.6435C89.3595 40.5301 89.0033 41.6507 88.3585 42.2929C87.8853 42.7635 87.2951 43.0599 86.6919 43.3199L85.8469 43.6839C87.0819 44.4951 88.8733 45.7925 90.3085 45.8705C90.9533 45.9043 91.5357 45.4987 91.8165 44.9371L92.6147 43.3459L93.5949 41.2789L94.1591 40.1063L95.4929 37.4335C95.7113 36.9941 96.0233 36.6587 96.3743 36.3259C97.0425 35.6915 97.9837 35.4809 98.8703 35.7409C99.5567 35.9437 100.129 36.3285 100.625 36.8355C101.036 37.2541 101.418 37.6753 101.689 38.2213L104.819 44.4769L105.396 45.6911L105.942 46.8195C106.111 47.1705 106.218 47.5423 106.259 47.9245C106.327 48.5615 105.971 49.0685 105.357 49.2505V49.2427ZM85.0539 40.2155C85.3711 39.9503 85.5479 39.6097 85.5063 39.2145C85.4075 38.2681 84.1075 37.9665 83.1637 37.8443C82.7061 37.7845 82.2329 37.7715 81.8533 38.0783C81.2501 38.5671 81.5283 39.7709 81.6271 40.6055C81.6609 40.8863 81.7337 41.1099 82.0769 41.1437C83.1221 41.2451 84.2531 40.8837 85.0513 40.2155H85.0539ZM99.9597 42.5451C100.259 42.1031 100.311 41.5779 100.209 41.0605C100.053 40.2571 99.6087 39.6331 99.0289 39.0845C98.7819 38.8505 98.5167 38.7023 98.1865 38.9623C97.0841 39.8307 96.8059 41.9055 97.8355 42.6569C98.5583 43.1821 99.4527 43.2939 99.9597 42.5451Z" fill="#DF0017"/>
<path d="M32.102 49.7836L31.3532 49.8252C30.9372 49.8486 30.5082 49.8382 30.0922 49.8252L29.0054 49.7914C28.1682 49.6874 27.3518 49.5366 26.5718 49.2324C25.7918 48.9282 25.4564 47.8284 25.4564 47.1316V42.3658L25.511 40.9878L25.5396 38.029C24.7128 37.9198 24.1174 37.0904 24.0082 36.2896C23.8652 35.1352 25.6202 34.9974 26.6966 34.9454C26.954 34.9324 27.1594 34.8908 27.4246 34.9454L28.4256 34.9766L28.8988 35.0078C30.4952 35.2028 32.0604 35.494 33.5762 36.0166C35.001 36.508 36.4362 37.4024 37.0758 38.7804C37.458 39.6072 37.3358 40.5718 36.7014 41.2504C36.067 41.929 35.144 42.2228 35.144 42.41C35.144 42.5842 36.3504 42.7428 37.1304 43.6996C38.1548 44.9606 38.3264 46.2866 37.2838 47.571C36.7976 48.1716 36.171 48.572 35.469 48.91C34.4134 49.4196 33.2902 49.6588 32.102 49.7836ZM32.7598 39.7372C33.0978 39.394 33.116 38.8116 32.739 38.4866C32.063 37.9016 30.4068 37.678 29.4786 37.782C29.0756 37.8262 28.8104 38.1668 28.7584 38.536C28.6804 39.095 28.7792 39.6098 28.943 40.148C28.982 40.278 29.0002 40.4886 29.1354 40.564C29.4942 40.7694 29.9284 40.7876 30.3366 40.7304C31.2154 40.6082 32.141 40.3638 32.7572 39.7372H32.7598ZM30.3912 47.2278C31.5742 47.3708 32.8326 46.9912 33.675 46.2606C33.9584 46.0162 34.091 45.5846 34.0156 45.244C33.9064 44.75 33.584 44.3782 33.1706 44.1C31.3142 42.865 28.449 42.9456 28.4516 44.4302V45.9148C28.4516 46.6038 28.9118 47.0458 29.5956 47.129L30.3938 47.2252L30.3912 47.2278Z" fill="#DF0017"/>
<path d="M44.9873 45.6054C44.3243 45.7874 43.6691 46.2788 43.2427 46.8144L42.1611 48.1638C41.6125 48.8476 40.8091 49.1648 39.9329 49.1544C39.3583 49.1492 38.8851 48.8554 38.6745 48.3146C38.3235 47.402 38.6121 46.037 39.0411 45.1504L39.7197 43.7516L40.2969 42.5452L40.8403 41.4116L41.5215 40.0024L42.6187 37.8002C43.1101 36.8122 43.9473 35.78 45.0679 35.6838H45.8297C47.1401 35.8866 48.4427 37.1086 49.0121 38.2448L51.8747 43.9622L52.6053 45.4806L53.2033 46.713C53.6687 47.6698 53.8559 48.7566 52.8419 49.196C52.1139 49.5106 51.2949 49.4794 50.7021 48.9022C50.2497 48.4628 50.1119 47.5658 49.2071 46.544C48.5779 45.8342 47.7875 45.4208 46.8333 45.348C46.2119 45.3012 45.5983 45.4416 44.9899 45.608L44.9873 45.6054ZM46.4927 42.9664C46.9503 42.6986 47.1609 42.2124 47.1817 41.6924C47.2181 40.785 46.7527 39.953 46.0975 39.3212C45.9337 39.1652 45.7569 38.952 45.5177 38.9494C45.2317 38.9468 44.9821 39.1574 44.7949 39.3758C44.2593 40.0076 44.0409 40.8656 44.1891 41.6794C44.3997 42.8364 45.7829 43.3798 46.4927 42.9664Z" fill="#DF0017"/>
<path d="M70.6859 44.8384C69.5211 44.7422 67.9481 45.1868 67.1837 46.1358L66.1437 47.4332C65.4963 48.2392 64.5473 48.7488 63.5047 48.6136C62.4621 48.4784 62.2281 47.4462 62.3321 46.4712C62.4205 45.6366 62.7091 44.9034 63.0679 44.1572L63.8089 42.6154L64.4069 41.3752L64.9685 40.2026L66.5545 37.0228C66.7339 36.6614 66.9679 36.3598 67.2305 36.0686C67.7817 35.4576 68.5331 35.078 69.3573 35.1378C70.7977 35.2418 72.1861 36.4976 72.7945 37.7092L75.6259 43.3538L76.4059 44.9736L76.9545 46.1046C77.3055 46.8274 77.6331 47.8882 77.0689 48.3926C76.6763 48.7436 76.1225 48.9074 75.6051 48.8788C74.8745 48.8372 74.3441 48.3666 74.0555 47.727C73.3899 46.2424 72.3993 44.9814 70.6859 44.841V44.8384ZM70.7249 42.176C71.3775 41.3492 71.0317 40.1012 70.3713 39.251L69.7213 38.5828C69.1103 37.9562 68.2939 39.0482 68.0235 40.1662C67.8571 40.8526 67.9715 41.5962 68.4889 42.1084C68.7151 42.3294 69.0479 42.4542 69.3443 42.5634C69.8435 42.748 70.3817 42.605 70.7223 42.176H70.7249Z" fill="#DF0017"/>
<path d="M61.1209 42.7948L60.2213 47.9168C60.1719 48.195 60.1277 48.4342 59.9223 48.6474C59.2255 49.3806 57.6993 49.5002 56.9037 48.7904C56.6203 48.5382 56.5137 48.1664 56.4435 47.7816C56.3395 47.2122 56.4409 46.6532 56.6229 46.102L57.1403 44.542C57.3015 44.061 57.2729 43.5488 57.0883 43.0678C56.6957 43.2082 56.3421 43.2706 55.9651 43.2706H55.5829C54.8159 43.2706 54.1087 43.0132 53.4535 42.5816C51.8909 41.5572 50.8301 39.8464 50.7131 37.9718C50.6559 37.0488 50.7859 35.5824 51.4957 35.1404C52.1327 34.7426 52.9595 34.9246 53.4171 35.5096C53.6329 35.7852 53.8071 36.1258 53.8045 36.4846V37.2958C53.7993 37.6676 53.7473 37.9978 53.8045 38.3696C53.8695 38.822 53.9449 39.2952 54.2985 39.6176C55.1383 40.3846 56.8127 40.1532 57.6993 39.2536C58.4143 38.5282 59.1969 35.806 60.5437 35.4862C60.7023 35.4498 60.9623 35.442 61.1131 35.4888C61.9295 35.7514 62.3507 36.4794 62.4287 37.2958C62.5431 38.484 62.1401 39.719 61.7605 40.863L61.1183 42.7922L61.1209 42.7948Z" fill="#DF0017"/>
<path d="M107.934 37.0618C108.007 37.769 107.767 38.3514 107.299 38.7804C106.831 39.2094 106.189 39.3576 105.544 39.225C104.941 39.1002 104.411 38.6816 104.179 38.107C103.948 37.5324 103.945 36.9162 104.268 36.326C104.676 35.5746 105.547 35.221 106.397 35.3874C107.247 35.5538 107.851 36.2142 107.936 37.0618H107.934ZM107.536 37.4336C107.575 36.8772 107.37 36.4456 106.98 36.1128C106.743 35.91 106.439 35.7436 106.101 35.7254C105.261 35.6838 104.515 36.3052 104.426 37.1372C104.33 38.0316 104.98 38.7934 105.823 38.8766C106.665 38.9598 107.474 38.341 107.536 37.4336Z" fill="#DF0017"/>
<path d="M106.303 38.4139C106.311 38.1721 106.355 37.9147 106.179 37.7301C106.082 37.6287 105.89 37.6443 105.75 37.6677L105.744 38.4191H105.084V36.2351H106.306C106.608 36.2351 106.834 36.4457 106.894 36.6927C106.969 36.9995 106.875 37.2803 106.543 37.4233C107.013 37.6313 106.784 37.9615 106.927 38.4191H106.301L106.303 38.4139ZM106.309 36.9631C106.319 36.8903 106.311 36.7967 106.246 36.7499C106.103 36.6459 105.929 36.6199 105.75 36.6433V37.1919C106.033 37.2387 106.283 37.1529 106.309 36.9657V36.9631Z" fill="#DF0017"/>
</svg>
