<svg width="190" height="58" viewBox="0 0 190 58" fill="none" xmlns="http://www.w3.org/2000/svg">
<path fill-rule="evenodd" clip-rule="evenodd" d="M85.6943 41.2181H86.5843V38.3981H89.5643V41.2181H90.4543V35.0081H89.5643V37.6081H86.5843V35.0081H85.6943V41.2181Z" fill="black"/>
<path fill-rule="evenodd" clip-rule="evenodd" d="M92.6944 38.108C92.6944 37.788 92.7244 37.478 92.8244 37.188C92.9244 36.898 93.0444 36.648 93.2044 36.428C93.3644 36.208 93.5844 36.018 93.8344 35.888C94.4044 35.638 95.0344 35.638 95.6044 35.888C95.8544 36.018 96.0744 36.208 96.2344 36.428C96.4244 36.648 96.5544 36.938 96.6444 37.218C96.7344 37.508 96.7744 37.818 96.7744 38.138C96.7744 38.458 96.7444 38.738 96.6444 39.058C96.5844 39.348 96.4544 39.598 96.2644 39.818C96.1044 40.038 95.8844 40.228 95.6344 40.358C95.0644 40.608 94.3944 40.608 93.8344 40.358C93.5844 40.228 93.3644 40.038 93.2044 39.818C93.0444 39.598 92.9244 39.308 92.8244 39.058C92.7644 38.738 92.6944 38.428 92.6944 38.108ZM91.7444 38.108C91.7444 38.548 91.8044 38.998 91.9344 39.408C92.0644 39.788 92.2544 40.138 92.5344 40.418C92.7844 40.708 93.1344 40.928 93.4844 41.088C94.3044 41.408 95.1944 41.408 95.9844 41.088C96.3344 40.928 96.6844 40.708 96.9344 40.418C97.1844 40.128 97.4044 39.788 97.5344 39.408C97.6644 38.998 97.7244 38.548 97.7244 38.108C97.7244 37.668 97.6644 37.248 97.5344 36.838C97.4044 36.458 97.2144 36.108 96.9344 35.828C96.6844 35.538 96.3344 35.318 95.9844 35.158C95.5744 34.998 95.1644 34.908 94.7144 34.908C94.3044 34.908 93.8544 34.968 93.4744 35.158C93.1244 35.318 92.7744 35.538 92.5244 35.828C92.2744 36.118 92.0544 36.458 91.9244 36.838C91.7944 37.248 91.7344 37.698 91.7344 38.108H91.7444Z" fill="black"/>
<path fill-rule="evenodd" clip-rule="evenodd" d="M100.204 41.2181H101.094V35.7981H103.024V35.0081H98.2744V35.7981H100.204V41.2181Z" fill="black"/>
<path fill-rule="evenodd" clip-rule="evenodd" d="M103.935 41.2181H107.415V40.4281H104.815V38.3981H107.155V37.6081H104.815V35.7981H107.415V35.0081H103.935V41.2181Z" fill="black"/>
<path fill-rule="evenodd" clip-rule="evenodd" d="M108.815 41.2181H112.295V40.4281H109.695V35.0081H108.805V41.2181H108.815Z" fill="black"/>
<path fill-rule="evenodd" clip-rule="evenodd" d="M116.194 35.1281C115.974 35.0281 115.754 34.9981 115.524 34.9681C115.304 34.9381 115.084 34.9081 114.854 34.9081C114.344 34.8781 113.844 35.0381 113.434 35.3481C113.054 35.6381 112.864 36.1081 112.864 36.5881C112.864 36.8081 112.894 37.0281 112.994 37.2181C113.094 37.4081 113.184 37.5681 113.344 37.6981C113.474 37.8281 113.624 37.9181 113.784 38.0181C113.944 38.1181 114.134 38.2081 114.384 38.3381C114.674 38.4681 114.954 38.6281 115.174 38.8181C115.274 38.9181 115.364 39.0081 115.424 39.1381C115.484 39.2681 115.524 39.3881 115.524 39.5481C115.524 39.7081 115.494 39.8681 115.394 39.9881C115.334 40.1181 115.234 40.2081 115.114 40.3081C114.984 40.4081 114.864 40.4681 114.734 40.4981C114.604 40.5281 114.444 40.5581 114.324 40.5581C114.104 40.5581 113.884 40.5281 113.654 40.4581C113.434 40.3981 113.244 40.3281 113.024 40.2381L112.924 41.0581C113.144 41.1181 113.364 41.1881 113.594 41.2481C113.784 41.2781 113.974 41.3081 114.194 41.3081C114.514 41.3081 114.794 41.2781 115.084 41.2081C115.334 41.1481 115.594 41.0481 115.814 40.8881C116.034 40.7281 116.194 40.5381 116.284 40.3181C116.414 40.0681 116.474 39.7781 116.444 39.4981C116.444 39.2481 116.414 38.9881 116.314 38.7681C116.214 38.5781 116.094 38.3881 115.964 38.2281C115.834 38.0981 115.674 37.9781 115.484 37.8781C115.324 37.7781 115.104 37.6881 114.854 37.5581C114.574 37.4281 114.284 37.2681 114.064 37.0781C113.904 36.9481 113.814 36.7281 113.814 36.5081C113.814 36.3781 113.844 36.2181 113.914 36.1281C113.974 36.0281 114.074 35.9381 114.164 35.8781C114.264 35.8181 114.384 35.7781 114.514 35.7481C114.644 35.7181 114.764 35.7181 114.894 35.7181C115.084 35.7181 115.274 35.7481 115.464 35.7781C115.654 35.8381 115.874 35.9081 116.064 35.9681L116.194 35.1081V35.1281Z" fill="black"/>
<path fill-rule="evenodd" clip-rule="evenodd" d="M124.294 37.8581C124.264 38.1481 124.234 38.4581 124.164 38.7481C124.104 38.9681 124.004 39.1881 123.914 39.3781L122.644 37.9481C122.994 37.7881 123.344 37.5681 123.624 37.2781C123.874 37.0281 124.004 36.6781 124.004 36.3281C124.034 35.9181 123.874 35.5381 123.564 35.2781C123.244 35.0281 122.864 34.8981 122.454 34.9281C122.044 34.8981 121.634 35.0581 121.284 35.3081C120.964 35.5981 120.814 35.9781 120.844 36.3881C120.844 36.6381 120.904 36.8981 121.004 37.1181C121.134 37.3681 121.294 37.5981 121.484 37.8181C121.104 37.9781 120.724 38.1981 120.474 38.5181C120.224 38.8381 120.094 39.2181 120.124 39.6281C120.094 40.1081 120.314 40.5781 120.664 40.8981C121.074 41.2481 121.584 41.4081 122.124 41.3781C122.474 41.3781 122.824 41.3181 123.134 41.2181C123.414 41.0881 123.674 40.8981 123.894 40.6781L124.404 41.2781H125.514L124.434 40.0381C124.624 39.7481 124.784 39.4381 124.904 39.0881C125.034 38.7081 125.124 38.3281 125.124 37.9181L124.304 37.8581H124.294ZM121.064 39.5381C121.064 39.2881 121.124 39.0581 121.284 38.8681C121.474 38.6481 121.694 38.4581 121.954 38.2981L123.444 40.0381C123.284 40.1981 123.124 40.3281 122.974 40.4481C122.784 40.5781 122.564 40.6381 122.304 40.6381C121.984 40.6381 121.674 40.5381 121.454 40.3181C121.204 40.1281 121.044 39.8081 121.074 39.5281L121.064 39.5381ZM121.704 36.3681C121.704 36.1481 121.764 35.9281 121.924 35.7681C122.054 35.6381 122.274 35.5481 122.464 35.5481C122.654 35.5481 122.844 35.6081 123.004 35.7381C123.164 35.8981 123.224 36.1181 123.194 36.3081C123.194 36.5581 123.094 36.7881 122.904 36.9381C122.714 37.1281 122.494 37.2881 122.274 37.3781C122.114 37.2181 121.994 37.0281 121.864 36.8381C121.734 36.7381 121.704 36.5481 121.704 36.3581V36.3681Z" fill="black"/>
<path fill-rule="evenodd" clip-rule="evenodd" d="M128.985 41.2181H129.875V38.4581H130.415C130.635 38.4581 130.855 38.4881 131.045 38.5581C131.235 38.6881 131.365 38.8481 131.455 39.0681L132.405 41.2281H133.445L132.275 38.7581C132.215 38.5981 132.115 38.4681 131.985 38.3481C131.895 38.2481 131.765 38.1881 131.665 38.1281V38.0981C132.015 38.0381 132.335 37.8781 132.585 37.6181C132.835 37.3681 132.965 37.0481 132.935 36.6981C132.935 36.3781 132.875 36.0981 132.745 35.8081C132.615 35.5881 132.425 35.3981 132.205 35.2981C131.985 35.1681 131.735 35.1081 131.475 35.0781C131.155 35.0481 130.845 35.0181 130.525 35.0181H129.005L128.975 41.2281L128.985 41.2181ZM129.875 35.7981H130.725C131.045 35.7681 131.395 35.8581 131.645 36.0481C131.865 36.2081 131.965 36.4581 131.965 36.7181C131.965 37.0081 131.835 37.2581 131.615 37.4181C131.325 37.6081 130.985 37.7081 130.635 37.6681H129.875V35.7981Z" fill="black"/>
<path fill-rule="evenodd" clip-rule="evenodd" d="M134.494 41.2181H137.974V40.4281H135.374V38.3981H137.744V37.6081H135.374V35.7981H137.974V35.0081H134.494V41.2181Z" fill="black"/>
<path fill-rule="evenodd" clip-rule="evenodd" d="M142.314 35.1281C142.094 35.0281 141.874 34.9981 141.644 34.9681C141.424 34.9381 141.204 34.9081 140.974 34.9081C140.464 34.8781 139.964 35.0381 139.554 35.3481C139.174 35.6381 138.984 36.1081 138.984 36.5881C138.984 36.8081 139.014 37.0281 139.114 37.2181C139.214 37.4081 139.304 37.5681 139.464 37.6981C139.594 37.8281 139.744 37.9181 139.904 38.0181C140.064 38.1181 140.254 38.2081 140.504 38.3381C140.794 38.4681 141.044 38.6281 141.294 38.8181C141.394 38.9181 141.484 39.0081 141.544 39.1381C141.604 39.2681 141.644 39.3881 141.644 39.5481C141.644 39.8681 141.484 40.1481 141.234 40.3081C141.104 40.4081 140.984 40.4681 140.854 40.4981C140.724 40.5281 140.574 40.5581 140.444 40.5581C140.224 40.5581 140.004 40.5281 139.774 40.4581C139.554 40.3981 139.364 40.3281 139.144 40.2381L139.044 41.0581C139.264 41.1181 139.484 41.1881 139.714 41.2481C139.904 41.3081 140.124 41.3481 140.314 41.3481C140.634 41.3481 140.914 41.3181 141.204 41.2481C141.454 41.1881 141.714 41.0881 141.934 40.9281C142.154 40.7681 142.314 40.5781 142.404 40.3581C142.534 40.1081 142.594 39.8181 142.564 39.5381C142.564 39.2881 142.534 39.0281 142.434 38.8081C142.334 38.6181 142.214 38.4281 142.084 38.2681C141.954 38.1381 141.804 38.0181 141.614 37.9181C141.424 37.7881 141.204 37.6981 140.984 37.5981C140.704 37.4681 140.444 37.3081 140.194 37.1181C140.034 36.9881 139.944 36.7681 139.944 36.5481C139.944 36.4181 139.974 36.2581 140.044 36.1681C140.104 36.0681 140.204 35.9781 140.294 35.9181C140.394 35.8581 140.514 35.8181 140.644 35.7881C140.774 35.7581 140.894 35.7581 141.024 35.7581C141.214 35.7581 141.404 35.7881 141.594 35.8181C141.784 35.8781 142.004 35.9481 142.194 36.0081L142.324 35.1181L142.314 35.1281Z" fill="black"/>
<path fill-rule="evenodd" clip-rule="evenodd" d="M144.434 38.108C144.434 37.788 144.464 37.478 144.564 37.188C144.664 36.898 144.784 36.648 144.944 36.428C145.104 36.208 145.324 36.018 145.574 35.888C146.144 35.638 146.774 35.638 147.344 35.888C147.594 36.018 147.814 36.208 147.974 36.428C148.164 36.678 148.294 36.938 148.384 37.218C148.484 37.508 148.514 37.818 148.514 38.138C148.514 38.458 148.484 38.738 148.384 39.058C148.324 39.348 148.194 39.598 148.004 39.818C147.844 40.038 147.624 40.228 147.374 40.358C146.804 40.608 146.134 40.608 145.574 40.358C145.324 40.228 145.094 40.038 144.944 39.818C144.784 39.598 144.654 39.308 144.564 39.058C144.504 38.738 144.464 38.428 144.434 38.108ZM143.524 38.108C143.524 38.548 143.584 38.998 143.714 39.408C143.844 39.788 144.034 40.138 144.314 40.418C144.564 40.708 144.914 40.928 145.264 41.088C146.084 41.408 146.974 41.408 147.764 41.088C148.114 40.928 148.464 40.708 148.714 40.418C148.964 40.128 149.184 39.788 149.314 39.408C149.444 38.998 149.504 38.548 149.504 38.108C149.504 37.668 149.444 37.248 149.314 36.838C149.184 36.458 148.994 36.108 148.714 35.828C148.464 35.538 148.114 35.318 147.764 35.158C146.974 34.838 146.054 34.838 145.264 35.158C144.914 35.318 144.564 35.538 144.314 35.828C144.064 36.118 143.844 36.458 143.714 36.838C143.584 37.248 143.524 37.698 143.524 38.108Z" fill="black"/>
<path fill-rule="evenodd" clip-rule="evenodd" d="M150.674 41.2181H151.564V38.4581H152.104C152.324 38.4581 152.544 38.4881 152.734 38.5581C152.924 38.6881 153.054 38.8481 153.144 39.0681L154.094 41.2281H155.104L153.934 38.7581C153.874 38.5981 153.774 38.4681 153.644 38.3481C153.554 38.2481 153.424 38.1881 153.324 38.1281V38.0981C153.674 38.0381 153.994 37.8781 154.244 37.6181C154.494 37.3681 154.624 37.0481 154.594 36.6981C154.594 36.3781 154.534 36.0981 154.404 35.8081C154.274 35.5881 154.124 35.4281 153.894 35.2981C153.674 35.1681 153.424 35.1081 153.164 35.0781C152.844 35.0481 152.534 35.0181 152.214 35.0181H150.694L150.664 41.2281L150.674 41.2181ZM151.564 35.7981H152.414C152.734 35.7681 153.084 35.8581 153.334 36.0481C153.554 36.2081 153.654 36.4581 153.654 36.7181C153.654 37.0081 153.524 37.2581 153.304 37.4181C153.014 37.6081 152.674 37.7081 152.324 37.6681H151.564V35.7981Z" fill="black"/>
<path fill-rule="evenodd" clip-rule="evenodd" d="M157.234 41.2181H158.124V35.7981H160.054V35.0081H155.334V35.7981H157.234V41.2181Z" fill="black"/>
<path fill-rule="evenodd" clip-rule="evenodd" d="M163.885 35.1281C163.665 35.0281 163.445 34.9981 163.215 34.9681C162.995 34.9381 162.775 34.9081 162.545 34.9081C162.035 34.8781 161.535 35.0381 161.125 35.3481C160.745 35.6381 160.555 36.1081 160.555 36.5881C160.555 36.8081 160.585 37.0281 160.685 37.2181C160.745 37.4081 160.875 37.5681 161.035 37.6981C161.165 37.8281 161.315 37.9181 161.475 38.0181C161.635 38.1181 161.825 38.2081 162.075 38.3381C162.365 38.4681 162.645 38.6281 162.865 38.7781C162.965 38.8781 163.055 38.9681 163.115 39.0981C163.175 39.2281 163.215 39.3481 163.215 39.5081C163.215 39.6681 163.185 39.8281 163.085 39.9481C163.025 40.0781 162.925 40.1681 162.805 40.2681C162.675 40.3681 162.555 40.4281 162.425 40.4581C162.295 40.4881 162.145 40.5181 162.015 40.5181C161.795 40.5181 161.575 40.4881 161.345 40.4181C161.125 40.3581 160.935 40.2881 160.715 40.1981L160.615 41.0181C160.835 41.0781 161.055 41.1481 161.285 41.2081C161.475 41.2681 161.665 41.3081 161.885 41.3081C162.175 41.3081 162.485 41.2781 162.775 41.2081C163.025 41.1481 163.285 41.0481 163.505 40.8881C163.725 40.7281 163.885 40.5381 163.975 40.3181C164.105 40.0681 164.165 39.7781 164.135 39.4981C164.135 39.2481 164.105 38.9881 164.005 38.7681C163.905 38.5781 163.785 38.3881 163.655 38.2281C163.525 38.0981 163.375 37.9781 163.185 37.8781C163.025 37.7781 162.805 37.6881 162.555 37.5581C162.275 37.4281 161.985 37.2681 161.765 37.0781C161.605 36.9481 161.515 36.7281 161.515 36.5081C161.515 36.3781 161.545 36.2181 161.615 36.1281C161.675 36.0281 161.775 35.9381 161.865 35.8781C161.965 35.8181 162.085 35.7781 162.215 35.7481C162.345 35.7181 162.465 35.7181 162.595 35.7181C162.785 35.7181 162.975 35.7181 163.165 35.7781C163.355 35.8381 163.575 35.9081 163.765 35.9681L163.895 35.1081L163.885 35.1281Z" fill="black"/>
<path fill-rule="evenodd" clip-rule="evenodd" d="M32.7843 17.568C32.2443 17.468 31.6743 17.378 31.0743 17.318C30.5043 17.258 29.9343 17.218 29.3643 17.218C28.7343 17.218 28.0643 17.248 27.4343 17.348C26.8343 17.448 26.2643 17.598 25.7243 17.858C25.2143 18.078 24.8043 18.458 24.4843 18.908C24.1343 19.418 23.9743 19.988 24.0043 20.588C23.9743 21.098 24.1043 21.638 24.3543 22.078C24.5743 22.458 24.8643 22.808 25.2443 23.028C25.5943 23.248 25.9743 23.438 26.3843 23.568C26.8243 23.698 27.3043 23.818 27.7743 23.888C28.2143 23.948 28.6643 24.078 29.0743 24.238C29.2943 24.298 29.4843 24.528 29.4843 24.748C29.4843 24.998 29.3243 25.188 28.9743 25.288C28.5643 25.418 28.1243 25.478 27.7043 25.448C27.0743 25.448 26.4643 25.388 25.8643 25.258C25.2643 25.158 24.6943 24.968 24.1243 24.748V27.438C24.8243 27.598 25.5543 27.728 26.2443 27.818C26.9743 27.918 27.6743 27.948 28.3943 27.948C28.9943 27.948 29.6343 27.888 30.2343 27.788C30.8043 27.688 31.3443 27.498 31.8543 27.218C32.3243 26.968 32.7443 26.588 33.0243 26.138C33.3443 25.628 33.4943 25.058 33.4643 24.458C33.4943 23.948 33.3743 23.408 33.1143 22.968C32.8943 22.588 32.5743 22.238 32.2243 22.018C31.8743 21.798 31.4943 21.638 31.0843 21.508C30.7043 21.408 30.2343 21.288 29.6543 21.188C29.2143 21.128 28.8043 20.998 28.3843 20.838C28.1643 20.778 28.0043 20.588 28.0043 20.358C28.0043 20.198 28.0643 20.068 28.1643 19.978C28.2943 19.878 28.4543 19.788 28.6043 19.758C28.7643 19.728 28.9543 19.698 29.1443 19.658H29.7443C30.2843 19.658 30.8243 19.688 31.3643 19.788C31.8743 19.888 32.3743 20.008 32.8543 20.168L32.7543 17.568H32.7843Z" fill="black"/>
<path fill-rule="evenodd" clip-rule="evenodd" d="M37.4346 20.0381H33.7246L35.6246 27.8081H40.3446L41.2946 22.5481H41.3246L42.2446 27.8081H46.9346L48.8346 20.0381H45.4146L44.5646 25.1081H44.5346L43.6846 20.0381H39.1546L38.3646 25.1081H38.3346L37.4446 20.0381H37.4346Z" fill="black"/>
<path fill-rule="evenodd" clip-rule="evenodd" d="M49.6643 27.8082H53.4343V20.0382H49.6643V27.8082ZM53.3943 16.6182H49.6543V19.2182H53.4243L53.3943 16.6182Z" fill="black"/>
<path fill-rule="evenodd" clip-rule="evenodd" d="M54.4746 27.5579C55.5146 27.8479 56.6246 27.9979 57.7046 27.9979C58.2146 27.9979 58.6846 27.9379 59.1946 27.8679C59.6646 27.7679 60.1446 27.6179 60.5846 27.3879C60.9946 27.1979 61.3446 26.8779 61.6346 26.4979C61.9146 26.1179 62.0446 25.6379 62.0446 25.1679C62.0746 24.4079 61.6646 23.7079 61.0046 23.3579C60.7146 23.1979 60.3746 23.0679 60.0546 23.0079C59.7346 22.9479 59.3546 22.8779 58.8846 22.8179C58.5646 22.7879 58.2846 22.7179 57.9646 22.6579C57.7746 22.5979 57.6746 22.4979 57.6746 22.3679C57.6746 22.1479 57.8346 21.9879 58.0546 21.9579C58.3746 21.8979 58.6846 21.8279 59.0046 21.8579C59.8246 21.8579 60.6546 22.0179 61.4446 22.2979V20.2079C60.5246 20.0179 59.5746 19.8879 58.6246 19.8879C58.1146 19.8879 57.5846 19.9179 57.0746 19.9879C56.6046 20.0479 56.1246 20.1779 55.6846 20.3679C55.2746 20.5279 54.9246 20.8079 54.6346 21.1879C54.1646 21.9179 54.0946 22.8679 54.5046 23.6279C54.6946 23.9179 54.9146 24.1679 55.2346 24.3279C55.5146 24.4879 55.8346 24.6179 56.1546 24.7079C56.4746 24.8079 56.8546 24.8679 57.2946 24.9579C57.6446 25.0179 57.9546 25.0879 58.2746 25.1779C58.4946 25.2379 58.5946 25.3679 58.5946 25.5279C58.5946 25.7179 58.4646 25.8479 58.1846 25.9079C57.8646 26.0079 57.5546 26.0379 57.2346 26.0379C56.7246 26.0379 56.2546 25.9779 55.7446 25.8479C55.3046 25.7479 54.8546 25.5579 54.4446 25.3379L54.4746 27.5279V27.5579Z" fill="black"/>
<path fill-rule="evenodd" clip-rule="evenodd" d="M62.7744 27.5582C63.8544 27.8482 64.9244 27.9982 66.0344 27.9982C66.5444 27.9982 67.0144 27.9382 67.5244 27.8682C67.9944 27.7682 68.4744 27.6182 68.9144 27.3882C69.3244 27.1982 69.6744 26.8782 69.9544 26.4982C70.2344 26.1182 70.3644 25.6382 70.3644 25.1682C70.3644 24.7882 70.2744 24.3782 70.0844 24.0582C69.8944 23.7682 69.6444 23.5182 69.3244 23.3582C69.0344 23.1982 68.6944 23.0682 68.3744 23.0082C68.0544 22.9482 67.6744 22.8782 67.2044 22.8182C66.8844 22.7882 66.6044 22.7182 66.2844 22.6582C66.0944 22.5982 65.9944 22.4982 65.9944 22.3682C65.9944 22.1482 66.1244 21.9882 66.3444 21.9282C66.6644 21.8682 66.9744 21.7982 67.2944 21.8282C68.1144 21.8282 68.9444 21.9882 69.7344 22.2682V20.1782C68.8144 19.9882 67.8644 19.8582 66.9144 19.8582C66.4044 19.8582 65.8744 19.8882 65.3644 19.9582C64.8844 20.0182 64.4144 20.1482 63.9744 20.3382C63.5644 20.4981 63.2144 20.7782 62.9344 21.1582C62.4644 21.8882 62.3944 22.8382 62.8044 23.5982C62.9944 23.8882 63.2144 24.1382 63.5344 24.2982C63.8244 24.4582 64.1344 24.5882 64.4544 24.6782C64.7744 24.7782 65.1544 24.8382 65.5944 24.9282C65.9444 24.9582 66.2544 25.0582 66.6044 25.1182C66.7944 25.1782 66.9244 25.3082 66.9244 25.4682C66.9244 25.6282 66.7944 25.7882 66.5144 25.8482C66.1944 25.9482 65.8844 25.9782 65.5644 25.9782C65.0544 25.9782 64.5844 25.9182 64.0744 25.7882C63.6344 25.6882 63.1844 25.4982 62.7744 25.2782V27.5282V27.5582Z" fill="black"/>
<path fill-rule="evenodd" clip-rule="evenodd" d="M81.4542 27.808V24.288C81.4242 23.498 81.6142 22.668 82.0242 22.008C82.4042 21.438 83.0642 21.118 83.7642 21.148C84.2742 21.148 84.7742 21.398 85.0342 21.848C85.2842 22.258 85.3842 22.958 85.3842 23.878V27.838H86.7742V23.278C86.7742 22.228 86.5542 21.408 86.0742 20.838C85.5942 20.268 84.9042 19.978 83.9242 19.978C83.3842 19.978 82.8842 20.108 82.4042 20.358C81.9642 20.578 81.6142 20.928 81.3942 21.368H81.3642V20.128H80.0342V27.798H81.4642L81.4542 27.808Z" fill="black"/>
<path fill-rule="evenodd" clip-rule="evenodd" d="M93.2042 20.198H91.1742V17.978L89.7842 18.418V20.158H88.0742V21.298H89.7842V25.798C89.7242 26.398 89.9442 27.038 90.3842 27.448C90.8542 27.828 91.4942 28.018 92.1242 27.988C92.3142 27.988 92.5042 27.958 92.7242 27.928C92.9142 27.898 93.1042 27.828 93.3242 27.768V26.568C93.0442 26.758 92.7242 26.858 92.3742 26.818C92.0542 26.818 91.7442 26.688 91.5142 26.468C91.2642 26.178 91.1642 25.838 91.1642 25.458V21.338H93.1542V20.198H93.1842H93.2042Z" fill="black"/>
<path fill-rule="evenodd" clip-rule="evenodd" d="M100.804 26.1279C100.674 26.2279 100.554 26.2879 100.424 26.3779C100.234 26.4779 100.044 26.5679 99.8539 26.6279C99.6339 26.7279 99.4139 26.7879 99.1539 26.8179C98.9339 26.8779 98.7139 26.8779 98.4539 26.8779C98.1339 26.8779 97.8239 26.8179 97.5039 26.6879C97.1839 26.5579 96.9339 26.3979 96.7139 26.1479C96.4939 25.9279 96.3039 25.6379 96.1739 25.3279C96.0439 25.0079 95.9839 24.6579 95.9839 24.3179H101.404C101.404 23.7479 101.344 23.1479 101.244 22.5779C101.144 22.0979 100.954 21.6279 100.674 21.2179C100.424 20.8379 100.044 20.5179 99.6239 20.3279C99.1139 20.1079 98.5839 19.9779 98.0439 20.0079C97.5339 20.0079 97.0639 20.1079 96.5839 20.2979C96.1439 20.4879 95.7639 20.7379 95.4439 21.0879C95.1239 21.4379 94.8739 21.8479 94.7139 22.3279C94.5239 22.8379 94.4639 23.3379 94.4639 23.8779C94.4639 25.1479 94.7839 26.1579 95.4439 26.8879C96.1139 27.6179 97.0939 27.9979 98.3839 27.9979C98.7939 27.9979 99.1739 27.9679 99.5839 27.8679C99.9339 27.7679 100.244 27.6779 100.564 27.5479L100.784 27.4879V26.1279H100.804ZM95.9539 23.3079C95.9839 23.0579 96.0539 22.7979 96.1439 22.5479C96.2339 22.2979 96.3639 22.0679 96.5239 21.8479C96.6839 21.6279 96.9039 21.4679 97.1539 21.3679C97.4439 21.2379 97.7239 21.1779 98.0139 21.1779C98.5539 21.1479 99.0539 21.3679 99.4039 21.7779C99.7539 22.1879 99.9439 22.7279 99.9139 23.2979H95.9539V23.3079Z" fill="black"/>
<path fill-rule="evenodd" clip-rule="evenodd" d="M103.244 27.808H104.634V24.358C104.604 23.568 104.794 22.778 105.204 22.078C105.524 21.538 106.094 21.218 106.724 21.258C106.974 21.258 107.264 21.288 107.484 21.388V20.118H107.454C107.294 20.088 107.164 20.058 107.014 20.018C106.854 19.988 106.694 19.988 106.574 19.988C106.164 19.988 105.754 20.118 105.434 20.368C105.054 20.618 104.764 20.968 104.584 21.348H104.554V20.178H103.254V27.818L103.244 27.808Z" fill="black"/>
<path fill-rule="evenodd" clip-rule="evenodd" d="M110.424 27.808V24.288C110.394 23.498 110.584 22.668 110.994 22.008C111.374 21.438 112.044 21.118 112.734 21.148C113.244 21.148 113.744 21.398 114.004 21.848C114.254 22.258 114.354 22.958 114.354 23.878V27.838H115.744V23.278C115.744 22.228 115.524 21.408 115.044 20.838C114.574 20.268 113.874 19.978 112.894 19.978C112.354 19.978 111.854 20.108 111.374 20.358C110.934 20.578 110.584 20.928 110.394 21.368H110.364V20.128H109.004V27.798H110.424V27.808Z" fill="black"/>
<path fill-rule="evenodd" clip-rule="evenodd" d="M118.594 21.948C118.874 21.698 119.224 21.508 119.604 21.378C119.984 21.248 120.394 21.158 120.804 21.158C121.504 21.158 121.974 21.318 122.264 21.638C122.584 22.078 122.734 22.588 122.674 23.128C122.394 23.098 122.164 23.098 121.974 23.098H121.184C120.774 23.098 120.394 23.128 119.984 23.228C119.574 23.328 119.194 23.448 118.844 23.668C118.494 23.858 118.214 24.108 117.984 24.458C117.764 24.808 117.664 25.218 117.664 25.628C117.604 26.328 117.884 26.958 118.424 27.408C119.024 27.818 119.724 28.038 120.454 28.008C120.964 28.038 121.464 27.908 121.884 27.658C122.234 27.468 122.554 27.178 122.804 26.838H122.834V27.818H124.134C124.104 27.628 124.104 27.468 124.104 27.278V26.328V23.158C124.104 22.108 123.854 21.318 123.374 20.778C122.904 20.238 122.104 19.988 121.034 19.988C120.144 19.988 119.294 20.238 118.534 20.688L118.594 21.958V21.948ZM122.684 24.858C122.714 25.398 122.494 25.908 122.144 26.288C121.734 26.668 121.164 26.888 120.564 26.858C120.214 26.858 119.864 26.728 119.584 26.508C119.074 26.098 118.984 25.368 119.394 24.858L119.424 24.828C119.614 24.638 119.864 24.478 120.124 24.388C120.374 24.288 120.664 24.228 120.944 24.198C121.234 24.168 121.484 24.168 121.764 24.168H122.204C122.394 24.168 122.554 24.168 122.644 24.168L122.674 24.868L122.684 24.858Z" fill="black"/>
<path fill-rule="evenodd" clip-rule="evenodd" d="M130.474 20.198H128.474V17.978L127.084 18.458V20.198H125.374V21.338H127.084V25.808C127.024 26.408 127.244 27.048 127.684 27.458C128.154 27.838 128.794 28.028 129.424 27.998C129.614 27.998 129.804 27.968 130.024 27.938C130.214 27.908 130.404 27.838 130.624 27.778V26.578C130.334 26.768 130.024 26.868 129.674 26.828C129.354 26.828 129.044 26.698 128.824 26.478C128.574 26.188 128.474 25.848 128.474 25.468V21.348H130.504L130.474 20.208V20.198Z" fill="black"/>
<path fill-rule="evenodd" clip-rule="evenodd" d="M132.434 27.808H133.824V20.198H132.434V27.808ZM133.924 16.938H132.344V18.518H133.924V16.938Z" fill="black"/>
<path fill-rule="evenodd" clip-rule="evenodd" d="M135.884 24.0081C135.884 24.5181 135.984 25.0581 136.174 25.5281C136.364 26.0081 136.614 26.4481 136.964 26.8281C137.314 27.2081 137.724 27.4981 138.204 27.7181C139.184 28.1281 140.324 28.1281 141.304 27.7181C141.774 27.5281 142.194 27.2381 142.544 26.8581C142.894 26.4781 143.144 26.0681 143.334 25.5881C143.524 25.1081 143.624 24.5781 143.624 24.0681C143.624 23.5281 143.524 22.9881 143.334 22.4881C143.144 22.0081 142.894 21.5681 142.544 21.2181C142.194 20.8381 141.784 20.5481 141.304 20.3581C140.794 20.1681 140.254 20.0681 139.724 20.0681C139.194 20.0681 138.644 20.1681 138.144 20.3581C137.664 20.5481 137.254 20.8381 136.914 21.1781C136.564 21.5281 136.314 21.9681 136.124 22.4481C135.964 22.9281 135.874 23.4581 135.904 23.9981L135.884 24.0081ZM137.344 24.0081C137.344 23.6581 137.404 23.3081 137.504 22.9581C137.604 22.6381 137.754 22.3281 137.974 22.0381C138.164 21.7881 138.444 21.5581 138.734 21.4081C139.364 21.0881 140.094 21.0881 140.694 21.4081C140.974 21.5681 141.234 21.7881 141.454 22.0381C141.674 22.3281 141.834 22.6381 141.934 22.9581C142.024 23.3081 142.094 23.6581 142.094 24.0081C142.094 24.3581 142.034 24.7081 141.934 25.0181C141.834 25.3381 141.684 25.6481 141.494 25.9381C141.304 26.2281 141.054 26.4481 140.734 26.6081C140.414 26.7681 140.034 26.8581 139.684 26.8581C139.304 26.8581 138.954 26.7981 138.644 26.6081C138.354 26.4481 138.074 26.2281 137.884 25.9381C137.694 25.6481 137.534 25.3381 137.474 25.0181C137.444 24.6981 137.374 24.3481 137.344 24.0081Z" fill="black"/>
<path fill-rule="evenodd" clip-rule="evenodd" d="M145.514 27.808H146.904V24.288C146.874 23.498 147.064 22.668 147.474 22.008C147.854 21.438 148.514 21.118 149.214 21.148C149.724 21.148 150.194 21.398 150.484 21.848C150.734 22.258 150.834 22.958 150.834 23.878V27.838H152.224V23.278C152.224 22.228 152.004 21.408 151.524 20.838C151.054 20.268 150.354 19.978 149.374 19.978C148.864 19.978 148.324 20.108 147.884 20.358C147.444 20.578 147.094 20.928 146.874 21.368H146.844V20.128H145.484L145.514 27.798V27.808Z" fill="black"/>
<path fill-rule="evenodd" clip-rule="evenodd" d="M155.044 21.948C155.324 21.698 155.674 21.508 156.054 21.378C156.434 21.248 156.844 21.158 157.254 21.158C157.954 21.158 158.424 21.318 158.714 21.638C159.034 22.078 159.184 22.588 159.124 23.128C158.834 23.098 158.614 23.098 158.424 23.098H157.634C157.224 23.098 156.844 23.128 156.434 23.228C156.024 23.328 155.644 23.448 155.294 23.638C154.944 23.828 154.664 24.078 154.444 24.428C154.224 24.778 154.124 25.188 154.124 25.598C154.064 26.298 154.344 26.928 154.884 27.378C155.484 27.788 156.184 28.008 156.914 27.978C157.424 28.008 157.924 27.878 158.334 27.628C158.684 27.438 159.004 27.148 159.254 26.808H159.284V27.788H160.584C160.554 27.598 160.554 27.438 160.554 27.248V26.298V23.128C160.554 22.078 160.304 21.288 159.824 20.748C159.354 20.238 158.554 19.958 157.484 19.958C156.594 19.958 155.744 20.208 154.984 20.658L155.044 21.958V21.948ZM159.134 24.858C159.164 25.398 158.944 25.908 158.594 26.288C158.184 26.668 157.614 26.888 157.014 26.858C156.664 26.858 156.314 26.728 156.034 26.508C155.744 26.288 155.594 25.968 155.594 25.618C155.594 25.328 155.694 25.078 155.874 24.858C156.064 24.668 156.314 24.508 156.574 24.418C156.864 24.318 157.114 24.258 157.394 24.228C157.674 24.198 157.934 24.198 158.214 24.198H158.654C158.844 24.198 159.004 24.198 159.094 24.198L159.124 24.868L159.134 24.858Z" fill="black"/>
<path fill-rule="evenodd" clip-rule="evenodd" d="M48.7141 38.938C33.0741 35.098 24.4541 38.148 24.4541 38.148C24.4541 38.148 30.9141 33.588 51.8441 37.288C66.5041 39.888 78.6641 34.178 78.6641 34.178C78.6641 34.178 64.6941 42.868 48.7041 38.928L48.7141 38.938Z" fill="#DC2C27"/>
<path d="M77.5238 17.408H76.0938V27.998H77.5238V17.408Z" fill="black"/>
<path d="M163.914 17.408H162.494V27.998H163.914V17.408Z" fill="black"/>
</svg>
