<svg width="190" height="58" viewBox="0 0 190 58" fill="none" xmlns="http://www.w3.org/2000/svg">
<path d="M83.7036 7.521L73.7492 24.932L73.6319 24.8998V24.8975L67.3506 13.9518L73.4594 19.5247L83.7036 7.521Z" fill="#E41323"/>
<path d="M80.3972 36.4614L77.1358 36.5281L73.1361 29.2371L69.2744 36.3625C68.5499 36.6339 67.8001 36.5787 67.002 36.4177L73.6329 24.9016L73.7502 24.9338V24.9384L80.3972 36.4614Z" fill="#101820"/>
<path d="M33.8118 34.796C31.1185 37.1443 27.4592 36.8522 24.0046 36.4934L24 25.2142C27.5834 24.7542 32.0799 24.538 34.4374 27.3279C35.9715 29.6348 35.7737 32.7283 33.8118 34.796ZM31.4681 33.7656C32.7538 31.9923 32.7538 29.3749 31.4313 27.7005C30.3457 26.3251 28.4988 26.1687 26.8819 26.4286L26.9049 35.2744C28.6828 35.463 30.394 35.2468 31.4681 33.7656Z" fill="#101820"/>
<path d="M63.5259 35.2881C61.5962 37.1833 57.6655 36.7762 54.8135 36.4818V25.2141C58.0312 24.7012 63.4201 24.6 63.6363 27.6613C63.726 28.9286 63.0268 29.9245 61.679 30.4627C62.7485 30.7387 63.68 31.2792 64.0365 32.0543C64.5425 33.1514 64.4091 34.421 63.5259 35.2858V35.2881ZM60.8142 28.556C60.9591 27.8223 60.8142 27.0886 60.1817 26.6838C59.4296 26.2031 58.528 26.1594 57.6563 26.2951L57.6517 29.9475C59.1536 30.0901 60.5796 29.7405 60.8119 28.5537L60.8142 28.556ZM60.5221 34.9178C61.3018 34.4325 61.5479 33.6091 61.38 32.7857C61.1178 31.4931 59.3238 31.1228 57.6517 31.3275L57.6793 35.3663C58.6614 35.4399 59.655 35.4583 60.5221 34.9178Z" fill="#101820"/>
<path d="M47.8325 25.1686L49.9117 25.1525L49.8703 32.2618C49.8565 34.5963 48.2672 36.3995 45.9902 36.7169C44.9851 36.8572 44.0191 36.8549 43.0163 36.6801C41.0613 36.3374 39.5548 34.8355 39.5387 32.7816L39.4697 25.1433H42.347L42.3861 31.7075C42.3907 32.5723 42.5586 33.4854 43.0577 34.1869C43.7316 35.1345 44.9299 35.2633 46.0293 34.9712C47.0183 34.7067 47.7865 33.6878 47.7934 32.4527L47.8302 25.1709L47.8325 25.1686Z" fill="#101820"/>
<path d="M43.4327 45.9527C43.4327 48.4528 41.4064 50.4791 38.9063 50.4791C36.4062 50.4791 34.3799 48.4528 34.3799 45.9527C34.3799 43.4526 36.4062 41.4263 38.9063 41.4263C41.4064 41.4263 43.4327 43.4526 43.4327 45.9527ZM40.6106 43.632C40.2679 42.9558 39.6423 42.5924 38.9891 42.5717C38.3359 42.551 37.6942 42.8914 37.3101 43.5354C36.4545 44.9706 36.4453 46.8175 37.2227 48.2987C37.5884 48.9933 38.283 49.3843 38.9615 49.3429C40.9073 49.221 41.8089 45.9964 40.6083 43.6343L40.6106 43.632Z" fill="#5B6770"/>
<path d="M57.863 50.2283C56.4209 50.5043 55.0409 50.4353 53.5781 50.2099V41.6976C55.2203 41.4584 56.7751 41.4193 58.277 41.7459C60.255 42.176 61.405 43.6894 61.4487 45.6743C61.4993 47.9099 60.2021 49.7798 57.863 50.226V50.2283ZM59.082 47.3395C59.4385 46.2217 59.4339 44.9153 58.8405 43.8711C58.185 42.7188 56.805 42.3899 55.5929 42.6705L55.609 49.2485C57.2512 49.5498 58.6105 48.823 59.082 47.3418V47.3395Z" fill="#5B6770"/>
<path d="M31.751 50.1679L29.6902 50.2001L29.6833 46.4189L26.001 46.412L26.0056 50.1886L24 50.1955V41.6786L25.9941 41.7062L25.9987 45.3034L29.6856 45.3011L29.6902 41.6947L31.7441 41.6763L31.751 50.1679Z" fill="#5B6770"/>
<path d="M76.7784 49.9922C76.7784 50.282 75.794 50.3648 75.5962 50.1371L71.0399 44.9759L71.0077 50.1831C70.5316 50.2383 70.1567 50.2475 69.6162 50.1693L69.6277 41.726C70.0348 41.5696 70.6351 41.542 70.8766 41.8249L75.3294 47.0712L75.3754 41.7168C75.8239 41.5972 76.2149 41.5926 76.7922 41.7375L76.7784 49.9922Z" fill="#5B6770"/>
<path d="M85.4774 46.6849L83.9824 46.6665C83.5753 46.6619 83.5799 45.6062 83.9962 45.6039L87.1541 45.5924L87.1357 49.6358C85.5878 50.496 83.8237 50.7145 82.17 50.2085C80.6106 49.7324 79.7021 48.3386 79.5434 46.7493C79.3893 45.2152 79.7665 43.642 80.9786 42.6162C82.6668 41.1856 85.1002 41.0522 87.0437 42.1447C87.0069 42.5679 86.7838 42.9129 86.4273 43.2372C85.2911 42.4483 83.6719 42.3264 82.6346 43.3292C81.1258 44.792 81.3742 48.1109 83.0578 49.0332C83.8099 49.4449 84.7115 49.4173 85.4866 49.07L85.4797 46.6872L85.4774 46.6849Z" fill="#5B6770"/>
<path d="M87.1511 25.135H84.2646V36.5292H87.1511V25.135Z" fill="#101820"/>
<path d="M51.1774 48.9327C51.2947 49.3352 51.3131 49.7446 51.2096 50.2115H46.0898V41.6877C46.7591 41.6072 47.3318 41.6095 48.0977 41.7222V49.0799L51.1797 48.9327H51.1774Z" fill="#5B6770"/>
<path d="M66.4125 41.6484H64.4023V50.2113H66.4125V41.6484Z" fill="#5B6770"/>
</svg>
