<svg width="190" height="58" viewBox="0 0 190 58" fill="none" xmlns="http://www.w3.org/2000/svg">
<g clip-path="url(#clip0_2651_1448)">
<path d="M74.8501 19.9972H71.0239C70.7538 19.9972 70.5587 19.9372 70.4387 19.8171L69.9886 19.337C68.278 17.5964 66.9576 16.321 66.0423 15.4957C65.4034 14.8807 64.6685 14.3739 63.8666 13.9953C63.6565 13.9202 63.6265 13.8002 63.7616 13.6651L66.2974 11.0543C66.3337 11.0195 66.3821 11 66.4324 11C66.4827 11 66.5311 11.0195 66.5675 11.0543L74.9702 19.6971C74.9868 19.7189 74.9972 19.7448 75.0002 19.7721C75.0302 19.8621 75.0002 19.9372 74.8801 19.9822H74.8501V19.9972Z" fill="#E40A2C"/>
<path d="M24.0756 37.9581C24.0521 37.9484 24.0314 37.9329 24.0156 37.9131C24.0042 37.8898 23.999 37.8639 24.0006 37.838V23.0583C23.9949 22.9484 24.0326 22.8406 24.1056 22.7582L26.7014 20.0573C26.7161 20.0395 26.7344 20.0249 26.7551 20.0146C26.7757 20.0042 26.7984 19.9983 26.8215 19.9973H28.2169C28.2318 19.995 28.247 19.995 28.2619 19.9973C28.412 20.0573 28.502 20.1774 28.502 20.3724C28.5027 26.1943 28.5027 32.0162 28.502 37.838C28.502 37.883 28.472 37.9281 28.442 37.9581C28.4265 37.974 28.4078 37.9863 28.387 37.994C28.3663 38.0018 28.344 38.0049 28.3219 38.0031H24.1206L24.0756 37.9581ZM46.4178 37.613H46.5078H46.4628C46.4628 29.3753 46.5078 24.5138 46.5078 22.9983C46.5078 22.8182 46.5078 22.6682 46.5978 22.5631L49.0136 20.0723C49.0567 20.0267 49.1159 19.9998 49.1786 19.9973H50.6791C50.9042 19.9973 51.0092 20.1173 51.0092 20.3574V37.763C51.0092 37.9131 50.9342 38.0031 50.7992 38.0031C48.3784 37.9948 45.9576 37.9848 43.5368 37.9731C43.5104 37.954 43.4896 37.928 43.4768 37.8981L36.1244 20.3874C36.1199 20.3848 36.1147 20.3834 36.1094 20.3834C36.1042 20.3834 36.099 20.3848 36.0944 20.3874L36.0044 20.4024V37.793C36.0044 37.9431 36.0044 38.0031 35.8093 38.0031H31.698C31.6539 38.0033 31.6111 37.9873 31.578 37.9581C31.5433 37.9273 31.5218 37.8843 31.518 37.838L31.503 37.5529V23.2533C31.503 23.0133 31.593 22.8032 31.773 22.6231C32.6257 21.7602 33.476 20.8949 34.3239 20.0273L34.4289 19.9973H38.7353C38.9303 19.9973 39.0354 20.0573 39.0954 20.1924C41.5481 25.9942 43.9889 31.8011 46.4178 37.613Z" fill="#001257"/>
<path d="M84.0185 28.9995C84.0185 29.0896 84.0035 29.1496 83.9585 29.1946L75.3007 37.9424C75.2407 38.0024 75.1807 38.0174 75.1207 37.9724C75.0456 37.9424 75.0156 37.8824 75.0156 37.7924V33.591C75.0156 33.471 75.0756 33.3659 75.1657 33.2609L79.217 29.1796C79.247 29.1496 79.262 29.0746 79.262 28.9995C79.262 28.9245 79.262 28.8495 79.202 28.8195L75.1807 24.7382C75.0756 24.6331 75.0306 24.5281 75.0306 24.4231V20.2067C75.0306 20.1167 75.0456 20.0567 75.1207 20.0267C75.1807 19.9816 75.2407 19.9967 75.3007 20.0567L83.9585 28.8045C84.0035 28.8495 84.0185 28.9095 84.0185 28.9995Z" fill="#E40A2C"/>
<path d="M63.5947 19.9972C64.8701 19.9972 65.9804 20.3423 66.8957 21.0175C67.3982 21.3457 67.8065 21.7993 68.0801 22.3334C68.3538 22.8676 68.4834 23.4639 68.4562 24.0635C68.4562 24.8287 68.2311 25.504 67.841 26.0891C67.4209 26.6893 66.8807 27.0945 66.1905 27.2895C65.8904 27.3646 65.4402 27.3946 64.8401 27.3946H63.4596V27.4096H63.4746C65.8154 27.4696 67.5259 28.0848 68.6063 29.3002C69.5516 30.3505 69.8967 31.701 69.6566 33.4115C69.5717 34.1403 69.3188 34.8394 68.9178 35.4539C68.5168 36.0684 67.9787 36.5814 67.3459 36.9526C66.2205 37.6429 64.8401 38.003 63.2045 38.003H54.1566C54.0366 38.003 53.9766 37.8829 53.9766 37.6729V23.1182C53.9766 22.9681 54.0366 22.8331 54.1566 22.6981C54.3517 22.518 55.207 21.6477 56.7074 20.0722C56.7272 20.0528 56.7507 20.0375 56.7765 20.0272C56.8022 20.0169 56.8298 20.0118 56.8575 20.0122H63.5947V19.9972ZM58.6881 30.5006C58.6626 30.5004 58.6374 30.5057 58.6141 30.5161C58.5908 30.5264 58.57 30.5416 58.553 30.5606C58.5367 30.5789 58.5244 30.6002 58.5166 30.6235C58.5089 30.6467 58.5059 30.6712 58.508 30.6956V34.822L58.523 34.897C58.5337 34.9182 58.5485 34.937 58.5666 34.9525C58.5846 34.9679 58.6055 34.9797 58.6281 34.987L58.6881 35.002H63.3246C63.8947 35.002 64.4349 34.7769 64.825 34.3868C65.2302 33.9817 65.4552 33.4565 65.4552 32.9013V32.6012C65.4579 32.3214 65.4033 32.044 65.295 31.786C65.1866 31.528 65.0267 31.2948 64.825 31.1008C64.4222 30.7128 63.8838 30.4974 63.3246 30.5006H58.6731H58.6881ZM58.6881 22.9982C58.664 23.0019 58.641 23.0105 58.6204 23.0234C58.5997 23.0363 58.5819 23.0532 58.568 23.0732C58.5486 23.093 58.5333 23.1164 58.523 23.1422C58.5127 23.168 58.5076 23.1955 58.508 23.2232V27.2895C58.508 27.3496 58.538 27.3946 58.568 27.4396C58.6131 27.4846 58.6581 27.4996 58.7181 27.4996H62.4843C63.0245 27.4996 63.5346 27.2745 63.9248 26.8694C64.2999 26.4793 64.5249 25.9391 64.5249 25.3839V25.0838C64.5173 24.5355 64.303 24.0104 63.9248 23.6134C63.7375 23.4203 63.5137 23.2665 63.2664 23.1609C63.0191 23.0553 62.7532 22.9999 62.4843 22.9982H58.7031H58.6881Z" fill="#001257"/>
<path d="M74.8848 38.0029C75.0049 38.063 75.0349 38.138 75.0049 38.228C75.0019 38.2553 74.9916 38.2812 74.9749 38.303L66.5722 46.9458C66.5359 46.9806 66.4875 47.0001 66.4371 47.0001C66.3868 47.0001 66.3384 46.9806 66.3021 46.9458L63.7813 44.335C63.6312 44.1849 63.6612 44.0799 63.8713 43.9899C64.4865 43.7498 65.2217 43.2396 66.047 42.4894C66.9623 41.6791 68.2827 40.4037 69.9783 38.6631L70.4434 38.183C70.5635 38.0629 70.7435 38.0029 71.0286 38.0029C72.314 37.9961 73.5994 37.9961 74.8848 38.0029Z" fill="#E40A2C"/>
</g>
<defs>
<clipPath id="clip0_2651_1448">
<rect width="61" height="40" fill="white" transform="translate(24 9)"/>
</clipPath>
</defs>
</svg>
