<svg width="190" height="58" viewBox="0 0 190 58" fill="none" xmlns="http://www.w3.org/2000/svg">
<path d="M48.8141 50.0167C48.6749 50.2116 48.48 50.3508 48.2202 50.425C47.9511 50.4993 47.5985 50.4993 47.3479 50.3972C46.8746 50.2023 46.6148 49.7476 46.6427 49.0887C46.6705 48.4392 46.8097 47.938 47.0974 47.5205C47.3015 47.2235 47.5706 46.9637 47.9325 46.8338C48.0532 46.7874 48.2109 46.7595 48.378 46.7595C48.5728 46.7595 48.7584 46.8059 48.9162 46.8709C49.0647 46.9358 49.2224 47.0286 49.3059 47.1307C49.3431 47.1771 49.3709 47.2328 49.408 47.2792C49.4823 47.3813 49.5472 47.4648 49.6122 47.5854C49.64 47.6411 49.6864 47.7061 49.6864 47.771C49.6771 47.8638 49.575 47.938 49.5008 47.9937C49.4451 48.0401 49.2967 48.1329 49.2039 48.0772C49.1575 48.0587 49.1389 47.938 49.1203 47.8731C49.0925 47.7896 49.0647 47.7153 49.0368 47.6689C48.9533 47.4648 48.8512 47.2513 48.6935 47.14C48.4522 46.9822 48.146 47.0472 47.9604 47.1771C47.7655 47.307 47.6263 47.5019 47.5149 47.6875C47.2922 48.0494 47.0974 48.634 47.2087 49.2465C47.2551 49.5063 47.3386 49.729 47.5149 49.8961C47.6727 50.0538 47.9047 50.1837 48.2202 50.1373C48.4615 50.1002 48.6656 49.9146 48.7956 49.7569C48.944 49.5806 49.0461 49.395 49.1853 49.1908C49.3245 49.1815 49.5101 49.2001 49.5472 49.3022C49.575 49.3857 49.5287 49.5342 49.5008 49.6177C49.473 49.7198 49.4451 49.8126 49.4173 49.9054C49.3059 50.4157 49.2131 50.9168 49.1575 51.4643C49.1482 51.5757 49.1389 51.7056 49.1111 51.7799C49.0832 51.8355 48.9997 51.8819 48.9162 51.9098C48.842 51.9376 48.7028 51.9655 48.6656 51.9005C48.6378 51.8541 48.6656 51.7427 48.6749 51.6778C48.7492 51.1488 48.8048 50.5921 48.8141 50.0167ZM59.9127 48.0958C59.7456 48.4113 59.5508 48.699 59.3188 48.9031C59.3652 48.5412 59.4951 48.2443 59.6157 47.8917C59.6714 47.7432 59.7271 47.5854 59.8106 47.4369C59.8756 47.307 59.9962 47.075 60.1818 47.075C60.3674 47.0658 60.2931 47.2606 60.2467 47.3813C60.1539 47.6411 60.0333 47.8638 59.9127 48.0958ZM59.1332 50.3972C59.1332 49.9703 59.2167 49.6362 59.2724 49.265C59.5415 48.9681 59.792 48.6526 60.024 48.2814C60.1911 48.0216 60.321 47.7246 60.4231 47.372C60.4509 47.2699 60.5066 47.1214 60.488 47.0008C60.4695 46.843 60.2467 46.7781 60.0426 46.7874C59.7642 46.8059 59.5972 46.9915 59.4672 47.205C59.3373 47.4184 59.226 47.6411 59.1425 47.8638C58.9569 48.3742 58.8919 48.931 58.8084 49.4785C58.697 49.5806 58.6042 49.7105 58.4836 49.8033C58.4465 49.8404 58.4094 49.8775 58.3722 49.9146C58.2423 50.0724 58.1031 50.2209 57.8804 50.2858C57.8247 49.9054 57.9268 49.5249 57.9546 49.163C57.9825 48.7918 58.066 48.4392 58.1495 48.1236C58.2794 48.1515 58.465 48.1515 58.5114 48.0494C58.5393 47.9752 58.5022 47.8081 58.4558 47.771C58.3908 47.7246 58.3073 47.7525 58.2238 47.7246C58.2423 47.6225 58.2516 47.5297 58.2702 47.4184C58.2794 47.3534 58.3444 47.1864 58.3166 47.1214C58.298 47.075 58.1681 47.0658 58.1217 47.0843C58.0474 47.1214 58.0289 47.2977 58.001 47.4091C57.9639 47.5297 57.9268 47.6411 57.8804 47.7339H57.0824C56.9896 47.7339 56.8875 47.7339 56.8411 47.7617C56.7576 47.8081 56.7576 47.9844 56.8318 48.0494C56.9153 48.1144 57.138 48.1051 57.2865 48.1051C57.4628 48.1051 57.6391 48.0958 57.7969 48.1144C57.7691 48.2072 57.7227 48.3 57.6948 48.3835C57.6484 48.4948 57.602 48.5969 57.5556 48.699C57.4164 48.9681 57.2679 49.2465 57.1009 49.4785C57.0174 49.5991 56.8875 49.6919 56.8132 49.8126C56.7668 49.8868 56.739 50.026 56.8596 50.026C56.9339 50.026 56.9988 49.9239 57.0452 49.8682C57.203 49.6826 57.3793 49.4692 57.4907 49.2836C57.4628 49.4506 57.3886 49.6362 57.3607 49.8497C57.3422 49.9518 57.3422 50.0631 57.3329 50.1652C57.3143 50.3322 57.2865 50.5085 57.3515 50.6292C57.4257 50.7684 57.667 50.7498 57.8155 50.6849C57.9918 50.6013 58.1495 50.4343 58.3166 50.2951C58.4558 50.1745 58.5764 50.026 58.697 49.9054C58.7156 49.8868 58.7341 49.859 58.7527 49.8682C58.762 50.1281 58.6785 50.49 58.8177 50.6477C58.8733 50.7127 58.994 50.7684 59.1146 50.7405C59.2167 50.7127 59.2817 50.5828 59.328 50.4714C59.4672 50.1188 59.6714 49.8033 59.8756 49.5713C59.9776 49.8868 60.0519 50.2673 60.2746 50.4621C60.3303 50.5085 60.4045 50.5549 60.4787 50.5642C60.6087 50.5828 60.7386 50.5271 60.8314 50.4714C61.0448 50.3601 61.1933 50.2301 61.351 50.0817C61.4253 50.0074 61.5273 49.9332 61.5273 49.8126C61.4345 49.7847 61.3418 49.8311 61.2768 49.8682C61.1283 49.9518 61.0448 50.0724 60.8963 50.1652C60.8221 50.2116 60.72 50.2673 60.6365 50.2394C60.5344 50.2116 60.5159 50.0817 60.5066 49.9517C60.4973 49.8218 60.488 49.6826 60.4787 49.5806C60.4602 49.395 60.4323 49.0145 60.2653 48.9774C60.1911 48.9588 60.0797 49.0052 60.0148 49.0331C59.9127 49.0887 59.8106 49.2279 59.7364 49.33C59.5044 49.6362 59.2909 50.0353 59.1332 50.3972ZM72.1062 48.8103H72.1155C72.2733 48.8011 72.431 48.866 72.5053 48.9774C72.6166 49.1351 72.6166 49.4599 72.5517 49.6641C72.4867 49.8682 72.329 50.026 72.1526 50.1188C72.0598 50.1745 71.9485 50.2209 71.8464 50.2394C71.4474 50.3044 71.3824 49.8126 71.4659 49.4785C71.4938 49.3764 71.5123 49.2743 71.5587 49.2094C71.5866 49.1723 71.6701 49.1259 71.7258 49.0887C71.8557 48.9774 71.8742 48.8011 72.1062 48.8103ZM66.5106 48.8753C66.5013 48.8846 66.492 48.9124 66.4734 48.9031C66.5198 48.5783 66.6405 48.2907 66.7518 47.9659C66.8075 47.8174 66.8632 47.6597 66.9282 47.5297C66.9931 47.3905 67.0673 47.2513 67.1694 47.1678C67.2158 47.1307 67.3921 47.0286 67.4571 47.1214C67.5035 47.1957 67.4385 47.3349 67.4107 47.3998C67.3086 47.6597 67.188 47.8824 67.0673 48.1144C66.9003 48.3928 66.7333 48.6526 66.5106 48.8753ZM66.2878 50.3972C66.2878 50.0353 66.3528 49.7198 66.4085 49.4135C66.4178 49.3671 66.4178 49.3114 66.427 49.2743C66.4363 49.2465 66.492 49.2001 66.5291 49.163C66.5662 49.1259 66.6034 49.0795 66.6312 49.0423C67.0395 48.5691 67.3921 48.0772 67.5777 47.3905C67.6056 47.2792 67.6612 47.1493 67.6612 47.0379C67.652 46.843 67.4107 46.7781 67.2065 46.7874C66.8818 46.8152 66.7426 47.0379 66.6034 47.2699C66.4734 47.4833 66.3806 47.6875 66.2971 47.9102C66.1394 48.3371 66.0744 48.7918 66.0002 49.265C65.9909 49.33 65.9909 49.4135 65.9723 49.4692C65.9538 49.5156 65.8981 49.5527 65.8517 49.5991C65.7682 49.6826 65.6661 49.7569 65.629 49.8682C65.6104 49.9146 65.6197 50.0167 65.7032 50.0167C65.7589 50.0167 65.8331 49.9146 65.861 49.8775C65.8795 49.859 65.8981 49.8404 65.9074 49.8404C65.9259 50.1002 65.8331 50.49 65.9909 50.6385C66.0373 50.6849 66.1487 50.7405 66.2507 50.722C66.3342 50.7034 66.4085 50.6106 66.4456 50.5364C66.492 50.4436 66.5198 50.3508 66.557 50.258C66.6869 49.9981 66.8539 49.7383 67.0302 49.5527C67.1509 49.8961 67.2344 50.3972 67.5685 50.5178C67.8283 50.6106 68.0788 50.4065 68.2273 50.2951C68.6449 49.9889 68.9511 49.5342 69.3409 49.2279C69.443 49.2743 69.4986 49.33 69.5079 49.4414C69.5358 49.6455 69.4615 49.8126 69.3873 49.9889C69.3594 50.0724 69.3223 50.1559 69.2945 50.2301C69.2574 50.3137 69.2295 50.4157 69.2202 50.49C69.1924 50.7684 69.545 50.657 69.7121 50.6013C70.0276 50.49 70.2874 50.3137 70.4916 50.1002C70.538 50.0538 70.5658 50.0074 70.6029 49.9517C70.64 49.8961 70.7143 49.8404 70.7607 49.794C70.7792 49.7754 70.7885 49.7476 70.8071 49.7569C70.6957 50.2951 71.0948 50.49 71.5031 50.5271C71.7722 50.5457 71.9949 50.4621 72.1712 50.3508C72.5238 50.1373 72.7744 49.8311 72.8765 49.3486C72.9414 49.0145 72.9229 48.6433 72.7094 48.4948C72.5424 48.3742 72.2176 48.402 71.9949 48.4763C72.0691 48.3278 71.9299 48.1979 71.7722 48.235C71.6608 48.2628 71.5587 48.3464 71.4752 48.4206C71.3917 48.4948 71.2896 48.5783 71.2339 48.6711C71.169 48.7732 71.1226 48.8846 71.0762 49.0052C71.0298 49.1166 70.9927 49.2465 70.9277 49.3486C70.8813 49.4042 70.8071 49.4599 70.7514 49.5156C70.6215 49.6455 70.5287 49.7476 70.3988 49.8682C70.3338 49.9332 70.2874 49.9981 70.2317 50.0538C70.0833 50.193 69.8977 50.2673 69.6935 50.3229C69.7492 50.026 69.8791 49.7662 69.9348 49.4135C69.9812 49.0516 69.8884 48.7083 69.6471 48.5876C69.4708 48.4948 69.3316 48.5969 69.2017 48.6804C69.1553 48.7083 69.0254 48.7732 69.0254 48.8567C69.0254 48.9495 69.1089 48.9681 69.146 49.0331C69.0347 49.163 68.9419 49.3022 68.8398 49.4228C68.7377 49.5527 68.5985 49.6548 68.4871 49.7754C68.4686 49.794 68.4593 49.8126 68.45 49.8311C68.3572 49.8868 68.2737 49.9703 68.1716 50.0445C68.0974 50.1095 67.9489 50.2116 67.8283 50.2023C67.7169 50.193 67.6798 50.0538 67.6705 49.9146C67.6612 49.7754 67.652 49.6362 67.6427 49.5342C67.6241 49.3393 67.5963 48.9588 67.4293 48.931C67.3643 48.9124 67.2437 48.9588 67.188 48.9867C67.0859 49.0423 66.9838 49.1723 66.9096 49.2743C66.659 49.6362 66.4642 50.026 66.2878 50.3972ZM76.0316 51.0282C76.0872 50.9818 76.1708 50.9076 76.2264 50.889C76.4028 51.0282 76.7554 51.4365 76.5141 51.7149C76.4028 51.8448 76.1522 51.9376 75.9202 51.9376C75.7253 51.9376 75.5583 51.8541 75.5769 51.6128C75.5861 51.5015 75.6604 51.4087 75.7253 51.3251C75.8089 51.2324 75.9202 51.1303 76.0316 51.0282ZM78.5278 48.1422C78.3608 48.4392 78.1752 48.7083 77.9525 48.9031C77.9989 48.5412 78.1195 48.2536 78.2494 47.9102C78.3051 47.7617 78.3608 47.604 78.4443 47.4555C78.5093 47.3256 78.5928 47.1678 78.732 47.1029C78.834 47.0565 78.964 47.075 78.9454 47.2235C78.9361 47.307 78.899 47.3998 78.8619 47.4833C78.7598 47.7061 78.6392 47.938 78.5278 48.1422ZM77.7669 50.3972C77.7576 50.0724 77.8133 49.8218 77.8597 49.5434C77.8782 49.4506 77.869 49.3486 77.9061 49.265C77.9246 49.2279 77.971 49.1908 78.0082 49.1537C78.2587 48.8846 78.4536 48.6062 78.6577 48.2907C78.8248 48.0308 78.9547 47.7246 79.0475 47.3905C79.0753 47.2885 79.131 47.14 79.1217 47.0286C79.1124 46.843 78.8712 46.7781 78.667 46.7874C78.2587 46.8152 78.101 47.1864 77.9432 47.4833C77.8504 47.6689 77.7669 47.8638 77.7019 48.0772C77.5906 48.4577 77.5256 48.8753 77.4606 49.2929C77.4514 49.3578 77.4514 49.4321 77.4328 49.4785C77.4142 49.5342 77.3307 49.5898 77.2843 49.6362C77.2287 49.6826 77.173 49.7476 77.1359 49.794C77.108 49.8218 77.108 49.8682 77.0802 49.8961C77.0431 49.961 76.9688 50.0074 76.9131 50.0724C76.8482 50.1281 76.7925 50.1837 76.7275 50.2301C76.5884 50.3229 76.4677 50.4343 76.3285 50.5178C76.1708 50.3786 76.0223 50.2209 75.9295 50.026C75.8738 49.9054 75.8553 49.7847 75.8831 49.6548C75.9573 49.3114 76.2728 49.1259 76.5048 48.9403C76.5884 48.8753 76.6533 48.8103 76.7461 48.7361C76.8203 48.6711 76.9224 48.5784 76.9503 48.4948C76.9688 48.4577 76.9688 48.3742 76.9595 48.3371C76.8853 48.1515 76.542 48.2628 76.412 48.3278C76.2636 48.402 76.1522 48.4856 76.0594 48.5876C75.8831 48.7825 75.7439 49.0145 75.6697 49.2743C75.6604 49.3114 75.6604 49.3671 75.6418 49.4042C75.6325 49.4321 75.5861 49.4599 75.549 49.4878C75.4284 49.5991 75.2892 49.7012 75.215 49.8311C75.1593 49.8404 75.1222 49.8961 75.0758 49.9332C75.0294 49.9703 74.983 49.9982 74.9366 50.0353C74.9087 50.0631 74.8716 50.1281 74.8159 50.1281C74.7695 50.1188 74.7417 49.9981 74.7231 49.9332C74.7046 49.8497 74.686 49.7754 74.686 49.6826C74.686 49.5713 74.7602 49.3115 74.6767 49.2465C74.621 49.2001 74.4911 49.2279 74.4076 49.2279C74.3334 49.497 74.1849 49.729 73.9993 49.9146C73.9436 49.9703 73.8694 50.0631 73.7673 50.0538C73.656 50.0445 73.6188 49.8868 73.6188 49.7569C73.6188 49.3764 73.7209 49.0145 73.8416 48.7361C73.7859 48.7268 73.7116 48.699 73.6281 48.6804C73.5539 48.6619 73.4518 48.634 73.3961 48.6526C73.3219 48.6804 73.3126 48.8753 73.294 48.9774C73.2569 49.2094 73.1549 49.4042 73.0528 49.5713C72.9971 49.6641 72.9136 49.7198 72.8579 49.794C72.8301 49.8311 72.7837 49.9146 72.8022 49.9703C72.8393 50.1002 73.0064 49.961 73.0528 49.9146C73.0992 49.859 73.1456 49.794 73.1827 49.7662C73.2013 50.0538 73.1827 50.3972 73.3868 50.49C73.5817 50.5828 73.823 50.3972 73.9436 50.3044C74.0364 50.2301 74.1292 50.1559 74.2035 50.0724C74.2313 50.0445 74.2406 49.9982 74.2777 49.9889C74.3427 50.1281 74.4076 50.3044 74.5375 50.3786C74.7231 50.49 74.9644 50.3322 75.085 50.2301C75.1593 50.1652 75.215 50.0817 75.2799 50.0167C75.3634 50.0074 75.4005 49.9332 75.4469 49.8961C75.3727 50.3786 75.6697 50.6199 76.0037 50.7405C75.8553 50.8704 75.7253 50.9911 75.5954 51.1396C75.4748 51.2695 75.317 51.4365 75.2985 51.6592C75.2799 51.8912 75.4191 52.0397 75.5769 52.1232C75.7439 52.2067 75.9944 52.2346 76.2079 52.1882C76.5884 52.1232 76.9781 51.9098 76.9781 51.4643C76.9781 51.2695 76.8853 51.121 76.8018 50.9911C76.709 50.8612 76.6069 50.7498 76.4863 50.657C76.6069 50.5549 76.7461 50.4621 76.876 50.3508C77.0059 50.2487 77.1451 50.1466 77.2287 50.0167C77.2472 49.9889 77.2472 49.961 77.2658 49.9332C77.2936 49.8961 77.3307 49.8682 77.3586 49.8404C77.3771 50.1095 77.2843 50.4529 77.4235 50.6199C77.4792 50.6848 77.6277 50.7591 77.7483 50.7034C77.8411 50.657 77.8968 50.5364 77.9432 50.425C78.0453 50.1373 78.2123 49.8868 78.3793 49.6734C78.4165 49.627 78.4443 49.5806 78.4907 49.5527C78.5557 49.7662 78.6113 49.9889 78.7134 50.1837C78.8062 50.3601 78.9454 50.5642 79.2052 50.5364C79.428 50.5085 79.6043 50.3508 79.762 50.2394C79.8455 50.1745 79.9198 50.1095 79.9847 50.0445C80.0497 49.9703 80.1425 49.8961 80.1425 49.7847C80.0497 49.7569 79.9569 49.8033 79.8919 49.8404C79.827 49.8775 79.762 49.9332 79.6971 49.9796C79.6043 50.0631 79.428 50.2301 79.2702 50.2209C79.1032 50.2023 79.1217 49.9703 79.1032 49.794C79.0939 49.6826 79.0846 49.5713 79.066 49.4692C79.0382 49.2743 79.0196 48.9774 78.8619 48.9495C78.7969 48.9403 78.6949 48.9681 78.6392 48.9959C78.5278 49.0423 78.4257 49.1908 78.3422 49.3022C78.1381 49.627 77.9339 50.0353 77.7669 50.3972ZM83.743 46.8802C83.6966 46.8059 83.576 46.8152 83.4646 46.8152C83.3811 46.8152 83.279 46.8245 83.2234 46.8523C83.1491 46.8894 83.0934 47.0194 83.047 47.1122C82.9171 47.3627 82.8336 47.604 82.7594 47.9009C82.7408 47.9659 82.7223 48.0401 82.7315 48.0865C82.7408 48.1329 82.8058 48.1422 82.8243 48.17C82.7594 48.5134 82.6851 48.8939 82.6666 49.3207C82.6573 49.5156 82.6573 49.7383 82.6573 49.9703C82.6573 50.1559 82.6387 50.4807 82.7501 50.5364C82.8151 50.5642 82.9264 50.5364 82.9914 50.5178C83.0749 50.4993 83.1491 50.4807 83.1862 50.4343C83.177 50.0909 83.1491 49.7662 83.1955 49.4506C83.279 48.8382 83.3904 48.2628 83.5203 47.6968C83.576 47.4184 83.6966 47.1586 83.743 46.8802ZM65.1093 47.3163C65.3228 47.2699 65.5733 47.2977 65.7867 47.2977C65.8517 47.2977 65.9352 47.2885 65.9816 47.2606C66.0837 47.1957 66.0651 46.9637 65.9723 46.908C65.9259 46.8709 65.8239 46.8709 65.7496 46.8616C65.3413 46.8245 64.8959 46.8152 64.4783 46.843C64.3669 46.8523 64.1442 46.8523 64.07 46.908C64.0329 46.9358 63.9958 47.0472 63.9772 47.0936C63.9308 47.2142 63.8844 47.3256 63.8937 47.4926C64.2277 47.4648 64.5061 47.3813 64.8217 47.3349C64.7289 48.2721 64.5247 49.1073 64.4876 50.1095C64.4876 50.2023 64.4597 50.4714 64.5061 50.5271C64.5618 50.6013 64.6917 50.5364 64.7196 50.5085C64.7845 50.4436 64.8031 50.2951 64.8217 50.1652C64.8402 50.026 64.8588 49.8868 64.8773 49.7754C64.998 49.0516 65.1372 48.3928 65.2764 47.7061C65.2856 47.6504 65.3228 47.5483 65.3135 47.5205C65.3042 47.4833 65.2392 47.4462 65.2021 47.4184C65.1743 47.3813 65.1279 47.3534 65.1093 47.3163ZM103.063 49.0795C103.193 48.9681 103.221 48.8196 103.444 48.8103C103.797 48.8011 103.954 49.0516 103.926 49.4135C103.889 49.8218 103.694 50.026 103.388 50.1745C103.258 50.2394 103.082 50.2858 102.952 50.2116C102.822 50.1281 102.748 49.9239 102.757 49.6826C102.766 49.5527 102.822 49.3114 102.878 49.2279C102.924 49.1444 103.008 49.1259 103.063 49.0795ZM99.1659 47.7246C99.1845 47.5112 99.2495 47.3163 99.2587 47.1214C99.2309 47.075 99.1381 47.0658 99.0824 47.0843C98.9804 47.1122 98.9711 47.307 98.9339 47.4184C98.8968 47.5483 98.8504 47.6504 98.8133 47.7339H98.0153C97.9225 47.7339 97.8204 47.7339 97.774 47.7617C97.6997 47.7989 97.6812 47.9752 97.7461 48.0401C97.8204 48.1144 98.0431 48.1051 98.2009 48.1051H98.7298C98.6834 48.235 98.6277 48.3464 98.5813 48.467C98.4421 48.8196 98.2565 49.1444 98.0524 49.4321C97.9689 49.5527 97.8668 49.6455 97.7833 49.7569C97.6905 49.8218 97.6069 49.9146 97.5142 50.0074C97.4678 50.0445 97.4214 50.0817 97.3657 50.1281C97.3193 50.1652 97.2729 50.2301 97.1986 50.2116C97.0687 50.1837 97.1244 49.8311 97.1522 49.7198C97.1986 49.5527 97.3007 49.4135 97.3007 49.2465C97.3007 49.0795 97.1337 48.9774 96.9574 49.0609C96.9017 49.0887 96.8553 49.1537 96.7996 49.2094C96.6511 49.3857 96.5583 49.5342 96.4006 49.7105C96.3171 49.794 96.2057 49.9054 96.0851 49.9981C95.983 50.0724 95.7881 50.2116 95.6582 50.1373C95.519 50.0538 95.6396 49.8404 95.6953 49.7569C95.8252 49.5434 95.9923 49.3857 96.1779 49.2465C96.382 49.0887 96.5583 48.9681 96.7903 48.8753C96.8739 48.8382 96.9481 48.8289 97.0502 48.8011C97.1058 48.7825 97.2265 48.7361 97.2265 48.6897C97.2358 48.5969 97.0687 48.5412 96.9759 48.5412C96.7439 48.5412 96.5305 48.6619 96.3449 48.7454C96.1593 48.8382 96.0108 48.9403 95.8345 49.0702C95.686 49.1815 95.5376 49.33 95.3984 49.4692C95.3334 49.5342 95.2592 49.6084 95.1849 49.6734C95.12 49.7383 95.0086 49.8218 95.0179 49.9332C95.0179 49.9703 95.0457 50.0074 95.0829 50.0167C95.1757 50.026 95.1942 49.9332 95.2592 49.9054C95.2313 49.9703 95.2128 50.026 95.1942 50.1002C95.1757 50.1652 95.1385 50.2394 95.1478 50.3137C95.1571 50.5364 95.3891 50.6385 95.6304 50.6106C95.751 50.6013 95.8809 50.5549 95.983 50.4993C96.2799 50.3601 96.5119 50.0445 96.7068 49.8404C96.679 50.1281 96.6975 50.3879 96.8831 50.4714C97.1244 50.5828 97.3564 50.4157 97.5049 50.3044C97.6348 50.2116 97.7276 50.0909 97.8111 49.9981C97.9039 49.961 97.9596 49.8775 98.0245 49.8033C98.173 49.627 98.3122 49.4414 98.4328 49.265C98.405 49.4414 98.3308 49.6177 98.3029 49.8218C98.2844 49.9239 98.2936 50.026 98.2751 50.1373C98.238 50.425 98.2101 50.7405 98.5535 50.7127C98.7484 50.6941 98.8968 50.5735 99.0267 50.4621C99.2031 50.3229 99.3423 50.1837 99.4907 50.026C99.5186 49.9981 99.5557 49.9703 99.5928 49.9425C99.7691 49.7662 99.9454 49.5434 100.14 49.4228C100.168 49.6177 100.233 49.8218 100.298 50.0074C100.382 50.2301 100.465 50.5085 100.641 50.6106C100.79 50.7034 100.957 50.6477 101.124 50.5921C101.458 50.4807 101.727 50.2673 101.922 50.0353C101.959 49.9889 101.978 49.9425 102.015 49.9054C102.043 49.8682 102.098 49.8218 102.135 49.7847C102.145 49.7754 102.154 49.7476 102.173 49.7569C102.07 50.2951 102.442 50.49 102.878 50.5178C103.23 50.5457 103.5 50.4065 103.713 50.2301C103.926 50.0538 104.093 49.8404 104.186 49.5713C104.279 49.2929 104.344 48.8753 104.205 48.6247C104.066 48.3742 103.694 48.3556 103.37 48.4577C103.435 48.3464 103.342 48.2257 103.24 48.2072C103.101 48.1886 102.952 48.3092 102.878 48.3742C102.785 48.4484 102.683 48.5412 102.618 48.6433C102.544 48.7454 102.488 48.8753 102.442 48.9959C102.386 49.1259 102.349 49.265 102.265 49.3578C102.21 49.4321 102.126 49.4878 102.061 49.5527C101.996 49.6177 101.913 49.6826 101.857 49.7569C101.848 49.7754 101.839 49.8126 101.82 49.8311C101.783 49.8868 101.709 49.9425 101.644 49.9981C101.514 50.1095 101.328 50.2858 101.133 50.1559C100.985 50.0538 100.938 49.8497 100.873 49.6362C100.855 49.5527 100.827 49.4414 100.818 49.3114C100.818 49.2558 100.808 49.2001 100.799 49.1351C100.79 49.0795 100.79 49.0052 100.771 48.9681C100.734 48.9031 100.539 48.8289 100.428 48.8475C100.326 48.866 100.224 48.9959 100.15 49.0702C99.9362 49.2929 99.7413 49.5063 99.5186 49.7105C99.4722 49.7476 99.4258 49.7847 99.3794 49.8311C99.2959 49.9146 99.2309 50.0167 99.1381 50.0909C99.0453 50.1745 98.9432 50.2301 98.8226 50.2765C98.7669 49.8961 98.8783 49.5249 98.8968 49.1537C98.9154 48.7825 99.0175 48.4299 99.0917 48.1144C99.2123 48.1329 99.3608 48.1608 99.4351 48.0772C99.4907 48.0123 99.4536 47.8081 99.3979 47.7617C99.3423 47.7339 99.2402 47.7432 99.1659 47.7246ZM100.771 47.1493C100.66 47.1678 100.558 47.2699 100.502 47.3349C100.456 47.3905 100.363 47.539 100.354 47.6225C100.317 47.9566 100.716 48.0123 100.911 47.8638C101.013 47.7803 101.087 47.6225 101.087 47.4833C101.078 47.307 100.957 47.1214 100.771 47.1493ZM53.3333 48.8103H53.3426C53.621 48.8011 53.7973 48.9681 53.8252 49.2558C53.8623 49.7569 53.6117 50.0074 53.2869 50.1652C53.1849 50.2209 53.0364 50.2858 52.8972 50.2394C52.6652 50.1559 52.6188 49.7847 52.693 49.4878C52.7116 49.4042 52.7487 49.2743 52.7858 49.2187C52.8137 49.1815 52.9065 49.1351 52.9622 49.098C53.0921 48.9774 53.1013 48.8011 53.3333 48.8103ZM53.2313 48.4763C53.2962 48.3464 53.2034 48.2164 53.0457 48.2257C52.8879 48.2443 52.758 48.3742 52.6652 48.4577C52.5817 48.532 52.4982 48.6155 52.4425 48.7175C52.3868 48.8196 52.3404 48.931 52.294 49.0516C52.2476 49.1537 52.2105 49.2929 52.127 49.3764C52.0991 49.4042 52.0713 49.4228 52.0342 49.4599C51.895 49.5991 51.7558 49.7383 51.6166 49.8775C51.5609 49.9332 51.5145 50.0074 51.4588 50.0631C51.3196 50.2023 51.1155 50.2858 50.9113 50.3415C50.9485 50.1559 51.0134 49.9796 51.0691 49.794C51.1248 49.6177 51.1712 49.4042 51.1619 49.1815C51.1433 48.8939 51.0041 48.6062 50.7443 48.5691C50.5865 48.5412 50.4937 48.6433 50.3824 48.7083C50.336 48.7361 50.2246 48.7918 50.2246 48.866C50.2154 48.9588 50.3081 48.9774 50.3453 49.0423C50.1968 49.2372 50.0298 49.4599 49.8534 49.6362C49.7885 49.7012 49.7142 49.7476 49.6678 49.8218C49.6493 49.859 49.6122 49.9518 49.6307 49.9889C49.6586 50.0445 49.7421 50.0167 49.7792 49.9981C49.8256 49.9703 49.8627 49.9239 49.8906 49.8961C50.1133 49.6734 50.3174 49.4414 50.5494 49.2465C50.6608 49.2929 50.7072 49.3578 50.7257 49.4599C50.7629 49.7847 50.5773 50.0445 50.4937 50.2951C50.4659 50.3693 50.4288 50.4807 50.4288 50.5549C50.4381 50.7869 50.7814 50.6848 50.9299 50.6292C51.2547 50.5178 51.5052 50.3322 51.7001 50.1188C51.7465 50.0724 51.7743 50.026 51.8115 49.9796C51.8486 49.9239 51.9228 49.8682 51.9692 49.8218C51.9878 49.8033 51.9971 49.7754 52.0156 49.7847C51.9043 50.3229 52.2847 50.5178 52.7209 50.5457C52.99 50.5642 53.2127 50.4807 53.389 50.3693C53.7324 50.1559 53.9922 49.8311 54.085 49.3764C54.1314 49.1259 54.15 48.8382 54.0386 48.6433C53.918 48.3928 53.5468 48.3742 53.2313 48.4763ZM91.9556 49.098C92.1041 48.9867 92.1133 48.8196 92.3546 48.8103C92.5681 48.8011 92.7351 48.9124 92.8 49.0795C92.9021 49.3671 92.8 49.7198 92.6609 49.8961C92.5866 49.9889 92.4753 50.0724 92.3732 50.1281C92.2433 50.2023 92.0484 50.2858 91.8906 50.2301C91.6586 50.1373 91.6215 49.7569 91.6958 49.4692C91.7143 49.3857 91.7514 49.265 91.7886 49.2187C91.8257 49.163 91.9092 49.1259 91.9556 49.098ZM92.2433 48.4763C92.2989 48.3371 92.2061 48.2164 92.0577 48.2257C91.9278 48.235 91.8071 48.3371 91.7143 48.4113C91.6215 48.4948 91.5287 48.5784 91.4638 48.6804C91.3988 48.7825 91.3431 48.8939 91.2874 49.0145C91.2411 49.1351 91.2039 49.2651 91.1204 49.3671C91.0926 49.4042 91.0369 49.4321 90.9998 49.4692C90.907 49.562 90.7956 49.6641 90.7214 49.7662C90.6379 49.8775 90.5544 49.961 90.4337 50.0631C90.378 50.1002 90.211 50.2487 90.1275 50.2394C90.044 50.2301 90.0347 50.0167 90.0161 49.9239C89.9976 49.8033 89.9697 49.6734 89.9419 49.5806C89.8769 49.3764 89.7934 49.1351 89.6171 49.0516C89.4686 48.9774 89.3016 49.0609 89.1902 49.1351C89.1067 49.1815 89.0232 49.2465 88.949 49.3114C88.7912 49.4414 88.6798 49.6084 88.5499 49.7383C88.6427 49.4414 88.7448 49.1444 88.8005 48.7918C88.819 48.699 88.8562 48.5041 88.8098 48.4299C88.7541 48.3464 88.6056 48.3928 88.5314 48.4392C88.4479 48.4856 88.3736 48.5505 88.3179 48.6062C87.9003 48.9681 87.492 49.3486 87.1487 49.7569C87.0373 49.8311 86.9538 49.9332 86.8517 50.026C86.8053 50.0631 86.7589 50.1095 86.694 50.1466C86.6569 50.1745 86.5548 50.2487 86.4991 50.2301C86.4249 50.2116 86.4063 50.0167 86.3878 49.9054C86.3599 49.7754 86.3321 49.6641 86.3042 49.562C86.2393 49.3671 86.1465 49.1166 85.9702 49.0423C85.8217 48.9867 85.6547 49.0702 85.5526 49.1351C85.2927 49.2929 85.1071 49.5249 84.9216 49.7383C85.0236 49.4414 85.1164 49.1351 85.1721 48.7732C85.1999 48.6062 85.2556 48.3649 85.0422 48.3835C84.9587 48.3928 84.8566 48.4577 84.7916 48.5134C84.7174 48.5691 84.6524 48.634 84.5875 48.6897C84.2441 49.0052 83.9286 49.2836 83.6224 49.627C83.5203 49.7383 83.409 49.8218 83.3997 49.9981C83.5482 50.0538 83.6317 49.9054 83.7059 49.8311C83.9565 49.5713 84.2441 49.3486 84.5411 49.1723C84.5132 49.4321 84.504 49.6734 84.439 49.9146C84.4112 50.026 84.3741 50.1281 84.3462 50.2487C84.3184 50.3601 84.2627 50.49 84.2627 50.5921C84.2627 50.7498 84.4483 50.824 84.606 50.7591C84.6524 50.7405 84.6803 50.7127 84.7081 50.6849C84.7731 50.6013 84.8195 50.4807 84.8752 50.3879C84.9401 50.2951 84.9958 50.2023 85.0607 50.1095C85.1721 49.9518 85.3391 49.7105 85.5711 49.6919C86.0444 49.6455 86.0166 50.258 86.2486 50.4621C86.295 50.4993 86.3506 50.5364 86.4342 50.5271C86.6012 50.5178 86.7497 50.3879 86.8517 50.3137C86.9724 50.2209 87.093 50.1466 87.1672 49.9981C87.3343 49.859 87.4735 49.6919 87.6405 49.562C87.8076 49.4228 87.9839 49.3022 88.1695 49.1908C88.1416 49.4414 88.1416 49.6826 88.0674 49.9239C88.0395 50.026 88.0024 50.1373 87.9746 50.2487C87.9467 50.3601 87.9003 50.4807 87.8911 50.5921C87.8818 50.7869 88.1323 50.8519 88.2808 50.7498C88.3829 50.6848 88.4107 50.5457 88.4757 50.4529C88.6056 50.258 88.7262 50.0445 88.8933 49.8775C88.9675 49.8033 89.0789 49.7105 89.2088 49.7012C89.4965 49.6734 89.5985 49.9054 89.6821 50.0817C89.7749 50.2858 89.8305 50.5642 90.0904 50.5364C90.2203 50.5271 90.3595 50.425 90.4708 50.3508C90.5729 50.2765 90.7028 50.1745 90.7771 50.0817C90.8049 50.0538 90.8142 50.0074 90.8327 49.9703C90.8699 49.9146 90.9441 49.859 90.9905 49.8126C91.0091 49.794 91.0276 49.7662 91.0369 49.7754C90.9998 49.9703 91.0369 50.1745 91.1204 50.2858C91.2596 50.4621 91.5937 50.5549 91.9092 50.5364C92.2154 50.5178 92.4474 50.3693 92.6423 50.193C92.8464 50.0074 92.9764 49.794 93.0599 49.5342C93.1434 49.2558 93.1991 48.8567 93.0506 48.634C92.9207 48.3835 92.5588 48.3742 92.2433 48.4763ZM55.4955 49.6641C55.5048 49.8218 55.5234 49.9889 55.5698 50.1373C55.6162 50.2858 55.6533 50.4343 55.7368 50.5178C55.7739 50.5549 55.8667 50.5921 55.9409 50.5921C56.0616 50.5828 56.1358 50.4714 56.2008 50.3786C56.3771 50.1466 56.4792 49.8868 56.5998 49.6084C56.7112 49.3393 56.804 49.0423 56.8782 48.7268C56.8968 48.6433 56.9617 48.467 56.9246 48.402C56.906 48.3649 56.8225 48.3556 56.7854 48.3835C56.7483 48.4113 56.739 48.5412 56.7204 48.6247C56.674 48.8939 56.5998 49.1073 56.5163 49.3207C56.4049 49.6177 56.2843 49.8961 56.108 50.1095C55.9317 49.9981 55.9781 49.6734 55.9781 49.3764C55.9781 49.0516 56.0152 48.7639 56.043 48.5041C55.9688 48.4484 55.8481 48.5041 55.7925 48.5412C55.6254 49.0238 55.412 49.497 55.1429 49.8775C55.1058 49.9239 55.0594 49.9796 55.013 50.0167C54.9016 49.5527 54.9759 48.931 55.1243 48.5691C54.9666 48.5412 54.6975 48.5505 54.6418 48.6804C54.6232 48.7175 54.6139 48.7918 54.6047 48.8382C54.549 49.1351 54.484 49.3857 54.3356 49.5713C54.2799 49.6455 54.1964 49.6919 54.1407 49.7754C54.1314 49.794 54.0664 49.8868 54.0943 49.961C54.1314 50.0445 54.2428 49.9889 54.2892 49.9425C54.3912 49.859 54.484 49.729 54.5583 49.6641C54.5583 49.8682 54.5861 50.0074 54.6139 50.2116C54.6325 50.3415 54.6418 50.5178 54.7067 50.5921C54.8274 50.7405 54.9759 50.5271 55.0408 50.4436C55.1893 50.193 55.347 49.9146 55.4955 49.6641ZM105.69 49.7383C105.792 49.4414 105.884 49.1351 105.94 48.7825C105.968 48.6155 106.024 48.3278 105.782 48.3928C105.615 48.4392 105.476 48.5876 105.346 48.7083C105.003 49.0052 104.687 49.3022 104.39 49.6455C104.298 49.7569 104.177 49.8311 104.177 50.0074C104.316 50.0538 104.409 49.9146 104.483 49.8404C104.734 49.5898 105.012 49.3486 105.318 49.1723C105.291 49.4506 105.281 49.7012 105.207 49.961C105.179 50.0631 105.142 50.1837 105.105 50.3137C105.077 50.4157 105.012 50.5921 105.068 50.6849C105.133 50.7962 105.356 50.7962 105.458 50.722C105.532 50.657 105.569 50.5364 105.625 50.4436C105.68 50.3601 105.736 50.2673 105.801 50.1745C105.922 49.9982 106.042 49.8126 106.237 49.7198C106.386 49.6548 106.562 49.7012 106.655 49.7847C106.747 49.8682 106.803 50.026 106.868 50.1652C106.933 50.3229 106.998 50.5457 107.23 50.5271C107.369 50.5085 107.499 50.4065 107.611 50.3322C107.805 50.193 107.991 50.0631 108 49.7847C107.889 49.7198 107.833 49.8311 107.768 49.8961C107.666 49.9982 107.583 50.0724 107.462 50.1559C107.425 50.1837 107.323 50.258 107.276 50.2487C107.202 50.2394 107.193 50.0724 107.174 49.9889C107.156 49.8775 107.128 49.7662 107.109 49.6919C107.044 49.4599 106.952 49.163 106.766 49.0702C106.571 48.9681 106.339 49.1351 106.209 49.2372C106.089 49.33 105.968 49.4321 105.875 49.5342C105.81 49.5898 105.764 49.6919 105.69 49.7383ZM95.287 48.5598C95.2221 48.5598 95.0829 48.5412 95.0365 48.5876C95.0086 48.6155 94.9808 48.7454 94.9622 48.7918C94.8973 49.0145 94.7952 49.2001 94.7024 49.3764C94.5632 49.6455 94.4518 49.8682 94.2106 50.0074C93.9879 49.7105 93.8858 49.0423 94.0435 48.6062C93.8301 48.5876 93.6816 48.6711 93.5053 48.699C93.3847 48.9217 93.4775 49.3022 93.3383 49.5249C93.3104 49.5713 93.264 49.6177 93.2269 49.6734C93.1898 49.7198 93.1341 49.7847 93.1434 49.8497C93.1527 49.9054 93.1991 49.9425 93.2455 49.9703C93.329 49.8961 93.4032 49.7847 93.4867 49.7198C93.5795 49.9703 93.6538 50.3137 93.8487 50.4807C94.0157 50.6199 94.1734 50.4714 94.2848 50.3601C94.489 50.1466 94.6653 49.9239 94.8138 49.6826C95.0179 49.3393 95.2128 48.9959 95.287 48.5598Z" fill="black"/>
<path d="M31.2289 35.5589L30.8948 37.1365H28.4264L26.9974 44.0128H25.0208L26.4499 37.1365H24L24.3434 35.5589H31.2289ZM32.3425 35.5589L30.5886 44.0221H32.5652L33.289 40.4586H36.6576L35.9245 44.0221H37.901L39.6549 35.5589H37.6598L36.9731 38.844H33.6231L34.3098 35.5589H32.3425ZM41.4459 35.5589L40.4715 40.2823C40.388 40.6813 40.3323 41.0989 40.3323 41.4608C40.3323 43.2518 41.5016 44.1705 43.4039 44.1612C45.928 44.1612 47.1529 42.927 47.6912 40.3658L48.6934 35.5589H46.7168L45.7053 40.4401C45.3805 42.0084 44.7031 42.6394 43.6638 42.6394C42.7822 42.6394 42.3182 42.1104 42.3182 41.4237C42.3182 41.0618 42.3553 40.7185 42.4296 40.4215L43.4318 35.5589H41.4459ZM58.3814 44.0128L59.6342 35.5497H56.9523L55.2356 38.7604C54.8366 39.5214 54.3447 40.5236 53.9828 41.4608H53.9271C53.9179 40.5236 53.8158 39.5678 53.7601 38.7697L53.4724 35.5404H50.8277L48.5078 44.0035H50.3266L51.2453 40.5143C51.4773 39.6049 51.7557 38.3336 52.0155 37.2107H52.0434C52.099 38.3429 52.164 39.5121 52.2475 40.4401L52.5816 43.8643H54.122L56.0058 40.4122C56.5162 39.4843 57.0915 38.315 57.6019 37.22H57.639C57.3792 38.4357 57.1751 39.6049 57.0266 40.5236L56.4605 44.0128H58.3814ZM60.0146 43.9293C60.4694 44.0128 61.3045 44.0777 62.3531 44.0777C63.8936 44.0777 65.0628 43.8736 65.8423 43.391C66.5661 42.9549 67.1044 42.296 67.1044 41.3773C67.1044 40.4494 66.5383 39.7812 65.6474 39.5307V39.4935C66.6589 39.2244 67.5127 38.5656 67.5127 37.4984C67.5127 36.7839 67.058 36.2364 66.4455 35.9487C65.8238 35.6239 65.1278 35.5125 64.1534 35.5125C63.244 35.5125 62.381 35.5868 61.7221 35.7167L60.0146 43.9293ZM62.7058 40.2359H63.3275C64.2462 40.2359 65.0164 40.4865 65.0164 41.3309C65.0164 42.2682 64.0421 42.6579 62.9656 42.6579C62.6779 42.6579 62.4459 42.6579 62.2047 42.6301L62.7058 40.2359ZM63.4203 36.9602C63.5688 36.9416 63.8565 36.9138 64.1998 36.9138C64.9607 36.9138 65.4897 37.1736 65.4897 37.7768C65.4897 38.5099 64.7473 38.9182 63.6616 38.9182H63.0027L63.4203 36.9602ZM73.1733 41.8228L73.3682 44.0221H75.4376L74.3704 35.5589H71.8278L67.3085 44.0221H69.4243L70.51 41.8228H73.1733ZM71.0947 40.4401L72.0041 38.6213C72.2546 38.1294 72.5145 37.4798 72.7464 36.9602H72.7836C72.8207 37.4706 72.8671 38.1573 72.9042 38.6213L73.0805 40.4401H71.0947ZM79.1216 44.0128L79.8362 40.5236L83.8357 35.5497H81.4787L80.096 37.684C79.7062 38.2965 79.4186 38.779 79.1495 39.2337H79.1216C79.0381 38.8068 78.9453 38.3985 78.7597 37.7026L78.1751 35.5589H76.0593L77.8689 40.57L77.1543 44.0221H79.1216V44.0128ZM57.2122 7.18151C57.0359 7.18151 56.8781 7.10727 56.7575 6.97736C56.6275 6.83816 56.5626 6.68041 56.5626 6.48553C56.5626 6.29066 56.6275 6.1329 56.7575 5.9937C56.8874 5.85451 57.0359 5.78955 57.2122 5.78955C57.3978 5.78955 57.5462 5.85451 57.6762 5.9937C57.8061 6.1329 57.871 6.29994 57.871 6.48553C57.871 6.67113 57.8061 6.83816 57.6762 6.97736C57.5462 7.10727 57.3885 7.18151 57.2122 7.18151ZM57.3606 7.97029C57.3606 7.77541 57.4256 7.60838 57.5462 7.47846C57.6762 7.33927 57.8246 7.27431 58.0009 7.27431C58.1865 7.27431 58.335 7.33927 58.4649 7.47846C58.5948 7.61766 58.6505 7.78469 58.6505 7.97029C58.6505 8.15588 58.5856 8.32292 58.4649 8.45283C58.335 8.59203 58.1865 8.65699 58.0009 8.65699C57.8246 8.65699 57.6762 8.59203 57.5462 8.45283C57.4256 8.31364 57.3606 8.15588 57.3606 7.97029ZM56.4141 8.65699C56.2378 8.65699 56.0893 8.59203 55.9594 8.45283C55.8295 8.31364 55.7645 8.15588 55.7645 7.97029C55.7645 7.77541 55.8295 7.60838 55.9594 7.47846C56.0893 7.33927 56.2378 7.27431 56.4141 7.27431C56.5997 7.27431 56.7482 7.33927 56.8781 7.47846C57.008 7.61766 57.073 7.78469 57.073 7.97029C57.073 8.15588 57.008 8.32292 56.8781 8.45283C56.7575 8.59203 56.5997 8.65699 56.4141 8.65699ZM61.7407 9.88191C61.917 10.0397 62.5944 10.1417 62.78 10.2067V17.1479H54.6138V20.897C54.6417 22.5116 52.4331 23.6809 51.0411 23.6809C50.3823 23.6809 49.6121 23.5138 48.7119 23.1705C49.8441 23.1148 52.4609 22.1033 52.7765 21.0269L52.7672 17.1387H48.6006V12.2204C48.7398 10.912 49.4821 10.1789 50.8184 10.0118L52.5445 10.0211C53.426 9.69632 54.0292 8.99106 54.3633 7.87749L54.6046 7.23719V15.5704H60.9241V7.23719L61.2117 7.92389C61.6015 8.86114 61.3324 9.51072 61.7407 9.88191ZM52.86 11.7379L51.6629 11.7564C50.8648 11.7286 50.4194 11.9977 50.3359 12.5545V15.357H52.86V11.7379ZM65.7031 22.3632C66.7796 22.4931 67.3735 23.087 67.4848 24.1356V28.1073H50.5586L49.0646 26.2606L45.5383 22.1033C45.1207 21.695 44.6845 21.6301 44.2298 21.8992C43.6174 22.2054 43.7287 22.7993 44.5546 23.6809C45.0464 24.2933 45.5475 24.8965 46.0579 25.4997C46.6426 26.2142 47.1622 26.836 47.6355 27.3556C48.0531 28.098 48.0531 28.8868 47.6262 29.7313C46.7353 30.9005 45.5661 31.4851 44.1185 31.4851C43.8958 31.4851 43.673 31.4759 43.4318 31.4573C42.4296 31.3274 41.5387 30.7984 40.7592 29.8612C40.3416 29.1745 40.1282 28.3857 40.1282 27.4948C40.1282 26.5298 40.3045 25.5275 40.6571 24.4789C40.787 24.2284 40.8891 24.0428 40.9726 23.9129C40.8891 24.5439 40.8613 25.0728 40.8613 25.4997C40.8613 26.7896 41.0933 27.7732 41.5573 28.4692C42.012 29.0724 42.7915 29.4622 43.905 29.6385C44.2577 29.6756 44.6103 29.657 44.9722 29.5642C45.5754 29.4065 45.9837 29.1095 46.1693 28.6641C46.1229 28.2372 45.9651 27.8846 45.696 27.5969L42.7079 24.0799C42.1512 23.4303 41.9748 22.7251 42.179 21.9734C42.4481 21.1753 42.9678 20.6371 43.738 20.3587C44.0721 20.2103 44.4247 20.136 44.7959 20.136C45.6218 20.136 46.3178 20.4608 46.8838 21.0918L51.2453 26.3813H56.9059V20.136L57.1287 20.6928C57.4349 21.4445 57.7597 21.9641 58.0752 22.2611C58.2144 22.391 58.3629 22.4745 58.5113 22.5209V26.3906H62.6594V20.136L62.8542 20.6464C63.1234 21.5373 63.6152 22.1126 64.3204 22.3632H65.7031ZM65.8702 24.6274C65.8145 24.3212 65.5361 24.182 65.0257 24.2005L64.2648 24.1913V26.3906H65.8702V24.6274ZM58.8361 29.9447C59.0403 29.9447 59.2166 30.0189 59.3558 30.1767C59.495 30.3252 59.5692 30.5108 59.5692 30.7242C59.5692 30.9469 59.495 31.1232 59.3558 31.2717C59.2166 31.4202 59.0403 31.4944 58.8361 31.4944C58.6413 31.4944 58.4742 31.4202 58.335 31.2717C58.1865 31.1232 58.1216 30.9376 58.1216 30.7242C58.1216 30.5108 58.1865 30.3252 58.335 30.1767C58.4649 30.0282 58.6413 29.9447 58.8361 29.9447ZM45.0279 31.9677C45.232 31.9677 45.3991 32.0419 45.5383 32.1904C45.6775 32.3389 45.7517 32.5245 45.7517 32.7379C45.7517 32.942 45.6775 33.1276 45.5383 33.2761C45.3991 33.4246 45.232 33.4988 45.0279 33.4988C44.833 33.4988 44.666 33.4246 44.5268 33.2761C44.3876 33.1276 44.3226 32.942 44.3226 32.7379C44.3226 32.5245 44.3876 32.3389 44.5268 32.1904C44.666 32.0512 44.833 31.9677 45.0279 31.9677ZM43.274 31.9677C43.4689 31.9677 43.6452 32.0419 43.7844 32.1904C43.9236 32.3389 43.9978 32.5245 43.9978 32.7379C43.9978 32.942 43.9236 33.1276 43.7844 33.2761C43.6452 33.4246 43.4689 33.4988 43.274 33.4988C43.0791 33.4988 42.9028 33.4246 42.7636 33.2761C42.6244 33.1276 42.5502 32.942 42.5502 32.7379C42.5502 32.5245 42.6244 32.3389 42.7636 32.1904C42.9121 32.0512 43.0791 31.9677 43.274 31.9677Z" fill="#E60012"/>
</svg>
