<svg width="190" height="58" viewBox="0 0 190 58" fill="none" xmlns="http://www.w3.org/2000/svg">
<path d="M94.8913 18.8984C97.463 18.1461 99.1855 16.6811 99.1855 14.2955C99.1855 10.6825 95.1097 9.10864 89.9542 9.10864H84.083V31.6478H91.7374C97.5358 31.6478 102.606 29.7275 102.606 25.4216C102.679 21.9868 99.5252 19.6012 94.8792 18.8984H94.8913ZM91.4584 30.3709H88.2438V10.3955H90.3909C94.1878 10.3955 95.4736 11.91 95.4736 14.1767C95.4736 14.5232 95.7647 18.255 92.0406 18.9479C92.9747 19.1261 94.7579 19.6507 96.1893 20.6901C97.6935 21.6799 98.4092 23.2538 98.4092 25.0554C98.4092 28.2031 96.2621 30.3511 91.4705 30.3511L91.4584 30.3709Z" fill="black"/>
<path d="M25.9288 30.8956C27.7847 31.7073 30.223 32.0636 32.2973 32.0636C35.8758 32.0636 42.1716 31.0143 42.1716 25.8868C42.1716 22.3332 39.0176 20.2941 33.7287 17.4433C31.2905 16.0476 28.0031 14.6519 28.0031 12.3158C28.0759 10.3955 30.223 9.22743 33.2314 9.22743C36.2397 9.22743 38.5931 10.3955 39.1632 10.6825L37.659 8.58402C36.6522 8.11879 34.4444 8 33.2192 8C29.2161 8 24.558 9.39571 24.558 13.2364C24.558 16.3248 27.4936 18.0075 32.4307 20.9276C34.7234 22.2639 38.3019 24.3625 38.3019 26.9262C38.3019 29.3118 36.0093 30.8263 32.2973 30.8263C27.9303 30.7669 24.7885 28.6684 24 28.0942L25.9288 30.8857V30.8956Z" fill="black"/>
<path d="M61.9087 32.0636C54.5455 32.0636 48.7471 27.2331 48.7471 20.4129C48.7471 13.7115 54.4727 8.76221 61.9087 8.76221C69.3448 8.76221 74.9976 13.7115 74.9976 20.4129C75.0704 27.2232 69.3448 32.0636 61.9087 32.0636ZM70.9945 20.4129C70.9945 14.2955 67.3432 10.049 61.9087 10.049C56.4742 10.049 52.8229 14.3549 52.8229 20.4129C52.8957 26.5303 56.4742 30.7768 61.9087 30.7768C67.3432 30.7768 70.9945 26.5303 70.9945 20.4129Z" fill="black"/>
<path d="M158.419 25.0158H147.756L144.469 31.6578H142.892L154.416 8.65332L166 31.6578H161.706L158.419 25.0158ZM148.338 23.7883H157.788L153.069 14.4143L148.35 23.7883H148.338Z" fill="black"/>
<path d="M130.955 9.11865V18.3739H116.143V9.11865H112.067V31.6579H116.143V19.6607H130.955V31.6579H134.958V9.11865H130.955Z" fill="black"/>
<path d="M45.1312 45.2191V45.5062H43.5542V45.328C43.5542 44.6846 42.9113 44.0511 41.771 44.0511C40.3396 44.0511 39.5511 44.9221 39.5511 46.0308V46.9019C39.5511 48.0105 40.2668 48.8816 41.771 48.8816C42.9113 48.8816 43.5542 48.2976 43.5542 47.6047V47.3671H45.1312V47.6542C45.1312 48.8816 43.9909 49.9804 41.6982 49.9804C39.26 49.9804 37.9014 48.7034 37.9014 46.892V46.0803C37.9014 44.2787 39.3328 42.9919 41.7589 42.9919C44.0516 42.9325 45.119 43.9818 45.119 45.2092L45.1312 45.2191Z" fill="black"/>
<path d="M55.7219 46.1V46.8028C55.7219 48.8419 54.2177 49.9506 51.8644 49.9506C49.4989 49.9506 48.0068 48.8419 48.0068 46.8028V46.1C48.0068 44.0609 49.511 42.8928 51.8644 42.8928C54.2298 42.9522 55.7219 44.0609 55.7219 46.1ZM49.6445 46.1V46.8523C49.6445 48.1886 50.433 48.8914 51.8644 48.8914C53.2958 48.8914 54.0842 48.248 54.0842 46.8523V46.1C54.0842 44.7637 53.2958 44.0609 51.8644 44.0609C50.433 44.0609 49.6445 44.7043 49.6445 46.1Z" fill="black"/>
<path d="M60.5858 43.1304L64.6616 47.7926V43.1304H66.1658V49.8318H64.5888L60.513 45.1101V49.8318H59.0088V43.1304H60.5858Z" fill="black"/>
<path d="M76.3316 45.0507V45.2288H74.6819V45.0507C74.6819 44.4666 74.1845 44.0014 72.8987 44.0014C71.8918 44.0014 71.2489 44.3479 71.2489 44.8725C71.2489 45.4565 71.7463 45.5753 73.3232 45.9217C75.6887 46.3276 76.465 46.7928 76.465 47.9609C76.465 49.2378 75.0336 50 73.0321 50C70.6666 50 69.5264 49.1289 69.5264 47.8421V47.6045H71.1761V47.7233C71.1761 48.4261 71.819 48.8913 73.1049 48.8913C74.1724 48.8913 74.8274 48.5449 74.8274 48.0203C74.8274 47.4362 74.4028 47.268 72.6803 46.9116C70.4604 46.5058 69.5991 46.0405 69.5991 44.9319C69.5991 43.7638 70.885 42.9521 72.9593 42.9521C75.252 42.9521 76.3195 43.8826 76.3195 45.0507H76.3316Z" fill="black"/>
<path d="M85.9866 43.1304V44.239H83.1966V49.8318H81.5469V44.239H78.7568V43.1304H85.9866Z" fill="black"/>
<path d="M90.5599 49.8217H88.9102V43.1204H92.8405C94.6964 43.1204 95.6305 43.8727 95.6305 45.0407V45.3872C95.6305 46.2582 94.9876 46.961 93.8473 47.1887L95.9944 49.8712H94.2112L92.2097 47.3669H90.4871L90.5599 49.8118V49.8217ZM90.5599 46.2681H92.5614C93.6289 46.2681 94.1384 45.9217 94.1384 45.3377V45.0506C94.1384 44.4666 93.7139 44.1201 92.6342 44.1201H90.5599V46.278V46.2681Z" fill="black"/>
<path d="M100.507 43.1304V47.268C100.507 48.3173 101.222 48.9013 102.435 48.9013C103.648 48.9013 104.364 48.3173 104.364 47.268V43.1304H105.941V47.2086C105.941 48.9508 104.728 50 102.435 50C100.143 50 98.9297 49.0102 98.9297 47.2086V43.1304H100.507Z" fill="black"/>
<path d="M116.252 45.2191V45.5062H114.675V45.328C114.675 44.6846 114.032 44.0511 112.819 44.0511C111.388 44.0511 110.599 44.9221 110.599 46.0308V46.9019C110.599 48.0105 111.315 48.8816 112.819 48.8816C114.032 48.8816 114.675 48.2976 114.675 47.6047V47.3671H116.252V47.6542C116.252 48.8816 115.112 49.9804 112.819 49.9804C110.381 49.9804 109.022 48.7034 109.022 46.892V46.0803C109.022 44.2787 110.454 42.9919 112.88 42.9919C115.173 42.9325 116.24 43.9818 116.24 45.2092L116.252 45.2191Z" fill="black"/>
<path d="M125.909 43.1304V44.239H123.046V49.8318H121.469V44.239H118.679V43.1304H125.909Z" fill="black"/>
<path d="M130.554 43.1304H128.904V49.8812H130.554V43.1304Z" fill="black"/>
<path d="M141.642 46.1V46.8028C141.642 48.8419 140.138 49.9506 137.784 49.9506C135.419 49.9506 133.927 48.8419 133.927 46.8028V46.1C133.927 44.0609 135.431 42.8928 137.784 42.8928C140.15 42.9522 141.642 44.0609 141.642 46.1ZM135.564 46.1V46.8523C135.564 48.1886 136.353 48.8914 137.784 48.8914C139.216 48.8914 140.004 48.248 140.004 46.8523V46.1C140.004 44.7637 139.216 44.0609 137.784 44.0609C136.353 44.0609 135.564 44.7043 135.564 46.1Z" fill="black"/>
<path d="M146.507 43.1304L150.583 47.7926V43.1304H152.087V49.8318H150.51L146.434 45.1101H146.361V49.8318H144.93V43.1304H146.507Z" fill="black"/>
</svg>
