<svg width="190" height="73" viewBox="0 0 190 73" fill="none" xmlns="http://www.w3.org/2000/svg">
<g clip-path="url(#clip0_709_800)">
<path d="M36.0202 41.7667V41.4597L33.4202 39.2217H33.1172C32.4022 40.0117 31.2982 40.6037 30.0632 40.6037C28.1352 40.6037 26.6182 39.1337 26.6182 37.1157C26.6182 35.0977 28.1352 33.6277 30.0632 33.6277C31.2982 33.6277 32.4022 34.2197 33.1172 35.0097H33.4202L36.0202 32.7717V32.4647C34.6552 30.7977 32.5112 29.7227 30.0842 29.7227C25.6222 29.7227 22.2432 32.8817 22.2432 37.1157C22.2432 37.2797 22.2802 37.4307 22.2912 37.5917C24.1172 38.8337 25.7292 39.8277 27.1172 40.7377C29.1182 42.0037 30.7332 43.1687 32.0632 44.2517C33.7212 43.8327 35.0652 42.9237 36.0202 41.7667ZM23.8702 41.6877C24.9122 42.9677 26.3832 43.8857 28.1182 44.2777C26.9462 43.6187 25.8112 42.9717 24.7542 42.2557C24.4442 42.0637 24.1682 41.8777 23.8702 41.6877Z" fill="#FC0000"/>
<path d="M51.0704 43.5663L50.4204 40.7583L50.1824 40.6043C50.0524 40.6703 49.9444 40.7583 49.6194 40.7583C49.1204 40.7583 48.8174 40.2313 48.5574 39.8153C48.1244 39.1563 47.7774 38.8053 47.4744 38.6523C49.0554 37.9503 50.1174 36.6343 50.1174 34.7473C50.1174 31.8293 48.1244 29.9863 44.4204 29.9863H37.9644V44.2463H42.2534V39.2443H42.6434C43.5964 39.2443 44.8104 41.3063 45.3734 42.2283C46.5434 44.0933 47.4744 44.5093 49.1424 44.5093C49.9224 44.5093 50.5724 44.2243 50.9624 43.8733L51.0704 43.5663ZM45.7414 34.9883C45.7414 35.9323 45.0484 36.3923 44.2464 36.3923H42.2534V33.4963H44.2464C45.0484 33.4963 45.7414 34.0233 45.7414 34.9883Z" fill="#FC0000"/>
<path d="M67.6401 37.1215C67.6401 32.8875 64.2611 29.7285 59.7771 29.7285C55.2921 29.7285 51.9131 32.8875 51.9131 37.1215C51.9131 41.3555 55.2921 44.5145 59.7771 44.5145C64.2611 44.5145 67.6401 41.3335 67.6401 37.1215ZM63.2641 37.1215C63.2641 39.1615 61.7041 40.6095 59.7771 40.6095C57.8491 40.6095 56.2891 39.1615 56.2891 37.1215C56.2891 35.0815 57.8491 33.6335 59.7771 33.6335C61.7041 33.6335 63.2641 35.0815 63.2641 37.1215Z" fill="#FC0000"/>
<path d="M77.2 29.9902L74.53 37.8392L72 29.9902H67.9L67.71 30.3192L72.95 44.2492H75.55L78.5 36.4792L81.46 44.2492H84.06L89.31 30.3192L89.11 29.9902H85.02L82.48 37.8892L79.8 29.9902H77.2Z" fill="#FC0000"/>
<path d="M105.01 37.0982C105.01 32.8422 102.172 29.9902 97.5581 29.9902H90.9941V44.2502H97.5581C102.172 44.2502 105.01 41.3982 105.01 37.0982ZM100.634 37.1202C100.634 39.4452 99.2691 40.7402 97.3851 40.7402H95.2831V33.5002H97.3851C99.2691 33.5002 100.634 34.7952 100.634 37.1202Z" fill="#FC0000"/>
<path d="M119.2 33.5002H123.4V44.2492H127.7V33.5002H132V29.9902H119.2V33.5002Z" fill="#FC0000"/>
<path d="M145.7 34.7493C145.7 31.8313 143.707 29.9883 140.003 29.9883H133.547V44.2483H137.837V39.2463H138.855L141.519 44.2483H145.787L145.982 43.9193L143.122 38.6323C144.66 37.9083 145.7 36.6143 145.7 34.7493ZM141.324 34.9903C141.324 35.9343 140.631 36.3943 139.829 36.3943H137.837V33.4983H139.829C140.631 33.4983 141.324 34.0253 141.324 34.9903Z" fill="#FC0000"/>
<path d="M148.3 44.2492H152.6V29.9902H148.3V44.2492Z" fill="#FC0000"/>
<path d="M159.6 35.0582V29.9902H155.3V44.2492H159.6V39.8592L160.4 38.9392L164 44.2492H168.5L168.7 43.9192L163.5 36.3692L168.3 30.3192L168.2 29.9902H163.6L159.6 35.0582Z" fill="#FC0000"/>
<path d="M174.2 40.7383V38.7683H179.1V35.4733H174.2V33.4993H180.6V29.9883H169.9V44.2483H180.7V40.7383H174.2Z" fill="#FC0000"/>
<path d="M112.3 44.4168C115.442 44.4168 118.169 42.8818 118.169 39.9218C118.169 36.6958 115.42 35.8618 112.994 35.1598C112.04 34.8748 111.064 34.5448 111.064 33.8428C111.064 33.3378 111.606 33.0308 112.43 33.0308C113.839 33.0308 115.03 33.9088 115.636 34.4798H115.939L117.953 32.0668V31.7598C116.892 30.5538 114.727 29.6328 112.343 29.6328C109.007 29.6328 106.691 31.4308 106.691 34.0408C106.691 36.8498 109.245 38.0788 111.411 38.6928C112.82 39.0878 113.775 39.1538 113.775 39.9218C113.775 40.4708 113.102 40.7998 112.061 40.7998C110.739 40.7998 109.137 39.9438 108.358 39.1758H108.055L106.063 41.6768V41.9838C107.34 43.4088 109.635 44.4168 112.3 44.4168Z" fill="#FC0000"/>
<path d="M38.32 57.5253C37.281 55.1473 35.194 52.0963 27.02 47.7393C23.25 45.6433 16.81 42.4163 11.02 36.2793C11.545 38.4933 14.235 43.3583 25.8 49.4293C29.004 51.1823 34.422 52.8263 38.32 57.5173" fill="#FC0000"/>
<path d="M37.8 53.4559C36.814 50.6459 35.034 47.0479 26.59 41.7059C22.479 39.0119 16.44 35.6289 8.5 27.0059C9.068 29.3309 11.578 35.3769 24.23 43.2259C28.386 46.0419 33.75 47.7789 37.8 53.4559Z" fill="#FC0000"/>
</g>
<defs>
<clipPath id="clip0_709_800">
<rect width="173" height="32" fill="white" transform="translate(8.5 26)"/>
</clipPath>
</defs>
</svg>
