<svg width="190" height="73" viewBox="0 0 190 73" fill="none" xmlns="http://www.w3.org/2000/svg">
<g clip-path="url(#clip0_707_348)">
<path d="M174.176 44.221V40.491H172.894C171.495 40.491 171.175 40.287 171.175 39.2962V29.0385H174.205V25.5707H171.175V20.5293H165.988V25.5707H163.394V29.0385H165.988V39.0339C165.988 42.9097 166.92 44.3084 171.233 44.3084C171.758 44.3376 172.748 44.2502 174.176 44.221Z" fill="#231F20"/>
<path d="M144.394 44.1055H149.639V33.1193C149.639 30.6714 151.213 29.2144 153.661 29.2144C155.905 29.2144 156.692 30.4092 156.692 32.9153V44.1055H161.937V31.4874C161.937 27.2328 159.81 25.1055 155.497 25.1055C153.02 25.1055 151.038 26.0088 149.552 27.7865V25.6009H144.423V44.1055H144.394Z" fill="#231F20"/>
<path d="M141.189 19.0449H135.943V23.5326H141.189V19.0449Z" fill="#231F20"/>
<path d="M141.189 25.5723H135.943V44.0769H141.189V25.5723Z" fill="#231F20"/>
<path d="M119.391 34.8084C119.391 31.1074 121.081 29.0967 123.995 29.0967C126.909 29.0967 128.571 31.1074 128.571 34.8084C128.571 38.5093 126.909 40.5492 123.995 40.5492C121.081 40.5492 119.391 38.5093 119.391 34.8084ZM114.087 34.8084C114.087 40.9863 117.847 44.7163 123.995 44.7163C130.144 44.7163 133.903 40.9863 133.903 34.8084C133.903 28.6305 130.144 24.9004 123.995 24.9004C117.847 24.9004 114.087 28.6305 114.087 34.8084Z" fill="#231F20"/>
<path d="M107.21 34.9542C107.21 38.3929 105.549 40.4328 102.984 40.4328C100.216 40.4328 98.6132 38.4803 98.6132 34.9542C98.6132 31.1659 100.129 29.2134 102.897 29.2134C105.607 29.2134 107.21 31.195 107.21 34.9542ZM93.4844 51.5064H98.5841V41.7733C99.8663 43.6966 101.877 44.6874 104.383 44.6874C108.958 44.6874 112.426 40.8116 112.426 34.7211C112.426 28.8055 109.046 24.9297 104.325 24.9297C101.79 24.9297 100.012 25.9205 98.4966 28.0769V25.5708H93.5135V51.5064H93.4844Z" fill="#231F20"/>
<path d="M82.8478 44.1053H87.9767V29.0685H91.2113V25.6007H87.9184V24.3185C87.9184 23.1237 88.3846 22.9198 89.8417 22.9198H91.2113V18.9857C90.2788 18.9274 89.492 18.8691 88.7052 18.8691C84.6837 18.8691 82.8478 20.4136 82.8478 23.8814V25.6007H80.0503V29.0685H82.8478V44.1053Z" fill="#231F20"/>
<path d="M65.2174 34.8084C65.2174 31.1074 66.9076 29.0967 69.8217 29.0967C72.7358 29.0967 74.3969 31.1074 74.3969 34.8084C74.3969 38.5093 72.7358 40.5492 69.8217 40.5492C66.9076 40.5783 65.2174 38.5093 65.2174 34.8084ZM59.9137 34.8084C59.9137 40.9863 63.6729 44.7163 69.8217 44.7163C75.9705 44.7163 79.7297 40.9863 79.7297 34.8084C79.7297 28.6305 75.9705 24.9004 69.8217 24.9004C63.6438 24.9295 59.8846 28.6596 59.9137 34.8084Z" fill="#231F20"/>
<path d="M44.1777 34.8084C44.1777 31.1074 45.8679 29.0967 48.782 29.0967C51.6961 29.0967 53.3572 31.1074 53.3572 34.8084C53.3572 38.5093 51.6961 40.5492 48.782 40.5492C45.8679 40.5492 44.1777 38.5093 44.1777 34.8084ZM38.874 34.8084C38.874 40.9863 42.6332 44.7163 48.782 44.7163C54.9308 44.7163 58.69 40.9863 58.69 34.8084C58.69 28.6305 54.9308 24.9004 48.782 24.9004C42.6332 24.9004 38.874 28.6596 38.874 34.8084Z" fill="#231F20"/>
<path d="M27.0137 44.1053H32.2591V34.3139C32.2591 31.5164 33.7453 30.1176 36.572 30.1176H38.2913V25.1053C38.029 25.0762 37.7667 25.0762 37.5045 25.0762C34.9983 25.0762 33.2207 26.2127 31.8511 28.7771V25.6007H27.0137V44.1053Z" fill="#231F20"/>
<path d="M19.6992 34.9542C19.6992 38.3929 18.0382 40.4328 15.4738 40.4328C12.7054 40.4328 11.1026 38.4803 11.1026 34.9542C11.1026 31.1659 12.618 29.2134 15.3864 29.2134C18.1548 29.2134 19.7284 31.195 19.6992 34.9542ZM6.00293 51.5064H11.0735V41.7733C12.3557 43.6966 14.3664 44.6874 16.8726 44.6874C21.4477 44.6874 24.9155 40.8116 24.9155 34.7211C24.9155 28.8055 21.5351 24.9297 16.8143 24.9297C14.279 24.9297 12.5014 25.9205 10.9861 28.0769V25.5708H6.00293V51.5064Z" fill="#231F20"/>
<path d="M180.85 42.5604C180.879 43.6969 180.004 44.6294 178.868 44.6586C177.731 44.6877 176.799 43.8135 176.77 42.677C176.741 41.5405 177.615 40.608 178.751 40.5788C178.781 40.5788 178.81 40.5788 178.839 40.5788C179.917 40.5497 180.82 41.453 180.85 42.5604ZM177.265 42.5604C177.236 43.4055 177.906 44.134 178.751 44.1632C178.781 44.1632 178.78 44.1632 178.81 44.1632C179.655 44.1632 180.325 43.4638 180.325 42.6478C180.325 42.6187 180.325 42.6187 180.325 42.5895C180.354 41.7445 179.713 41.0159 178.868 40.9868C178.023 40.9576 177.294 41.5987 177.265 42.4438C177.265 42.473 177.265 42.5313 177.265 42.5604ZM178.489 43.6095H178.023V41.6279C178.285 41.5696 178.518 41.5696 178.78 41.5696C179.014 41.5405 179.247 41.5987 179.48 41.7153C179.596 41.8319 179.684 41.9776 179.684 42.1524C179.655 42.3856 179.509 42.5604 179.276 42.6187V42.6478C179.48 42.7353 179.626 42.9101 179.626 43.1141C179.655 43.2889 179.684 43.4638 179.771 43.6095H179.276C179.188 43.4638 179.159 43.2889 179.13 43.1141C179.101 42.881 178.984 42.7935 178.722 42.7935H178.489V43.6095ZM178.489 42.473H178.722C178.984 42.473 179.188 42.3856 179.188 42.1816C179.188 41.9776 179.043 41.8902 178.751 41.8902C178.664 41.8902 178.577 41.8902 178.489 41.9193V42.473Z" fill="#231F20"/>
</g>
<defs>
<clipPath id="clip0_707_348">
<rect width="190" height="73" fill="white"/>
</clipPath>
</defs>
</svg>
