<svg width="190" height="73" viewBox="0 0 190 73" fill="none" xmlns="http://www.w3.org/2000/svg">
<g clip-path="url(#clip0_500_2917)">
<path d="M68.5489 16.9559H24.2415V8.71934H68.5489V16.9559ZM71.7146 5.53906H21.0742V20.1281H71.7146V5.53906Z" fill="#00B188"/>
<path d="M24.2417 44.25H21.0762V29.6569H24.2417V35.4217H29.8975V29.6569H33.063V44.25H29.8975V38.2044H24.2417V44.25Z" fill="#040404"/>
<path d="M37.8867 37.8082H41.6573C41.5871 36.7354 41.1456 35.9876 39.9115 35.9876C38.9804 35.9876 38.1657 36.3851 37.8867 37.8082ZM40.2837 44.4375C37.072 44.4375 34.8848 42.4065 34.8848 39.0703C34.8848 35.8246 37.0259 33.5843 39.8653 33.5843C42.9606 33.5843 44.4967 35.6615 44.4967 38.7663V39.9338H37.8867C38.26 41.543 39.5162 41.9627 40.7733 41.9627C41.867 41.9627 42.6576 41.7302 43.6349 41.1224H43.7523V43.5267C42.9145 44.1346 41.7265 44.4375 40.2837 44.4375Z" fill="#040404"/>
<path d="M52.7365 38.1311L51.1071 44.2461H48.3379L45.1724 33.9806V33.8639H48.1984L49.9202 40.003L51.5496 33.8639H54.0168L55.6693 40.003L57.4151 33.8639H60.3247V33.9806L57.1592 44.2461H54.389L52.7365 38.1311Z" fill="#040404"/>
<path d="M65.4186 44.4102C62.9053 44.4102 61.8809 43.4068 61.8809 41.0497V29.5866H64.9531V40.8384C64.9531 41.562 65.232 41.8186 65.837 41.8186C66.0467 41.8186 66.3497 41.7492 66.5353 41.6787H66.5825V44.223C66.3266 44.3156 65.8842 44.4091 65.4186 44.4091" fill="#040404"/>
<path d="M70.4751 37.8082H74.2457C74.1754 36.7354 73.734 35.9876 72.4999 35.9876C71.5698 35.9876 70.7541 36.3851 70.4751 37.8082ZM72.8721 44.4375C69.6604 44.4375 67.4731 42.4065 67.4731 39.0703C67.4731 35.8246 69.6143 33.5843 72.4537 33.5843C75.549 33.5843 77.0851 35.6615 77.0851 38.7663V39.9338H70.4751C70.8474 41.543 72.1045 41.9627 73.3607 41.9627C74.4554 41.9627 75.246 41.7302 76.2242 41.1224H76.3406V43.5267C75.5028 44.1346 74.3159 44.4375 72.8721 44.4375Z" fill="#040404"/>
<path d="M89.7394 33.8646H92.02V36.3384H89.7394V40.5634C89.7394 41.4742 90.0885 41.8949 91.0196 41.8949C91.2755 41.8949 91.6016 41.8707 91.9507 41.754H92.02V44.1814C91.6247 44.3223 91.0196 44.4844 90.1357 44.4844C87.6444 44.4844 86.6672 43.3411 86.6672 40.7033V36.3384H82.7341V40.5634C82.7341 41.4742 83.0833 41.8949 84.0133 41.8949C84.2702 41.8949 84.5963 41.8707 84.9454 41.754H85.0147V44.1814C84.6194 44.3223 84.0133 44.4844 83.1304 44.4844C80.6391 44.4844 79.6619 43.3411 79.6619 40.7033V36.3384H78.0786V33.8646H79.6619V31.0175H82.7341V33.8646H86.6672V31.0175H89.7394V33.8646Z" fill="#040404"/>
<path d="M102.341 36.7632C103.949 36.7632 104.715 35.8534 104.715 34.5461C104.715 33.1914 103.949 32.2816 102.341 32.2816H100.34V36.7632H102.341ZM107.928 34.5461C107.928 37.7213 105.81 39.4473 102.597 39.4473H100.34V44.1855H97.1763V29.5925H102.597C105.81 29.5925 107.928 31.3195 107.928 34.541" fill="#040404"/>
<path d="M114.702 40.9493V40.0626C114.237 39.807 113.633 39.7134 113.003 39.7134C112.003 39.7134 111.398 40.0857 111.398 40.9261C111.398 41.7906 112.003 42.164 112.91 42.164C113.771 42.164 114.423 41.7202 114.702 40.9493ZM114.795 43.1906C114.12 44.0078 113.121 44.4043 112.048 44.4043C110.025 44.4043 108.371 43.1684 108.371 40.9724C108.371 38.9425 110.025 37.5888 112.397 37.5888C113.142 37.5888 113.912 37.7056 114.702 37.938V37.7529C114.702 36.6317 114.074 36.1426 112.423 36.1426C111.374 36.1426 110.374 36.4445 109.512 36.9357H109.397V34.4609C110.187 33.9949 111.585 33.5974 112.956 33.5974C116.076 33.5974 117.774 35.0909 117.774 37.7056V44.2171H114.795V43.1906Z" fill="#040404"/>
<path d="M119.277 39.0171C119.277 35.6788 121.629 33.5784 124.701 33.5784C125.795 33.5784 126.818 33.8119 127.587 34.3715V37.0093H127.47C126.794 36.496 126.004 36.1921 125.097 36.1921C123.561 36.1921 122.397 37.2438 122.397 39.0171C122.397 40.7904 123.561 41.818 125.097 41.818C126.004 41.818 126.794 41.514 127.47 40.9997H127.587V43.6376C126.818 44.1982 125.795 44.4316 124.701 44.4316C121.629 44.4316 119.277 42.3554 119.277 39.0171Z" fill="#040404"/>
<path d="M132.602 39.4988V44.2129H129.531V29.6198H132.602V37.9288L135.698 33.8206H139.189V33.9373L135.465 38.6524L139.189 44.0911V44.2079H135.674L132.602 39.4938" fill="#040404"/>
<path d="M146.087 40.9493V40.0626C145.622 39.807 145.016 39.7134 144.388 39.7134C143.388 39.7134 142.783 40.0857 142.783 40.9261C142.783 41.7906 143.388 42.164 144.294 42.164C145.157 42.164 145.808 41.7202 146.087 40.9493ZM146.18 43.1906C145.505 44.0078 144.504 44.4043 143.434 44.4043C141.408 44.4043 139.757 43.1684 139.757 40.9724C139.757 38.9425 141.408 37.5888 143.784 37.5888C144.529 37.5888 145.295 37.7056 146.087 37.938V37.7529C146.087 36.6317 145.459 36.1426 143.806 36.1426C142.76 36.1426 141.757 36.4445 140.897 36.9357H140.78V34.4609C141.572 33.9949 142.969 33.5974 144.341 33.5974C147.461 33.5974 149.16 35.0909 149.16 37.7056V44.2171H146.18V43.1906Z" fill="#040404"/>
<path d="M154.354 35.4731C154.912 34.3288 155.728 33.6757 156.869 33.6757C157.287 33.6757 157.706 33.7693 157.867 33.8629V36.8036H157.752C157.403 36.6627 156.984 36.5701 156.402 36.5701C155.448 36.5701 154.704 37.1307 154.447 38.2036V44.1797H151.375V33.7934H154.354V35.4742" fill="#040404"/>
<path d="M165.993 40.7069V37.3686C165.481 36.6218 164.807 36.2957 164.037 36.2957C162.689 36.2957 161.781 37.277 161.781 39.0503C161.781 40.8236 162.689 41.7807 164.037 41.7807C164.807 41.7807 165.481 41.4536 165.993 40.7069ZM166.085 43.1585C165.434 43.9989 164.41 44.4648 163.014 44.4648C160.36 44.4648 158.662 42.0384 158.662 39.0503C158.662 36.0622 160.36 33.6116 163.014 33.6116C164.364 33.6116 165.341 34.0323 165.993 34.8022V29.6443H169.065V44.2273H166.085V43.1545" fill="#040404"/>
<path d="M21.1113 49.0008H30.0952V50.7741H23.1361V55.2316H29.443V56.9596H23.1361V61.8146H30.0952V63.5879H21.1113V49.0049" fill="#040404"/>
<path d="M37.4856 53.1061C39.7892 53.1061 41.0695 54.6238 41.0695 57.1197V63.5859H39.1381V57.167C39.1381 55.8365 38.4628 54.8794 36.9969 54.8794C35.7869 54.8794 34.7625 55.6503 34.4134 56.7463V63.5859H32.4819V53.3205H34.4134V54.814C35.0184 53.8569 36.0428 53.1101 37.4856 53.1101" fill="#040404"/>
<path d="M46.2345 53.2682H48.8642V54.9258H46.2345V60.4571C46.2345 61.6235 46.8395 62.021 47.9331 62.021C48.2351 62.021 48.5612 61.9747 48.794 61.8811H48.8642V63.5377C48.5853 63.6545 48.189 63.748 47.6542 63.748C45.2562 63.748 44.3031 62.65 44.3031 60.6442V54.9258H42.5342V53.2682H44.3031V50.5388H46.2345V53.2682Z" fill="#040404"/>
<path d="M52.0939 57.4552H57.1909C57.1217 55.9385 56.3762 54.7721 54.7939 54.7721C53.328 54.7721 52.3729 55.8691 52.0939 57.4552ZM55.1431 63.8047C52.1401 63.8047 50.0923 61.7969 50.0923 58.5763C50.0923 55.3548 52.0006 53.1145 54.7708 53.1145C57.5872 53.1145 59.0531 55.1454 59.0531 58.1557V59.0433H52.0237C52.2334 61.1206 53.5608 62.124 55.3989 62.124C56.5397 62.124 57.3534 61.8673 58.2614 61.19H58.3317V62.8949C57.4939 63.5481 56.3993 63.8047 55.1431 63.8047Z" fill="#040404"/>
<path d="M63.3313 54.8782C63.7738 53.7812 64.752 53.128 65.8678 53.128C66.3112 53.128 66.7065 53.1974 66.8691 53.291V55.2042H66.7999C66.5199 55.0654 66.0544 54.9949 65.5888 54.9949C64.5424 54.9949 63.6574 55.6944 63.3313 56.8618V63.5605H61.3999V53.2951H63.3313V54.8822" fill="#040404"/>
<path d="M73.0441 62.0433C74.9524 62.0433 76.0701 60.5266 76.0701 58.4484C76.0701 56.3953 74.9524 54.8554 73.0441 54.8554C71.9966 54.8554 71.0193 55.4855 70.5076 56.4879V60.434C71.0193 61.4364 71.9966 62.0433 73.0441 62.0433ZM73.3701 53.1043C76.4183 53.1043 78.0477 55.6022 78.0477 58.4484C78.0477 61.2975 76.4183 63.7945 73.3701 63.7945C72.113 63.7945 71.0424 63.1413 70.5076 62.4398V67.5293H68.5752V53.3186H70.5076V54.4851C71.0424 53.7615 72.113 53.1083 73.3701 53.1083" fill="#040404"/>
<path d="M82.2747 54.8782C82.7162 53.7812 83.6944 53.128 84.8111 53.128C85.2536 53.128 85.6489 53.1974 85.8114 53.291V55.2042H85.7422C85.4633 55.0654 84.9977 54.9949 84.5322 54.9949C83.4847 54.9949 82.6008 55.6944 82.2747 56.8618V63.5605H80.3433V53.2951H82.2747V54.8822" fill="#040404"/>
<path d="M88.6155 49.1604C89.2907 49.1604 89.8486 49.6968 89.8486 50.3741C89.8486 51.0515 89.2907 51.5879 88.6155 51.5879C87.9643 51.5879 87.3813 51.0515 87.3813 50.3741C87.3813 49.6968 87.9643 49.1604 88.6155 49.1604Z" fill="#040404"/>
<path d="M87.6523 63.5723H89.5852V53.2988H87.6523V63.5723Z" fill="#040404"/>
<path d="M96.4816 57.5355C97.9475 58.0015 99.5759 58.6084 99.5759 60.5689C99.5759 62.6703 97.8542 63.7441 95.6438 63.7441C94.2933 63.7441 92.9438 63.4171 92.1753 62.8102V60.9664H92.2686C93.1305 61.7595 94.4097 62.1097 95.6197 62.1097C96.7134 62.1097 97.6916 61.689 97.6916 60.8024C97.6916 59.8926 96.8779 59.6822 95.2706 59.1458C93.8278 58.6788 92.2224 58.1414 92.2224 56.205C92.2224 54.2204 93.8509 53.0539 95.9228 53.0539C97.1328 53.0539 98.2033 53.3106 99.0642 53.8943V55.7622H98.995C98.1582 55.0849 97.1789 54.6874 95.9689 54.6874C94.7589 54.6874 94.0836 55.2248 94.0836 55.9484C94.0836 56.7656 94.8281 56.9981 96.4816 57.5355Z" fill="#040404"/>
<path d="M103.224 57.4552H108.32C108.251 55.9385 107.507 54.7721 105.923 54.7721C104.457 54.7721 103.503 55.8691 103.224 57.4552ZM106.272 63.8047C103.27 63.8047 101.223 61.7969 101.223 58.5763C101.223 55.3548 103.131 53.1145 105.9 53.1145C108.718 53.1145 110.182 55.1454 110.182 58.1557V59.0433H103.154C103.364 61.1206 104.69 62.124 106.528 62.124C107.67 62.124 108.484 61.8673 109.391 61.19H109.461V62.8949C108.624 63.5481 107.53 63.8047 106.272 63.8047Z" fill="#040404"/>
</g>
<defs>
<clipPath id="clip0_500_2917">
<rect width="148" height="62" fill="white" transform="translate(21 5.5)"/>
</clipPath>
</defs>
</svg>
