<svg width="190" height="73" viewBox="0 0 190 73" fill="none" xmlns="http://www.w3.org/2000/svg">
<g clip-path="url(#clip0_697_169)">
<path d="M94.1624 46.963C94.007 46.9211 91.6165 46.3125 89.0762 46.3125C84.2666 46.3125 81.371 48.8763 81.371 52.6941C81.371 56.0737 83.7934 57.7591 86.7006 58.6657C87.0229 58.7707 87.4978 58.9175 87.814 59.0209C89.1082 59.4228 90.1411 60.0199 90.1411 61.0544C90.1411 62.2112 88.9473 62.96 86.3519 62.96C84.071 62.96 81.8844 62.3161 81.4238 62.2014V66.8987C81.6806 66.9525 84.2793 67.4561 87.0554 67.4561C91.0485 67.4561 95.6162 65.7337 95.6162 60.6062C95.6162 58.1191 94.0737 55.8295 90.6871 54.7668L89.2475 54.3143C88.3886 54.0467 86.8554 53.6133 86.8554 52.3706C86.8554 51.3889 87.9914 50.6976 90.0833 50.6976C91.8881 50.6976 94.0847 51.2964 94.1624 51.3204V46.963ZM138.259 56.8846C138.259 59.8546 135.954 62.2574 132.862 62.2574C129.766 62.2574 127.468 59.8546 127.468 56.8846C127.468 53.9206 129.766 51.5167 132.862 51.5167C135.954 51.5167 138.259 53.9206 138.259 56.8846ZM132.862 46.319C126.502 46.319 121.941 51.0544 121.941 56.8846C121.941 62.724 126.502 67.4561 132.862 67.4561C139.221 67.4561 143.789 62.724 143.789 56.8846C143.789 51.0544 139.221 46.319 132.862 46.319ZM74.3736 67.0928H69.1553V46.6807H74.3736" fill="#049FD9"/>
<path d="M61.983 47.0499C61.4927 46.9063 59.6801 46.3184 57.2252 46.3184C50.8752 46.3184 46.2139 50.7878 46.2139 56.8839C46.2139 63.4608 51.3595 67.4555 57.2252 67.4555C59.5556 67.4555 61.3346 66.9105 61.983 66.7289V61.2495C61.7588 61.3724 60.0531 62.3329 57.5993 62.3329C54.123 62.3329 51.8807 59.9176 51.8807 56.8839C51.8807 53.7578 54.2199 51.4393 57.5993 51.4393C60.095 51.4393 61.7731 52.421 61.983 52.5292" fill="#049FD9"/>
<path d="M116.447 47.0499C115.957 46.9063 114.145 46.3184 111.69 46.3184C105.34 46.3184 100.678 50.7878 100.678 56.8839C100.678 63.4608 105.824 67.4555 111.69 67.4555C114.02 67.4555 115.799 66.9105 116.447 66.7289V61.2495C116.223 61.3724 114.517 62.3329 112.064 62.3329C108.587 62.3329 106.345 59.9176 106.345 56.8839C106.345 53.7578 108.684 51.4393 112.064 51.4393C114.559 51.4393 116.237 52.421 116.447 52.5292" fill="#049FD9"/>
<path d="M69.1401 8.08704C69.1401 6.68008 67.976 5.53906 66.5491 5.53906C65.1227 5.53906 63.9586 6.68008 63.9586 8.08704V35.193C63.9586 36.6081 65.1227 37.7486 66.5491 37.7486C67.976 37.7486 69.1401 36.6081 69.1401 35.193V8.08704ZM54.9102 17.709C54.9102 16.3026 53.7467 15.1599 52.3198 15.1599C50.8929 15.1599 49.7293 16.3026 49.7293 17.709V30.1008C49.7293 31.5154 50.8929 32.6564 52.3198 32.6564C53.7467 32.6564 54.9102 31.5154 54.9102 30.1008V17.709ZM40.6809 24.7422C40.6809 23.3352 39.5174 22.1948 38.0905 22.1948C36.6652 22.1948 35.5 23.3352 35.5 24.7422V30.1008C35.5 31.5154 36.6652 32.6564 38.0905 32.6564C39.5174 32.6564 40.6809 31.5154 40.6809 30.1008" fill="#049FD9"/>
<path d="M63.9585 8.08704C63.9585 6.68008 65.1227 5.53906 66.5495 5.53906C67.9759 5.53906 69.14 6.68008 69.14 8.08704V35.193C69.14 36.6081 67.9759 37.7486 66.5495 37.7486C65.1227 37.7486 63.9585 36.6081 63.9585 35.193V8.08704ZM78.1884 17.709C78.1884 16.3026 79.352 15.1599 80.7789 15.1599C82.2058 15.1599 83.3693 16.3026 83.3693 17.709V30.1008C83.3693 31.5154 82.2058 32.6564 80.7789 32.6564C79.352 32.6564 78.1884 31.5154 78.1884 30.1008V17.709ZM92.4177 24.7422C92.4177 23.3352 93.5813 22.1948 95.0082 22.1948C96.4334 22.1948 97.5986 23.3352 97.5986 24.7422V30.1008C97.5986 31.5154 96.4334 32.6564 95.0082 32.6564C93.5813 32.6564 92.4177 31.5154 92.4177 30.1008" fill="#049FD9"/>
<path d="M120.86 8.08704C120.86 6.68008 122.024 5.53906 123.451 5.53906C124.877 5.53906 126.041 6.68008 126.041 8.08704V35.193C126.041 36.6081 124.877 37.7486 123.451 37.7486C122.024 37.7486 120.86 36.6081 120.86 35.193V8.08704ZM135.09 17.709C135.09 16.3026 136.253 15.1599 137.68 15.1599C139.107 15.1599 140.271 16.3026 140.271 17.709V30.1008C140.271 31.5154 139.107 32.6564 137.68 32.6564C136.253 32.6564 135.09 31.5154 135.09 30.1008V17.709ZM149.319 24.7422C149.319 23.3352 150.483 22.1948 151.91 22.1948C153.335 22.1948 154.5 23.3352 154.5 24.7422V30.1008C154.5 31.5154 153.335 32.6564 151.91 32.6564C150.483 32.6564 149.319 31.5154 149.319 30.1008" fill="#049FD9"/>
<path d="M126.041 8.08704C126.041 6.68008 124.877 5.53906 123.45 5.53906C122.024 5.53906 120.86 6.68008 120.86 8.08704V35.193C120.86 36.6081 122.024 37.7486 123.45 37.7486C124.877 37.7486 126.041 36.6081 126.041 35.193V8.08704ZM111.812 17.709C111.812 16.3026 110.648 15.1599 109.221 15.1599C107.794 15.1599 106.631 16.3026 106.631 17.709V30.1008C106.631 31.5154 107.794 32.6564 109.221 32.6564C110.648 32.6564 111.812 31.5154 111.812 30.1008V17.709ZM97.5823 24.7422C97.5823 23.3352 96.4187 22.1948 94.9918 22.1948C93.5666 22.1948 92.4014 23.3352 92.4014 24.7422V30.1008C92.4014 31.5154 93.5666 32.6564 94.9918 32.6564C96.4187 32.6564 97.5823 31.5154 97.5823 30.1008" fill="#049FD9"/>
</g>
<defs>
<clipPath id="clip0_697_169">
<rect width="119" height="62" fill="white" transform="translate(35.5 5.5)"/>
</clipPath>
</defs>
</svg>
