<svg width="190" height="73" viewBox="0 0 190 73" fill="none" xmlns="http://www.w3.org/2000/svg">
<g clip-path="url(#clip0_707_284)">
<path d="M83.0348 57.2266V63.0208C83.0348 64.6667 82.2043 65.5449 80.6953 65.5449C79.1777 65.5449 78.3423 64.6413 78.3423 62.9506V57.2329H76.2545V63.0208C76.2545 65.8687 77.8631 67.5007 80.6678 67.5007C83.4989 67.5007 85.1226 65.8374 85.1226 62.9374V57.2266H83.0348ZM90.7161 57.2266L86.1817 67.3429H88.3128L89.1881 65.3837L89.2507 65.2368H93.9614L94.8853 67.3429H97.0743L92.582 57.2865L92.5417 57.2266L90.7161 57.2266ZM103.13 57.2266L100.793 64.1873L98.5187 57.2318H96.2968L99.8834 67.3492H101.612L103.954 60.7029L106.293 67.3492H108.037L111.614 57.2318H109.449L107.17 64.1873L104.833 57.2266H103.13ZM123.561 57.2266V67.3343H125.621V57.2266H123.561ZM64.4673 57.2272V67.3487H66.5557V63.2379H71.271V67.3487H73.36V57.2272H71.271V61.3103H66.5557V57.2272H64.4673ZM113.298 57.234V67.3417H121.071V65.4988H115.358V62.9926H119.157V61.1491H115.358V59.077H120.872V57.234H113.298ZM91.6008 59.788L93.0896 63.1768H93.0844L93.1857 63.4106H90.0271L90.1272 63.1768L91.6008 59.788Z" fill="#232527"/>
<path d="M90.4729 5.50013C89.6446 5.57218 87.4061 6.07322 87.4061 6.07322C82.3607 7.35565 81.1673 11.8581 81.1673 11.8581C80.9209 12.6153 80.809 13.3912 80.7761 14.1222V15.1172C80.843 16.6544 81.1907 17.8022 81.1907 17.8022C82.876 25.1511 91.1625 37.2263 92.9434 39.7629C93.0698 39.8861 93.1709 39.8416 93.1709 39.8416C93.3632 39.7895 93.3481 39.6081 93.3481 39.6081L93.3518 39.609C96.0948 12.6469 90.4729 5.50013 90.4729 5.50013ZM99.5366 5.50013C99.5366 5.50013 93.8901 12.6507 96.6353 39.6285H96.6389C96.6602 39.7998 96.7837 39.8354 96.7837 39.8354C96.9674 39.9054 97.0616 39.7319 97.0616 39.7319L97.0625 39.7336C98.8891 37.1322 107.128 25.1227 108.806 17.8021C108.806 17.8021 109.716 14.2589 108.838 11.858C108.838 11.858 107.59 7.28579 102.539 6.07752C102.539 6.07752 101.083 5.71421 99.5366 5.50013ZM73.4923 13.5942C73.4923 13.5942 68.6849 18.0812 68.446 22.838H68.4479V23.5588C68.4516 23.6131 68.4544 23.668 68.4578 23.7233C68.6649 27.5591 71.5993 29.8292 71.5993 29.8292C76.3271 34.3605 87.7751 40.0815 90.4353 41.3796C90.4725 41.3933 90.61 41.4374 90.6907 41.3371C90.6907 41.3371 90.7327 41.3058 90.7519 41.2495V41.1301C90.7499 41.1232 90.7463 41.1164 90.7428 41.1088C83.4577 25.4587 73.4923 13.5942 73.4923 13.5942ZM116.506 13.5942C116.506 13.5942 106.569 25.4216 99.2875 41.04L99.2902 41.0391C99.2902 41.0391 99.2042 41.2202 99.3433 41.3371C99.3433 41.3371 99.3848 41.3679 99.4422 41.3804H99.5429C99.5611 41.3753 99.5805 41.3685 99.5996 41.3556C102.332 40.022 113.691 34.3404 118.397 29.83C118.397 29.83 121.377 27.4767 121.533 23.6984C121.877 18.4507 116.506 13.5942 116.506 13.5942ZM125.449 29.1315C125.449 29.1315 109.25 37.6802 100.874 43.236L100.877 43.2386C100.877 43.2386 100.725 43.3365 100.778 43.5119C100.778 43.5119 100.857 43.6534 100.973 43.6534C103.973 43.6586 115.325 43.672 115.61 43.6198C115.61 43.6198 117.078 43.5621 118.892 42.8769C118.892 42.8769 122.93 41.6144 125.027 37.1061C125.027 37.1061 125.985 35.221 125.999 32.5726V32.4604C125.992 31.439 125.846 30.3084 125.449 29.1315ZM64.5446 29.1713C63.0707 33.6583 65.0549 37.2737 65.0582 37.2796C67.1259 41.576 71.073 42.8779 71.073 42.8779C72.8953 43.6141 74.7181 43.665 74.7181 43.665C75.0027 43.7162 86.0525 43.6701 89.0133 43.6564C89.1386 43.6555 89.2075 43.5317 89.2075 43.5317C89.2162 43.518 89.2239 43.5043 89.2273 43.4918V43.3795C89.2028 43.3044 89.1374 43.2514 89.1374 43.2514L89.1393 43.2504C80.7678 37.6965 64.5446 29.1713 64.5446 29.1713ZM88.6751 45.0358L69.6188 45.6929C71.6853 49.3157 75.1657 52.1312 78.7912 51.2665C81.2932 50.6514 86.9613 46.7635 88.8325 45.4497L88.8262 45.4446C88.9717 45.3161 88.9198 45.2129 88.9198 45.2129C88.8719 45.0446 88.6751 45.0448 88.6751 45.0448L88.6751 45.0358ZM101.297 45.0495L101.295 45.0563C101.295 45.0563 101.127 45.0772 101.081 45.2004C101.081 45.2004 101.04 45.3689 101.153 45.4525L101.151 45.4542C102.975 46.7408 108.506 50.5432 111.17 51.2816C111.17 51.2816 111.574 51.4166 112.25 51.4407H112.657C114.442 51.3791 117.552 50.4773 120.378 45.7027L101.297 45.0495Z" fill="#CF0A2C"/>
</g>
<defs>
<clipPath id="clip0_707_284">
<rect width="62" height="62" fill="white" transform="translate(64 5.5)"/>
</clipPath>
</defs>
</svg>
