<svg width="190" height="73" viewBox="0 0 190 73" fill="none" xmlns="http://www.w3.org/2000/svg">
<g clip-path="url(#clip0_500_2915)">
<path d="M30.9 20.3965H35.7931L48.652 51.1202H43.9351L41.7234 45.5181H25.0088L22.7384 51.1202H18.0215L30.9 20.3965ZM40.1772 41.6728L38.7289 38.1397H27.9446L26.5354 41.6728H40.1772ZM37.3197 34.5286L36.4977 32.5376C35.1863 29.2779 34.0511 26.5647 33.327 24.5346C32.6419 26.5647 31.5067 29.2779 30.1954 32.5376L29.3734 34.5286H37.3197ZM49.0239 39.1938C49.0239 31.8349 54.465 26.8184 61.4914 26.8184C67.5196 26.8184 72.0995 30.2538 73.1369 36.1683H68.4787C67.4413 32.5181 64.9361 30.8785 61.4131 30.8785C56.4809 30.8785 53.6625 34.4896 53.6625 39.1938C53.6625 44.1127 56.6571 47.5091 61.4522 47.5091C64.9361 47.5091 67.5196 45.7523 68.5178 42.5902H73.176C71.7277 48.368 67.1086 51.5887 61.2565 51.5887C53.7212 51.5692 49.0239 46.3184 49.0239 39.1938ZM76.6403 27.2674H80.8092L80.9853 30.2929C82.4728 28.1653 84.704 26.8184 87.5029 26.8184H87.9139V31.8349H87.2289C82.4728 31.8349 81.1615 34.5481 81.1615 38.7839V51.1202H76.6403V27.2674ZM88.6576 39.1938C88.6576 31.874 94.1378 26.8184 101.203 26.8184C108.543 26.8184 113.749 32.1472 113.749 39.1938C113.749 46.3379 108.445 51.5692 101.203 51.5692C93.9617 51.5692 88.6576 46.3184 88.6576 39.1938ZM109.13 39.1352C109.13 34.431 106.057 30.8589 101.203 30.8589C96.2712 30.8589 93.3158 34.4701 93.3158 39.1352C93.3158 44.1127 96.6235 47.4896 101.243 47.4896C105.92 47.4896 109.13 43.937 109.13 39.1352ZM117.096 27.2674H121.128L121.441 29.7463C123.3 27.8139 125.825 26.8184 129.094 26.8184C134.75 26.8184 137.921 30.1562 137.921 36.0707V51.1202H133.4V36.9295C133.4 33.0451 131.854 30.9175 128.135 30.9175C124.103 30.9175 121.617 33.4941 121.617 37.3785V51.1202H117.096V27.2674ZM142.873 27.2674H147.355V51.1202H142.873V27.2674ZM152.032 43.7418H156.436C156.886 46.6307 159.196 47.8995 162.601 47.8995C165.42 47.8995 167.534 46.8064 167.534 44.6007C167.534 43.0586 166.809 42.434 165.674 42.0241C164.578 41.6142 163.463 41.4385 161.192 41.0677C158.844 40.7163 157.2 40.3454 155.79 39.6623C153.618 38.6277 152.757 36.6758 152.757 34.5091C152.757 29.4535 156.749 26.7794 161.858 26.7794C167.436 26.7794 171.135 29.3559 171.409 34.5481H167.103C166.829 31.7959 164.657 30.4295 161.858 30.4295C158.863 30.4295 157.102 31.913 157.102 33.943C157.102 35.2508 157.728 35.934 158.922 36.383C160.096 36.8319 162.269 37.0662 164.128 37.3394C165.89 37.6127 167.534 37.925 169.021 38.7448C171.018 39.8184 171.957 41.907 171.957 44.0346C171.957 46.2989 171.096 48.2899 169.471 49.5977C167.749 51.0031 165.479 51.5496 162.582 51.5496C156.749 51.5692 152.483 49.4025 152.032 43.7418Z" fill="#0D2345"/>
</g>
<defs>
<clipPath id="clip0_500_2915">
<rect width="190" height="73" fill="white"/>
</clipPath>
</defs>
</svg>
