<svg width="190" height="73" viewBox="0 0 190 73" fill="none" xmlns="http://www.w3.org/2000/svg">
<g clip-path="url(#clip0_707_266)">
<path d="M76.2893 29.478V28.933L75.9938 28.7773H64.176L63.979 28.933V29.478L64.176 29.6336H69.1984L69.3954 29.7893V41.156L69.5923 41.3116H70.4787L70.6756 41.156V29.8671L70.8726 29.7115H75.9937L76.2893 29.478ZM78.9497 32.2039C75.7983 32.2039 73.9237 33.9926 73.9237 36.5617V36.9535C73.9237 39.445 75.5005 41.6226 79.1444 41.6226C82.2958 41.6226 83.4779 39.988 83.675 38.8981L83.4804 38.7443H82.591L82.3964 38.8981C81.904 39.988 81.0145 40.6888 79.2417 40.6888C76.2872 40.6888 75.4016 38.5086 75.4016 37.4187L75.6008 37.2649H83.7722L83.9714 37.1074V36.5617C83.9714 33.9926 82.1996 32.2039 78.9497 32.2039ZM78.9497 33.1377C80.3284 33.1377 81.2369 33.5853 81.8032 34.1887C82.3694 34.7921 82.5907 35.5508 82.5907 36.1736L82.3961 36.331H75.5033L75.3041 36.1736C75.3041 35.5508 75.5253 34.7921 76.0916 34.1887C76.6578 33.5853 77.5709 33.1377 78.9497 33.1377ZM86.2358 36.8742C86.2358 34.3829 87.8115 33.0593 90.0766 33.0593C92.3417 33.0593 93.228 34.1493 93.5235 35.2392L93.7204 35.3948H94.7053L94.9022 35.2392C94.7053 33.4486 92.8341 32.203 90.0766 32.203C87.1221 32.203 84.857 33.6822 84.857 36.8742C84.857 40.1441 87.1221 41.5455 90.0766 41.5455C92.834 41.5455 94.6067 40.2998 94.9022 38.5092L94.7053 38.3535H93.8189L93.622 38.5092C93.425 39.5991 92.4402 40.689 90.1751 40.689C87.91 40.689 86.2358 39.4435 86.2358 36.8742ZM105.932 41.2341V35.7842C105.932 33.4486 104.356 32.203 101.796 32.203C100.22 32.203 98.8415 32.7479 98.1522 33.6822H97.9553V29.0109L97.6599 28.7774H96.7735L96.5765 28.9331V41.2341L96.7735 41.3897H97.6599L97.8568 41.2341V36.3293C97.8568 34.3051 99.0386 33.0593 101.501 33.0593C103.372 33.0593 104.455 33.9936 104.455 35.7842V41.2341L104.652 41.3897H105.538L105.932 41.2341ZM117.553 41.2341V35.7842C117.553 33.4486 115.977 32.203 113.417 32.203C111.841 32.203 110.462 32.7479 109.773 33.6822H109.576L109.379 32.5923L109.182 32.4367H108.493L108.296 32.5923V41.2341L108.493 41.3897H109.379L109.576 41.2341V36.3293C109.576 34.3051 110.758 33.0593 113.22 33.0593C115.091 33.0593 116.175 33.9936 116.175 35.7842V41.2341L116.371 41.3897H117.356L117.553 41.2341ZM124.152 32.2808C121.198 32.2808 118.932 33.9175 118.932 36.9537C118.932 39.99 121.198 41.6227 124.152 41.6227C127.107 41.6227 129.373 39.99 129.373 36.9537C129.373 33.9175 127.107 32.2808 124.152 32.2808ZM124.152 33.1378C125.285 33.1378 126.245 33.5087 126.923 34.1705C127.6 34.8322 127.993 35.7859 127.993 36.9537C127.993 38.1215 127.6 39.075 126.923 39.7369C126.245 40.3987 125.285 40.766 124.152 40.766C123.02 40.766 122.059 40.3987 121.382 39.7369C120.705 39.0752 120.312 38.1216 120.312 36.9537C120.312 35.747 120.705 34.7933 121.382 34.1412C122.059 33.4892 123.02 33.1378 124.152 33.1378ZM132.424 41.2341V28.9331L132.128 28.7775H131.242L131.045 28.9331V41.2341L131.242 41.3897H132.128L132.424 41.2341ZM139.221 32.2809C136.267 32.2809 134.001 33.9175 134.001 36.9537C134.001 39.9901 136.267 41.6228 139.221 41.6228C142.176 41.6228 144.437 39.99 144.437 36.9537C144.437 33.9176 142.176 32.2809 139.221 32.2809ZM139.221 33.1378C140.354 33.1378 141.31 33.5087 141.987 34.1705C142.664 34.8323 143.062 35.786 143.062 36.9537C143.062 38.1216 142.664 39.0751 141.987 39.737C141.31 40.3987 140.354 40.766 139.221 40.766C138.089 40.766 137.128 40.3987 136.451 39.737C135.77 39.0751 135.372 38.1215 135.372 36.9536C135.372 35.7468 135.77 34.7932 136.447 34.1411C137.124 33.4891 138.084 33.1377 139.217 33.1377L139.221 33.1378ZM150.446 32.204C147.294 32.204 145.619 34.2262 145.619 36.8731C145.619 39.598 147.196 41.5459 150.446 41.5459C152.514 41.5459 153.599 40.8451 154.091 40.0664V40.1433C154.091 42.4788 153.402 44.2705 150.645 44.2705C148.577 44.2705 147.886 43.5715 147.689 42.6372L147.49 42.4798H146.605L146.406 42.6373C146.603 44.1164 147.985 45.1274 150.742 45.1274C153.697 45.1274 155.569 43.6478 155.569 40.0665V32.5922L155.37 32.4384H154.68L154.485 32.5922L154.286 33.6835H154.091C153.599 32.9829 152.514 32.204 150.446 32.204ZM150.446 33.0609C151.578 33.0609 152.491 33.3695 153.119 34.0021C153.746 34.6346 154.091 35.5886 154.091 36.873C154.091 38.1577 153.746 39.1116 153.119 39.744C152.491 40.3765 151.578 40.6888 150.446 40.6888C149.313 40.6888 148.4 40.3766 147.773 39.744C147.145 39.1115 146.804 38.1576 146.804 36.873C146.804 35.6274 147.145 34.6735 147.773 34.0313C148.4 33.389 149.313 33.0609 150.446 33.0609ZM159.112 30.8017V29.7116L158.916 29.556H158.029L157.734 29.7116V30.8017L157.931 30.9574H158.817L159.112 30.8017ZM159.112 41.2341V32.5924L158.916 32.4367H158.029L157.734 32.5924V41.2341L157.931 41.3898H158.817L159.112 41.2341ZM165.709 32.204C162.558 32.204 160.688 33.9928 160.688 36.5619V36.9537C160.688 39.4452 162.265 41.6228 165.909 41.6228C169.06 41.6228 170.242 39.9881 170.439 38.8983L170.24 38.7444H169.355L169.156 38.8983C168.664 39.9882 167.779 40.689 166.006 40.689C163.051 40.689 162.166 38.5088 162.166 37.4189L162.365 37.265H170.537L170.736 37.1076V36.5619C170.736 34.0706 168.861 32.204 165.709 32.204ZM165.709 33.1379C167.088 33.1379 168.001 33.5855 168.568 34.1889C169.134 34.7923 169.355 35.551 169.355 36.1738L169.156 36.3312H162.263L162.068 36.1738C162.068 35.551 162.29 34.7923 162.856 34.1889C163.422 33.5855 164.331 33.1379 165.709 33.1379ZM180.385 39.0542C180.385 37.4194 179.203 36.7187 176.938 36.3295C174.673 35.94 173.294 35.7844 173.294 34.5387C173.294 33.6046 174.18 33.0595 175.855 33.0595C177.923 33.0595 178.612 33.7602 178.612 34.6945L178.809 34.8501H179.695L179.892 34.6945C179.892 32.9039 178.021 32.2032 175.756 32.2032C173.195 32.2032 171.915 33.2931 171.915 34.5387C171.915 36.018 173.294 36.7187 175.559 37.0302C177.824 37.4194 179.006 37.575 179.006 39.0542C179.006 39.9885 178.316 40.6892 176.051 40.6892C173.983 40.6892 173.097 39.7549 173.097 38.6649L172.9 38.5093H172.013L171.816 38.6649C171.816 40.2999 173.392 41.5457 176.149 41.5457C179.005 41.6244 180.385 40.5336 180.385 39.0542Z" fill="#808080"/>
<path d="M63.8799 38.734V41.3115H53.6327V28.6076H57.359V38.7334L63.8799 38.734ZM32.9022 27.8711L23.8226 33.3972C22.891 30.6354 19.8639 28.6072 16.1376 28.6072H9.61523V41.311H16.1376C19.8639 41.311 23.1239 39.2864 23.8226 36.5247L32.902 42.0471L41.9861 36.5247V41.311H52.2329V38.7329H45.4835V28.6072H41.7544V33.3935L33.1382 38.9196L31.276 37.6306L35.4684 35.0525L39.8941 32.2912L37.3326 30.6359L28.7152 35.9716L26.8531 34.6825L35.4684 29.5263L32.9075 27.8711H32.9022ZM13.1081 31.1853H15.9014C16.4836 31.1853 17.0543 31.2884 17.5783 31.4783C18.1023 31.6681 18.5836 31.946 18.9912 32.2913C19.3987 32.6365 19.7311 33.0483 19.964 33.5144C20.1969 33.9804 20.3253 34.5001 20.3253 35.0524C20.3253 35.5587 20.2111 36.0525 19.9964 36.5099C19.7815 36.9674 19.4676 37.3872 19.0745 37.7441C18.6815 38.1007 18.2104 38.3929 17.6756 38.5973C17.1407 38.8015 16.5418 38.9159 15.9014 38.9159H13.1081V31.1853Z" fill="#007DB8"/>
</g>
<defs>
<clipPath id="clip0_707_266">
<rect width="190" height="73" fill="white"/>
</clipPath>
</defs>
</svg>
