<svg width="190" height="73" viewBox="0 0 190 73" fill="none" xmlns="http://www.w3.org/2000/svg">
<g clip-path="url(#clip0_709_806)">
<g clip-path="url(#clip1_709_806)">
<path d="M147.837 24.7521C143.355 24.6049 138.508 27.156 136.209 31.9571C134.783 34.6667 133.695 37.6841 132.972 40.6454C132.906 40.9073 132.847 41.1691 132.79 41.4295C132.717 41.8505 132.712 42.3908 132.751 42.9428C132.928 45.2742 135.022 48.0924 138.473 48.2529H140.806H140.831H142.567C147.047 48.4001 151.892 45.8489 154.192 41.0478C155.618 38.3367 156.706 35.317 157.43 32.3573C157.494 32.0938 157.556 31.832 157.611 31.573C157.686 31.1506 157.691 30.6117 157.651 30.0598C157.474 27.727 155.379 24.9111 151.929 24.7521H149.568H147.837ZM70.9829 24.9683L72.8158 48.0252H73.9556H76.2537H76.4909C76.485 48.024 76.4759 48.0252 76.47 48.0252C76.4954 48.0252 76.5206 48.0252 76.5444 48.0252H76.6863C77.4172 48.0028 78.0702 47.6255 78.4587 47.0501H78.4611L93.4454 24.9683H89.5702L78.8356 40.8179L77.5772 24.9683H70.9829ZM96.1227 24.9683L87.5233 48.0252H94.1246L102.722 24.9683H96.1227ZM111.612 24.9683C105.682 25.0401 103.062 31.5617 106.301 35.7401C107.945 37.7241 110.291 39.7815 111.616 41.9539C112.456 43.1284 111.558 45.0876 109.953 45.1068H106.694H99.4838L98.3998 48.0252H111.656C116.851 48.0098 120.367 41.9615 116.88 37.3224C115.271 34.9718 112.719 33.3678 111.209 31.0717C110.312 29.8737 111.214 27.9072 112.835 27.8866H116.196H122.579L123.665 24.9683H111.612ZM128.233 24.9683L119.639 48.0252H126.238L134.835 24.9683H128.233ZM163.864 24.9683L155.229 48.0252H158.63L164.58 32.1342L164.61 32.4193L169.955 46.6913C170.276 47.442 171.011 47.9795 171.874 48.0252H174.984L183.621 24.9683H180.22L174.384 40.551L168.171 24.9683H167.264H163.864ZM149.345 27.1369C150.589 27.2311 151.578 28.2662 151.578 29.5217C151.587 29.8308 151.533 30.1358 151.417 30.414L147.056 42.1563C146.176 44.4097 144.131 45.7905 141.701 45.8611H141.057C139.812 45.7669 138.824 44.7318 138.824 43.4763C138.814 43.1672 138.869 42.8585 138.987 42.5818L143.346 30.8394C144.227 28.586 146.272 27.2084 148.705 27.1392H149.345V27.1369Z" fill="#6C6E71"/>
<path d="M9.81271 24.9687L1.21338 48.0255H8.2217L12.3341 36.9985H20.6776L16.5652 48.0255H22.0406C22.9666 48.0255 23.7622 47.4476 24.0852 46.6411C24.0888 46.6293 24.0924 46.6258 24.0971 46.6199L32.1708 24.9681H25.1625L21.8525 33.845H13.509L16.819 24.9681L9.81271 24.9687ZM36.6249 24.9687L28.0278 48.0255H35.0338L43.6309 24.9687H43.4285H36.8296H36.6249ZM48.3992 24.9687L39.8022 48.0255H46.8082L50.1042 39.1831L51.8557 37.8539L56.5031 46.7629L56.5055 46.7512C56.5114 46.7629 56.5138 46.7665 56.5174 46.7724C56.8985 47.554 57.7352 48.0692 58.6597 48.0074C58.6433 48.0074 58.6255 48.0192 58.6062 48.0192H64.5562L57.1548 33.8299L68.8291 24.9668H63.5932L52.1724 33.6367L55.4056 24.9668H48.3996L48.3992 24.9687Z" fill="#D71820"/>
<path d="M188.786 27.0073C188.786 28.2922 187.766 29.2989 186.44 29.2989C185.127 29.2989 184.081 28.2922 184.081 27.0073C184.081 25.7503 185.127 24.7422 186.44 24.7422C187.766 24.7422 188.786 25.7503 188.786 27.0073ZM184.667 27.0073C184.667 28.0155 185.42 28.8162 186.453 28.8162C187.46 28.8162 188.2 28.0155 188.2 27.0206C188.2 26.0138 187.46 25.1984 186.44 25.1984C185.42 25.1984 184.667 26.0138 184.667 27.0073ZM186.077 28.1951H185.547V25.9299C185.755 25.8887 186.049 25.8604 186.427 25.8604C186.858 25.8604 187.055 25.9299 187.222 26.0267C187.348 26.1232 187.445 26.3034 187.445 26.5241C187.445 26.7729 187.25 26.9657 186.97 27.0481V27.0764C187.193 27.1588 187.32 27.325 187.39 27.6282C187.46 27.9742 187.501 28.1125 187.557 28.1949H186.985C186.915 28.1125 186.873 27.9049 186.803 27.643C186.762 27.3943 186.622 27.2838 186.328 27.2838H186.077V28.1951ZM186.09 26.9101H186.342C186.635 26.9101 186.873 26.8147 186.873 26.579C186.873 26.373 186.72 26.2346 186.383 26.2346C186.245 26.2346 186.147 26.2476 186.09 26.2617V26.9101Z" fill="#6C6E71"/>
</g>
</g>
<defs>
<clipPath id="clip0_709_806">
<rect width="190" height="73" fill="white"/>
</clipPath>
<clipPath id="clip1_709_806">
<rect width="189" height="25" fill="white" transform="translate(0.5 24)"/>
</clipPath>
</defs>
</svg>
