<svg width="190" height="73" viewBox="0 0 190 73" fill="none" xmlns="http://www.w3.org/2000/svg">
<g clip-path="url(#clip0_709_813)">
<path d="M146 3H44V70H146V3Z" fill="#F00000"/>
<path d="M62.0691 25.8598H56.3117V21.8398H62.0691C63.1848 21.8398 64.1012 22.7463 64.1012 23.8498C64.1012 24.9731 63.1848 25.8598 62.0691 25.8598ZM62.0691 15.1595C63.1051 15.1595 63.9219 15.9872 63.9219 16.9922C63.9219 18.0169 63.0852 18.8248 62.0691 18.8248H56.3117V15.1595H62.0691ZM66.9699 16.9922C66.9699 14.3122 64.7785 12.1445 62.0691 12.1445H53.2637V28.8748H62.0492C64.8582 28.8748 67.1094 26.6284 67.1094 23.8498C67.1094 22.4704 66.5316 21.2092 65.6152 20.3028C66.4719 19.4357 66.9699 18.2731 66.9699 16.9922ZM95.9562 18.8445H90.2188V15.1595H95.9762C97.0121 15.1595 97.8289 15.9872 97.8289 16.9922C97.8289 18.0169 96.9922 18.8445 95.9562 18.8445ZM100.857 16.9922C100.857 14.3122 98.6656 12.1445 95.9562 12.1445H87.1707V28.8748H90.2188V21.8398H95.9762C97.0918 21.8398 98.0082 22.7463 98.0082 23.8498V28.8748H101.056V23.8498C101.056 22.4704 100.479 21.2092 99.5621 20.3028C100.359 19.4357 100.857 18.2731 100.857 16.9922ZM105.758 20.5195C105.758 17.5636 108.188 15.1595 111.177 15.1595H116.257V12.1445H111.177C106.515 12.1445 102.73 15.8886 102.73 20.4998C102.73 25.111 106.515 28.8551 111.177 28.8551H116.257V25.8598H111.177C108.188 25.8598 105.758 23.4754 105.758 20.5195Z" fill="white"/>
<path d="M126.138 26.1939C122.97 26.1939 120.38 23.6518 120.38 20.4989C120.38 17.3657 122.95 14.8039 126.138 14.8039C129.305 14.8039 131.895 17.3459 131.895 20.4989C131.895 23.6518 129.305 26.1939 126.138 26.1939ZM136.537 18.8436C135.541 18.8436 134.684 18.2327 134.326 17.3459C133.051 14.1142 129.863 11.8086 126.138 11.8086C122.412 11.8086 119.225 14.0945 117.95 17.3459C117.611 18.213 116.755 18.8436 115.739 18.8436H113.029V22.1936H115.739C116.735 22.1936 117.591 22.8242 117.95 23.6912C119.225 26.923 122.412 29.2286 126.138 29.2286C129.863 29.2286 133.051 26.923 134.326 23.6912C134.664 22.8242 135.521 22.2133 136.537 22.2133H139.246V18.8633H136.537V18.8436Z" fill="white"/>
<path d="M126.138 17.3065C124.345 17.3065 122.891 18.7451 122.891 20.5186C122.891 22.2921 124.345 23.7307 126.138 23.7307C127.931 23.7307 129.385 22.2921 129.385 20.5186C129.385 18.7451 127.931 17.3065 126.138 17.3065ZM80.8356 20.5186H73.0661V18.6859C73.0661 16.5577 74.7993 14.8433 76.9509 14.8433C79.1024 14.8433 80.8356 16.5577 80.8356 18.6859V20.5186ZM76.9509 11.8086C73.1259 11.8086 70.0181 14.8827 70.0181 18.6662V28.8739H73.0661V23.5336H80.8356V28.8739H83.8837V18.6662C83.8638 14.8827 80.7759 11.8086 76.9509 11.8086Z" fill="white"/>
</g>
<defs>
<clipPath id="clip0_709_813">
<rect width="102" height="67" fill="white" transform="translate(44 3)"/>
</clipPath>
</defs>
</svg>
