<svg width="190" height="73" viewBox="0 0 190 73" fill="none" xmlns="http://www.w3.org/2000/svg">
<g clip-path="url(#clip0_709_790)">
<path d="M6.26562 49.9634V28.8944H26.9558C31.2687 28.8944 33.4543 31.08 33.4543 35.3928V49.9925H27.9175V34.9557C28.034 34.3438 27.5678 33.7901 26.9558 33.6735H26.6061H22.5846V49.9051H17.1061V33.7026H11.8024V49.9634H6.26562ZM37.4466 49.9634H42.9251V45.9419V28.8944H37.4466V49.9634ZM37.3592 25.4557H43.0126V24.0569V20.0938H37.3592V25.4557ZM53.2119 49.9634V33.7026H58.5156V49.9051H64.0524V33.6444H68.0739H68.4236C69.0356 33.7609 69.4727 34.3146 69.3853 34.9266V49.9634H74.8638V35.3637C74.8638 31.0508 72.6782 28.8652 68.3653 28.8652H47.6751V49.9342H53.2119V49.9634ZM84.3638 34.9266V34.5769C84.4803 33.9649 85.034 33.5278 85.646 33.6152H90.2211H90.5708C91.1828 33.7318 91.6199 34.2855 91.5325 34.8974V37.1413H84.4221L84.3638 34.9266ZM78.8853 43.4649C78.8853 47.7778 81.0708 49.9634 85.4129 49.9925H97.0402V45.1842H85.7043H85.3546C84.7426 45.0677 84.3055 44.514 84.3929 43.902V41.5125H97.0402V35.3637C97.0402 31.0508 94.8546 28.8652 90.5417 28.8652H85.3546C81.0417 28.8652 78.8561 31.0508 78.8561 35.3637V43.4649M100.916 43.4649C100.916 47.7778 103.102 49.9634 107.414 49.9925H117.264V45.1842H107.764H107.414C106.802 45.0677 106.365 44.514 106.453 43.902V34.9557V34.606C106.569 33.9941 107.123 33.5569 107.735 33.6444H117.235V28.8361H107.385C103.072 28.8361 100.887 31.0217 100.887 35.3345V43.4649M126.065 42.8529V42.5033C126.181 41.8913 126.735 41.4542 127.347 41.5416H132.534V45.126H127.347H126.997C126.385 45.0094 125.948 44.4557 126.036 43.8438V42.8529H126.065ZM138.071 49.9634V35.3637C138.071 31.0508 135.885 28.8652 131.572 28.8652H121.664V33.6735H131.281H131.631C132.243 33.7901 132.68 34.3438 132.592 34.9557V37.2579H127.056C122.743 37.1996 120.557 39.3269 120.557 43.5815C120.557 47.8361 122.743 49.9634 127.056 49.9634H138.071ZM142.151 49.9634H151.651C155.963 49.9634 158.149 47.7778 158.149 43.4649C158.149 40.172 156.459 38.2195 153.108 37.6658L148.795 36.9373C148.008 36.8207 147.629 36.2088 147.629 35.218C147.629 34.198 148.066 33.7026 148.97 33.7026H157.187V28.8944H148.649C144.336 28.8944 142.151 31.08 142.151 35.3928C142.151 38.6858 143.841 40.6382 147.192 41.1919L151.505 41.9204C152.292 42.0953 152.671 42.7073 152.671 43.698C152.671 44.6888 152.233 45.2134 151.33 45.2134H142.151V48.1566V49.9634ZM161.675 43.4649C161.675 47.7778 163.861 49.9634 168.203 49.9925H174.526V45.1842H168.552H168.203C167.591 45.0677 167.154 44.514 167.241 43.902V33.6735H174.06V28.8652H167.183V22.3668H161.646V43.4649M180.151 30.9925L180.821 29.1566V29.7686V30.9925H181.112V28.8069H180.733L180.063 30.6428L179.393 28.8069H179.014V30.9925H179.305V29.7686V29.1566L179.976 30.9925H180.151ZM178.111 29.0401H178.781V28.8069H177.207V29.0401H177.878V30.9925H178.111V29.0401Z" fill="#000066"/>
</g>
<defs>
<clipPath id="clip0_709_790">
<rect width="190" height="73" fill="white"/>
</clipPath>
</defs>
</svg>
