<svg width="190" height="73" viewBox="0 0 190 73" fill="none" xmlns="http://www.w3.org/2000/svg">
<g clip-path="url(#clip0_709_819)">
<mask id="mask0_709_819" style="mask-type:luminance" maskUnits="userSpaceOnUse" x="47" y="-3" width="96" height="78">
<path d="M142.566 -2.16406H47.9634V74.4435H142.566V-2.16406Z" fill="white"/>
</mask>
<g mask="url(#mask0_709_819)">
<path d="M110.933 24.1394L111.803 21.3208V2.02148C101.652 2.02148 100.564 5.88996 100.564 9.58588V30.7763C100.562 31.9179 100.451 33.0567 100.231 34.1774C105.625 33.1995 109.149 29.8631 110.925 24.1107" fill="black"/>
<path d="M84.8819 4.22852H82.6343V6.42881H84.8819V4.22852Z" fill="#009FDC"/>
<path d="M87.1295 7.55078H84.8818V9.75826H87.1295V7.55078Z" fill="#009FDC"/>
<path d="M84.8748 10.3262H82.6489V12.5265H84.8748V10.3262Z" fill="#009FDC"/>
<path d="M82.62 13.6348H80.4014V15.8351H82.62V13.6348Z" fill="#009FDC"/>
<path d="M78.1392 2H75.8916V4.22905H78.1392V2Z" fill="#009FDC"/>
<path d="M80.3868 18.0134H82.6272V22.9245H84.8748V14.7345H87.1224V30.7837C87.1224 38.3984 93.8435 42.0728 93.8435 42.0728C82.5547 42.0728 75.8916 35.2849 75.8916 26.2537V8.09766H78.1392V20.2424H80.3868V18.0134Z" fill="#009FDC"/>
</g>
<path d="M82.62 6.45117H80.4014V8.65146H82.62V6.45117Z" fill="#009FDC"/>
<mask id="mask1_709_819" style="mask-type:luminance" maskUnits="userSpaceOnUse" x="47" y="-3" width="96" height="78">
<path d="M142.566 -2.16406H47.9634V74.4435H142.566V-2.16406Z" fill="white"/>
</mask>
<g mask="url(#mask1_709_819)">
<path d="M106.612 62.0111C105.794 62.0634 104.975 61.95 104.204 61.6781C103.432 61.4061 102.724 60.9812 102.124 60.4292C101.563 59.8042 101.135 59.0728 100.868 58.2794C100.6 57.486 100.497 56.6469 100.565 55.8129V46.5156C101.087 46.5156 102.776 46.6379 102.776 48.2126V56.3019C102.834 58.7035 104.226 60.0769 106.583 60.0769C108.939 60.0769 110.331 58.6963 110.389 56.3019V48.2126C110.389 46.6379 112.086 46.5156 112.608 46.5156V55.8129C112.685 56.6447 112.591 57.4833 112.331 58.2779C112.072 59.0726 111.653 59.8069 111.1 60.4364C110.499 60.988 109.791 61.4127 109.02 61.6847C108.248 61.9566 107.429 62.0701 106.612 62.0183" fill="#58595B"/>
<path d="M55.0399 62.0111C54.2227 62.0634 53.4034 61.95 52.6318 61.6781C51.8602 61.4061 51.1525 60.9812 50.5519 60.4292C49.9903 59.8046 49.5625 59.0733 49.2945 58.2798C49.0266 57.4862 48.924 56.647 48.9931 55.8129V46.5156C49.5151 46.5156 51.2117 46.6379 51.2117 48.2126V56.3019C51.2697 58.7035 52.6617 60.0769 55.0181 60.0769C57.3745 60.0769 58.7666 58.6963 58.8246 56.3019V48.2126C58.8246 46.6379 60.5212 46.5156 61.0432 46.5156V55.8129C61.1118 56.647 61.009 57.4861 60.7411 58.2796C60.4731 59.0731 60.0456 59.8044 59.4844 60.4292C58.8835 60.9808 58.1758 61.4055 57.4042 61.6775C56.6327 61.9494 55.8135 62.0629 54.9964 62.0111" fill="#58595B"/>
<path d="M99.3254 61.7013C99.3425 61.1643 99.1707 60.6381 98.8396 60.2129C98.7155 60.0874 98.5661 59.9892 98.4012 59.9248C98.2363 59.8604 98.0596 59.8311 97.8825 59.839H95.2724C95.9924 59.1061 96.5561 58.2369 96.9299 57.2831C97.3036 56.3294 97.4796 55.3107 97.4475 54.2879C97.4475 50.5561 95.6857 46.5078 90.7482 46.5078C85.8107 46.5078 84.0488 50.5633 84.0488 54.2879C84.0488 58.0126 85.8034 62.0033 90.7337 62.0033C91.1248 61.984 91.5144 61.9432 91.901 61.8811C92.1402 61.8811 92.394 61.8092 92.626 61.766L93.0175 61.7013H99.3254ZM90.7554 60.0691C86.9635 60.0691 86.4052 56.4738 86.4052 54.3167C86.4052 52.5766 86.8257 48.4636 90.7554 48.4636C94.5474 48.4636 95.1056 52.1523 95.1056 54.3167C95.1056 56.0568 94.6779 60.0691 90.7554 60.0691Z" fill="#58595B"/>
<path d="M116.465 61.8745V48.2126C116.465 46.6379 118.161 46.5156 118.683 46.5156V61.6157C118.683 61.6824 118.657 61.7464 118.609 61.7936C118.562 61.8408 118.497 61.8673 118.43 61.8673L116.465 61.8745Z" fill="#58595B"/>
<path d="M78.9009 61.9177V48.2126C78.9009 46.6379 80.5975 46.5156 81.1195 46.5156V61.666C81.1195 61.6991 81.1129 61.7318 81.1002 61.7623C81.0874 61.7928 81.0687 61.8206 81.0452 61.8439C81.0216 61.8673 80.9936 61.8859 80.9628 61.8985C80.932 61.9112 80.899 61.9177 80.8657 61.9177H78.9009Z" fill="#58595B"/>
<path d="M134.207 61.8745V48.2126C134.207 46.6379 135.896 46.5156 136.382 46.5156V61.6157C136.382 61.6824 136.355 61.7464 136.307 61.7936C136.26 61.8408 136.195 61.8673 136.128 61.8673L134.207 61.8745Z" fill="#58595B"/>
<path d="M120.895 46.5508V48.485H125.463V61.8737H127.442C127.508 61.8738 127.572 61.8482 127.619 61.8026C127.666 61.7569 127.694 61.6947 127.696 61.6292V48.485H131.858C131.924 48.4851 131.987 48.4595 132.035 48.4139C132.082 48.3682 132.109 48.306 132.111 48.2405V46.5508H120.895Z" fill="#58595B"/>
<path d="M120.931 46.5508V48.485H125.499V61.8737H127.478C127.544 61.8738 127.608 61.8482 127.655 61.8026C127.703 61.7569 127.73 61.6947 127.732 61.6292V48.485H131.894C131.96 48.4851 132.023 48.4595 132.071 48.4139C132.118 48.3682 132.146 48.306 132.148 48.2405V46.5508H120.931Z" fill="#58595B"/>
<path d="M73.0279 53.9652L72.8394 53.9077L73.0207 53.8286C73.6437 53.553 74.1726 53.1039 74.5433 52.5359C74.914 51.9679 75.1104 51.3054 75.1088 50.6288C75.1088 48.1481 73.3397 46.6094 70.251 46.6094H64.8857V61.8748H70.686C71.4037 61.9 72.1203 61.8003 72.8032 61.58C73.593 61.3109 74.28 60.8068 74.7704 60.1364C75.2609 59.466 75.5309 58.6619 75.5438 57.8337C75.5438 56.4388 74.884 54.4973 73.0207 53.9436M72.7597 50.7511C72.7936 51.0927 72.7411 51.4373 72.6069 51.7537C72.4727 52.0701 72.2611 52.3483 71.9911 52.5631C71.5064 52.8334 70.9594 52.9746 70.4033 52.9729H67.1044V48.522H70.2728C72.0564 48.5867 72.7597 49.313 72.7597 50.7511ZM70.7876 59.9261H67.2349V54.8928H70.5555C71.5996 54.8928 73.3469 55.317 73.3469 57.4095C73.3615 57.7447 73.3053 58.0793 73.1819 58.3918C73.0586 58.7042 72.8707 58.9877 72.6304 59.2239C72.3902 59.4602 72.1028 59.6441 71.7867 59.7638C71.4705 59.8834 71.1327 59.9363 70.7948 59.919" fill="#58595B"/>
<path d="M49.3047 66.4609H50.1312L52.1758 69.7254H52.1831V66.4609H52.9299V70.8975H52.1033L50.066 67.633H50.0515V70.8975H49.3047V66.4609Z" fill="#58595B"/>
<path d="M61.3403 66.4609H64.5595V67.1297H62.1306V68.2945H64.3782V68.9273H62.1306V70.2216H64.603V70.8975H61.3403V66.4609Z" fill="#58595B"/>
<path d="M72.4336 66.4609H76.0588V67.1297H74.6305V70.8975H73.8474V67.1297H72.4336V66.4609Z" fill="#58595B"/>
<path d="M83.8164 66.4609H84.6139L85.4187 69.8549H85.4332L86.3323 66.4609H87.1371L88.0144 69.8549H88.0216L88.8554 66.4609H89.653L88.4204 70.8975H87.6229L86.7238 67.5036H86.7166L85.803 70.8975H84.991L83.8164 66.4609Z" fill="#58595B"/>
<path d="M99.4486 66.3538C99.7586 66.3485 100.066 66.4124 100.348 66.5408C100.606 66.6595 100.835 66.831 101.022 67.0441C101.207 67.2553 101.349 67.4993 101.442 67.7632C101.64 68.3463 101.64 68.9777 101.442 69.5608C101.349 69.8247 101.207 70.0686 101.022 70.2799C100.835 70.4912 100.606 70.6603 100.348 70.776C100.064 70.8971 99.7577 70.9595 99.4486 70.9595C99.1394 70.9595 98.8335 70.8971 98.5495 70.776C98.2916 70.6601 98.0617 70.491 97.8752 70.2799C97.6914 70.068 97.5488 69.8242 97.4547 69.5608C97.2579 68.9775 97.2579 68.3465 97.4547 67.7632C97.5488 67.4998 97.6914 67.2559 97.8752 67.0441C98.0616 66.831 98.2914 66.6595 98.5495 66.5408C98.8314 66.4128 99.1386 66.3489 99.4486 66.3538ZM99.4486 66.9866C99.2341 66.9812 99.0218 67.0307 98.8323 67.1304C98.6637 67.2227 98.5195 67.3533 98.4117 67.5115C98.3005 67.6785 98.2196 67.8634 98.1725 68.058C98.0669 68.466 98.0669 68.8939 98.1725 69.302C98.2196 69.4965 98.3005 69.6815 98.4117 69.8484C98.5195 70.0067 98.6637 70.1372 98.8323 70.2295C99.0239 70.3234 99.2348 70.3722 99.4486 70.3722C99.6623 70.3722 99.8732 70.3234 100.065 70.2295C100.233 70.137 100.377 70.0065 100.485 69.8484C100.597 69.6815 100.678 69.4965 100.725 69.302C100.831 68.8941 100.831 68.4659 100.725 68.058C100.678 67.8634 100.597 67.6785 100.485 67.5115C100.377 67.3535 100.233 67.2229 100.065 67.1304C99.8753 67.0307 99.663 66.9812 99.4486 66.9866Z" fill="#58595B"/>
<path d="M109.78 66.4617H111.919C112.315 66.4322 112.709 66.5444 113.028 66.778C113.153 66.8886 113.251 67.0255 113.315 67.1786C113.379 67.3316 113.407 67.497 113.398 67.6625C113.404 67.842 113.372 68.0209 113.304 68.1874C113.252 68.3119 113.179 68.4264 113.086 68.5253C113.016 68.5997 112.932 68.6606 112.84 68.7051L112.659 68.7842C112.734 68.7953 112.807 68.8171 112.876 68.8489C112.959 68.8859 113.033 68.9397 113.094 69.0071C113.166 69.0896 113.223 69.1847 113.26 69.2875C113.309 69.4286 113.331 69.5772 113.326 69.7261C113.322 69.9671 113.342 70.2078 113.384 70.4452C113.401 70.612 113.464 70.7711 113.565 70.9054H112.724C112.666 70.8092 112.631 70.7009 112.622 70.589C112.622 70.474 112.622 70.3589 112.622 70.2511C112.625 70.0754 112.613 69.8998 112.586 69.7261C112.567 69.5955 112.52 69.4704 112.448 69.3594C112.381 69.261 112.285 69.1857 112.173 69.1437C112.031 69.0923 111.881 69.0679 111.731 69.0718H110.578V70.8982H109.795L109.78 66.4617ZM110.563 68.4822H111.847C112.054 68.4964 112.258 68.4321 112.419 68.3024C112.487 68.2315 112.539 68.1478 112.572 68.0563C112.606 67.9648 112.621 67.8676 112.615 67.7703C112.619 67.652 112.597 67.5342 112.55 67.4252C112.512 67.3412 112.452 67.2691 112.376 67.2167C112.3 67.1649 112.213 67.1305 112.122 67.116C112.026 67.1077 111.929 67.1077 111.832 67.116H110.563V68.4822Z" fill="#58595B"/>
<path d="M121.7 66.4609H122.483V68.4815L124.477 66.4609H125.441L123.657 68.2298L125.564 70.8975H124.585L123.121 68.7763L122.483 69.4018V70.8975H121.7V66.4609Z" fill="#58595B"/>
<path d="M133.866 69.4166C133.861 69.5675 133.891 69.7174 133.953 69.8552C134.009 69.9722 134.094 70.0735 134.199 70.1501C134.308 70.2286 134.431 70.2848 134.562 70.3154C134.707 70.351 134.855 70.3679 135.004 70.3658C135.154 70.3704 135.303 70.351 135.446 70.3083C135.554 70.2773 135.655 70.226 135.744 70.1573C135.814 70.0992 135.868 70.0251 135.903 69.9415C135.936 69.864 135.953 69.781 135.954 69.6971C135.965 69.5623 135.924 69.4283 135.838 69.3232C135.768 69.2464 135.682 69.1872 135.584 69.1506C135.404 69.0854 135.22 69.0302 135.033 68.9852L134.25 68.7839C134.082 68.7439 133.92 68.6784 133.772 68.5898C133.655 68.5174 133.551 68.4248 133.467 68.3165C133.394 68.2219 133.34 68.1146 133.308 68.0001C133.278 67.8899 133.263 67.7762 133.264 67.6622C133.257 67.4594 133.305 67.2584 133.402 67.0797C133.494 66.9202 133.62 66.7827 133.772 66.6771C133.933 66.5676 134.112 66.4873 134.301 66.4398C134.711 66.3274 135.145 66.3274 135.555 66.4398C135.752 66.4957 135.937 66.5884 136.099 66.713C136.254 66.833 136.38 66.9852 136.469 67.1588C136.564 67.3485 136.611 67.5582 136.607 67.77H135.824C135.827 67.653 135.802 67.5367 135.75 67.4314C135.699 67.3262 135.622 67.2351 135.526 67.166C135.325 67.0397 135.09 66.977 134.852 66.9862C134.758 66.9775 134.663 66.9775 134.569 66.9862C134.478 67.0039 134.39 67.0355 134.308 67.0797C134.23 67.1244 134.163 67.1858 134.112 67.2595C134.058 67.3429 134.03 67.4406 134.033 67.5399C134.028 67.6078 134.039 67.6758 134.064 67.7392C134.089 67.8025 134.128 67.8597 134.178 67.9066C134.288 68.0025 134.42 68.0715 134.562 68.108L134.758 68.1583L135.142 68.259L135.563 68.3669L135.853 68.4459C135.99 68.4869 136.12 68.55 136.237 68.6329C136.343 68.7086 136.436 68.8009 136.512 68.9061C136.584 69.0043 136.637 69.1137 136.672 69.2297C136.706 69.3415 136.723 69.4579 136.723 69.5748C136.731 69.7978 136.678 70.0189 136.57 70.2148C136.47 70.3878 136.331 70.5355 136.164 70.6462C135.989 70.7604 135.795 70.8432 135.592 70.8907C135.378 70.9431 135.159 70.9696 134.939 70.9698C134.694 70.9724 134.45 70.941 134.214 70.8763C134.001 70.8199 133.801 70.7221 133.627 70.5887C133.458 70.4548 133.322 70.2853 133.228 70.0925C133.121 69.8677 133.067 69.622 133.068 69.3735L133.866 69.4166Z" fill="#58595B"/>
<path d="M139.572 46.543C139.859 46.543 140.139 46.6273 140.378 46.7854C140.616 46.9434 140.802 47.1679 140.912 47.4307C141.022 47.6935 141.05 47.9827 140.994 48.2616C140.938 48.5406 140.8 48.7969 140.598 48.998C140.395 49.1991 140.136 49.336 139.855 49.3915C139.574 49.447 139.282 49.4186 139.017 49.3097C138.752 49.2009 138.526 49.0165 138.366 48.78C138.207 48.5435 138.122 48.2655 138.122 47.9811C138.122 47.5997 138.275 47.2339 138.547 46.9642C138.819 46.6945 139.188 46.543 139.572 46.543ZM139.572 49.1603C139.814 49.1689 140.054 49.1056 140.26 48.9785C140.465 48.8514 140.628 48.6663 140.727 48.4469C140.826 48.2275 140.857 47.9837 140.816 47.7468C140.774 47.51 140.663 47.2907 140.495 47.1171C140.327 46.9436 140.111 46.8236 139.874 46.7726C139.637 46.7216 139.39 46.7418 139.165 46.8307C138.94 46.9197 138.747 47.0732 138.61 47.2717C138.473 47.4702 138.399 47.7047 138.398 47.9451C138.391 48.1023 138.416 48.2592 138.472 48.4064C138.528 48.5536 138.613 48.688 138.723 48.8015C138.833 48.9151 138.965 49.0054 139.111 49.0671C139.257 49.1288 139.414 49.1605 139.572 49.1603ZM139.014 47.1254H139.666C140.065 47.1254 140.246 47.2836 140.246 47.6C140.249 47.6581 140.24 47.7162 140.22 47.7707C140.199 47.8251 140.167 47.8748 140.127 47.9166C140.086 47.9585 140.037 47.9915 139.983 48.0137C139.928 48.0359 139.87 48.0469 139.811 48.0458L140.29 48.7649H140.014L139.565 48.0458H139.289V48.7649H139.028L139.014 47.1254ZM139.275 47.8444H139.543C139.775 47.8444 139.978 47.8444 139.978 47.5712C139.978 47.298 139.79 47.3196 139.616 47.3196H139.275V47.8444Z" fill="#58595B"/>
</g>
</g>
<defs>
<clipPath id="clip0_709_819">
<rect width="92" height="69" fill="white" transform="translate(49 2)"/>
</clipPath>
</defs>
</svg>
