<svg width="190" height="73" viewBox="0 0 190 73" fill="none" xmlns="http://www.w3.org/2000/svg">
<g clip-path="url(#clip0_709_804)">
<path d="M70.1279 24.5H85.9442L84.4871 29.9432H71.8835C71.3377 29.9432 70.7766 30.386 70.6299 30.933L68.8089 37.7371C69.3939 35.5509 71.6384 33.7784 73.8227 33.7784H83.4609L82.0038 39.2216H69.4002C68.8544 39.2216 68.2932 39.6644 68.1466 40.2114L67.3853 43.0568H80.9776L79.5205 48.5H63.7041C61.5204 48.5 60.2241 46.7275 60.8097 44.5413L65.114 28.4587C65.6996 26.2725 67.9442 24.5 70.1279 24.5ZM35.6746 36.6921C38.287 36.2846 40.755 35.8981 41.0768 35.8508C41.6845 35.7615 42.1837 35.408 42.3304 34.861L43.642 29.9438H53.283L51.9714 34.861C51.8253 35.4074 51.3262 35.7615 50.7178 35.8508C50.1067 35.9408 41.7465 37.255 39.3672 37.6136C36.9788 37.9739 34.939 39.3861 34.3534 41.5724L32.5 48.5H38.6753L40.0932 43.2196C42.3196 42.869 50.4916 41.5843 52.4734 41.294C54.7743 40.9571 56.9017 39.5216 57.4873 37.3353L59.9194 28.2367C60.4231 26.351 59.0041 24.5 57.0546 24.5H38.9232L35.6746 36.6921ZM97.9305 24.5H91.7523L86.3883 44.5413C85.8032 46.7275 87.0989 48.5 89.2826 48.5H102.134L103.591 43.0568H92.9638L97.9305 24.5ZM118.159 29.9432H129.033L130.49 24.5H116.404C114.22 24.5 111.975 26.2725 111.39 28.4587L107.085 44.5413C106.5 46.7275 107.796 48.5 109.98 48.5H124.066L125.523 43.0568H113.661L116.906 30.933C117.052 30.3866 117.613 29.9432 118.159 29.9432ZM152.114 24.5H138.769C136.586 24.5 134.341 26.2725 133.756 28.4587L129.451 44.5413C128.866 46.7275 130.162 48.5 132.346 48.5H145.691C147.874 48.5 150.119 46.7275 150.704 44.5413L155.009 28.4587C155.594 26.2725 154.298 24.5 152.114 24.5ZM145.189 42.067C145.042 42.6134 144.481 43.0568 143.935 43.0568H136.027L139.271 30.933C139.417 30.3866 139.979 29.9432 140.525 29.9432H148.433L145.189 42.067Z" fill="black"/>
<path d="M155.283 46.508H155.489C155.73 46.508 155.926 46.4272 155.926 46.2325C155.926 46.0606 155.799 45.9451 155.523 45.9451C155.409 45.9451 155.329 45.9565 155.282 45.9679V46.5075L155.283 46.508ZM155.271 47.5662H154.834V45.6799C155.006 45.6582 155.247 45.6235 155.559 45.6235C155.916 45.6235 156.075 45.6799 156.202 45.7715C156.316 45.8529 156.396 45.9912 156.396 46.1751C156.396 46.4056 156.226 46.5553 156.006 46.6247V46.6463C156.191 46.705 156.282 46.8535 156.339 47.1063C156.396 47.3931 156.443 47.4979 156.477 47.5662H156.017C155.961 47.4979 155.926 47.3368 155.868 47.1063C155.834 46.9105 155.719 46.8188 155.478 46.8188H155.271V47.5662ZM154.111 46.5889C154.111 47.4278 154.743 48.0961 155.581 48.0961C156.479 48.1086 157.141 47.2827 156.998 46.3447C156.896 45.6844 156.351 45.1442 155.686 45.0879C154.81 45.0139 154.112 45.718 154.112 46.5889M157.5 46.5889C157.5 47.647 156.65 48.4865 155.569 48.4865C154.489 48.4865 153.628 47.647 153.628 46.5889C153.628 45.5307 154.49 44.7031 155.581 44.7031C156.672 44.7031 157.5 45.5307 157.5 46.5889Z" fill="black"/>
</g>
<defs>
<clipPath id="clip0_709_804">
<rect width="125" height="24" fill="white" transform="translate(32.5 24.5)"/>
</clipPath>
</defs>
</svg>
