<svg width="190" height="73" viewBox="0 0 190 73" fill="none" xmlns="http://www.w3.org/2000/svg">
<g clip-path="url(#clip0_500_2909)">
<g clip-path="url(#clip1_500_2909)">
<path d="M67.066 39.5791L65.9336 42.7841H65.8392C65.6505 42.0614 65.3045 40.9616 64.7382 39.642L58.667 24.4027H52.7217V48.6913H56.6538V33.7034C56.6538 32.7607 56.6538 31.6924 56.6223 30.3727C56.5909 29.7129 56.528 29.2101 56.4965 28.8331H56.5909C56.7796 29.7757 56.9998 30.467 57.1571 30.9069L64.4551 48.6284H67.2233L74.4584 30.7498C74.6157 30.3413 74.773 29.5243 74.9303 28.8331H75.0247C74.9303 30.6241 74.8674 32.2266 74.8359 33.2006V48.597H79.0197V24.3398H73.2945L67.066 39.5791ZM82.9833 31.1897H87.0727V48.597H82.9833V31.1897ZM85.0594 23.8371C84.3674 23.8371 83.8011 24.0885 83.3293 24.5284C82.8574 24.9683 82.6058 25.5338 82.6058 26.2251C82.6058 26.885 82.8574 27.4505 83.3293 27.8904C83.8011 28.3303 84.3674 28.5503 85.0594 28.5503C85.7515 28.5503 86.3492 28.2989 86.7896 27.8904C87.2614 27.4505 87.5131 26.885 87.5131 26.2251C87.5131 25.5653 87.2614 24.9997 86.7896 24.5284C86.3806 24.0885 85.7829 23.8371 85.0594 23.8371ZM101.574 31.0325C100.819 30.8754 100.033 30.7812 99.278 30.7812C97.422 30.7812 95.7233 31.1897 94.3078 32.0066C92.8922 32.8236 91.7598 33.9547 91.0362 35.3687C90.2813 36.814 89.9038 38.4794 89.9038 40.3961C89.9038 42.0614 90.2813 43.5382 91.0048 44.8893C91.7283 46.209 92.7349 47.2773 94.0876 48C95.3773 48.7227 96.8872 49.0997 98.5859 49.0997C100.536 49.0997 102.203 48.6913 103.525 47.9372L103.556 47.9057V44.1352L103.399 44.2609C102.801 44.7008 102.109 45.0778 101.417 45.2978C100.694 45.5491 100.033 45.6748 99.4667 45.6748C97.831 45.6748 96.5412 45.2035 95.629 44.1666C94.6853 43.1611 94.2134 41.7786 94.2134 40.0504C94.2134 38.2594 94.6853 36.8455 95.6604 35.8086C96.6356 34.7717 97.9253 34.2375 99.4982 34.2375C100.819 34.2375 102.172 34.6774 103.399 35.5572L103.556 35.6829V31.6924L103.525 31.661C102.99 31.441 102.392 31.1897 101.574 31.0325ZM115.069 30.9069C114.063 30.9069 113.119 31.2211 112.301 31.8809C111.609 32.4465 111.137 33.2635 110.728 34.2375H110.697V31.1897H106.607V48.597H110.697V39.7048C110.697 38.1966 111.011 36.9397 111.703 36.0285C112.396 35.0859 113.276 34.6146 114.346 34.6146C114.723 34.6146 115.101 34.7088 115.573 34.7717C116.013 34.8974 116.328 35.023 116.548 35.1801L116.705 35.3058V31.2211L116.611 31.1897C116.328 31.0011 115.761 30.9069 115.069 30.9069ZM126.205 30.8126C123.343 30.8126 121.046 31.661 119.442 33.3263C117.806 34.9916 117.02 37.2854 117.02 40.1761C117.02 42.8783 117.838 45.0778 119.41 46.6803C120.983 48.2514 123.122 49.0683 125.796 49.0683C128.596 49.0683 130.829 48.2199 132.434 46.5232C134.069 44.8265 134.856 42.5641 134.856 39.7676C134.856 37.0026 134.101 34.8031 132.559 33.2006C131.081 31.5981 128.91 30.8126 126.205 30.8126ZM129.477 44.198C128.722 45.1721 127.526 45.6434 126.048 45.6434C124.569 45.6434 123.374 45.1721 122.525 44.1352C121.675 43.1611 121.266 41.7472 121.266 39.9562C121.266 38.1023 121.707 36.6884 122.525 35.6829C123.374 34.6774 124.538 34.1747 126.016 34.1747C127.463 34.1747 128.596 34.646 129.414 35.62C130.232 36.5941 130.672 38.0081 130.672 39.8619C130.609 41.7472 130.263 43.224 129.477 44.198ZM143.978 38.4165C142.689 37.8824 141.871 37.4739 141.493 37.1283C141.179 36.814 141.021 36.3742 141.021 35.8086C141.021 35.3373 141.21 34.8659 141.682 34.5517C142.154 34.2375 142.689 34.0804 143.475 34.0804C144.167 34.0804 144.891 34.2061 145.583 34.3946C146.275 34.5831 146.904 34.8659 147.407 35.243L147.564 35.3687V31.5353L147.47 31.5039C146.998 31.3153 146.369 31.1268 145.614 30.9697C144.859 30.844 144.167 30.7812 143.601 30.7812C141.65 30.7812 140.046 31.2525 138.788 32.2894C137.53 33.2635 136.932 34.5831 136.932 36.1228C136.932 36.9397 137.058 37.6624 137.341 38.2594C137.624 38.8564 138.033 39.422 138.599 39.8933C139.165 40.3332 139.983 40.836 141.116 41.3073C142.059 41.7158 142.783 42.03 143.223 42.2813C143.664 42.5327 143.947 42.8155 144.167 43.0354C144.324 43.2868 144.419 43.601 144.419 44.0095C144.419 45.1721 143.538 45.7377 141.745 45.7377C141.053 45.7377 140.329 45.612 139.48 45.3292C138.631 45.0464 137.844 44.6379 137.184 44.1666L137.026 44.0409V48.0314L137.121 48.0628C137.718 48.3456 138.442 48.5342 139.323 48.7541C140.203 48.9112 140.99 49.0369 141.682 49.0369C143.79 49.0369 145.52 48.5656 146.747 47.5287C148.005 46.5232 148.665 45.2349 148.665 43.5696C148.665 42.407 148.351 41.3701 147.659 40.5846C146.747 39.8305 145.614 39.045 143.978 38.4165ZM159.455 30.8126C156.593 30.8126 154.296 31.661 152.692 33.3263C151.088 34.9916 150.27 37.2854 150.27 40.1761C150.27 42.8783 151.088 45.0778 152.66 46.6803C154.233 48.2514 156.372 49.0683 159.046 49.0683C161.846 49.0683 164.079 48.2199 165.684 46.5232C167.319 44.8265 168.106 42.5641 168.106 39.7676C168.106 37.0026 167.351 34.8031 165.809 33.2006C164.331 31.5981 162.16 30.8126 159.455 30.8126ZM162.695 44.198C161.94 45.1721 160.745 45.6434 159.266 45.6434C157.756 45.6434 156.593 45.1721 155.743 44.1352C154.894 43.1611 154.485 41.7472 154.485 39.9562C154.485 38.1023 154.925 36.6884 155.743 35.6829C156.593 34.6774 157.756 34.1747 159.235 34.1747C160.65 34.1747 161.814 34.646 162.632 35.62C163.45 36.5941 163.891 38.0081 163.891 39.8619C163.891 41.7472 163.482 43.224 162.695 44.198ZM189.968 34.5517V31.1897H185.848V26.0366L185.722 26.068L181.821 27.2306L181.727 27.262V31.1897H175.561V28.9902C175.561 27.9847 175.813 27.1992 176.253 26.6964C176.694 26.1937 177.354 25.9423 178.172 25.9423C178.738 25.9423 179.336 26.068 179.997 26.3508L180.154 26.4451V22.8945L180.059 22.863C179.493 22.6745 178.738 22.5488 177.763 22.5488C176.536 22.5488 175.467 22.8316 174.492 23.3029C173.516 23.8371 172.793 24.5598 172.258 25.5338C171.723 26.4765 171.44 27.5448 171.44 28.7702V31.1897H168.578V34.5203H171.44V48.597H175.561V34.5517H181.727V43.5068C181.727 47.183 183.457 49.0369 186.917 49.0369C187.483 49.0369 188.081 48.9426 188.647 48.8484C189.245 48.7227 189.685 48.5656 189.937 48.4399L189.968 48.4085V45.0464L189.811 45.1721C189.559 45.3292 189.339 45.4549 188.962 45.5491C188.647 45.6434 188.364 45.6748 188.144 45.6748C187.326 45.6748 186.76 45.4863 186.351 45.015C185.973 44.5751 185.785 43.8524 185.785 42.7841V34.5517H189.968Z" fill="#737373"/>
<path d="M0 16.2324H19.2831V35.4936H0V16.2324Z" fill="#F25022"/>
<path d="M21.2959 16.2324H40.579V35.4936H21.2959V16.2324Z" fill="#7FBA00"/>
<path d="M0 37.5059H19.2831V56.767H0V37.5059Z" fill="#00A4EF"/>
<path d="M21.2959 37.5059H40.579V56.767H21.2959V37.5059Z" fill="#FFB900"/>
</g>
</g>
<defs>
<clipPath id="clip0_500_2909">
<rect width="190" height="73" fill="white"/>
</clipPath>
<clipPath id="clip1_500_2909">
<rect width="190" height="40.5333" fill="white" transform="translate(0 16.2324)"/>
</clipPath>
</defs>
</svg>
