<svg width="190" height="73" viewBox="0 0 190 73" fill="none" xmlns="http://www.w3.org/2000/svg">
<path d="M3.88086 27.8379V36.5456C3.88086 38.0225 4.68253 39.3794 5.97444 40.0964L15.0579 45.1271L15.1165 45.161L24.2432 40.0994C25.5351 39.3825 26.3368 38.0256 26.3368 36.5517V27.8379H3.88086ZM18.4989 38.1548C17.8206 38.5302 17.059 38.7271 16.2851 38.7271L7.86144 38.7025L12.5851 36.0748C13.0414 35.8194 13.5533 35.6871 14.0774 35.684L22.9944 35.6564L18.502 38.1579L18.4989 38.1548ZM18.3694 33.8533C17.9131 34.1087 17.4013 34.241 16.8771 34.244L7.96011 34.2717L12.4525 31.7702C13.1309 31.3948 13.8924 31.1979 14.6664 31.1979L23.09 31.2225L18.3664 33.8502L18.3694 33.8533Z" fill="#2006F7"/>
<path d="M180.963 34.1914H166.65C165.997 34.1914 165.466 33.6622 165.466 33.0098C165.466 32.3575 165.997 31.8283 166.65 31.8283H185.274V27.8652H166.65C163.808 27.8652 161.495 30.1729 161.495 33.0098C161.495 35.8468 163.808 38.1545 166.65 38.1545H180.963C181.617 38.1545 182.147 38.6929 182.147 39.3422C182.147 39.9945 181.617 40.5022 180.963 40.5022H162.3V44.4652H180.963C183.806 44.4652 186.119 42.1822 186.119 39.3452C186.119 36.5083 183.806 34.1945 180.963 34.1945V34.1914Z" fill="#001A47"/>
<path d="M73.0592 27.875H65.3046C60.7136 27.875 56.9766 31.6042 56.9766 36.1858C56.9766 40.7673 60.7136 44.4965 65.3046 44.4965H73.0592C77.6503 44.4965 81.3873 40.7673 81.3873 36.1858C81.3873 31.6042 77.6503 27.875 73.0592 27.875ZM73.0592 40.5304H65.3046C62.9058 40.5304 60.9541 38.5827 60.9541 36.1888C60.9541 33.795 62.9058 31.8473 65.3046 31.8473H73.0592C75.4581 31.8473 77.4098 33.795 77.4098 36.1888C77.4098 38.5827 75.4581 40.5304 73.0592 40.5304Z" fill="#001A47"/>
<path d="M151.493 27.875H143.738C139.147 27.875 135.41 31.6042 135.41 36.1858C135.41 40.7673 139.147 44.4965 143.738 44.4965H151.493C156.084 44.4965 159.821 40.7673 159.821 36.1858C159.821 31.6042 156.084 27.875 151.493 27.875ZM151.493 40.5304H143.738C141.339 40.5304 139.388 38.5827 139.388 36.1888C139.388 33.795 141.339 31.8473 143.738 31.8473H151.493C153.892 31.8473 155.843 33.795 155.843 36.1888C155.843 38.5827 153.892 40.5304 151.493 40.5304Z" fill="#001A47"/>
<path d="M129.077 27.8926V34.1787H113.543V27.8926H109.565V44.4741H113.543V38.148H129.077V44.4741H133.054V27.8926H129.077Z" fill="#001A47"/>
<path d="M50.3256 34.1914H36.0128C35.3591 34.1914 34.8288 33.6622 34.8288 33.0098C34.8288 32.3575 35.3591 31.8283 36.0128 31.8283H54.6361V27.8652H36.0128C33.1699 27.8652 30.8574 30.1729 30.8574 33.0098C30.8574 35.8468 33.1699 38.1545 36.0128 38.1545H50.3256C50.9793 38.1545 51.5096 38.6929 51.5096 39.3422C51.5096 39.9914 50.9793 40.5022 50.3256 40.5022H31.6622V44.4652H50.3256C53.1684 44.4652 55.4809 42.1822 55.4809 39.3452C55.4809 36.5083 53.1684 34.1945 50.3256 34.1945V34.1914Z" fill="#001A47"/>
<path d="M101.062 27.8937H87.6523H86.049H83.6748V44.4752H87.6523V40.0322H101.062C104.416 40.0322 107.145 37.3091 107.145 33.9614C107.145 30.6137 104.416 27.8906 101.062 27.8906V27.8937ZM101.062 36.0629H87.6523V31.8599H101.062C102.224 31.8599 103.168 32.8014 103.168 33.9614C103.168 35.1214 102.224 36.0629 101.062 36.0629Z" fill="#001A47"/>
</svg>
