<svg width="190" height="73" viewBox="0 0 190 73" fill="none" xmlns="http://www.w3.org/2000/svg">
<g clip-path="url(#clip0_500_2911)">
<path d="M14.0811 46.6256V12.7949H20.059V46.6256H14.0811Z" fill="black"/>
<path d="M35.3611 22.084C27.6965 22.084 22.3926 27.9423 22.3926 34.6478C22.3926 42.1314 28.1627 47.2869 35.4206 47.2869C42.3088 47.2869 48.2862 42.2263 48.2862 34.6316C48.2862 28.2452 43.3331 22.084 35.3611 22.084ZM35.2907 27.8168C39.3017 27.8168 42.2541 30.9207 42.2541 34.6693C42.2541 38.6438 38.999 41.5433 35.399 41.5433C31.1451 41.5433 28.468 38.1915 28.468 34.68C28.468 30.831 31.4905 27.8168 35.2907 27.8168Z" fill="black"/>
<path d="M63.3059 22.084C55.6414 22.084 50.3374 27.9423 50.3374 34.6478C50.3374 42.1314 56.1075 47.2869 63.3654 47.2869C70.2537 47.2869 76.2311 42.2263 76.2311 34.6316C76.2311 30.1592 74.2828 28.1749 74.2828 28.1749L75.9397 27.61V22.7869H67.4493C67.4493 22.7869 65.6086 22.084 63.3059 22.084ZM63.2355 27.8168C67.2466 27.8168 70.1989 30.9207 70.1989 34.6693C70.1989 38.6438 66.9439 41.5433 63.3438 41.5433C59.0899 41.5433 56.4128 38.1915 56.4128 34.68C56.4128 30.831 59.4353 27.8168 63.2355 27.8168Z" fill="black"/>
<path d="M70.157 48.2793C70.157 52.2539 66.9019 55.1748 63.3018 55.1748C59.0479 55.1748 56.36 51.7908 56.36 48.2793H50.2954C50.2954 55.763 56.0655 60.9184 63.3235 60.9184C70.2117 60.9184 76.1891 55.874 76.1891 48.2793H70.157Z" fill="black"/>
<path d="M78.6255 46.627V22.7871H84.6034V46.627H78.6255Z" fill="black"/>
<path d="M90.4082 46.6255V28.1255H87.2026V22.7856H90.4082V15.4648H96.3862V22.7856H99.6784V28.1255H96.3862V46.6255H90.4082Z" fill="black"/>
<path d="M85.5607 16.0154C85.5607 18.1887 83.7884 19.9506 81.6021 19.9506C79.4159 19.9506 77.6436 18.1887 77.6436 16.0154C77.6436 13.842 79.4159 12.0801 81.6021 12.0801C83.7884 12.0801 85.5607 13.842 85.5607 16.0154Z" fill="black"/>
<path d="M113.118 22.0664C105.417 22.0664 100.453 27.9278 100.453 34.8616C100.453 42.027 105.434 47.3016 113.242 47.3016C120.527 47.3016 124.11 42.7799 124.11 42.7799L120.114 38.8019C120.114 38.8019 117.097 42.0371 113.318 42.0371C110.169 42.0371 107.65 40.2895 106.772 37.0848H125.399V35.4484C125.399 28.9189 121.597 22.0664 113.118 22.0664ZM112.928 27.2986C115.682 27.2986 118.498 28.7632 119.128 32.2617H106.609C107.105 29.8025 109.269 27.2986 112.928 27.2986Z" fill="black"/>
<path d="M140.351 47.3052C132.629 47.3052 127.367 41.4581 127.367 34.5639C127.367 27.449 133.314 22.0625 140.327 22.0625C147.106 22.0625 150.576 26.8201 150.576 26.8201L146.406 30.9469C146.406 30.9469 143.99 27.8442 140.298 27.8442C136.206 27.8442 133.408 30.9561 133.408 34.6551C133.408 38.5608 136.385 41.5574 140.252 41.5574C144.004 41.5574 146.4 38.4597 146.4 38.4597L150.612 42.5843C150.612 42.5843 147.176 47.3052 140.351 47.3052Z" fill="black"/>
<path d="M152.787 46.643V12.709H158.765V25.1765C158.765 25.1765 161.054 22.0622 166.033 22.0622C172.293 22.0622 175.919 26.688 175.919 32.6043V46.643H169.941V33.5025C169.941 29.5278 167.452 27.8788 164.694 27.8788C161.553 27.8788 158.765 29.6563 158.765 33.8101V46.643H152.787Z" fill="black"/>
</g>
<defs>
<clipPath id="clip0_500_2911">
<rect width="162" height="49" fill="white" transform="translate(14 12)"/>
</clipPath>
</defs>
</svg>
