<svg width="190" height="73" viewBox="0 0 190 73" fill="none" xmlns="http://www.w3.org/2000/svg">
<path d="M119.362 45.7313H114.85V27.2988L129.361 27.3108C129.361 27.3108 132.018 27.2116 133.708 28.883C133.708 28.883 135.434 30.325 135.434 33.8495V45.7284H130.933V33.5425C130.933 33.5425 130.989 32.2995 130.566 31.8633C130.566 31.8633 130.191 31.3895 129.48 31.3895H119.351L119.36 45.7247L119.362 45.7313ZM138.57 45.7281V28.4708V27.3126H156.677V31.4088L143.054 31.4077V34.5395H152.518V38.4949H143.054V41.6372H156.762V45.7344H138.559L138.57 45.7281ZM106.987 45.7281V28.4708V27.3126H111.48V45.7344H106.987V45.7281ZM163.145 45.7281V31.4035H158.904V27.3073H175.774V31.4035H167.641V45.7281H163.148H163.145ZM92.1475 45.7281V31.4035H87.9062V27.3073H104.776V31.4035H96.6438V45.7281H92.1507H92.1475ZM78.5985 34.5268C79.6964 34.5183 80.3532 34.5278 80.6176 34.3667C80.6176 34.3667 81.079 34.1113 81.0843 33.5633L81.0853 32.3585C81.0853 31.8079 80.6187 31.5551 80.6187 31.5551C80.2684 31.3645 79.6747 31.4003 78.2653 31.399H69.5119V34.5264H78.7995L78.5985 34.5268ZM81.0195 45.7281V39.4414C81.0195 38.8762 80.5476 38.6394 80.5476 38.6394C80.3348 38.507 79.6974 38.4832 78.759 38.4832H78.9771H69.5119V45.727H65.0188V28.4698V27.3115H79.0438C81.4659 27.3189 83.1381 27.6755 84.2899 28.7948C85.4217 29.9488 85.5719 31.4586 85.5782 33.0297V34.3415C85.5928 35.6765 84.892 36.8941 84.0562 37.6034L84.2241 37.6868C84.5652 37.8522 84.7517 38.0865 84.7517 38.0865C85.3876 38.8991 85.3798 39.5984 85.3784 40.4581V45.7316H81.0197L81.0195 45.7281ZM13.0734 27.3062V28.4655V45.7228H17.5665V38.4853H31.179V34.5278H17.5665V31.3982H33.3896V27.302H13.0713L13.0734 27.3062Z" fill="#231F20"/>
<path d="M174.256 42.4697V43.3154H175.043C175.255 43.3154 175.462 43.2572 175.493 42.9408C175.538 42.5214 175.235 42.4697 175.043 42.4697H174.256ZM173.94 42.1918H175.036C175.416 42.1918 175.784 42.2632 175.816 42.8177C175.829 43.1353 175.732 43.2505 175.493 43.4318C175.746 43.5932 175.752 43.6316 175.791 44.0577C175.816 44.3806 175.771 44.4322 175.907 44.6453H175.533L175.481 44.3356C175.43 44.0444 175.571 43.5932 175.062 43.5932H174.256V44.6454H173.94L173.94 42.1918ZM174.765 41.5142C173.682 41.5142 172.799 42.3982 172.806 43.4898C172.806 44.5739 173.683 45.4579 174.772 45.4526C175.856 45.4526 176.74 44.5739 176.74 43.4834C176.74 42.3982 175.855 41.5142 174.765 41.5142ZM174.772 45.7089C173.541 45.7089 172.547 44.7149 172.547 43.4834C172.542 42.2564 173.541 41.2559 174.772 41.2559C175.998 41.2559 176.998 42.2564 176.998 43.4834C176.998 44.7158 175.998 45.7046 174.772 45.7089Z" fill="#231F20"/>
<path d="M58.8406 45.91C60.3002 45.4137 61.4361 43.7311 61.709 41.6158V41.0044H54.2258V45.9105H58.8395L58.8406 45.91ZM61.7101 32.0089V31.4557C61.4232 29.2483 60.2029 27.5088 58.647 27.1001H54.2269V32.0084L61.7101 32.0089ZM35.3735 41.0049V41.611C35.6445 43.7285 36.7803 45.414 38.2441 45.9105H42.8345V41.0044L35.3735 41.0049ZM38.4356 27.1038C36.8818 27.5127 35.6581 29.2531 35.3735 31.4637V32.0129H42.8345V27.1047L38.4356 27.1038ZM61.7154 34.0554H54.2322V38.9637H61.7154V34.0554ZM44.8769 45.9132H52.1972V41.007H44.8769V45.9132ZM52.1972 27.0996H44.8769V32.0079H52.1972V27.0996ZM35.3799 38.9573H42.8408V34.0491H35.3799V38.9573Z" fill="#EE2E24"/>
</svg>
