<svg width="190" height="73" viewBox="0 0 190 73" fill="none" xmlns="http://www.w3.org/2000/svg">
<g clip-path="url(#clip0_707_296)">
<path d="M109.533 26.4998C107.73 26.4998 106.163 27.511 105.371 28.8514C104.58 30.1919 102.347 33.9912 101.547 35.3317C100.74 36.6799 101.798 38.1583 103.209 38.1583H116.476C116.476 38.1583 114.478 41.5439 114.094 42.1874C113.71 42.8308 113.083 43.1678 112.401 43.1678H110.34C109.658 43.1678 109.368 42.4401 109.619 42.0035C109.87 41.5669 110.411 40.663 110.411 40.663H98.3813C98.3813 40.663 97.4487 42.241 96.6337 43.6198C95.8187 44.9986 96.908 46.4922 98.2794 46.4922H120.763C122.549 46.4922 124.14 45.5347 124.994 44.0794C125.849 42.624 127.863 39.1923 128.733 37.737C129.602 36.2815 128.505 34.8338 127.118 34.8338H113.851C113.851 34.8338 116.022 31.1571 116.304 30.6822C116.586 30.2072 117.228 29.8089 117.942 29.8089H120.01C120.684 29.8089 120.966 30.529 120.755 30.9043C120.543 31.2796 119.924 32.3137 119.924 32.3137H131.938C131.938 32.3137 133.074 30.3911 133.74 29.2651C134.406 28.1314 133.576 26.4922 132.04 26.4922H109.517L109.533 26.4998Z" fill="black"/>
<path d="M100.011 26.4998H77.5516C75.9216 26.4998 74.2289 27.3578 73.359 28.8285C72.4813 30.2992 65.3578 42.3712 64.582 43.681C63.8062 44.9909 64.872 46.4922 66.2512 46.4922H88.7502C90.5604 46.4922 92.1513 45.4888 92.9428 44.156C93.7343 42.8231 100.952 30.5902 101.704 29.3187C102.456 28.0395 101.492 26.4922 100.004 26.4922L100.011 26.4998ZM88.6953 31.0039C88.374 31.5477 82.3947 41.6665 82.0655 42.2333C81.7364 42.8002 81.086 43.1832 80.3963 43.1832H78.3039C77.6378 43.1832 77.3244 42.4631 77.583 42.0265C77.8416 41.5899 83.8758 31.3715 84.2441 30.7511C84.6124 30.123 85.3099 29.8319 85.9055 29.8319H87.9979C88.6013 29.8319 89.0166 30.4753 88.6875 31.0115L88.6953 31.0039Z" fill="black"/>
<path d="M68.0224 26.5H42.6474L32.7968 43.1756H10V46.5C10 46.5 55.0371 46.5 56.7377 46.5C58.4382 46.5 60.0526 45.6344 60.9538 44.1254C61.8471 42.6088 63.2577 40.2189 63.8612 39.1848C64.4646 38.1584 63.8298 36.8409 62.7013 36.5038C64.347 36.5038 66.0162 35.5463 66.8312 34.1752C67.6462 32.8041 68.9393 30.5904 69.6759 29.3418C70.4204 28.0933 69.5114 26.5077 68.0224 26.5077V26.5ZM54.5512 39.3457C54.2534 39.8589 53.2347 41.5747 52.835 42.2564C52.4353 42.9305 51.7614 43.1909 51.1815 43.1909C50.6016 43.1909 44.8103 43.1909 44.8103 43.1909L47.7726 38.1737H53.8459C54.4807 38.1737 54.849 38.8324 54.5434 39.3533L54.5512 39.3457ZM59.4726 30.9964C59.1749 31.5172 58.1561 33.2254 57.7564 33.8995C57.3568 34.5812 56.6828 34.834 56.1029 34.834H49.7317L52.694 29.8167H58.7673C59.4021 29.8167 59.7626 30.4755 59.4648 30.9964H59.4726Z" fill="black"/>
<path d="M138.763 26.5L126.953 46.5H155.58L157.539 43.1756H140.926L143.888 38.166H160.502L162.469 34.834H145.855L148.817 29.8167H179.999V26.5H138.763Z" fill="black"/>
</g>
<defs>
<clipPath id="clip0_707_296">
<rect width="170" height="20" fill="white" transform="translate(10 26.5)"/>
</clipPath>
</defs>
</svg>
