<svg width="32" height="32" viewBox="0 0 32 32" fill="none" xmlns="http://www.w3.org/2000/svg">
<path d="M22.667 2.66602H9.33366C7.8609 2.66602 6.66699 3.85992 6.66699 5.33268V10.666C6.66699 12.1388 7.8609 13.3327 9.33366 13.3327H22.667C24.1398 13.3327 25.3337 12.1388 25.3337 10.666V5.33268C25.3337 3.85992 24.1398 2.66602 22.667 2.66602Z" stroke="#114A9F" stroke-linecap="round" stroke-linejoin="round"/>
<path d="M26.667 18.666H5.33366C3.8609 18.666 2.66699 19.8599 2.66699 21.3327V26.666C2.66699 28.1388 3.8609 29.3327 5.33366 29.3327H26.667C28.1397 29.3327 29.3337 28.1388 29.3337 26.666V21.3327C29.3337 19.8599 28.1397 18.666 26.667 18.666Z" stroke="#114A9F" stroke-linecap="round" stroke-linejoin="round"/>
<path d="M8 24H10.6667" stroke="#114A9F" stroke-linecap="round" stroke-linejoin="round"/>
<path d="M16 24H24" stroke="#114A9F" stroke-linecap="round" stroke-linejoin="round"/>
</svg>
