<svg width="32" height="32" viewBox="0 0 32 32" fill="none" xmlns="http://www.w3.org/2000/svg">
<path d="M28.5597 14.5625C28.7984 14.4572 29.001 14.2842 29.1423 14.0649C29.2836 13.8456 29.3575 13.5897 29.3548 13.3288C29.3521 13.0679 29.273 12.8136 29.1271 12.5973C28.9813 12.381 28.7752 12.2122 28.5344 12.1118L17.1064 6.90649C16.759 6.74802 16.3816 6.66602 15.9997 6.66602C15.6179 6.66602 15.2405 6.74802 14.8931 6.90649L3.4664 12.1065C3.22902 12.2105 3.02709 12.3813 2.88529 12.5982C2.74349 12.8152 2.66797 13.0687 2.66797 13.3278C2.66797 13.587 2.74349 13.8405 2.88529 14.0574C3.02709 14.2743 3.22902 14.4452 3.4664 14.5492L14.8931 19.7598C15.2405 19.9183 15.6179 20.0003 15.9997 20.0003C16.3816 20.0003 16.759 19.9183 17.1064 19.7598L28.5597 14.5625Z" stroke="#114A9F" stroke-linecap="round" stroke-linejoin="round"/>
<path d="M29.333 13.334V21.334" stroke="#114A9F" stroke-linecap="round" stroke-linejoin="round"/>
<path d="M8 16.666V21.3327C8 22.3935 8.84286 23.411 10.3431 24.1611C11.8434 24.9113 13.8783 25.3327 16 25.3327C18.1217 25.3327 20.1566 24.9113 21.6569 24.1611C23.1571 23.411 24 22.3935 24 21.3327V16.666" stroke="#114A9F" stroke-linecap="round" stroke-linejoin="round"/>
</svg>
