<svg width="32" height="32" viewBox="0 0 32 32" fill="none" xmlns="http://www.w3.org/2000/svg">
<path d="M23.3334 16.0007C24.1214 16.0007 24.9016 16.1558 25.6295 16.4574C26.3575 16.7589 27.0189 17.2009 27.5761 17.758C28.1332 18.3152 28.5752 18.9766 28.8767 19.7045C29.1782 20.4325 29.3334 21.2127 29.3334 22.0007C29.3334 22.7886 29.1782 23.5688 28.8767 24.2968C28.5752 25.0247 28.1332 25.6861 27.5761 26.2433C27.0189 26.8004 26.3575 27.2424 25.6295 27.5439C24.9016 27.8455 24.1214 28.0006 23.3334 28.0006H12.0081C10.2768 28.0022 8.57921 27.5221 7.10509 26.6142C5.63098 25.7062 4.43846 24.4061 3.66087 22.8593C2.88327 21.3124 2.55125 19.5798 2.70192 17.8551C2.85259 16.1303 3.48002 14.4815 4.51406 13.0929C5.54809 11.7043 6.94797 10.6307 8.55719 9.99211C10.1664 9.35351 11.9215 9.17509 13.6264 9.47681C15.3312 9.77852 16.9184 10.5485 18.2108 11.7006C19.5031 12.8527 20.4495 14.3415 20.9441 16.0007H23.3334Z" stroke="#114A9F" stroke-linecap="round" stroke-linejoin="round"/>
<path d="M29.1092 11.999C28.8332 11.2184 28.3217 10.5426 27.6454 10.065C26.9691 9.58737 26.1612 9.33138 25.3332 9.33237H22.3905C21.9362 7.72728 20.9483 6.32503 19.5897 5.35704C18.2312 4.38905 16.5832 3.91317 14.9177 4.00794C13.2523 4.10271 11.6689 4.76246 10.4289 5.87832C9.18893 6.99417 8.36644 8.49944 8.09717 10.1457" stroke="#114A9F" stroke-linecap="round" stroke-linejoin="round"/>
</svg>
