<svg width="32" height="32" viewBox="0 0 32 32" fill="none" xmlns="http://www.w3.org/2000/svg">
<path d="M20.9145 19.9974C20.173 23.5039 18.4715 26.7353 15.9998 29.3307C12.5761 25.7359 10.6665 20.9617 10.6665 15.9974C10.6665 11.033 12.5761 6.25893 15.9998 2.66406C13.5356 2.66471 11.1198 3.34821 9.02057 4.6387C6.92134 5.9292 5.22079 7.77619 4.1077 9.97465C2.99462 12.1731 2.51255 14.637 2.71501 17.0929C2.91746 19.5487 3.79653 21.9004 5.25461 23.8869C6.7127 25.8734 8.69276 27.417 10.975 28.3463C13.2572 29.2755 15.7523 29.5542 18.1834 29.1513C20.6144 28.7484 22.8862 27.6797 24.7466 26.0638C26.607 24.4479 27.9832 22.3481 28.7225 19.9974" stroke="#114A9F" stroke-width="0.903226" stroke-linecap="round" stroke-linejoin="round"/>
<path d="M2.66699 15.998H14.0003" stroke="#114A9F" stroke-width="0.903226" stroke-linecap="round" stroke-linejoin="round"/>
<path d="M26.6663 7.9974V5.33073C26.6663 4.62349 26.3854 3.94521 25.8853 3.44511C25.3852 2.94501 24.7069 2.66406 23.9997 2.66406C23.2924 2.66406 22.6142 2.94501 22.1141 3.44511C21.614 3.94521 21.333 4.62349 21.333 5.33073V7.9974" stroke="#114A9F" stroke-width="0.903226" stroke-linecap="round" stroke-linejoin="round"/>
<path d="M27.9998 7.99805H19.9998C19.2635 7.99805 18.6665 8.595 18.6665 9.33138V13.3314C18.6665 14.0678 19.2635 14.6647 19.9998 14.6647H27.9998C28.7362 14.6647 29.3332 14.0678 29.3332 13.3314V9.33138C29.3332 8.595 28.7362 7.99805 27.9998 7.99805Z" stroke="#114A9F" stroke-width="0.903226" stroke-linecap="round" stroke-linejoin="round"/>
</svg>
