<svg width="32" height="32" viewBox="0 0 32 32" fill="none" xmlns="http://www.w3.org/2000/svg">
<path d="M13.333 23.9993V14.666" stroke="#114A9F" stroke-linecap="round" stroke-linejoin="round"/>
<path d="M14.8253 2.94063C15.1909 2.76124 15.5928 2.66797 16 2.66797C16.4072 2.66797 16.8091 2.76124 17.1747 2.94063L27.628 8.06863C27.7634 8.13496 27.8723 8.24522 27.9369 8.38141C28.0016 8.5176 28.0182 8.67168 27.984 8.8185C27.9498 8.96533 27.8668 9.09623 27.7487 9.18985C27.6305 9.28346 27.4841 9.33426 27.3333 9.33396H4.66667C4.51603 9.33396 4.36983 9.28295 4.2519 9.18922C4.13396 9.0955 4.05124 8.9646 4.01722 8.81785C3.9832 8.6711 3.99989 8.51716 4.06455 8.3811C4.12922 8.24505 4.23806 8.13491 4.37334 8.06863L14.8253 2.94063Z" stroke="#114A9F" stroke-linecap="round" stroke-linejoin="round"/>
<path d="M18.667 23.9993V14.666" stroke="#114A9F" stroke-linecap="round" stroke-linejoin="round"/>
<path d="M24 23.9993V14.666" stroke="#114A9F" stroke-linecap="round" stroke-linejoin="round"/>
<path d="M4 29.334H28" stroke="#114A9F" stroke-linecap="round" stroke-linejoin="round"/>
<path d="M8 23.9993V14.666" stroke="#114A9F" stroke-linecap="round" stroke-linejoin="round"/>
</svg>
