<svg width="32" height="32" viewBox="0 0 32 32" fill="none" xmlns="http://www.w3.org/2000/svg">
<path d="M16 9.33398V14.6673" stroke="#114A9F" stroke-linecap="round" stroke-linejoin="round"/>
<path d="M18.6668 28.0007V24.0007C18.6668 23.2934 18.3859 22.6151 17.8858 22.115C17.3857 21.6149 16.7074 21.334 16.0002 21.334C15.2929 21.334 14.6146 21.6149 14.1145 22.115C13.6144 22.6151 13.3335 23.2934 13.3335 24.0007V28.0007" stroke="#114A9F" stroke-linecap="round" stroke-linejoin="round"/>
<path d="M18.6668 12H13.3335" stroke="#114A9F" stroke-linecap="round" stroke-linejoin="round"/>
<path d="M23.9998 14.666H26.6665C27.3737 14.666 28.052 14.947 28.5521 15.4471C29.0522 15.9472 29.3332 16.6254 29.3332 17.3327V25.3327C29.3332 26.0399 29.0522 26.7182 28.5521 27.2183C28.052 27.7184 27.3737 27.9993 26.6665 27.9993H5.33317C4.62593 27.9993 3.94765 27.7184 3.44755 27.2183C2.94746 26.7182 2.6665 26.0399 2.6665 25.3327V13.3327C2.6665 12.6254 2.94746 11.9472 3.44755 11.4471C3.94765 10.947 4.62593 10.666 5.33317 10.666H7.99984" stroke="#114A9F" stroke-linecap="round" stroke-linejoin="round"/>
<path d="M24 28V6.66667C24 5.95942 23.719 5.28115 23.219 4.78105C22.7189 4.28095 22.0406 4 21.3333 4H10.6667C9.95942 4 9.28115 4.28095 8.78105 4.78105C8.28095 5.28115 8 5.95942 8 6.66667V28" stroke="#114A9F" stroke-linecap="round" stroke-linejoin="round"/>
</svg>
