<svg width="32" height="32" viewBox="0 0 32 32" fill="none" xmlns="http://www.w3.org/2000/svg">
<path d="M16 26.666V29.3327" stroke="#114A9F" stroke-linecap="round" stroke-linejoin="round"/>
<path d="M16 2.66602V5.33268" stroke="#114A9F" stroke-linecap="round" stroke-linejoin="round"/>
<path d="M22.6665 26.666V29.3327" stroke="#114A9F" stroke-linecap="round" stroke-linejoin="round"/>
<path d="M22.6665 2.66602V5.33268" stroke="#114A9F" stroke-linecap="round" stroke-linejoin="round"/>
<path d="M2.6665 16H5.33317" stroke="#114A9F" stroke-linecap="round" stroke-linejoin="round"/>
<path d="M2.6665 22.666H5.33317" stroke="#114A9F" stroke-linecap="round" stroke-linejoin="round"/>
<path d="M2.6665 9.33398H5.33317" stroke="#114A9F" stroke-linecap="round" stroke-linejoin="round"/>
<path d="M26.6665 16H29.3332" stroke="#114A9F" stroke-linecap="round" stroke-linejoin="round"/>
<path d="M26.6665 22.666H29.3332" stroke="#114A9F" stroke-linecap="round" stroke-linejoin="round"/>
<path d="M26.6665 9.33398H29.3332" stroke="#114A9F" stroke-linecap="round" stroke-linejoin="round"/>
<path d="M9.3335 26.666V29.3327" stroke="#114A9F" stroke-linecap="round" stroke-linejoin="round"/>
<path d="M9.3335 2.66602V5.33268" stroke="#114A9F" stroke-linecap="round" stroke-linejoin="round"/>
<path d="M24.0002 5.33398H8.00016C6.5274 5.33398 5.3335 6.52789 5.3335 8.00065V24.0007C5.3335 25.4734 6.5274 26.6673 8.00016 26.6673H24.0002C25.4729 26.6673 26.6668 25.4734 26.6668 24.0007V8.00065C26.6668 6.52789 25.4729 5.33398 24.0002 5.33398Z" stroke="#114A9F" stroke-linecap="round" stroke-linejoin="round"/>
<path d="M19.9998 10.666H11.9998C11.2635 10.666 10.6665 11.263 10.6665 11.9993V19.9993C10.6665 20.7357 11.2635 21.3327 11.9998 21.3327H19.9998C20.7362 21.3327 21.3332 20.7357 21.3332 19.9993V11.9993C21.3332 11.263 20.7362 10.666 19.9998 10.666Z" stroke="#114A9F" stroke-linecap="round" stroke-linejoin="round"/>
</svg>
