<svg width="32" height="32" viewBox="0 0 32 32" fill="none" xmlns="http://www.w3.org/2000/svg">
<path d="M17.3335 8V14.6667C17.3335 15.0203 17.474 15.3594 17.724 15.6095C17.9741 15.8595 18.3132 16 18.6668 16H26.8028C26.9795 16 27.1544 16.0352 27.3174 16.1034C27.4803 16.1716 27.6281 16.2715 27.7522 16.3973L28.9495 17.6107C29.1955 17.8601 29.3334 18.1963 29.3335 18.5467V22.6667C29.3335 23.0203 29.193 23.3594 28.943 23.6095C28.6929 23.8595 28.3538 24 28.0002 24H24.0002" stroke="#114A9F" stroke-linecap="round" stroke-linejoin="round"/>
<path d="M6.6665 24H3.99984C3.64622 24 3.30708 23.8595 3.05703 23.6095C2.80698 23.3594 2.6665 23.0203 2.6665 22.6667V10.6667C2.6665 9.95942 2.94746 9.28115 3.44755 8.78105C3.94765 8.28095 4.62593 8 5.33317 8H21.3332C22.7998 8 24.1332 9.06667 24.5332 10.4L26.1012 16" stroke="#114A9F" stroke-linecap="round" stroke-linejoin="round"/>
<path d="M12 24H18.6667" stroke="#114A9F" stroke-linecap="round" stroke-linejoin="round"/>
<path d="M21.3332 26.6673C22.8059 26.6673 23.9998 25.4734 23.9998 24.0007C23.9998 22.5279 22.8059 21.334 21.3332 21.334C19.8604 21.334 18.6665 22.5279 18.6665 24.0007C18.6665 25.4734 19.8604 26.6673 21.3332 26.6673Z" stroke="#114A9F" stroke-linecap="round" stroke-linejoin="round"/>
<path d="M9.33317 26.6673C10.8059 26.6673 11.9998 25.4734 11.9998 24.0007C11.9998 22.5279 10.8059 21.334 9.33317 21.334C7.86041 21.334 6.6665 22.5279 6.6665 24.0007C6.6665 25.4734 7.86041 26.6673 9.33317 26.6673Z" stroke="#114A9F" stroke-linecap="round" stroke-linejoin="round"/>
</svg>
