<svg width="32" height="32" viewBox="0 0 32 32" fill="none" xmlns="http://www.w3.org/2000/svg">
<g clip-path="url(#clip0_273_1570)">
<path d="M19.6401 7.50063C19.6401 6.47563 20.4751 5.64062 21.5001 5.64062H22.6401V4.00063H23.3611V5.64062H26.0001V6.36063H21.5001C20.8711 6.36063 20.3601 6.87263 20.3601 7.50063C20.3601 8.12862 20.8711 8.64062 21.5001 8.64062H24.5001C25.5251 8.64062 26.3601 9.47462 26.3601 10.5006C26.3601 11.5266 25.5251 12.3606 24.5001 12.3606H23.3601V14.0006H22.6401V12.3606H20.0001V11.6406H24.5001C25.1291 11.6406 25.6401 11.1286 25.6401 10.5006C25.6401 9.87262 25.1291 9.36062 24.5001 9.36062H21.5001C20.4751 9.36062 19.6401 8.52563 19.6401 7.50063ZM14.6401 9.00062C14.6401 4.39062 18.3901 0.640625 23.0001 0.640625C27.6101 0.640625 31.3601 4.39062 31.3601 9.00062C31.3601 13.6106 27.6091 17.3606 23.0001 17.3606C18.3911 17.3606 14.6401 13.6106 14.6401 9.00062ZM15.3601 9.00062C15.3601 13.2136 18.7871 16.6406 23.0001 16.6406C27.2131 16.6406 30.6401 13.2136 30.6401 9.00062C30.6401 4.78762 27.2131 1.36063 23.0001 1.36063C18.7871 1.36063 15.3601 4.78762 15.3601 9.00062ZM30.6401 27.1306L23.2551 19.7456C23.1881 19.6786 23.0961 19.6406 23.0001 19.6406H12.1491L1.36014 8.85162V1.00063H0.640137V31.0006C0.640137 31.1996 0.801137 31.3606 1.00014 31.3606H31.0001V30.6406H1.36014V9.86963L11.7461 20.2556C11.8131 20.3226 11.9051 20.3606 12.0001 20.3606C12.0951 20.3606 22.8511 20.3606 22.8511 20.3606L30.1301 27.6396H28.0001V28.3606H31.3601V25.0006H30.6401V27.1306Z" fill="#114A9F"/>
</g>
<defs>
<clipPath id="clip0_273_1570">
<rect width="32" height="32" fill="white"/>
</clipPath>
</defs>
</svg>
