<svg width="32" height="32" viewBox="0 0 32 32" fill="none" xmlns="http://www.w3.org/2000/svg">
<path d="M14.6665 22.6673L17.3332 25.334C17.5958 25.5966 17.9076 25.805 18.2508 25.9471C18.5939 26.0893 18.9617 26.1624 19.3332 26.1624C19.7046 26.1624 20.0724 26.0893 20.4156 25.9471C20.7587 25.805 21.0705 25.5966 21.3332 25.334C21.5958 25.0713 21.8042 24.7595 21.9463 24.4164C22.0884 24.0732 22.1616 23.7054 22.1616 23.334C22.1616 22.9626 22.0884 22.5948 21.9463 22.2516C21.8042 21.9084 21.5958 21.5966 21.3332 21.334" stroke="#114A9F" stroke-linecap="round" stroke-linejoin="round"/>
<path d="M18.6665 18.6673L21.9998 22.0007C22.5302 22.5311 23.2497 22.8291 23.9998 22.8291C24.75 22.8291 25.4694 22.5311 25.9998 22.0007C26.5302 21.4702 26.8282 20.7508 26.8282 20.0007C26.8282 19.2505 26.5302 18.5311 25.9998 18.0007L20.8265 12.8273C20.0765 12.0783 19.0598 11.6575 17.9998 11.6575C16.9398 11.6575 15.9231 12.0783 15.1731 12.8273L13.9998 14.0007C13.4694 14.5311 12.75 14.8291 11.9998 14.8291C11.2497 14.8291 10.5302 14.5311 9.99981 14.0007C9.46938 13.4702 9.17139 12.7508 9.17139 12.0007C9.17139 11.2505 9.46938 10.5311 9.99981 10.0007L13.7465 6.254C14.9628 5.04086 16.549 4.26807 18.254 4.05797C19.959 3.84786 21.6854 4.21245 23.1598 5.094L23.7865 5.46734C24.3542 5.80999 25.0292 5.92883 25.6798 5.80067L27.9998 5.334" stroke="#114A9F" stroke-linecap="round" stroke-linejoin="round"/>
<path d="M27.9998 4L29.3332 18.6667H26.6665" stroke="#114A9F" stroke-linecap="round" stroke-linejoin="round"/>
<path d="M3.99984 4L2.6665 18.6667L11.3332 27.3333C11.8636 27.8638 12.583 28.1618 13.3332 28.1618C14.0833 28.1618 14.8027 27.8638 15.3332 27.3333C15.8636 26.8029 16.1616 26.0835 16.1616 25.3333C16.1616 24.5832 15.8636 23.8638 15.3332 23.3333" stroke="#114A9F" stroke-linecap="round" stroke-linejoin="round"/>
<path d="M4 5.33398H14.6667" stroke="#114A9F" stroke-linecap="round" stroke-linejoin="round"/>
</svg>
