<svg width="32" height="32" viewBox="0 0 32 32" fill="none" xmlns="http://www.w3.org/2000/svg">
<path d="M14.6667 19.9993H17.3333C18.0406 19.9993 18.7189 19.7184 19.219 19.2183C19.719 18.7182 20 18.0399 20 17.3327C20 16.6254 19.719 15.9472 19.219 15.4471C18.7189 14.947 18.0406 14.666 17.3333 14.666H13.3333C12.5333 14.666 11.8667 14.9327 11.4667 15.466L4 22.666" stroke="#114A9F" stroke-linecap="round" stroke-linejoin="round"/>
<path d="M9.33301 28.0004L11.4663 26.1337C11.8663 25.6004 12.533 25.3337 13.333 25.3337H18.6663C20.133 25.3337 21.4663 24.8004 22.3997 23.7337L28.533 17.867C29.0475 17.3808 29.3478 16.7101 29.3678 16.0025C29.3878 15.2948 29.1259 14.6082 28.6397 14.0937C28.1534 13.5792 27.4827 13.2789 26.7751 13.2589C26.0675 13.2389 25.3809 13.5008 24.8663 13.987L19.2663 19.187" stroke="#114A9F" stroke-linecap="round" stroke-linejoin="round"/>
<path d="M2.66699 21.334L10.667 29.334" stroke="#114A9F" stroke-linecap="round" stroke-linejoin="round"/>
<path d="M21.3335 15.8661C23.469 15.8661 25.2001 14.135 25.2001 11.9995C25.2001 9.86398 23.469 8.13281 21.3335 8.13281C19.198 8.13281 17.4668 9.86398 17.4668 11.9995C17.4668 14.135 19.198 15.8661 21.3335 15.8661Z" stroke="#114A9F" stroke-linecap="round" stroke-linejoin="round"/>
<path d="M8 10.666C10.2091 10.666 12 8.87515 12 6.66602C12 4.45688 10.2091 2.66602 8 2.66602C5.79086 2.66602 4 4.45688 4 6.66602C4 8.87515 5.79086 10.666 8 10.666Z" stroke="#114A9F" stroke-linecap="round" stroke-linejoin="round"/>
</svg>
