<svg width="32" height="32" viewBox="0 0 32 32" fill="none" xmlns="http://www.w3.org/2000/svg">
<path d="M15.9998 22.6667C16.7362 22.6667 17.3332 22.0697 17.3332 21.3333C17.3332 20.597 16.7362 20 15.9998 20C15.2635 20 14.6665 20.597 14.6665 21.3333C14.6665 22.0697 15.2635 22.6667 15.9998 22.6667Z" stroke="#114A9F" stroke-linecap="round" stroke-linejoin="round"/>
<path d="M25.3333 13.334H6.66667C5.19391 13.334 4 14.5279 4 16.0007V26.6673C4 28.1401 5.19391 29.334 6.66667 29.334H25.3333C26.8061 29.334 28 28.1401 28 26.6673V16.0007C28 14.5279 26.8061 13.334 25.3333 13.334Z" stroke="#114A9F" stroke-linecap="round" stroke-linejoin="round"/>
<path d="M9.3335 13.3327V9.33268C9.3335 7.56457 10.0359 5.86888 11.2861 4.61864C12.5364 3.36839 14.2321 2.66602 16.0002 2.66602C17.7683 2.66602 19.464 3.36839 20.7142 4.61864C21.9644 5.86888 22.6668 7.56457 22.6668 9.33268V13.3327" stroke="#114A9F" stroke-linecap="round" stroke-linejoin="round"/>
</svg>
