<svg width="32" height="32" viewBox="0 0 32 32" fill="none" xmlns="http://www.w3.org/2000/svg">
<g clip-path="url(#clip0_273_2037)">
<path d="M16.3921 21.6796C18.6111 21.8816 20.3601 23.7306 20.3601 26.0006C20.3601 26.1996 20.1991 26.3606 20.0001 26.3606C19.8011 26.3606 19.6401 26.1996 19.6401 26.0006C19.6401 24.1166 18.1961 22.5816 16.3601 22.3976V31.0006C16.3601 31.1996 16.1991 31.3606 16.0001 31.3606C15.8011 31.3606 15.6401 31.1996 15.6401 31.0006V22.3976C13.8041 22.5816 12.3601 24.1176 12.3601 26.0006C12.3601 26.1996 12.1991 26.3606 12.0001 26.3606C11.8011 26.3606 11.6401 26.1996 11.6401 26.0006C11.6401 23.7306 13.3891 21.8816 15.6081 21.6796C15.4431 19.8246 13.8981 18.3606 12.0001 18.3606C9.99314 18.3606 8.36014 19.9936 8.36014 22.0006C8.36014 22.1996 8.19914 22.3606 8.00014 22.3606C7.80114 22.3606 7.64014 22.1996 7.64014 22.0006C7.64014 19.5966 9.59614 17.6406 12.0001 17.6406C13.5221 17.6406 14.8601 18.4266 15.6401 19.6126V18.0006C15.6401 14.8906 13.1101 12.3606 10.0001 12.3606C6.89014 12.3606 4.36014 14.8906 4.36014 18.0006C4.36014 18.1996 4.19914 18.3606 4.00014 18.3606C3.80114 18.3606 3.64014 18.1996 3.64014 18.0006C3.64014 14.4936 6.49314 11.6406 10.0001 11.6406C12.4511 11.6406 14.5791 13.0366 15.6401 15.0726V12.0006C15.6401 9.99362 14.0071 8.36062 12.0001 8.36062C11.8011 8.36062 11.6401 8.19963 11.6401 8.00063C11.6401 7.80163 11.8011 7.64062 12.0001 7.64062C13.5221 7.64062 14.8601 8.42662 15.6401 9.61162V4.00063C15.6401 3.80163 15.8011 3.64062 16.0001 3.64062C16.1991 3.64062 16.3601 3.80163 16.3601 4.00063V9.61162C17.1401 8.42662 18.4781 7.64062 20.0001 7.64062C20.1991 7.64062 20.3601 7.80163 20.3601 8.00063C20.3601 8.19963 20.1991 8.36062 20.0001 8.36062C17.9931 8.36062 16.3601 9.99362 16.3601 12.0006V15.0736C17.4211 13.0376 19.5491 11.6416 22.0001 11.6416C25.5071 11.6416 28.3601 14.4946 28.3601 18.0016C28.3601 18.2006 28.1991 18.3616 28.0001 18.3616C27.8011 18.3616 27.6401 18.2006 27.6401 18.0016C27.6401 14.8916 25.1111 12.3616 22.0001 12.3616C18.8891 12.3616 16.3601 14.8916 16.3601 18.0016V19.6126C17.1401 18.4276 18.4781 17.6406 20.0001 17.6406C22.4041 17.6406 24.3601 19.5966 24.3601 22.0006C24.3601 22.1996 24.1991 22.3606 24.0001 22.3606C23.8011 22.3606 23.6401 22.1996 23.6401 22.0006C23.6401 19.9936 22.0071 18.3606 20.0001 18.3606C18.1031 18.3606 16.5581 19.8256 16.3921 21.6796ZM16.0001 0.640625C7.53014 0.640625 0.640137 7.53062 0.640137 16.0006C0.640137 21.6666 3.74514 26.8546 8.74414 29.5386C8.79814 29.5676 8.85714 29.5816 8.91414 29.5816C9.04214 29.5816 9.16714 29.5126 9.23214 29.3916C9.32614 29.2166 9.26014 28.9986 9.08514 28.9046C4.32014 26.3456 1.36014 21.4006 1.36014 16.0006C1.36014 7.92762 7.92714 1.36063 16.0001 1.36063C24.0721 1.36063 30.6401 7.92762 30.6401 16.0006C30.6401 21.2016 27.8281 26.0546 23.3011 28.6636C23.1291 28.7626 23.0701 28.9826 23.1691 29.1546C23.2701 29.3276 23.4901 29.3866 23.6601 29.2866C28.4091 26.5496 31.3601 21.4586 31.3601 16.0006C31.3601 7.53062 24.4701 0.640625 16.0001 0.640625Z" fill="#114A9F"/>
</g>
<defs>
<clipPath id="clip0_273_2037">
<rect width="32" height="32" fill="white"/>
</clipPath>
</defs>
</svg>
