<svg width="93" height="24" viewBox="0 0 93 24" fill="none" xmlns="http://www.w3.org/2000/svg">
<g clip-path="url(#clip0_460_377)">
<path d="M64.6353 0L64.6003 0.0875274L64.4602 0.0700219L64.5303 0.262582L55.4062 23.9912H57.464L60.3185 16.4726H70.7734L73.6542 23.9912H75.712L66.4829 0H64.6266H64.6353ZM67.2097 7.16849L70.0554 14.6083H61.0365L63.8473 7.2035C63.9348 6.98468 64.0749 6.61707 64.2763 6.08315C64.469 5.55799 64.6966 4.98031 64.9418 4.34136L65.0994 3.92998C65.2483 3.55361 65.3884 3.17724 65.5285 2.80963V2.84464C65.7999 3.50109 66.0451 4.14004 66.2727 4.75274L66.3778 5.03282C66.5617 5.52298 66.7281 5.95186 66.8594 6.30197C67.0258 6.73961 67.1484 7.0372 67.2009 7.16849H67.2097Z" fill="#7A797C"/>
<path d="M92.9999 0H90.9422L83.0178 20.8228C82.9915 20.8928 82.9653 20.9628 82.9478 21.0241C82.9127 20.9365 82.8777 20.8403 82.8339 20.744L74.9796 0H72.9219L81.9671 23.6236L81.9233 23.7374H82.0021L82.0984 24H83.7533L83.8497 23.7374H83.8934L83.8759 23.6761L92.9999 0Z" fill="#7A797C"/>
<path d="M35.1408 24.0001H29.3442C26.3496 24.0001 23.9066 21.5581 23.9066 18.5646V18.0832H28.057V18.5646C28.057 19.2736 28.6349 19.8513 29.3442 19.8513H35.1408C36.3492 19.8513 37.3299 18.871 37.3299 17.6631V16.2802C37.3299 15.0723 36.3492 14.092 35.1408 14.092H29.8083C26.3145 14.092 23.4688 11.2473 23.4688 7.755V6.36331C23.4687 2.86222 26.3145 0.0175781 29.8083 0.0175781H35.5436C38.547 0.0175781 40.9812 2.45959 40.9812 5.45303V5.96944L36.822 5.89066V5.42677C36.8308 4.74406 36.2529 4.16637 35.5436 4.16637H29.8083C28.5999 4.16637 27.6192 5.14668 27.6192 6.35456V7.74624C27.6192 8.95412 28.5999 9.93443 29.8083 9.93443H35.1408C38.6346 9.93443 41.4803 12.7791 41.4803 16.2714V17.6543C41.4803 21.1467 38.6346 23.9913 35.1408 23.9913V24.0001Z" fill="black"/>
<path d="M50.4613 19.9375H46.3984V23.9988H50.4613V19.9375Z" fill="#21A98F"/>
<path d="M16.7857 24.0001H11.996C5.37633 24.0001 0 18.6171 0 12.0088C0 5.40051 5.37633 0.0175781 11.996 0.0175781H17.3636V4.15762H11.996C7.67046 4.15762 4.1417 7.67622 4.1417 12.0088C4.1417 16.3414 7.66171 19.86 11.996 19.86H16.7857V24.0001Z" fill="black"/>
<path d="M20.9225 19.8513H16.7808V14.2846H11.2031V10.1445H20.9225V19.8513Z" fill="black"/>
</g>
<defs>
<clipPath id="clip0_460_377">
<rect width="93" height="24" fill="white"/>
</clipPath>
</defs>
</svg>
