<svg width="146" height="32" viewBox="0 0 146 32" fill="none" xmlns="http://www.w3.org/2000/svg">
<g clip-path="url(#clip0_460_348)">
<path d="M35.4822 24.2258H29.6447C26.6287 24.2258 24.1698 21.7697 24.1698 18.7481V18.271H28.3534V18.7481C28.3534 19.4638 28.9371 20.0469 29.6447 20.0469H35.4822C36.694 20.0469 37.6846 19.0573 37.6846 17.847V16.4511C37.6846 15.2407 36.694 14.2512 35.4822 14.2512H30.1046C26.5844 14.2512 23.7188 11.3887 23.7188 7.87237V6.46762C23.7276 2.95133 26.5933 0.0976562 30.1135 0.0976562H35.8891C38.914 0.0976562 41.3728 2.55376 41.3728 5.57529V6.09655L37.1804 6.01704V5.54879C37.1893 4.85967 36.6055 4.2854 35.8891 4.2854H30.1135C28.9018 4.2854 27.9112 5.27491 27.9112 6.48529V7.89004C27.9112 9.10042 28.9018 10.0899 30.1135 10.0899H35.4911C39.0113 10.0899 41.877 12.9524 41.877 16.4687V17.8646C41.877 21.3809 39.0113 24.2434 35.4911 24.2434L35.4822 24.2258Z" fill="black"/>
<path d="M63.7875 0H55.9688V24.1899H63.7875C67.1397 24.1899 70.0053 23.0326 72.3138 20.7443C74.6223 18.4738 75.7898 15.5583 75.7898 12.0596C75.7898 8.56102 74.6223 5.66317 72.3138 3.40144C70.0053 1.14854 67.1397 0 63.7875 0ZM70.766 19.4279C68.7759 21.3363 66.2994 22.2993 63.416 22.2993H57.9588V1.88183H63.416C66.2906 1.88183 68.7582 2.84484 70.766 4.74434C72.7649 6.64384 73.782 9.10878 73.782 12.0596C73.782 15.0105 72.7649 17.5196 70.766 19.4191V19.4279Z" fill="#7A797C"/>
<path d="M81.6395 6.12305H79.6406V24.1992H81.6395V6.12305Z" fill="#7A797C"/>
<path d="M99.0351 8.5173C97.5669 6.92702 95.7272 6.12305 93.569 6.12305C91.4109 6.12305 89.4297 6.93586 87.8819 8.52614C86.3341 10.1341 85.5469 12.175 85.5469 14.5869C85.5469 16.9988 86.3341 19.0308 87.8819 20.6211C89.4209 22.2114 91.3402 23.0242 93.569 23.0242C95.7979 23.0242 97.5669 22.2202 99.0351 20.6299C99.3712 20.2677 99.6454 19.879 99.8665 19.5433L100.663 18.324V24.5968C100.663 26.1694 100.026 27.477 98.7697 28.4753C97.5403 29.4648 95.9925 29.9684 94.1705 29.9684C92.7288 29.9684 91.4109 29.5709 90.2434 28.7846C89.2086 28.0866 88.3949 27.1589 87.82 26.0281L86.0776 26.9999C86.794 28.4842 87.8553 29.6769 89.2351 30.5692C90.721 31.5234 92.4104 32.0005 94.2501 32.0005C96.6559 32.0005 98.6901 31.3025 100.3 29.9154C101.874 28.5549 102.67 26.7614 102.67 24.588V6.12305H100.671V10.8144L99.8665 9.59516C99.6365 9.24177 99.3712 8.86187 99.0351 8.50847V8.5173ZM98.7609 19.2782C97.4784 20.5063 95.9571 21.0982 94.0997 21.0982C92.2423 21.0982 90.6945 20.4886 89.4474 19.2782C88.1738 18.059 87.5281 16.4864 87.5281 14.6134C87.5281 12.7404 88.1738 11.1678 89.4474 9.93972C90.6945 8.73818 92.26 8.11973 94.0997 8.11973C95.9394 8.11973 97.4784 8.71167 98.7609 9.93972C100.026 11.1589 100.663 12.7227 100.663 14.6134C100.663 16.5041 100.026 18.0678 98.7609 19.287V19.2782Z" fill="#7A797C"/>
<path d="M109.265 6.12305H107.266V24.1992H109.265V6.12305Z" fill="#7A797C"/>
<path d="M118.156 1.35156H116.157V6.11357H112.867V7.89822H116.157V19.7193C116.157 21.0887 116.617 22.1843 117.52 22.9794C118.431 23.7834 119.722 24.1986 121.358 24.1986H123.605V22.3433H121.747C119.395 22.3433 118.156 21.2124 118.156 19.0832V7.90706H123.605V6.12241H118.156V1.35156Z" fill="#7A797C"/>
<path d="M132.886 6.12305C131.321 6.12305 129.897 6.56479 128.667 7.43945C127.526 8.25226 126.757 9.24177 126.315 10.4521L128.137 11.0441C128.464 10.1871 129.039 9.47147 129.852 8.90604C130.79 8.25226 131.878 7.92537 133.072 7.92537C134.425 7.92537 135.593 8.37595 136.53 9.26827C137.485 10.1694 137.963 11.2385 137.963 12.4577V13.8182L137.715 13.8447L131.834 14.5162C130.082 14.7194 128.72 15.2583 127.765 16.133C126.81 16.99 126.332 18.0767 126.297 19.4549C126.297 20.8508 126.792 21.964 127.818 22.8563C128.835 23.7487 130.162 24.1992 131.745 24.1992C133.603 24.1992 135.186 23.519 136.442 22.1849C136.681 21.9287 136.911 21.6371 137.158 21.2661L137.954 20.0292V24.1992H139.944V12.1661C139.944 10.5493 139.246 9.11808 137.875 7.9342C136.468 6.73265 134.797 6.12305 132.886 6.12305ZM137.954 17.0695C137.954 18.6598 137.441 19.9673 136.433 20.9657C135.442 21.9463 134.107 22.4411 132.462 22.4411C131.25 22.4411 130.25 22.1672 129.508 21.6283C128.72 21.054 128.322 20.2766 128.322 19.3224C128.322 17.5289 129.667 16.451 132.329 16.1242L137.954 15.4704V17.0606V17.0695Z" fill="#7A797C"/>
<path d="M146 1.35156H143.922V24.1898H146V1.35156Z" fill="#7A797C"/>
<path d="M51.0507 20.0469H46.8672V24.2258H51.0507V20.0469Z" fill="#E63E31"/>
<path d="M16.9554 24.2261H12.1173C5.43067 24.2261 0 18.7927 0 12.1223C0 5.45197 5.43067 0.0273438 12.1173 0.0273438H17.5391V4.20625H12.1173C7.74799 4.20625 4.18356 7.75788 4.18356 12.1312C4.18356 16.5044 7.73914 20.0561 12.1173 20.0561H16.9554V24.235V24.2261Z" fill="black"/>
<path d="M21.1291 20.0459H16.9544V14.427H11.3203V10.248H21.1291V20.0459Z" fill="black"/>
</g>
<defs>
<clipPath id="clip0_460_348">
<rect width="146" height="32" fill="white"/>
</clipPath>
</defs>
</svg>
