<svg width="213" height="30" viewBox="0 0 213 30" fill="none" xmlns="http://www.w3.org/2000/svg">
<g clip-path="url(#clip0_460_361)">
<path d="M57.7403 0H55.5625V23.9685H57.7403V0Z" fill="#7A797C"/>
<path d="M69.488 23.9685H71.6745V2.10096H79.7797V0H61.3828V2.10096H69.488V23.9685Z" fill="#7A797C"/>
<path d="M103.565 13.4199C102.213 12.2469 100.202 11.389 97.5941 10.855C95.4953 10.4173 93.941 9.83951 92.9751 9.13919C91.9652 8.40385 91.4559 7.44091 91.4559 6.27663C91.4559 5.0248 91.974 3.99183 93.0102 3.19521C94.0113 2.41611 95.3022 2.03093 96.8477 2.03093C98.2702 2.03093 99.5787 2.43362 100.738 3.22148C101.818 3.95681 102.643 4.95477 103.214 6.18033L105.137 5.39247C104.47 3.79924 103.399 2.50365 101.941 1.54071C100.395 0.516487 98.6654 0 96.7774 0C94.5909 0 92.7731 0.612781 91.3769 1.81208C89.9719 3.02013 89.2957 4.49956 89.3221 6.34666C89.3221 9.76948 91.9301 11.958 97.2867 13.0435C99.324 13.4549 100.843 14.0239 101.818 14.7242C102.837 15.4596 103.355 16.4138 103.355 17.5518C103.355 18.8299 102.801 19.8891 101.704 20.7207C100.632 21.5261 99.2889 21.9376 97.6995 21.9376C96.11 21.9376 94.8192 21.5086 93.6337 20.6595C92.536 19.8716 91.6842 18.7949 91.0959 17.4643L89.0938 18.4184C89.7787 20.0642 90.8939 21.3948 92.4131 22.384C94.0113 23.4345 95.8115 23.9597 97.7609 23.9597C100.018 23.9597 101.906 23.3469 103.372 22.1301C104.847 20.9133 105.559 19.4339 105.559 17.6131C105.559 15.9498 104.909 14.5754 103.574 13.4111L103.565 13.4199Z" fill="#7A797C"/>
<path d="M116.952 6.07516C114.546 6.07516 112.483 6.93305 110.823 8.61382C109.163 10.3033 108.32 12.4568 108.32 15.0218C108.32 17.5867 109.181 19.7402 110.867 21.4297C112.562 23.1192 114.678 23.9684 117.154 23.9684C118.858 23.9684 120.439 23.5394 121.844 22.6903C123.152 21.9024 124.171 20.8344 124.899 19.5213L122.932 18.751C122.406 19.7139 121.642 20.493 120.667 21.0533C119.613 21.6661 118.419 21.9724 117.128 21.9724C115.451 21.9724 113.975 21.4472 112.746 20.4142C111.517 19.3813 110.779 17.9894 110.568 16.2911L110.524 15.9409H125.576C125.655 15.4945 125.699 15.1005 125.699 14.7766C125.699 12.2818 124.847 10.1895 123.17 8.54379C121.492 6.89804 119.402 6.06641 116.97 6.06641L116.952 6.07516ZM123.547 14.0588H110.524L110.568 13.7087C110.788 12.0104 111.499 10.6272 112.693 9.60303C113.888 8.57881 115.328 8.06232 116.987 8.06232C118.647 8.06232 120.21 8.58756 121.44 9.62054C122.678 10.6623 123.372 12.0366 123.521 13.7262L123.547 14.0676V14.0588Z" fill="#7A797C"/>
<path d="M141.162 9.1654C142.18 9.79569 142.98 10.6711 143.533 11.7566L145.482 10.8812C144.771 9.44553 143.726 8.29875 142.356 7.44961C140.89 6.54795 139.239 6.08398 137.447 6.08398C134.971 6.08398 132.846 6.93312 131.142 8.61389C129.439 10.2859 128.578 12.4482 128.578 15.0393C128.578 17.6305 129.439 19.784 131.142 21.456C132.846 23.128 134.962 23.9859 137.447 23.9859C139.221 23.9859 140.846 23.5395 142.286 22.6553C143.629 21.8325 144.683 20.7207 145.403 19.3551L143.454 18.4797C142.883 19.5301 142.093 20.3618 141.092 20.9571C140.011 21.6048 138.782 21.9287 137.438 21.9287C135.568 21.9287 133.961 21.281 132.661 19.9941C131.362 18.7073 130.703 17.044 130.703 15.0393C130.703 13.0347 131.362 11.3627 132.661 10.0846C133.961 8.79773 135.568 8.14993 137.438 8.14993C138.8 8.14993 140.055 8.50009 141.162 9.17415V9.1654Z" fill="#7A797C"/>
<path d="M152.007 20.5796C151.155 19.748 150.725 18.5749 150.725 17.113V6.07422H148.477V17.7258C148.477 19.5904 149.056 21.1049 150.198 22.2516C151.339 23.3897 152.779 23.9674 154.483 23.9674C156.45 23.9674 158.039 23.3196 159.348 21.9803C159.523 21.7964 159.682 21.6126 159.84 21.4288L160.428 20.6934V23.9674H162.676V6.07422H160.428V17.2181C160.428 18.4699 159.919 19.5642 158.918 20.4746C157.925 21.3762 156.705 21.8314 155.291 21.8314C153.965 21.8314 152.867 21.4112 152.015 20.5709L152.007 20.5796Z" fill="#7A797C"/>
<path d="M170.108 8.0098C169.941 8.19363 169.783 8.38622 169.643 8.58756L169.028 9.40168V6.07516H166.719V23.9684H169.028V12.9471C169.125 11.6165 169.74 10.4784 170.855 9.5505C172.075 8.53504 173.559 8.36871 175.281 8.36871H175.684V6.06641H174.982C173.103 6.06641 171.461 6.4866 170.117 8.00104L170.108 8.0098Z" fill="#7A797C"/>
<path d="M180.881 6.07617H178.703V23.9694H180.881V6.07617Z" fill="#7A797C"/>
<path d="M189.121 1.33984H186.943V6.07576H183.703V7.83532H186.943V19.4782C186.943 20.87 187.391 21.938 188.313 22.7522C189.235 23.5575 190.526 23.969 192.151 23.969H194.469V21.938H192.537C189.71 21.938 189.121 20.2573 189.121 18.8479V7.83532H194.469V6.07576H189.121V1.33984Z" fill="#7A797C"/>
<path d="M210.572 6.06641L204.75 20.3617L198.971 6.06641H196.539L203.406 22.664L200.57 29.9999H203.028L213.004 6.06641H210.572Z" fill="#7A797C"/>
<path d="M35.2368 24.0036H29.4235C26.4203 24.0036 23.9703 21.5612 23.9703 18.5673V18.0859H28.1327V18.5673C28.1327 19.2764 28.7122 19.8542 29.4235 19.8542H35.2368C36.4486 19.8542 37.4321 18.8737 37.4321 17.6657V16.2825C37.4321 15.0745 36.4486 14.094 35.2368 14.094H29.8889C26.3852 14.094 23.5312 11.249 23.5312 7.75612V6.36424C23.5312 2.86263 26.3852 0.0175781 29.8889 0.0175781H35.6407C38.6527 0.0175781 41.0939 2.45995 41.0939 5.45382V5.97031L36.9228 5.89152V5.42756C36.9316 4.74474 36.352 4.16698 35.6407 4.16698H29.8889C28.6771 4.16698 27.6936 5.14743 27.6936 6.35548V7.74737C27.6936 8.95542 28.6771 9.93587 29.8889 9.93587H35.2368C38.7405 9.93587 41.5944 12.7809 41.5944 16.2738V17.6569C41.5944 21.1498 38.7405 23.9948 35.2368 23.9948V24.0036Z" fill="black"/>
<path d="M50.6058 19.9414H46.5312V24.0033H50.6058V19.9414Z" fill="#9CCB3B"/>
<path d="M16.8338 24.0036H12.0304C5.39174 24.0036 0 18.6199 0 12.0106C0 5.40129 5.39174 0.0175781 12.0304 0.0175781H17.4134V4.15823H12.0304C7.69245 4.15823 4.15357 7.67734 4.15357 12.0106C4.15357 16.3438 7.68367 19.8629 12.0304 19.8629H16.8338V24.0036Z" fill="black"/>
<path d="M20.9817 19.8527H16.8281V14.2852H11.2344V10.1445H20.9817V19.8527Z" fill="black"/>
</g>
<defs>
<clipPath id="clip0_460_361">
<rect width="213" height="30" fill="white"/>
</clipPath>
</defs>
</svg>
