<svg width="200" height="61" viewBox="0 0 200 61" fill="none" xmlns="http://www.w3.org/2000/svg">
<g clip-path="url(#clip0_460_291)">
<path d="M126.714 49.834H116.417V60.2092H126.714V49.834Z" fill="#114A9F"/>
<path d="M87.4862 60.224H73.0637C65.605 60.224 59.5324 54.1052 59.5324 46.5732V45.376H69.8624V46.5732C69.8624 48.3523 71.298 49.7988 73.0637 49.7988H87.4862C90.4895 49.7988 92.9317 47.338 92.9317 44.3119V40.8368C92.9317 37.8107 90.4895 35.3499 87.4862 35.3499H74.2023C65.506 35.3499 58.4268 28.2169 58.4268 19.4545V15.9628C58.4268 7.18377 65.506 0.0507812 74.2023 0.0507812H88.4928C95.968 0.0507812 102.041 6.16952 102.041 13.7016V14.9985L91.6776 14.7989V13.6351C91.6941 11.9225 90.2584 10.4759 88.4928 10.4759H74.2023C71.199 10.4759 68.7568 12.9367 68.7568 15.9628V19.4545C68.7568 22.4806 71.199 24.9414 74.2023 24.9414H87.4862C96.1825 24.9414 103.262 32.0744 103.262 40.8368V44.3119C103.262 53.0743 96.1825 60.2073 87.4862 60.2073V60.224Z" fill="black"/>
<path d="M41.7822 60.2239H29.8515C13.3993 60.2239 0 46.7228 0 30.1457C0 13.5685 13.3993 0.0507812 29.8515 0.0507812H43.2178V10.4427H29.8515C19.0759 10.4427 10.297 19.2716 10.297 30.1457C10.297 41.0197 19.0594 49.8487 29.8515 49.8487H41.7822V60.2406V60.2239Z" fill="black"/>
<path d="M52.0977 49.8341H41.7841V35.8674H27.9062V25.4922H52.0977V49.8341Z" fill="black"/>
<path d="M145.267 0.00390625H139.854V60.1604H145.267V0.00390625Z" fill="#7A797C"/>
<path d="M174.445 60.1604H179.857V5.27467H200.006V0.00390625H154.312V5.27467H174.445V60.1604Z" fill="#7A797C"/>
</g>
<defs>
<clipPath id="clip0_460_291">
<rect width="200" height="60.223" fill="white"/>
</clipPath>
</defs>
</svg>
