<svg width="190" height="73" viewBox="0 0 190 73" fill="none" xmlns="http://www.w3.org/2000/svg">
<g clip-path="url(#clip0_5336_15200)">
<path fill-rule="evenodd" clip-rule="evenodd" d="M29.0646 32.8387C29.8492 29.6314 33.6675 27.5229 39.0089 26.8229L40.659 24.5234C32.4286 24.7397 26.2646 27.3916 25.1698 31.8929C24.4742 34.7524 25.9504 37.8916 28.9669 40.8233L30.617 38.5154C29.2217 36.6101 28.6234 34.6587 29.0646 32.8387Z" fill="#231F20"/>
<path fill-rule="evenodd" clip-rule="evenodd" d="M59.6328 27.7891L61.8305 30.8181C69.1444 34.2715 73.6499 39.2012 72.6232 43.4184C71.8215 46.7104 67.8082 48.8362 62.2334 49.4768L59.6499 51.738C68.5632 51.7975 75.3638 49.1119 76.5177 44.3645C77.9177 38.6328 70.6464 31.8025 59.6328 27.7891Z" fill="#231F20"/>
<path fill-rule="evenodd" clip-rule="evenodd" d="M49.1719 13.168V59.8351L69.9428 41.3973L49.1719 13.168Z" fill="#ED252F"/>
<path fill-rule="evenodd" clip-rule="evenodd" d="M47.8982 50.2415C48.2461 50.3262 48.5942 50.3903 48.9377 50.4708V48.532C48.7426 48.4896 48.5432 48.4557 48.3481 48.4047C40.1728 46.4191 33.5803 42.5669 30.6189 38.5195L28.9688 40.8274C32.9989 44.7391 39.787 48.2731 47.8982 50.2415Z" fill="#231F20"/>
<path fill-rule="evenodd" clip-rule="evenodd" d="M48.9375 48.5312V50.4661C52.6879 51.3018 56.3192 51.7134 59.654 51.7345L62.2375 49.4733C58.3769 49.9145 53.7656 49.6345 48.9375 48.5312Z" fill="#231F20"/>
<path fill-rule="evenodd" clip-rule="evenodd" d="M93.0465 38.86C92.6604 38.6945 92.3804 38.5927 91.7781 38.5927H88.8763C88.3885 38.5927 88.274 38.6565 88.274 38.949V39.4072C88.274 39.7168 88.3885 39.7635 88.8763 39.7635H91.0908C92.4186 39.7635 93.1354 40.2258 93.1354 41.4136V43.4032C93.1354 44.6931 92.6731 45.41 91.1798 45.41H85.5503L85.283 43.7511C85.5885 43.9038 85.8984 44.0566 86.5091 44.0566H89.5297C90.0134 44.0566 90.1152 44.0059 90.1152 43.7004V43.136C90.1152 42.8432 90.0134 42.7798 89.5297 42.7798H86.9842C85.7413 42.7798 85.2578 42.3725 85.2578 41.002V39.1776C85.2578 37.9008 85.8856 37.2344 86.9842 37.2344H92.7752L93.0465 38.86Z" fill="#ED252F"/>
<path fill-rule="evenodd" clip-rule="evenodd" d="M98.6406 45.4096C98.7974 45.0914 98.8995 44.7858 98.8995 44.0056V38.6431C98.8995 37.8625 98.7977 37.557 98.6406 37.2344H102.276C102.119 37.5567 102.017 37.8622 102.017 38.6431V44.0056C102.017 44.7858 102.119 45.0914 102.276 45.4096H98.6406Z" fill="#ED252F"/>
<path fill-rule="evenodd" clip-rule="evenodd" d="M113.736 44.0563C114.466 44.0563 114.822 43.9418 115.145 43.84L114.861 45.4096H107.648C107.801 45.0914 107.903 44.7858 107.903 44.0056V38.6431C107.903 37.8625 107.802 37.557 107.648 37.2344H114.733L114.988 38.8086C114.657 38.7066 114.301 38.5921 113.571 38.5921H111.026V40.5055H113.249C113.966 40.5055 114.326 40.3907 114.657 40.2893V42.0751C114.326 41.9733 113.966 41.8588 113.249 41.8588H111.026V44.0563H113.736Z" fill="#ED252F"/>
<path fill-rule="evenodd" clip-rule="evenodd" d="M127.485 37.2347H131.668C131.502 37.557 131.396 37.8625 131.396 38.6434V44.0059C131.396 44.7862 131.502 45.0917 131.668 45.4099H128.019C128.176 45.0917 128.278 44.7862 128.278 44.0059V38.9742H128.253L125.987 45.4099H123.828L121.626 38.9742H121.601V43.9421C121.601 44.8627 121.639 45.0279 121.91 45.4099H119.938C120.205 45.0282 120.247 44.8627 120.247 43.9421V38.7066C120.247 37.7863 120.205 37.6208 119.938 37.2344H124.235L125.796 41.8713H125.822L127.485 37.2347Z" fill="#ED252F"/>
<path fill-rule="evenodd" clip-rule="evenodd" d="M140.016 43.5345C140.016 43.929 140.224 44.0563 140.631 44.0563H141.989C142.396 44.0563 142.604 43.929 142.604 43.5345V39.1138C142.604 38.7193 142.396 38.5921 141.989 38.5921H140.631C140.224 38.5921 140.016 38.7193 140.016 39.1138V43.5345ZM136.898 39.6356C136.898 37.875 137.641 37.2344 138.969 37.2344H143.652C144.98 37.2344 145.723 37.875 145.723 39.6356V43.0084C145.723 44.7731 144.98 45.4093 143.652 45.4093H138.969C137.641 45.4093 136.898 44.7731 136.898 43.0084V39.6356Z" fill="#ED252F"/>
<path fill-rule="evenodd" clip-rule="evenodd" d="M152.626 38.6431H152.601V43.9421C152.601 44.8627 152.639 45.0279 152.906 45.4099H150.938C151.205 45.0282 151.247 44.8627 151.247 43.9421V38.7066C151.247 37.7863 151.205 37.6208 150.938 37.2344H155.324L158.65 43.9035H158.688V38.7066C158.688 37.7863 158.65 37.6208 158.383 37.2344H160.352C160.084 37.6205 160.046 37.786 160.046 38.7066V45.4096H156.003L152.626 38.6431Z" fill="#ED252F"/>
<path fill-rule="evenodd" clip-rule="evenodd" d="M163.754 35.1953L164.152 36.3617L164.551 35.1953H165.005V36.8243H164.716V35.5092L164.284 36.8243H164.034L163.588 35.5092V36.8243H163.304V35.1953H163.754ZM161.688 35.4669V35.1953H163.037V35.4666H162.519V36.8243H162.209V35.4666H161.688V35.4669Z" fill="#231F20"/>
</g>
<defs>
<clipPath id="clip0_5336_15200">
<rect width="190" height="73" fill="white"/>
</clipPath>
</defs>
</svg>
