<svg width="70" height="34" viewBox="0 0 70 34" fill="none" xmlns="http://www.w3.org/2000/svg">
<g clip-path="url(#clip0_273_1548)">
<path d="M49.3565 3.47047H48.4998C48.4046 3.98311 48.0635 4.25126 47.4844 4.28281V3.95156C47.9445 3.95156 48.1825 3.69919 48.1825 3.11556V1.21484H48.5315V3.12345H49.3565V3.47047Z" fill="#909496"/>
<path d="M52.5681 2.96486V3.46962H49.1094V3.1226H52.1477C52.1477 3.05951 52.1556 3.0043 52.1556 2.9412C52.1556 2.55475 52.0684 2.25505 51.878 2.02633C51.6638 1.75818 51.3465 1.62411 50.9181 1.62411H49.8868C50.0693 1.30075 50.3231 0.851201 50.6484 0.267578H51.0609L50.4659 1.28498H50.9101C51.4179 1.28498 51.8224 1.43482 52.1159 1.7503C52.4095 2.05788 52.5523 2.468 52.5523 2.97275" fill="#909496"/>
<path d="M57.3977 0.418H57.0407V0H57.3977V0.418ZM57.2708 2.79193C57.6991 2.61053 57.9609 2.25563 57.9609 1.86129C57.9609 1.46694 57.6833 1.18302 57.2628 1.18302C56.8424 1.18302 56.5647 1.48272 56.5647 1.8534C56.5647 2.22408 56.8424 2.61053 57.2628 2.78404M58.9367 3.47019H58.4448C57.7467 3.47019 57.6674 3.42287 57.2787 3.20204C56.8821 3.43076 56.8027 3.47019 56.0967 3.47019H55.2796C54.3197 3.47019 53.8438 2.9891 53.8438 2.02691V1.30921H54.1928V2.02691C54.1928 2.76827 54.5498 3.12317 55.2479 3.12317H56.3902C56.5727 3.12317 56.7472 3.08374 56.8979 3.00487C56.4616 2.79981 56.1919 2.37393 56.1919 1.91649C56.1919 1.3171 56.6282 0.883322 57.2708 0.883322C57.9133 0.883322 58.3496 1.3171 58.3496 1.91649C58.3496 2.3897 58.072 2.79981 57.6436 3.00487C57.8023 3.08374 57.9689 3.12317 58.1513 3.12317H58.9367V3.47019Z" fill="#909496"/>
<path d="M59.9786 0.259766V2.59426C59.9786 3.17788 59.7327 3.46969 59.2488 3.46969H58.8125V3.13056H59.1298C59.344 3.13056 59.4868 3.05958 59.5503 2.9255C59.5979 2.83875 59.6217 2.67313 59.6217 2.44441V0.259766H59.9707H59.9786Z" fill="#909496"/>
<path d="M61.7505 3.46969H61.3539C61.1714 3.46969 61.0207 3.4066 60.9017 3.28041C60.7589 3.13845 60.6875 2.94128 60.6875 2.68101V0.259766H61.0445V2.47596C61.0445 2.70467 61.0762 2.8703 61.1397 2.96494C61.1952 3.05169 61.2904 3.09901 61.4253 3.12267C61.457 3.12267 61.4967 3.12267 61.7426 3.12267V3.46969H61.7505Z" fill="#909496"/>
<path d="M63.7034 4.22701H63.3464V3.80112H63.7034V4.22701ZM65.0837 2.96512V3.46987H61.625V3.12286H64.6633C64.6633 3.05976 64.6712 2.99667 64.6712 2.94146C64.6712 2.10546 64.227 1.62436 63.4416 1.62436C63.0212 1.62436 62.7039 1.78999 62.5056 2.11334C62.458 2.05814 62.3548 1.9635 62.2041 1.80576C62.4897 1.45085 62.8943 1.27734 63.4416 1.27734C64.4333 1.27734 65.0917 1.93195 65.0917 2.96512" fill="#909496"/>
<path d="M44.0344 29.0794H42.2812V19.6152H44.0344V29.0794ZM48.691 21.3661C45.7241 21.3661 44.6532 23.2353 44.6532 23.2353C44.6532 19.702 48.691 19.631 48.691 19.631V21.3661Z" fill="#365888"/>
<path d="M40.9835 9.04623H37.5089C37.5089 9.04623 39.0717 9.7797 39.2303 11.0337V13.6442C39.2303 14.5354 38.6671 14.9929 38.0483 15.2295C37.7548 15.332 37.4692 15.3872 37.1836 15.4109C37.8341 15.5055 38.5322 15.679 39.27 15.9551C40.3489 15.3083 40.8407 14.4881 40.9835 14.2831V9.03045V9.04623ZM35.8588 4.87411C37.969 4.87411 39.4762 5.36309 40.9835 7.17705V5.15803C39.4604 3.95135 37.4851 3.51758 35.8906 3.51758C33.9153 3.51758 32.3049 4.15641 31.0594 5.43407C29.8219 6.69596 29.2031 8.30487 29.2031 10.2687C29.2031 12.0432 29.7902 13.5654 30.9722 14.8194C31.4481 15.3241 31.9796 15.7342 32.5667 16.0418C33.1934 15.75 34.0898 15.4345 35.2242 15.3478C33.0982 14.9219 30.996 12.8003 30.996 10.1504C30.996 7.24015 33.3441 4.87411 35.8588 4.87411Z" fill="#909496"/>
<path d="M45.8432 15.483C44.6612 15.1912 44.0266 14.3473 44.0266 13.0775V7.33594H42.2734V13.6217C42.2734 14.7259 42.8605 16.0982 44.3915 16.6187C46.1526 17.226 47.8661 16.1928 48.1755 15.2385C48.3183 14.8205 48.2707 14.6076 48.2707 14.6076C48.2707 14.6076 47.4933 15.8931 45.8432 15.483ZM49.0323 16.808H50.7854V7.34382H49.0323V16.808Z" fill="#909496"/>
<path d="M49.9532 19.6152H52.0713L55.9109 26.6818L58.7112 19.6152H60.6706L55.7363 31.6899C55.5539 32.1316 54.4988 34.4661 52.1031 33.9219C51.048 33.6853 50.4768 32.8256 50.4768 32.8256C50.4768 32.8256 51.8492 33.2988 52.9995 32.4471C54.1101 31.6742 55.0541 28.6614 55.0541 28.6614L49.9453 19.6231L49.9532 19.6152Z" fill="#365888"/>
<path d="M40.9835 19.4642C39.4683 17.6503 37.969 17.1613 35.8588 17.1613C33.3441 17.1613 30.996 19.5194 30.996 22.4376C30.996 25.3557 33.5424 27.635 35.8588 27.7138C37.2233 27.7612 38.6671 27.5245 40.9597 26.586C40.7138 26.9409 39.4762 29.1019 35.8906 29.1019C33.8835 29.1019 32.2414 28.4315 30.9722 27.0987C29.7902 25.8447 29.2031 24.3304 29.2031 22.548C29.2031 20.5842 29.8219 18.9753 31.0594 17.7134C32.3128 16.4357 33.9232 15.7969 35.8906 15.7969C37.4851 15.7969 39.4604 16.2306 40.9835 17.4373V19.4564V19.4642Z" fill="#365888"/>
<path d="M68.6312 20.9166C69.5515 21.8078 70.0116 22.9514 70.0116 24.3474C70.0116 25.7434 69.5515 26.8948 68.6312 27.7781C67.7348 28.6457 66.6083 29.0795 65.2597 29.0795C63.8318 29.0795 62.6657 28.6063 61.7613 27.652C60.9204 26.7608 60.5 25.6803 60.5 24.4105C60.5 23.0145 60.9363 21.8709 61.8169 20.9718C62.7053 20.057 63.8556 19.6074 65.2597 19.6074C66.6639 19.6074 67.7348 20.0412 68.6312 20.9087M62.269 24.3316C62.269 26.4058 63.6018 28.0857 65.2518 28.0857C66.9019 28.0857 68.2346 26.4058 68.2346 24.3316C68.2346 22.2574 66.9019 20.5775 65.2518 20.5775C63.6018 20.5775 62.269 22.2574 62.269 24.3316Z" fill="#365888"/>
<path d="M52.0861 13.6292V4.47266H53.8392V13.0772C53.8392 14.339 54.4739 15.1908 55.6559 15.4826C57.298 15.8927 58.0833 14.6072 58.0833 14.6072C58.0833 14.6072 58.1309 14.8201 57.9881 15.2381C57.6708 16.2003 55.9652 17.2256 54.1962 16.6262C52.6731 16.1057 52.0781 14.7334 52.0781 13.6292" fill="#909496"/>
<path d="M59.4028 7.65001C59.4028 6.54586 59.9898 5.17356 61.5209 4.65303C63.282 4.05363 64.9955 5.07891 65.3128 6.03322C65.4477 6.45122 65.408 6.66416 65.408 6.66416C65.408 6.66416 64.6306 5.37861 62.9805 5.78873C61.7985 6.08054 61.1639 6.92443 61.1639 8.1942V9.21948H64.3291V10.0239H61.1639V16.7987H59.4107V10.0239H58.0859V9.21948H59.4107V7.65001H59.4028Z" fill="#909496"/>
<path d="M0 3.48633H25.7661V29.1027H16.4608C21.0619 27.0521 24.2509 22.6434 24.2509 17.5406C24.2509 10.474 18.1584 4.74822 10.638 4.74822C6.3384 4.74822 2.49887 6.62527 0.00793291 9.55128V3.48633H0ZM5.99728 29.1027H0V25.3091C1.77697 27.0994 4.44243 27.7382 7.75839 27.1073C4.46623 25.7034 2.11809 21.9493 2.11809 17.5485C2.11809 11.941 5.93382 7.39029 10.638 7.39029C15.3422 7.39029 19.158 11.941 19.158 17.5485C19.158 21.137 17.5952 24.2917 15.2391 26.0978C14.7076 26.5947 12.1294 28.7162 6.00521 29.1105" fill="#365888"/>
</g>
<defs>
<clipPath id="clip0_273_1548">
<rect width="70" height="34" fill="white"/>
</clipPath>
</defs>
</svg>
